<?xml version="1.0" encoding="utf-8"?>
<!-- Generator: Adobe Illustrator 24.1.2, SVG Export Plug-In . SVG Version: 6.00 Build 0)  -->
<svg version="1.1" id="Capa_1" xmlns="http://www.w3.org/2000/svg" xmlns:xlink="http://www.w3.org/1999/xlink" x="0px" y="0px"
	 width="679.731px" height="70.39px" viewBox="0 0 679.731 70.39" enable-background="new 0 0 679.731 70.39" xml:space="preserve">
<g>
	<g>
		<g>
			<path fill="#FAB626" d="M480.512,22.653c-5.656,0-9.183-3.527-9.183-8.696V0.547h5.169v12.983c0,2.311,1.125,4.439,4.044,4.439
				c2.949,0,4.044-2.128,4.044-4.439V0.547h5.199v13.409C489.786,19.125,486.137,22.653,480.512,22.653z"/>
			<path fill="#FAB626" d="M507.664,22.075l-8.666-14.078h-0.091l0.122,14.078h-5.047V0.547h5.929l8.635,14.048h0.091l-0.122-14.048
				h5.047v21.528H507.664z"/>
			<path fill="#FAB626" d="M518.002,22.075V0.547h5.23v21.528H518.002z"/>
			<path fill="#FAB626" d="M538.344,22.075h-5.199l-8.149-21.528h5.838l4.987,15.264h0.122l4.956-15.264h5.747L538.344,22.075z"/>
			<path fill="#FAB626" d="M548.408,22.075V0.547h14.473v4.409h-9.456V9h8.939v4.166h-8.939v4.47h10.004v4.439H548.408z"/>
			<path fill="#FAB626" d="M578.388,22.075l-4.652-8.544h-1.764v8.544h-5.108V0.547h8.21c4.135,0,8.24,1.581,8.24,6.507
				c0,2.889-1.703,4.956-4.47,5.808l5.625,9.213H578.388z M574.709,4.743h-2.767V9.76h2.463c1.672,0,3.77-0.426,3.77-2.615
				C578.175,5.139,576.26,4.743,574.709,4.743z"/>
			<path fill="#FAB626" d="M598.395,6.142c-0.881-1.125-2.493-1.855-3.831-1.855c-1.337,0-3.01,0.456-3.01,2.159
				c0,1.429,1.277,1.885,3.314,2.524c2.919,0.943,6.689,2.189,6.689,6.477c0,4.956-3.983,7.176-8.24,7.176
				c-3.071,0-6.172-1.125-8.058-3.101l3.406-3.466c1.034,1.307,2.949,2.28,4.652,2.28c1.581,0,2.98-0.608,2.98-2.341
				c0-1.642-1.642-2.159-4.47-3.071c-2.737-0.882-5.504-2.28-5.504-6.172c0-4.774,4.318-6.75,8.331-6.75
				c2.432,0,5.169,0.912,7.054,2.645L598.395,6.142z"/>
			<path fill="#FAB626" d="M604.993,22.075V0.547h5.229v21.528H604.993z"/>
			<path fill="#FAB626" d="M622.689,22.075h-8.027V0.547h7.784c6.111,0,12.314,2.554,12.314,10.703
				C634.761,18.822,628.619,22.075,622.689,22.075z M622.324,4.987h-2.584v12.588h2.463c3.71,0,7.146-1.52,7.146-6.324
				C629.348,6.416,625.912,4.987,622.324,4.987z"/>
			<path fill="#FAB626" d="M652.062,22.075l-1.672-4.226h-8.331l-1.582,4.226h-5.655l9.031-21.528h5.048l8.939,21.528H652.062z
				 M646.284,6.294l-2.736,7.389h5.412L646.284,6.294z"/>
			<path fill="#FAB626" d="M667.66,22.075h-8.027V0.547h7.784c6.111,0,12.314,2.554,12.314,10.703
				C679.731,18.822,673.589,22.075,667.66,22.075z M667.295,4.987h-2.585v12.588h2.463c3.71,0,7.145-1.52,7.145-6.324
				C674.318,6.416,670.883,4.987,667.295,4.987z"/>
		</g>
		<g>
			<path fill="#FAB626" d="M636.17,38.041c0.189,0,0.379,0.039,0.559,0.118l3.331,1.467l3.328-8.658H517.041l-10.16,26.428h126.348
				l4.019-10.455l-2.393-7.068c-0.176-0.521-0.028-1.097,0.378-1.468C635.494,38.166,635.83,38.041,636.17,38.041z M582.15,32.472
				h3.715l-4.446,3.223h-2.775L582.15,32.472z M533.742,46.237h-6.58l-1.203,3.29h7.363l-1.195,3.267h-11.056l5.795-15.846h10.654
				l-1.187,3.245h-6.961l-1.089,2.977h6.58L533.742,46.237z M549.741,52.794h-4.342l-2.589-10.362h-0.067l-3.7,10.362h-3.715
				l5.795-15.846h4.364l2.575,10.34h0.067l3.692-10.34h3.715L549.741,52.794z M569.929,52.794h-9.982l5.795-15.846h3.85
				l-4.576,12.511h6.133L569.929,52.794z M572.39,52.794l5.795-15.846h3.849l-5.795,15.846H572.39z M590.25,52.794l-2.589-10.362
				h-0.067l-3.7,10.362h-3.715l5.795-15.846h4.364l2.575,10.34h0.067l3.692-10.34h3.715l-5.795,15.846H590.25z M609.588,52.794
				h-11.056l5.795-15.846h10.654l-1.187,3.245h-6.961l-1.089,2.977h6.58l-1.121,3.066h-6.58l-1.203,3.29h7.363L609.588,52.794z
				 M623.531,52.794l-0.094-3.111h-6.132l-2.302,3.111h-4.163l12.442-15.846h3.716l0.785,15.846H623.531z"/>
			<polygon fill="#FAB626" points="623.507,46.617 623.526,41.179 619.523,46.617 			"/>
		</g>
		<g>
			<path fill="#FAB626" d="M636.169,39.428l27.235,11.996l-11.068,2.226l7.935,8.669c1.028,1.123,1.098,2.749,0.155,3.611
				c-0.39,0.358-0.895,0.531-1.426,0.531c-0.751,0-1.554-0.346-2.157-1.004l-7.935-8.67l-3.197,10.828L636.169,39.428
				 M636.17,36.653c-0.68,0-1.352,0.25-1.874,0.728c-0.812,0.743-1.108,1.895-0.755,2.937l9.543,28.187
				c0.382,1.128,1.441,1.885,2.628,1.885c0.018,0,0.037,0,0.055-0.001c1.209-0.024,2.265-0.828,2.607-1.989l1.805-6.116l4.617,5.045
				c1.109,1.211,2.642,1.906,4.204,1.906c1.242,0,2.415-0.447,3.301-1.26c1.055-0.965,1.623-2.377,1.558-3.873
				c-0.057-1.335-0.605-2.634-1.542-3.658l-4.616-5.044l6.25-1.257c1.186-0.239,2.081-1.218,2.212-2.421
				c0.131-1.203-0.533-2.351-1.64-2.839l-27.235-11.996C636.929,36.731,636.548,36.653,636.17,36.653L636.17,36.653z"/>
		</g>
	</g>
	<g>
		<path fill="#FFFFFF" d="M0,43.073V11.268h7.727v31.805H0z"/>
		<path fill="#FFFFFF" d="M34.501,43.073L21.699,22.274h-0.135l0.18,20.799h-7.457V11.268h8.76l12.758,20.754h0.135l-0.18-20.754
			h7.457v31.805H34.501z"/>
		<path fill="#FFFFFF" d="M66.58,19.534c-1.303-1.662-3.684-2.74-5.66-2.74s-4.447,0.674-4.447,3.189
			c0,2.111,1.887,2.785,4.896,3.729c4.313,1.393,9.883,3.234,9.883,9.568c0,7.322-5.885,10.602-12.174,10.602
			c-4.537,0-9.119-1.662-11.904-4.582l5.031-5.121c1.527,1.932,4.357,3.369,6.873,3.369c2.336,0,4.402-0.898,4.402-3.459
			c0-2.426-2.426-3.189-6.604-4.537c-4.043-1.303-8.131-3.369-8.131-9.119c0-7.053,6.379-9.973,12.309-9.973
			c3.594,0,7.637,1.348,10.422,3.908L66.58,19.534z"/>
		<path fill="#FFFFFF" d="M89.358,17.827v25.246h-7.682V17.827h-8.984v-6.559h25.65v6.559H89.358z"/>
		<path fill="#FFFFFF" d="M101.849,43.073V11.268h7.727v31.805H101.849z"/>
		<path fill="#FFFFFF" d="M129.747,17.827v25.246h-7.682V17.827h-8.984v-6.559h25.65v6.559H129.747z"/>
		<path fill="#FFFFFF" d="M155.49,43.927c-8.355,0-13.566-5.211-13.566-12.848V11.268h7.637V30.45c0,3.414,1.662,6.559,5.975,6.559
			c4.357,0,5.975-3.145,5.975-6.559V11.268h7.682v19.811C169.191,38.716,163.801,43.927,155.49,43.927z"/>
		<path fill="#FFFFFF" d="M189.005,17.827v25.246h-7.682V17.827h-8.984v-6.559h25.65v6.559H189.005z"/>
		<path fill="#FFFFFF" d="M215.961,43.927c-9.928,0-17.295-6.828-17.295-16.891c0-10.197,7.367-16.621,17.295-16.621
			c9.973,0,17.34,6.424,17.34,16.621C233.301,37.098,225.934,43.927,215.961,43.927z M215.961,17.333
			c-5.391,0-9.074,4.133-9.074,9.703c0,5.75,3.729,9.883,9.074,9.883s9.119-4.133,9.119-9.883
			C225.081,21.466,221.352,17.333,215.961,17.333z"/>
		<path fill="#FFFFFF" d="M249.613,43.073V11.268h21.383v6.514h-13.971v5.975h13.207v6.154h-13.207v6.604h14.779v6.559H249.613z"/>
		<path fill="#FFFFFF" d="M292.651,43.073h-7.682l-12.039-31.805h8.625l7.367,22.551h0.18l7.322-22.551h8.49L292.651,43.073z"/>
		<path fill="#FFFFFF" d="M307.524,43.073V11.268h21.383v6.514h-13.971v5.975h13.207v6.154h-13.207v6.604h14.779v6.559H307.524z"/>
		<path fill="#FFFFFF" d="M351.82,43.073l-6.873-12.623h-2.605v12.623h-7.547V11.268h12.129c6.109,0,12.174,2.336,12.174,9.613
			c0,4.268-2.516,7.322-6.604,8.58l8.311,13.611H351.82z M346.384,17.468h-4.088v7.412h3.639c2.471,0,5.57-0.629,5.57-3.863
			C351.505,18.052,348.675,17.468,346.384,17.468z"/>
		<path fill="#FFFFFF" d="M364.581,43.073V11.268h21.383v6.514h-13.971v5.975H385.2v6.154h-13.207v6.604h14.779v6.559H364.581z"/>
		<path fill="#FFFFFF" d="M408.652,19.534c-1.303-1.662-3.684-2.74-5.66-2.74s-4.447,0.674-4.447,3.189
			c0,2.111,1.887,2.785,4.896,3.729c4.313,1.393,9.883,3.234,9.883,9.568c0,7.322-5.885,10.602-12.174,10.602
			c-4.537,0-9.119-1.662-11.904-4.582l5.031-5.121c1.527,1.932,4.357,3.369,6.873,3.369c2.336,0,4.402-0.898,4.402-3.459
			c0-2.426-2.426-3.189-6.604-4.537c-4.043-1.303-8.131-3.369-8.131-9.119c0-7.053,6.379-9.973,12.309-9.973
			c3.594,0,7.637,1.348,10.422,3.908L408.652,19.534z"/>
		<path fill="#FFFFFF" d="M431.431,17.827v25.246h-7.682V17.827h-8.984v-6.559h25.65v6.559H431.431z"/>
	</g>
</g>
</svg>
