<?xml version="1.0" encoding="utf-8"?>
<!-- Generator: Adobe Illustrator 25.2.1, SVG Export Plug-In . SVG Version: 6.00 Build 0)  -->
<svg version="1.1" id="Layer_1" xmlns="http://www.w3.org/2000/svg" xmlns:xlink="http://www.w3.org/1999/xlink" x="0px" y="0px"
	 viewBox="0 0 612.16 617.401" enable-background="new 0 0 612.16 617.401" xml:space="preserve">
<g>
	<path fill="#FFFFFF" d="M609.198,424.108c-1.764-2.868-4.177-5.182-6.975-6.811c0.759-3.368,1.239-6.772,1.435-10.166
		c0.008-0.139,0.015-0.276,0.02-0.415c0.146-3.983-0.027-8.158-0.53-12.764c-0.854-7.812-6.203-14.399-13.673-16.839
		c-7.473-2.441-15.677-0.277-20.977,5.523c-3.113,3.409-5.557,6.406-7.672,9.415c-1.312,1.803-2.478,3.542-3.522,5.263
		c-0.969-0.262-1.958-0.451-2.96-0.565l8.258-33.794c2.614-10.694-3.907-21.49-14.59-24.154c-11.674-2.91-23.47-5.636-35.23-8.142
		V167.562c0-9.12-6.17-17.085-15-19.365l-71.013-18.335l7.462-17.276c1.289-2.993,2.188-6.027,2.665-8.959
		c0.723-4.374,0.473-8.69-0.745-12.835c-1.284-4.366-3.607-8.302-6.912-11.705c-2.84-2.922-6.436-5.336-10.724-7.191
		c-3.692-1.59-7.359-2.52-10.907-2.78c-2.006-1.65-4.368-2.934-7.015-3.719l-20.053-5.948c-1.582-0.47-3.174-0.711-4.751-0.786
		c-0.226-0.098-0.442-0.21-0.673-0.3c2.038-4.474,2.403-9.628,0.831-14.468c-2.005-6.173-6.849-10.919-12.901-12.864
		c-3.625-5.027-9.428-8.13-15.73-8.284c-3.115-3.876-7.62-6.532-12.713-7.272l-4.112-0.598l-1.839-3.727
		C325.283,4.323,318.33,0,310.717,0c0,0,0,0-0.001,0c-7.612,0-14.565,4.321-17.935,11.148l-1.84,3.729l-4.115,0.598
		c-5.291,0.768-9.945,3.604-13.068,7.729c-4.792,1.051-9.053,3.83-11.935,7.826c-6.053,1.945-10.896,6.691-12.901,12.864
		c-1.611,4.96-1.192,10.251,0.982,14.801c-0.309,0.141-0.629,0.268-0.932,0.417c-0.886,0.441-1.735,0.925-2.557,1.441
		c-2.928-0.564-6.021-0.501-9.089,0.346l-8.007,2.213c-0.857,0.237-1.693,0.529-2.503,0.874c-0.869,0.12-1.738,0.299-2.602,0.537
		l-9.391,2.596c-1.814,0.501-3.524,1.262-5.102,2.227c-1.416,0.175-2.833,0.492-4.233,0.987l-7.833,2.771
		c-5.001,1.769-9.095,5.452-11.38,10.239S183.7,93.63,185.47,98.631l10.596,29.952L120.1,148.196c-8.83,2.28-15,10.245-15,19.365
		V330.66c-11.761,2.506-23.556,5.23-35.232,8.142c-10.683,2.663-17.204,13.46-14.59,24.154l7.603,31.11
		c-2.72-0.385-5.446-0.2-8.024,0.496c-1.045-1.72-2.21-3.459-3.523-5.262c-2.116-3.009-4.558-6.005-7.667-9.411
		c-5.298-5.804-13.502-7.964-20.975-5.529c-7.47,2.438-12.821,9.023-13.677,16.835c-0.506,4.611-0.679,8.792-0.53,12.781
		c0.005,0.135,0.012,0.269,0.02,0.403c0.195,3.394,0.675,6.796,1.433,10.165c-2.793,1.626-5.204,3.936-6.967,6.798
		c-4.074,6.617-3.946,14.995,0.328,21.485c1.214,1.844,2.379,3.517,3.538,5.087c1.172,1.591,2.773,3.687,4.811,5.83
		c1.645,1.752,3.251,3.32,4.86,4.739c-1.196,5.907,0.326,12.14,4.319,16.871c1.088,1.29,2.548,2.991,4.184,4.719
		c0.134,0.141,0.269,0.279,0.405,0.415c1.676,1.669,3.282,3.155,4.925,4.556c1.881,1.6,3.794,3.068,5.687,4.365
		c0.043,0.029,0.086,0.059,0.13,0.088c-0.42,5.965,1.856,11.908,6.367,16.083l0.955,0.884c0.24,0.222,0.485,0.438,0.736,0.647
		l1.002,0.841c0.03,0.024,0.061,0.05,0.091,0.075c0.827,0.685,1.66,1.356,2.493,2.005c1.832,1.428,3.58,2.689,5.34,3.854
		c2.464,1.668,4.866,2.896,6.898,3.881c0.039,0.02,0.079,0.038,0.118,0.058c0.001,0,0.002,0,0.003,0.001
		c0.421,6.135,3.663,11.835,8.929,15.313c1.892,1.25,3.642,2.346,5.35,3.348c0.055,0.032,0.109,0.064,0.165,0.096l0.374,0.217
		c0.765,0.443,1.812,1.052,3.07,1.666c1.033,0.506,2.079,0.991,3.129,1.453c2.278,0.999,4.562,1.865,6.851,2.595
		c0.173,0.054,0.356,0.111,0.549,0.171c1.359,5.944,5.391,11.04,11.068,13.679l0.396,0.185c0.921,0.431,1.842,0.854,2.782,1.244
		c0.128,0.054,0.257,0.105,0.386,0.156c1.017,0.396,2.037,0.781,3.012,1.129c2.22,0.798,4.416,1.494,6.53,2.07
		c0.054,0.015,0.107,0.029,0.162,0.043l0.269,0.071c0.953,0.252,2.259,0.598,3.9,0.894c1.254,0.22,2.484,0.403,3.677,0.547
		c0.205,0.024,0.409,0.048,0.613,0.07c2.457,5.814,7.567,10.213,13.868,11.687c3.656,0.854,8.65,2.022,14.209,2.244
		c2.437,0.12,5.327,0.187,8.494-0.055c3.344,4.933,8.778,8.193,14.878,8.707c2.955,0.249,5.574,0.15,7.678,0.073l0.155-0.006
		c0.047-0.002,0.094-0.004,0.141-0.006c2.368-0.104,4.557-0.279,6.684-0.534c3.187-0.339,5.908-1.037,8.217-1.667
		c0.062-0.018,0.123-0.034,0.185-0.052c2.589-0.733,5.088-1.618,7.43-2.63c0.044-0.019,0.087-0.038,0.13-0.057
		c1.187-0.522,2.582-1.153,4.132-2.028c0.055-0.03,0.109-0.062,0.163-0.093c1.216-0.701,2.425-1.463,3.614-2.278
		c1.585-1.089,3.113-2.27,4.582-3.539c16.31,10.841,33.659,21.023,49.928,29.268c30.772,15.594,39.716,15.594,43.083,15.594
		c3.268,0,11.946,0,41.389-14.74c15.022-7.521,31.171-16.828,46.566-26.802c1.256,1.049,2.562,2.039,3.903,2.962
		c1.16,0.798,2.381,1.568,3.629,2.288c0.049,0.028,0.098,0.056,0.146,0.084c1.531,0.866,2.922,1.501,4.268,2.09
		c2.333,1.009,4.832,1.895,7.429,2.632c0.065,0.019,0.13,0.036,0.195,0.055c2.472,0.675,5.174,1.342,8.215,1.666
		c2.141,0.257,4.33,0.432,6.685,0.535c0.047,0.002,0.093,0.004,0.14,0.006l0.155,0.006c2.106,0.077,4.727,0.175,7.68-0.073
		c6.1-0.515,11.533-3.775,14.876-8.708c3.163,0.241,6.046,0.177,8.482,0.057c5.563-0.222,10.563-1.391,14.223-2.246
		c6.301-1.474,11.411-5.872,13.868-11.687c0.211-0.023,0.422-0.047,0.634-0.072c1.229-0.148,2.472-0.334,3.717-0.555
		c1.552-0.278,2.846-0.62,3.79-0.87l0.303-0.08c0.062-0.016,0.124-0.032,0.186-0.049c2.101-0.573,4.292-1.268,6.455-2.044
		c1.03-0.366,2.055-0.754,3.078-1.154c0.136-0.053,0.271-0.107,0.405-0.163c0.905-0.377,1.792-0.785,2.681-1.199l0.452-0.211
		c5.69-2.635,9.733-7.736,11.095-13.691c0.212-0.064,0.415-0.129,0.609-0.189c2.237-0.713,4.528-1.583,6.753-2.562
		c1.024-0.446,2.09-0.94,3.13-1.449c1.277-0.622,2.328-1.231,3.095-1.676l0.379-0.219c0.059-0.034,0.118-0.068,0.177-0.104
		c1.732-1.018,3.487-2.116,5.365-3.36c5.254-3.48,8.486-9.173,8.908-15.299c0.044-0.021,0.087-0.041,0.13-0.062
		c2.039-0.989,4.445-2.221,6.895-3.882c1.767-1.169,3.515-2.431,5.329-3.845c0.847-0.659,1.682-1.333,2.511-2.021
		c0.028-0.023,0.058-0.048,0.087-0.072l1.001-0.84c0.247-0.208,0.49-0.422,0.728-0.642l0.954-0.883
		c4.512-4.174,6.788-10.117,6.368-16.082c0.046-0.031,0.092-0.062,0.138-0.094c1.911-1.31,3.767-2.734,5.681-4.361
		c1.637-1.393,3.249-2.885,4.931-4.561c0.134-0.133,0.265-0.268,0.395-0.404c1.628-1.717,3.094-3.427,4.188-4.724
		c3.994-4.73,5.517-10.965,4.32-16.872c1.611-1.421,3.219-2.99,4.863-4.745c2.039-2.145,3.639-4.237,4.777-5.785
		c1.19-1.608,2.357-3.285,3.568-5.124C613.134,439.096,613.265,430.724,609.198,424.108z"/>
	<g>
		<g>
			<g>
				<path fill="#112F55" d="M218.945,546.927c-1.746-0.717-3.479-1.536-5.189-2.487c-0.016-0.009-0.027-0.018-0.043-0.027
					c-0.773,0.029-1.556,0.058-2.345,0.086c-0.788,0.029-1.581,0.058-2.381,0.086c-0.399,0.014-0.802,0.031-1.207,0.045
					c-0.403,0.008-0.809-0.016-1.216-0.021c-1.633-0.039-3.287-0.081-4.974-0.122c-0.841-0.019-1.69-0.04-2.546-0.06
					c-0.856,0-1.71-0.128-2.575-0.185c-1.729-0.147-3.482-0.295-5.257-0.447c-1.78-0.105-3.559-0.419-5.364-0.674
					c-1.805-0.265-3.629-0.534-5.471-0.805c-1.824-0.379-3.665-0.76-5.525-1.148c-0.929-0.192-1.86-0.386-2.798-0.579
					c-0.933-0.21-1.855-0.488-2.788-0.73c-1.864-0.502-3.74-1.008-5.629-1.516c-1.876-0.556-3.73-1.221-5.615-1.831
					c-0.941-0.311-1.882-0.623-2.827-0.935c-0.947-0.307-1.859-0.717-2.795-1.072c-1.86-0.735-3.729-1.474-5.603-2.215
					c-1.851-0.798-3.676-1.675-5.524-2.514l-2.766-1.271c-0.911-0.452-1.805-0.941-2.708-1.411
					c-1.804-0.948-3.609-1.897-5.416-2.847l-5.267-3.13c-0.875-0.526-1.763-1.032-2.628-1.574l-2.549-1.694
					c-1.694-1.134-3.407-2.238-5.078-3.393c-1.636-1.205-3.267-2.409-4.897-3.606c-0.807-0.609-1.638-1.182-2.424-1.814
					c-0.781-0.634-1.56-1.268-2.339-1.901c-1.553-1.27-3.118-2.514-4.641-3.789c-1.483-1.323-2.959-2.639-4.425-3.946
					c-0.733-0.654-1.464-1.308-2.192-1.956c-0.698-0.682-1.396-1.362-2.089-2.037c-1.388-1.354-2.765-2.696-4.131-4.028
					c-10.707-10.886-19.458-22.169-26.277-32.247c-6.819-10.088-11.769-18.957-14.964-25.28c-0.808-1.576-1.532-2.983-2.159-4.207
					c-0.615-1.229-1.085-2.302-1.492-3.156c-0.802-1.72-1.227-2.636-1.227-2.636l-1.825,0.831c0,0,0.424,0.93,1.218,2.677
					c0.405,0.869,0.869,1.96,1.482,3.209c0.624,1.244,1.341,2.676,2.146,4.278c0.401,0.802,0.825,1.646,1.269,2.533
					c0.222,0.442,0.45,0.896,0.681,1.359c0.25,0.455,0.504,0.917,0.765,1.393c1.042,1.894,2.17,3.944,3.377,6.136
					c0.583,1.108,1.28,2.196,1.958,3.34c0.685,1.139,1.39,2.311,2.114,3.515c1.406,2.433,3.081,4.869,4.762,7.454
					c6.824,10.266,15.587,21.796,26.391,32.925c1.375,1.366,2.761,2.746,4.158,4.133c0.702,0.69,1.393,1.398,2.114,2.081
					c0.733,0.667,1.47,1.337,2.209,2.007c1.478,1.344,2.968,2.695,4.463,4.055c1.559,1.289,3.123,2.585,4.696,3.889
					c0.787,0.648,1.576,1.302,2.365,1.956c0.819,0.617,1.639,1.234,2.461,1.854c1.647,1.235,3.298,2.476,4.953,3.719
					c1.714,1.162,3.432,2.326,5.154,3.491l2.588,1.745l2.67,1.618c1.786,1.072,3.556,2.179,5.358,3.224
					c1.834,0.987,3.67,1.973,5.503,2.96c0.922,0.478,1.816,1.014,2.762,1.444l2.816,1.328l2.81,1.321
					c0.941,0.429,1.856,0.912,2.823,1.277c3.829,1.528,7.582,3.182,11.453,4.4c0.96,0.329,1.915,0.654,2.869,0.98
					c0.955,0.322,1.897,0.675,2.869,0.92c1.93,0.538,3.849,1.074,5.751,1.605c1.893,0.577,3.819,0.951,5.719,1.368
					c1.903,0.402,3.781,0.841,5.656,1.203c1.887,0.293,3.755,0.584,5.602,0.872c0.924,0.141,1.842,0.286,2.755,0.426
					c0.915,0.137,1.833,0.187,2.741,0.284c3.636,0.331,7.176,0.755,10.633,0.778c1.726,0.057,3.425,0.115,5.094,0.17
					c1.672,0.033,3.312-0.068,4.924-0.095c1.611-0.045,3.191-0.088,4.737-0.131c0.995-0.045,1.971-0.136,2.936-0.226
					C219.34,547.77,219.127,547.355,218.945,546.927"/>
			</g>
		</g>
		<g>
			<g>
				<path fill="#112F55" d="M28.895,393.374c2.213,2.424,4.312,4.906,6.17,7.563c1.928,2.634,3.695,5.417,5.065,8.537
					c0.72,1.546,1.408,3.15,1.968,4.868c0.579,1.711,1.004,3.545,1.42,5.46c0.425,1.911,0.74,3.944,0.939,6.129
					c0.105,1.09,0.157,2.228,0.221,3.387c0.077,1.151,0.124,2.345,0.14,3.583c-0.991-0.749-1.935-1.507-2.833-2.277
					c-0.884-0.772-1.683-1.574-2.46-2.372c-1.543-1.601-2.913-3.225-4.122-4.865c-1.201-1.642-2.143-3.337-3.001-5.013
					c-0.838-1.683-1.565-3.355-2.115-5.045c-1.033-3.403-1.625-6.766-1.816-10.095C28.345,399.88,28.543,396.59,28.895,393.374"/>
			</g>
		</g>
		<g>
			<g>
				<path fill="#112F55" d="M60.076,413.87c0.363,1.412,0.691,2.835,0.971,4.273c0.277,1.442,0.497,2.9,0.728,4.342
					c0.434,2.895,0.533,5.908,0.315,9.004c-0.184,3.077-0.792,6.293-1.962,9.711c-1.141,3.401-2.756,6.95-5.129,10.788
					c-0.962-2.239-1.782-4.344-2.346-6.4c-0.544-2.063-0.922-4.025-1.153-5.888c-0.508-3.702-0.195-7.138,0.444-10.205
					c0.329-1.541,0.766-3.002,1.291-4.397c0.539-1.403,1.201-2.757,1.909-4.046C56.57,418.47,58.261,416.108,60.076,413.87"/>
			</g>
		</g>
		<g>
			<g>
				<path fill="#112F55" d="M20,431.828c0.95,1.441,1.927,2.857,2.942,4.23c1.013,1.376,2.059,2.712,3.239,3.949
					c2.33,2.489,4.806,4.77,7.681,6.61c2.91,1.824,6.108,3.262,9.677,4.161c3.599,0.883,7.656,1.175,12.109,0.812
					c-1.518-1.888-3.086-3.551-4.57-5.088c-1.467-1.55-2.943-2.923-4.429-4.145c-3.019-2.414-5.847-4.343-8.819-5.775
					c-1.477-0.721-2.964-1.33-4.46-1.85c-1.479-0.527-2.934-0.978-4.418-1.347C25.994,432.636,23.003,432.176,20,431.828"/>
			</g>
		</g>
		<g>
			<g>
				<path fill="#112F55" d="M73.609,439.598c0.522,1.358,1.004,2.736,1.452,4.13c0.492,1.363,0.933,2.748,1.309,4.166
					c0.375,1.418,0.686,2.866,0.911,4.354c0.252,1.469,0.459,2.95,0.544,4.497c0.291,6.228-0.689,12.992-4.404,21.271
					c-1.236-2.106-2.271-4.127-3.126-6.069c-0.419-0.978-0.825-1.909-1.13-2.866c-0.307-0.954-0.572-1.891-0.798-2.805
					c-0.901-3.665-1.206-6.984-0.877-10.165c0.289-3.151,1.037-6.044,2.086-8.753C70.667,444.618,72.078,442.049,73.609,439.598"/>
			</g>
		</g>
		<g>
			<g>
				<path fill="#112F55" d="M36.109,462.455c1.115,1.321,2.242,2.621,3.42,3.865c1.222,1.218,2.475,2.388,3.772,3.493
					c1.296,1.104,2.635,2.144,4.027,3.096c1.417,0.937,2.925,1.762,4.47,2.495c6.125,2.975,13.529,4.013,22.213,2.13
					c-1.739-1.68-3.456-3.165-5.158-4.476c-0.842-0.66-1.713-1.253-2.522-1.853c-0.812-0.594-1.62-1.148-2.427-1.663
					c-3.223-2.065-6.455-3.495-9.503-4.596c-3.089-1.072-6.17-1.697-9.244-2.044C42.126,462.531,39.126,462.429,36.109,462.455"/>
			</g>
		</g>
		<g>
			<g>
				<path fill="#112F55" d="M90.221,463.242l0.499,0.968l0.522,0.944c0.343,0.63,0.678,1.267,1.002,1.912
					c0.647,1.291,1.25,2.611,1.79,3.971c0.522,1.383,1.085,2.699,1.525,4.119c0.452,1.408,0.824,2.869,1.11,4.392
					c0.144,0.76,0.255,1.547,0.363,2.33c0.115,0.774,0.206,1.565,0.271,2.378c0.129,1.621,0.153,3.32,0.059,5.111
					c-0.09,1.784-0.318,3.677-0.645,5.634c-0.312,1.944-0.757,3.99-1.351,6.15c-0.785-0.928-1.519-1.845-2.2-2.748
					c-0.651-0.935-1.245-1.865-1.797-2.775c-1.099-1.824-2.008-3.59-2.745-5.304c-1.389-3.513-2.068-6.831-2.264-9.937
					c-0.157-3.143,0.251-6.154,0.939-8.981C88.006,468.558,88.983,465.905,90.221,463.242"/>
			</g>
		</g>
		<g>
			<g>
				<path fill="#112F55" d="M56.107,490.901l0.954,0.884l1.002,0.84c0.671,0.556,1.346,1.1,2.029,1.632
					c1.366,1.064,2.756,2.076,4.181,3.015c1.402,0.96,2.95,1.754,4.484,2.498c1.546,0.736,3.129,1.378,4.755,1.904
					c0.815,0.262,1.63,0.505,2.478,0.698c0.858,0.183,1.726,0.335,2.605,0.453c1.76,0.238,3.565,0.339,5.419,0.281
					c1.859-0.06,3.747-0.259,5.725-0.673c1.993-0.43,4.037-1.038,6.136-1.842c-1.004-0.684-1.995-1.319-2.972-1.909
					c-0.949-0.624-1.879-1.208-2.805-1.747c-1.849-1.078-3.658-1.986-5.436-2.748c-3.468-1.606-6.788-2.652-10.057-3.247
					c-3.225-0.631-6.312-0.885-9.401-0.826C62.14,490.153,59.054,490.514,56.107,490.901"/>
			</g>
		</g>
		<g>
			<g>
				<path fill="#112F55" d="M109.801,484.091c0.865,1.131,1.705,2.285,2.507,3.476l1.182,1.801c0.401,0.586,0.789,1.186,1.165,1.797
					c0.752,1.223,1.45,2.495,2.084,3.832c0.318,0.666,0.611,1.358,0.901,2.05c0.303,0.674,0.585,1.366,0.85,2.078
					c0.527,1.426,0.978,2.931,1.338,4.528c0.37,1.586,0.614,3.321,0.834,5.047c0.411,3.5,0.42,7.445-0.066,11.944
					c-1.825-1.622-3.434-3.222-4.841-4.802c-0.715-0.773-1.332-1.609-1.91-2.424c-0.578-0.817-1.111-1.627-1.598-2.428
					c-0.97-1.61-1.781-3.166-2.402-4.736c-0.597-1.602-1.041-3.171-1.355-4.707C107.191,495.458,108.209,489.581,109.801,484.091"/>
			</g>
		</g>
		<g>
			<g>
				<path fill="#112F55" d="M80.112,516.455c1.468,0.97,2.951,1.906,4.45,2.786c0.756,0.434,1.491,0.879,2.276,1.262
					c0.785,0.384,1.574,0.751,2.369,1.101c1.588,0.697,3.198,1.315,4.83,1.834c0.818,0.259,1.632,0.5,2.469,0.697
					c0.85,0.183,1.704,0.337,2.567,0.461c1.72,0.247,3.464,0.375,5.23,0.359c1.773-0.03,3.531-0.15,5.394-0.547
					c3.692-0.75,7.462-2.159,11.312-4.402c-2.175-1.062-4.268-1.943-6.298-2.669c-1.012-0.359-1.989-0.706-2.942-1.045
					c-0.954-0.325-1.897-0.611-2.824-0.863c-1.854-0.509-3.674-0.851-5.417-1.121c-1.72-0.298-3.399-0.472-5.045-0.54
					C91.84,513.548,85.96,514.733,80.112,516.455"/>
			</g>
		</g>
		<g>
			<g>
				<path fill="#112F55" d="M132.048,501.43l1.494,1.5c0.508,0.48,1.011,0.965,1.506,1.464c0.989,0.996,1.946,2.037,2.861,3.138
					c0.462,0.543,0.897,1.132,1.349,1.68c0.451,0.547,0.892,1.111,1.32,1.696c0.853,1.166,1.656,2.411,2.399,3.746
					c0.37,0.668,0.726,1.36,1.065,2.075c0.351,0.691,0.693,1.395,1.012,2.133c0.644,1.474,1.217,3.059,1.715,4.769
					c0.503,1.704,0.916,3.568,1.27,5.516c0.362,1.923,0.642,3.995,0.828,6.229c-1.058-0.602-2.06-1.208-3.01-1.821
					c-0.929-0.661-1.801-1.339-2.624-2.011c-1.646-1.348-3.089-2.705-4.35-4.069c-2.442-2.882-4.155-5.775-5.317-8.631
					c-1.106-2.963-1.663-5.9-1.866-8.786c-0.102-1.443-0.113-2.877-0.055-4.299C131.716,504.312,131.863,502.859,132.048,501.43"/>
			</g>
		</g>
		<g>
			<g>
				<path fill="#112F55" d="M108.074,538.228c0.804,0.374,1.599,0.755,2.418,1.095c0.829,0.324,1.661,0.638,2.494,0.936
					c1.665,0.598,3.339,1.136,5.018,1.593c0.845,0.223,1.671,0.451,2.535,0.606c0.862,0.152,1.728,0.284,2.594,0.388
					c1.73,0.208,3.464,0.313,5.198,0.294c0.867-0.01,1.733-0.052,2.599-0.127c0.879-0.1,1.764-0.245,2.643-0.423
					c1.76-0.355,3.513-0.855,5.252-1.524c1.744-0.677,3.46-1.491,5.186-2.553c1.736-1.085,3.453-2.358,5.146-3.837
					c-1.177-0.294-2.326-0.548-3.45-0.765c-1.103-0.267-2.174-0.508-3.227-0.703c-2.104-0.396-4.119-0.649-6.059-0.774
					c-3.799-0.411-7.307-0.312-10.622,0.167c-3.251,0.375-6.305,1.127-9.247,2.13c-1.47,0.5-2.91,1.062-4.331,1.665
					C110.815,536.974,109.443,537.584,108.074,538.228"/>
			</g>
		</g>
		<g>
			<g>
				<path fill="#112F55" d="M156.575,514.401c2.328,1.467,4.565,3.193,6.788,4.848c2.211,1.707,4.267,3.808,6.256,5.993
					c0.985,1.127,1.93,2.36,2.832,3.717c0.451,0.676,0.893,1.384,1.323,2.123c0.43,0.732,0.863,1.449,1.275,2.227
					c1.66,3.091,3.137,6.749,4.39,11.11c-2.301-0.825-4.392-1.713-6.286-2.654c-0.471-0.234-0.931-0.474-1.379-0.716
					c-0.448-0.248-0.874-0.535-1.293-0.806c-0.836-0.55-1.624-1.112-2.369-1.68c-1.486-1.14-2.795-2.312-3.943-3.516
					c-1.124-1.275-2.088-2.591-2.917-3.912c-0.827-1.325-1.518-2.667-2.094-4.019c-0.289-0.68-0.551-1.352-0.78-2.043
					c-0.225-0.707-0.424-1.418-0.601-2.128C157.074,520.103,156.729,517.245,156.575,514.401"/>
			</g>
		</g>
		<g>
			<g>
				<path fill="#112F55" d="M139.793,554.985c3.516,0.823,6.98,1.609,10.546,1.739c3.542,0.18,7.001,0.154,10.463-0.692
					c1.717-0.387,3.409-0.898,5.061-1.553c0.827-0.326,1.644-0.688,2.451-1.089c0.807-0.412,1.618-0.906,2.41-1.417
					c3.171-2.065,6.146-4.779,8.854-8.298c-2.41-0.176-4.68-0.213-6.834-0.13c-0.537,0.021-1.067,0.047-1.593,0.083
					c-0.517,0.017-1.029,0.038-1.534,0.055c-1.008,0.045-1.989,0.12-2.949,0.222c-1.916,0.207-3.737,0.522-5.479,0.935
					c-1.719,0.34-3.354,0.762-4.931,1.28c-1.573,0.516-3.084,1.116-4.541,1.782c-0.729,0.333-1.449,0.69-2.15,1.047
					c-0.694,0.338-1.377,0.696-2.051,1.064C144.819,551.496,142.279,553.196,139.793,554.985"/>
			</g>
		</g>
		<g>
			<g>
				<path fill="#112F55" d="M182.773,522.296c1.26,0.583,2.542,1.015,3.806,1.566c1.264,0.539,2.521,1.135,3.762,1.802
					c1.235,0.706,2.48,1.291,3.701,2.049c1.221,0.74,2.428,1.574,3.617,2.516c0.594,0.465,1.185,0.987,1.774,1.483
					c0.589,0.487,1.176,1.004,1.758,1.552c1.162,1.099,2.31,2.327,3.439,3.701c1.132,1.366,2.247,2.919,3.344,4.562
					c1.099,1.617,2.182,3.404,3.244,5.373c-1.208-0.124-2.37-0.279-3.486-0.46c-1.115-0.235-2.184-0.517-3.206-0.808
					c-2.045-0.587-3.907-1.264-5.599-2.017c-3.375-1.666-6.068-3.696-8.234-5.864c-2.156-2.255-3.772-4.805-5.04-7.377
					C184.388,527.779,183.471,525.132,182.773,522.296"/>
			</g>
		</g>
		<g>
			<g>
				<path fill="#112F55" d="M174.498,565.427c1.798,0.151,3.62,0.077,5.416,0.011c1.796-0.079,3.577-0.215,5.33-0.43
					c1.746-0.174,3.49-0.623,5.182-1.085c1.695-0.481,3.352-1.056,4.952-1.747c0.802-0.354,1.588-0.705,2.362-1.142
					c0.775-0.447,1.534-0.925,2.279-1.436c1.484-1.021,2.902-2.175,4.24-3.479c1.337-1.313,2.594-2.735,3.756-4.398
					c1.16-1.691,2.227-3.544,3.189-5.58c-1.198,0.203-2.353,0.43-3.47,0.682c-1.117,0.196-2.197,0.397-3.241,0.634
					c-2.089,0.467-4.041,1.033-5.876,1.683c-3.661,1.141-6.859,2.566-9.745,4.304c-2.874,1.649-5.418,3.46-7.777,5.52
					C178.738,561,176.566,563.259,174.498,565.427"/>
			</g>
		</g>
		<g>
			<g>
				<path fill="#112F55" d="M570.556,426.607c0,0-0.426,0.915-1.228,2.634c-0.408,0.857-0.877,1.929-1.493,3.159
					c-0.628,1.224-1.35,2.631-2.159,4.206c-3.194,6.322-8.145,15.19-14.964,25.279c-6.818,10.078-15.569,21.361-26.276,32.247
					c-1.366,1.332-2.743,2.675-4.13,4.028c-0.695,0.677-1.389,1.355-2.089,2.037c-0.727,0.648-1.457,1.302-2.192,1.957
					c-1.466,1.307-2.942,2.623-4.424,3.946c-1.524,1.275-3.09,2.517-4.642,3.788c-0.779,0.634-1.558,1.266-2.34,1.901
					c-0.784,0.631-1.615,1.204-2.424,1.813c-1.626,1.198-3.258,2.401-4.895,3.606c-1.671,1.155-3.384,2.26-5.078,3.394l-2.549,1.693
					c-0.865,0.54-1.753,1.047-2.627,1.574l-5.269,3.13c-1.805,0.951-3.613,1.899-5.414,2.847c-0.904,0.47-1.797,0.96-2.707,1.412
					l-2.768,1.271c-1.848,0.837-3.672,1.716-5.523,2.515c-1.876,0.739-3.744,1.478-5.606,2.213
					c-0.933,0.355-1.846,0.766-2.793,1.071c-0.945,0.314-1.889,0.628-2.827,0.938c-1.883,0.609-3.74,1.275-5.615,1.83
					c-1.889,0.508-3.767,1.014-5.629,1.516c-0.933,0.242-1.855,0.52-2.788,0.73c-0.938,0.193-1.871,0.387-2.8,0.581
					c-1.857,0.383-3.699,0.767-5.523,1.145c-1.844,0.271-3.667,0.54-5.473,0.805c-1.805,0.255-3.583,0.571-5.362,0.672
					c-1.776,0.153-3.527,0.302-5.259,0.449c-0.863,0.056-1.719,0.184-2.575,0.184c-0.854,0.02-1.703,0.041-2.546,0.061
					c-1.683,0.042-3.341,0.082-4.972,0.122c-0.408,0.005-0.815,0.029-1.217,0.021c-0.403-0.015-0.806-0.03-1.207-0.045
					c-0.8-0.028-1.593-0.058-2.38-0.085c-0.555-0.021-1.101-0.041-1.651-0.062c-0.082,0.111-0.163,0.222-0.251,0.326
					c-1.021,1.222-2.057,2.439-3.119,3.628c1.464,0.04,2.956,0.081,4.476,0.124c1.609,0.028,3.25,0.128,4.922,0.096
					c1.669-0.056,3.37-0.113,5.094-0.17c3.457-0.024,6.999-0.447,10.635-0.779c0.908-0.097,1.826-0.147,2.741-0.283
					c0.913-0.141,1.831-0.286,2.755-0.427c1.848-0.288,3.715-0.579,5.602-0.871c1.873-0.364,3.753-0.802,5.654-1.205
					c1.9-0.416,3.828-0.789,5.719-1.366c1.905-0.534,3.821-1.067,5.753-1.605c0.972-0.246,1.914-0.599,2.868-0.92
					c0.954-0.327,1.912-0.653,2.87-0.98c3.871-1.216,7.625-2.873,11.453-4.401c0.967-0.363,1.882-0.848,2.822-1.276l2.811-1.323
					l2.815-1.325c0.949-0.431,1.841-0.967,2.763-1.447c1.833-0.985,3.669-1.97,5.504-2.959c1.803-1.044,3.57-2.15,5.357-3.223
					l2.671-1.62l2.587-1.743c1.722-1.166,3.439-2.329,5.153-3.491c1.656-1.243,3.309-2.484,4.954-3.72
					c0.822-0.618,1.644-1.237,2.462-1.854c0.79-0.654,1.579-1.306,2.365-1.958c1.572-1.302,3.139-2.598,4.694-3.887
					c1.497-1.36,2.986-2.711,4.465-4.054c0.739-0.671,1.475-1.341,2.211-2.008c0.72-0.682,1.409-1.389,2.111-2.08
					c1.397-1.389,2.784-2.766,4.159-4.132c10.803-11.129,19.567-22.66,26.391-32.926c1.681-2.585,3.357-5.021,4.762-7.454
					c0.723-1.203,1.427-2.376,2.115-3.514c0.675-1.144,1.375-2.233,1.959-3.341c1.205-2.19,2.331-4.24,3.375-6.135
					c0.26-0.475,0.516-0.94,0.765-1.394c0.233-0.462,0.46-0.917,0.682-1.359c0.444-0.886,0.868-1.73,1.271-2.532
					c0.802-1.603,1.52-3.035,2.143-4.278c0.614-1.251,1.078-2.34,1.482-3.209c0.795-1.747,1.218-2.678,1.218-2.678L570.556,426.607z
					"/>
			</g>
		</g>
		<g>
			<g>
				<path fill="#112F55" d="M583.264,396.126c-2.213,2.424-4.313,4.904-6.172,7.563c-1.927,2.634-3.692,5.417-5.063,8.538
					c-0.72,1.545-1.409,3.149-1.968,4.869c-0.58,1.709-1.004,3.544-1.422,5.459c-0.424,1.911-0.74,3.943-0.936,6.129
					c-0.106,1.089-0.159,2.227-0.222,3.387c-0.077,1.15-0.124,2.345-0.14,3.583c0.99-0.748,1.934-1.509,2.833-2.278
					c0.884-0.772,1.683-1.576,2.462-2.372c1.543-1.601,2.911-3.225,4.12-4.864c1.201-1.643,2.145-3.338,3.001-5.013
					c0.838-1.682,1.563-3.356,2.115-5.046c1.035-3.403,1.628-6.766,1.819-10.094C583.814,402.63,583.617,399.343,583.264,396.126"/>
			</g>
		</g>
		<g>
			<g>
				<path fill="#112F55" d="M552.083,416.622c-0.362,1.411-0.693,2.832-0.972,4.273c-0.276,1.441-0.496,2.901-0.727,4.341
					c-0.435,2.896-0.534,5.91-0.315,9.005c0.186,3.077,0.793,6.292,1.962,9.711c1.141,3.401,2.755,6.949,5.128,10.788
					c0.961-2.24,1.783-4.344,2.346-6.398c0.544-2.064,0.922-4.027,1.153-5.89c0.509-3.703,0.197-7.138-0.444-10.206
					c-0.328-1.54-0.766-3.002-1.289-4.396c-0.541-1.404-1.203-2.757-1.909-4.044C555.59,421.222,553.896,418.859,552.083,416.622"/>
			</g>
		</g>
		<g>
			<g>
				<path fill="#112F55" d="M592.159,434.582c-0.949,1.441-1.926,2.855-2.943,4.229c-1.012,1.375-2.057,2.711-3.239,3.948
					c-2.329,2.49-4.804,4.77-7.679,6.611c-2.909,1.824-6.109,3.262-9.679,4.16c-3.597,0.884-7.654,1.175-12.107,0.813
					c1.518-1.889,3.085-3.551,4.571-5.089c1.466-1.55,2.943-2.923,4.428-4.144c3.019-2.415,5.847-4.342,8.82-5.776
					c1.475-0.72,2.963-1.33,4.458-1.849c1.481-0.526,2.934-0.978,4.419-1.35C586.165,435.388,589.155,434.926,592.159,434.582"/>
			</g>
		</g>
		<g>
			<g>
				<path fill="#112F55" d="M538.549,442.351c-0.519,1.357-1.003,2.736-1.454,4.128c-0.489,1.364-0.929,2.75-1.305,4.166
					c-0.376,1.419-0.686,2.867-0.913,4.355c-0.252,1.469-0.458,2.95-0.544,4.497c-0.292,6.225,0.689,12.991,4.404,21.27
					c1.235-2.104,2.272-4.127,3.126-6.07c0.419-0.976,0.825-1.909,1.13-2.866c0.308-0.956,0.573-1.89,0.799-2.805
					c0.899-3.665,1.205-6.984,0.875-10.164c-0.286-3.152-1.037-6.044-2.084-8.754C541.491,447.371,540.08,444.802,538.549,442.351"
					/>
			</g>
		</g>
		<g>
			<g>
				<path fill="#112F55" d="M576.051,465.207c-1.115,1.322-2.242,2.622-3.42,3.865c-1.221,1.217-2.476,2.389-3.772,3.493
					c-1.298,1.104-2.635,2.144-4.027,3.097c-1.416,0.935-2.926,1.762-4.471,2.496c-6.123,2.975-13.526,4.012-22.214,2.131
					c1.74-1.682,3.459-3.167,5.16-4.477c0.841-0.66,1.713-1.253,2.521-1.853c0.813-0.595,1.62-1.15,2.428-1.663
					c3.223-2.065,6.456-3.496,9.505-4.595c3.088-1.072,6.17-1.701,9.242-2.045C570.033,465.283,573.034,465.181,576.051,465.207"/>
			</g>
		</g>
		<g>
			<g>
				<path fill="#112F55" d="M521.938,465.995l-0.498,0.967l-0.523,0.944c-0.344,0.631-0.677,1.268-1.001,1.912
					c-0.646,1.292-1.25,2.611-1.792,3.972c-0.521,1.383-1.085,2.698-1.524,4.118c-0.451,1.408-0.825,2.87-1.11,4.393
					c-0.143,0.759-0.254,1.546-0.362,2.33c-0.116,0.774-0.206,1.565-0.269,2.375c-0.131,1.623-0.156,3.323-0.059,5.112
					c0.089,1.784,0.315,3.677,0.643,5.635c0.311,1.943,0.757,3.989,1.352,6.15c0.784-0.929,1.516-1.845,2.199-2.749
					c0.65-0.935,1.246-1.864,1.796-2.775c1.101-1.824,2.009-3.592,2.745-5.304c1.391-3.512,2.068-6.831,2.265-9.937
					c0.156-3.143-0.251-6.154-0.938-8.981C524.152,471.309,523.176,468.657,521.938,465.995"/>
			</g>
		</g>
		<g>
			<g>
				<path fill="#112F55" d="M556.05,493.655l-0.954,0.883l-1.001,0.84c-0.67,0.556-1.345,1.101-2.029,1.633
					c-1.364,1.064-2.755,2.075-4.182,3.015c-1.398,0.959-2.949,1.754-4.483,2.498c-1.545,0.735-3.128,1.377-4.753,1.905
					c-0.816,0.26-1.631,0.503-2.48,0.697c-0.858,0.183-1.726,0.336-2.605,0.453c-1.76,0.239-3.565,0.339-5.418,0.283
					c-1.859-0.062-3.749-0.26-5.726-0.674c-1.993-0.431-4.036-1.039-6.136-1.843c1.005-0.684,1.995-1.319,2.974-1.909
					c0.947-0.623,1.88-1.208,2.802-1.746c1.849-1.077,3.658-1.987,5.438-2.748c3.47-1.607,6.787-2.652,10.057-3.248
					c3.228-0.631,6.313-0.885,9.401-0.828C550.02,492.904,553.105,493.267,556.05,493.655"/>
			</g>
		</g>
		<g>
			<g>
				<path fill="#112F55" d="M502.357,486.844c-0.865,1.13-1.704,2.285-2.507,3.475l-1.184,1.801
					c-0.399,0.589-0.788,1.186-1.166,1.798c-0.75,1.223-1.448,2.496-2.08,3.833c-0.32,0.665-0.614,1.357-0.904,2.049
					c-0.301,0.675-0.584,1.367-0.849,2.079c-0.526,1.425-0.978,2.93-1.337,4.527c-0.369,1.588-0.614,3.321-0.836,5.047
					c-0.408,3.5-0.417,7.445,0.066,11.944c1.826-1.62,3.436-3.222,4.841-4.802c0.716-0.773,1.334-1.608,1.912-2.424
					c0.578-0.817,1.11-1.626,1.597-2.428c0.97-1.61,1.783-3.166,2.403-4.735c0.598-1.602,1.04-3.171,1.355-4.707
					C504.968,498.209,503.951,492.335,502.357,486.844"/>
			</g>
		</g>
		<g>
			<g>
				<path fill="#112F55" d="M532.046,519.205c-1.466,0.971-2.951,1.909-4.449,2.789c-0.755,0.433-1.491,0.879-2.277,1.261
					c-0.784,0.384-1.574,0.752-2.369,1.099c-1.588,0.698-3.198,1.317-4.829,1.837c-0.818,0.258-1.633,0.5-2.469,0.697
					c-0.849,0.183-1.704,0.337-2.567,0.46c-1.721,0.248-3.465,0.375-5.23,0.359c-1.774-0.028-3.531-0.15-5.395-0.547
					c-3.692-0.749-7.461-2.158-11.31-4.401c2.174-1.063,4.268-1.944,6.295-2.669c1.012-0.358,1.991-0.706,2.943-1.045
					c0.954-0.324,1.896-0.61,2.825-0.862c1.851-0.508,3.674-0.852,5.418-1.121c1.719-0.297,3.396-0.472,5.044-0.54
					C520.319,516.301,526.199,517.485,532.046,519.205"/>
			</g>
		</g>
		<g>
			<g>
				<path fill="#112F55" d="M480.11,504.182l-1.491,1.501c-0.51,0.477-1.013,0.965-1.508,1.463
					c-0.988,0.997-1.946,2.037-2.863,3.139c-0.46,0.542-0.897,1.131-1.346,1.68c-0.453,0.547-0.893,1.111-1.32,1.696
					c-0.856,1.166-1.658,2.41-2.399,3.745c-0.371,0.669-0.727,1.36-1.067,2.077c-0.351,0.69-0.693,1.393-1.012,2.131
					c-0.643,1.474-1.219,3.057-1.717,4.771c-0.501,1.702-0.915,3.567-1.268,5.515c-0.363,1.923-0.643,3.996-0.831,6.229
					c1.058-0.601,2.062-1.209,3.013-1.82c0.927-0.661,1.798-1.339,2.623-2.011c1.645-1.348,3.089-2.705,4.347-4.069
					c2.446-2.884,4.155-5.777,5.319-8.631c1.105-2.965,1.663-5.902,1.866-8.786c0.1-1.446,0.111-2.878,0.056-4.3
					C480.443,507.067,480.296,505.611,480.11,504.182"/>
			</g>
		</g>
		<g>
			<g>
				<path fill="#112F55" d="M504.085,540.98c-0.806,0.373-1.601,0.755-2.419,1.096c-0.829,0.324-1.66,0.638-2.494,0.935
					c-1.665,0.598-3.337,1.135-5.017,1.593c-0.845,0.222-1.672,0.452-2.535,0.606c-0.863,0.154-1.728,0.283-2.594,0.387
					c-1.731,0.208-3.464,0.314-5.198,0.294c-0.868-0.011-1.733-0.053-2.598-0.128c-0.879-0.1-1.764-0.245-2.643-0.422
					c-1.76-0.355-3.515-0.856-5.255-1.525c-1.742-0.677-3.459-1.491-5.185-2.551c-1.735-1.085-3.452-2.359-5.146-3.839
					c1.178-0.293,2.327-0.548,3.45-0.765c1.103-0.268,2.175-0.508,3.228-0.704c2.104-0.397,4.118-0.648,6.059-0.774
					c3.801-0.41,7.307-0.312,10.621,0.167c3.253,0.374,6.306,1.126,9.247,2.131c1.47,0.499,2.913,1.061,4.331,1.665
					C501.342,539.726,502.716,540.336,504.085,540.98"/>
			</g>
		</g>
		<g>
			<g>
				<path fill="#112F55" d="M455.585,517.154c-2.329,1.466-4.567,3.193-6.791,4.847c-2.207,1.708-4.267,3.809-6.254,5.993
					c-0.985,1.13-1.93,2.362-2.834,3.717c-0.451,0.676-0.892,1.384-1.321,2.125c-0.432,0.73-0.863,1.448-1.277,2.225
					c-1.658,3.092-3.133,6.75-4.39,11.11c2.302-0.825,4.394-1.713,6.284-2.654c0.475-0.234,0.935-0.473,1.382-0.715
					c0.448-0.249,0.874-0.536,1.293-0.807c0.834-0.55,1.624-1.109,2.369-1.679c1.486-1.139,2.795-2.313,3.941-3.517
					c1.126-1.274,2.089-2.591,2.918-3.912c0.827-1.325,1.517-2.666,2.095-4.018c0.286-0.68,0.548-1.352,0.779-2.042
					c0.226-0.711,0.424-1.419,0.602-2.129C455.087,522.855,455.431,519.997,455.585,517.154"/>
			</g>
		</g>
		<g>
			<g>
				<path fill="#112F55" d="M472.366,557.738c-3.516,0.822-6.981,1.608-10.546,1.738c-3.543,0.179-7.001,0.155-10.463-0.692
					c-1.719-0.388-3.409-0.899-5.063-1.553c-0.825-0.326-1.644-0.688-2.449-1.089c-0.809-0.411-1.618-0.908-2.41-1.417
					c-3.173-2.065-6.146-4.779-8.855-8.298c2.41-0.176,4.68-0.214,6.834-0.131c0.537,0.02,1.071,0.047,1.594,0.083
					c0.519,0.019,1.031,0.039,1.536,0.056c1.008,0.045,1.989,0.12,2.947,0.222c1.916,0.207,3.738,0.521,5.479,0.935
					c1.721,0.338,3.357,0.761,4.931,1.279c1.576,0.517,3.085,1.116,4.544,1.783c0.729,0.331,1.447,0.689,2.148,1.047
					c0.695,0.339,1.379,0.696,2.052,1.065C467.341,554.248,469.881,555.948,472.366,557.738"/>
			</g>
		</g>
		<g>
			<g>
				<path fill="#112F55" d="M429.384,525.049c-1.259,0.583-2.544,1.014-3.804,1.565c-1.268,0.541-2.521,1.136-3.762,1.8
					c-1.237,0.709-2.482,1.293-3.701,2.051c-1.223,0.74-2.428,1.575-3.617,2.516c-0.596,0.464-1.185,0.986-1.776,1.482
					c-0.587,0.486-1.174,1.005-1.756,1.552c-1.162,1.099-2.31,2.327-3.441,3.702c-1.132,1.364-2.245,2.919-3.345,4.561
					c-1.099,1.618-2.181,3.404-3.244,5.375c1.21-0.126,2.372-0.281,3.488-0.461c1.114-0.235,2.182-0.517,3.207-0.807
					c2.045-0.588,3.905-1.264,5.599-2.018c3.375-1.665,6.068-3.695,8.232-5.863c2.157-2.256,3.772-4.804,5.042-7.378
					C427.769,530.532,428.686,527.885,429.384,525.049"/>
			</g>
		</g>
		<g>
			<g>
				<path fill="#112F55" d="M437.659,568.18c-1.796,0.151-3.62,0.077-5.416,0.011c-1.798-0.079-3.576-0.216-5.326-0.43
					c-1.747-0.174-3.491-0.623-5.183-1.085c-1.695-0.481-3.352-1.056-4.952-1.748c-0.802-0.351-1.588-0.705-2.362-1.142
					c-0.775-0.447-1.536-0.925-2.279-1.436c-1.486-1.022-2.904-2.175-4.242-3.479c-1.337-1.312-2.594-2.734-3.754-4.4
					c-1.16-1.688-2.227-3.541-3.189-5.577c1.196,0.203,2.351,0.429,3.468,0.681c1.117,0.196,2.197,0.397,3.242,0.634
					c2.089,0.466,4.041,1.033,5.876,1.683c3.661,1.142,6.859,2.567,9.745,4.304c2.874,1.649,5.418,3.46,7.776,5.521
					C433.421,563.753,435.591,566.012,437.659,568.18"/>
			</g>
		</g>
		<g>
			<g>
				<path fill="#112F55" d="M308.94,120.096L125.1,167.561v260.312c0,84.007,165.476,169.528,183.84,169.528
					c18.362,0,183.841-85.521,183.841-169.528V167.561L308.94,120.096z"/>
			</g>
		</g>
		<g>
			<g>
				<path fill="#FCB436" d="M308.94,130.612L133.2,175.764v249.062c0,80.307,158.184,162.061,175.739,162.061
					c17.553,0,175.738-81.754,175.738-162.061V175.764L308.94,130.612z"/>
			</g>
		</g>
		<g>
			<g>
				<path fill="#112F55" d="M308.94,134.825l-172.495,44.227v244.558c0,78.822,155.266,159.064,172.495,159.064
					s172.493-80.242,172.493-159.064V179.051L308.94,134.825z"/>
			</g>
		</g>
		<g>
			<g>
				<path fill="#FCB436" d="M308.94,355.039l-159.75,39.712v24.064c0,73.004,143.79,147.316,159.75,147.316
					c15.956,0,159.749-74.312,159.749-147.316v-24.064L308.94,355.039z"/>
			</g>
		</g>
		<g>
			<g>
				
					<rect x="210.971" y="89.392" transform="matrix(0.9427 -0.3335 0.3335 0.9427 -24.3817 78.0519)" fill="#112F55" width="8.309" height="41.284"/>
			</g>
		</g>
		<g>
			<g>
				<polygon fill="#112F55" points="231.152,126.19 220.151,86.397 229.542,83.801 240.197,101.589 234.647,82.391 242.653,80.178 
					253.657,119.969 245.054,122.346 233.148,103.325 239.133,123.984 				"/>
			</g>
		</g>
		<g>
			<g>
				<path fill="#112F55" d="M277.96,105.358c0.666,3.408,0.308,6.137-1.071,8.182c-1.38,2.048-3.885,3.395-7.514,4.04
					c-1.902,0.339-3.559,0.406-4.972,0.201c-1.413-0.205-2.614-0.671-3.606-1.394c-0.988-0.727-1.796-1.722-2.417-2.989
					c-0.621-1.267-1.092-2.792-1.409-4.581l-0.614-3.456l8.152-1.448l0.616,3.458c0.152,0.865,0.43,1.498,0.827,1.905
					c0.401,0.403,1.029,0.52,1.891,0.347c0.94-0.168,1.533-0.497,1.772-0.985c0.24-0.487,0.29-1.125,0.15-1.914
					c-0.127-0.711-0.254-1.338-0.38-1.88c-0.125-0.541-0.297-1.027-0.51-1.454c-0.217-0.426-0.496-0.804-0.84-1.128
					c-0.345-0.325-0.807-0.615-1.387-0.868l-4.265-1.918c-1.663-0.774-2.999-1.522-4.009-2.243c-1.01-0.723-1.81-1.492-2.401-2.308
					c-0.593-0.817-1.035-1.723-1.33-2.721c-0.295-0.997-0.56-2.157-0.797-3.482l-0.154-0.865c-0.333-1.882-0.394-3.521-0.175-4.917
					c0.218-1.397,0.697-2.581,1.434-3.552c0.739-0.974,1.713-1.763,2.924-2.364c1.212-0.6,2.652-1.051,4.324-1.345
					c1.688-0.302,3.196-0.366,4.526-0.196c1.327,0.171,2.478,0.602,3.454,1.289c0.974,0.689,1.78,1.655,2.417,2.9
					c0.636,1.244,1.117,2.784,1.445,4.629l0.65,3.66l-8.094,1.439l-0.695-3.741c-0.134-0.767-0.376-1.334-0.718-1.701
					c-0.342-0.364-0.908-0.477-1.694-0.339c-0.77,0.139-1.262,0.449-1.482,0.933c-0.22,0.486-0.27,1.132-0.147,1.943l0.118,0.662
					c0.07,0.383,0.166,0.772,0.295,1.167c0.131,0.392,0.306,0.766,0.526,1.124c0.222,0.356,0.494,0.685,0.815,0.984
					c0.321,0.301,0.714,0.538,1.182,0.712l3.511,1.366c1.618,0.624,2.965,1.316,4.041,2.077c1.076,0.759,1.971,1.649,2.687,2.671
					c0.716,1.022,1.296,2.193,1.737,3.511C277.217,102.087,277.613,103.616,277.96,105.358"/>
			</g>
		</g>
		<g>
			<g>
				<polygon fill="#112F55" points="293.863,80.445 296.777,113.494 288.472,114.228 285.555,81.178 279.289,81.728 278.576,73.657 
					299.417,71.816 300.131,79.89 				"/>
			</g>
		</g>
		<g>
			<g>
				
					<rect x="305.479" y="71.658" transform="matrix(0.9998 -0.0174 0.0174 0.9998 -1.5582 5.3981)" fill="#112F55" width="8.312" height="41.285"/>
			</g>
		</g>
		<g>
			<g>
				<polygon fill="#112F55" points="333.452,80.409 331.51,113.534 323.186,113.044 325.129,79.922 318.848,79.551 319.322,71.462 
					340.207,72.687 339.733,80.778 				"/>
			</g>
		</g>
		<g>
			<g>
				<path fill="#112F55" d="M367.853,77.001l-5.294,30.946c-0.276,1.616-0.693,3.035-1.246,4.255
					c-0.557,1.223-1.314,2.209-2.276,2.964c-0.96,0.756-2.145,1.255-3.55,1.5c-1.407,0.244-3.092,0.2-5.053-0.138
					c-1.962-0.333-3.565-0.851-4.811-1.55c-1.246-0.698-2.197-1.563-2.85-2.595c-0.655-1.031-1.042-2.214-1.158-3.552
					c-0.118-1.337-0.039-2.812,0.236-4.428l5.296-30.945l8.132,1.393l-5.289,30.915c-0.057,0.329-0.084,0.638-0.09,0.936
					c0,0.297,0.064,0.575,0.186,0.833c0.125,0.26,0.32,0.481,0.586,0.665c0.265,0.185,0.637,0.317,1.119,0.397
					c0.48,0.083,0.877,0.083,1.187-0.004c0.311-0.086,0.564-0.231,0.759-0.434c0.191-0.205,0.342-0.446,0.449-0.724
					c0.106-0.279,0.188-0.582,0.243-0.909l5.289-30.917L367.853,77.001z"/>
			</g>
		</g>
		<g>
			<g>
				<polygon fill="#112F55" points="386.57,90.552 377.135,122.361 369.139,119.991 378.578,88.182 372.546,86.39 374.852,78.622 
					394.904,84.57 392.604,92.342 				"/>
			</g>
		</g>
		<g>
			<g>
				<path fill="#112F55" d="M396.517,96.327c0.641-1.488,1.391-2.789,2.245-3.909c0.854-1.117,1.855-1.967,2.995-2.546
					c1.142-0.579,2.44-0.859,3.896-0.834c1.457,0.021,3.106,0.432,4.952,1.227c1.844,0.798,3.275,1.717,4.29,2.761
					c1.013,1.044,1.704,2.181,2.066,3.409c0.362,1.229,0.43,2.54,0.2,3.928c-0.226,1.389-0.662,2.827-1.302,4.312l-8.007,18.534
					c-0.648,1.507-1.4,2.817-2.256,3.934c-0.854,1.119-1.853,1.968-2.993,2.548c-1.141,0.581-2.44,0.857-3.9,0.835
					c-1.454-0.023-3.106-0.433-4.949-1.23c-1.846-0.796-3.275-1.718-4.292-2.761c-1.015-1.044-1.703-2.183-2.057-3.422
					c-0.36-1.239-0.426-2.553-0.197-3.941c0.229-1.39,0.662-2.826,1.303-4.315L396.517,96.327z M396.956,121.883
					c0.018,0.009,0.036,0.021,0.05,0.038c0.011,0.016,0.029,0.029,0.047,0.036c0.421,0.161,0.8,0.202,1.141,0.125
					c0.342-0.075,0.639-0.222,0.892-0.442c0.256-0.218,0.474-0.484,0.664-0.799c0.186-0.311,0.349-0.618,0.48-0.923l7.989-18.509
					c0.131-0.303,0.243-0.631,0.344-0.981c0.099-0.351,0.138-0.701,0.118-1.048c-0.02-0.348-0.124-0.671-0.313-0.967
					c-0.195-0.295-0.514-0.54-0.961-0.732c-0.054-0.023-0.086-0.048-0.097-0.073c-0.437-0.168-0.822-0.211-1.153-0.133
					c-0.333,0.081-0.63,0.227-0.892,0.443c-0.265,0.217-0.487,0.477-0.673,0.778c-0.183,0.304-0.34,0.608-0.473,0.913l-8,18.534
					c-0.131,0.304-0.245,0.631-0.344,0.983c-0.1,0.351-0.132,0.696-0.098,1.042c0.03,0.342,0.141,0.666,0.328,0.969
					C396.19,121.443,396.51,121.69,396.956,121.883"/>
			</g>
		</g>
		<g>
			<g>
				<path fill="#FCB436" d="M308.94,144.093l-159.75,40.959v153.4c0,72.999,143.824,18.633,159.75,17.634
					c27.014-1.692,159.749,55.366,159.749-17.634v-153.4L308.94,144.093z"/>
			</g>
		</g>
		<g>
			<g>
				<path fill="#112F55" d="M242.338,491.601c2.029,0.84,4.071,1.637,6.121,2.392c3.88,1.416,5.133,4.112,3.889,7.999
					c-1.325,4.078-2.65,8.156-3.976,12.233c-1.239,3.866-4.166,5.295-8.689,3.644c-2.374-0.871-4.734-1.795-7.079-2.767
					C235.848,507.269,239.094,499.435,242.338,491.601 M244.897,496.534c-2.175,5.653-4.349,11.306-6.522,16.961
					c0.827,0.317,1.652,0.629,2.481,0.935c1.407,0.517,2.473,0.195,3.074-1.517c1.472-4.158,2.94-8.315,4.41-12.472
					c0.602-1.714,0.057-2.599-1.205-3.062C246.388,497.101,245.64,496.82,244.897,496.534"/>
			</g>
		</g>
		<g>
			<g>
				<path fill="#112F55" d="M257.865,508.289c1.937,0.543,3.88,1.05,5.828,1.522c-0.285,1.179-0.569,2.355-0.856,3.533
					c-1.991-0.483-3.973-1.001-5.949-1.555c-0.668,2.391-1.337,4.784-2.007,7.176c2.592,0.724,5.196,1.392,7.808,2.001
					c-0.274,1.18-0.55,2.36-0.825,3.54c-4.207-0.981-8.39-2.109-12.538-3.386c2.491-8.104,4.981-16.21,7.473-24.315
					c3.586,1.102,7.203,2.078,10.843,2.926c-0.276,1.181-0.551,2.36-0.825,3.54c-2.356-0.551-4.702-1.15-7.04-1.806
					C259.139,503.74,258.502,506.014,257.865,508.289"/>
			</g>
		</g>
		<g>
			<g>
				<path fill="#112F55" d="M281.267,502.006c3.916,0.561,5.703,3.057,5.285,7.113c-0.029,0.265-0.057,0.531-0.086,0.796
					c-1.336-0.143-2.669-0.303-4.003-0.478c0.047-0.348,0.091-0.696,0.138-1.047c0.235-1.801-0.428-2.582-1.74-2.769
					c-1.316-0.193-2.174,0.369-2.458,2.163c-0.872,5.225,7.477,7.32,6.778,14.493c-0.413,4.038-3.063,6.136-7.691,5.474
					c-4.625-0.681-6.578-3.449-5.824-7.44l0.283-1.535c1.409,0.258,2.823,0.501,4.238,0.726c-0.097,0.599-0.191,1.198-0.288,1.794
					c-0.288,1.796,0.53,2.59,1.994,2.806c1.465,0.213,2.474-0.316,2.713-2.119c0.627-5.13-7.821-7.46-6.431-14.659
					C274.925,503.315,277.353,501.432,281.267,502.006"/>
			</g>
		</g>
		<g>
			<g>
				<path fill="#112F55" d="M289.568,503.285c1.359,0.126,2.718,0.235,4.075,0.326c-0.568,8.461-1.139,16.922-1.708,25.382
					c-1.572-0.106-3.142-0.231-4.712-0.376C288.004,520.173,288.787,511.731,289.568,503.285"/>
			</g>
		</g>
		<g>
			<g>
				<path fill="#112F55" d="M300.059,510.932c-0.163,6.141-0.326,12.28-0.489,18.419c-1.418-0.037-2.834-0.09-4.25-0.16
					l1.253-25.408c1.706,0.084,3.412,0.14,5.12,0.17c1.309,5.1,2.747,10.184,4.32,15.246c-0.041-5.075-0.084-10.151-0.125-15.227
					c1.214-0.009,2.426-0.032,3.638-0.07c0.26,8.476,0.518,16.952,0.775,25.427c-1.617,0.05-3.233,0.079-4.85,0.086
					C303.463,523.284,301.665,517.12,300.059,510.932"/>
			</g>
		</g>
		<g>
			<g>
				<path fill="#112F55" d="M328.926,527.835c-1.579,0.206-3.158,0.392-4.741,0.557c-0.431-1.5-0.856-3.004-1.273-4.509
					c-1.878,0.19-3.758,0.35-5.64,0.479c-0.158,1.554-0.322,3.106-0.492,4.659c-1.445,0.094-2.89,0.171-4.335,0.232
					c1.248-8.539,2.277-17.089,3.09-25.644c1.987-0.134,3.975-0.305,5.96-0.514C323.759,511.385,326.235,519.635,328.926,527.835
					 M317.607,520.878c1.448-0.106,2.897-0.228,4.345-0.367c-1.137-4.2-2.224-8.409-3.259-12.623
					C318.384,512.218,318.021,516.548,317.607,520.878"/>
			</g>
		</g>
		<g>
			<g>
				<path fill="#112F55" d="M327.508,502.354c1.352-0.194,2.702-0.402,4.046-0.63c1.209,7.169,2.414,14.336,3.62,21.503
					c2.514-0.421,5.02-0.897,7.518-1.426c0.251,1.185,0.501,2.37,0.752,3.557c-4.096,0.866-8.214,1.593-12.348,2.181
					C329.9,519.144,328.704,510.749,327.508,502.354"/>
			</g>
		</g>
		<g>
			<g>
				<path fill="#112F55" d="M340.922,506.123c-0.858-3.988,0.795-6.699,4.678-7.707c3.883-1.021,6.667,0.531,7.867,4.427
					c1.278,4.224,2.555,8.442,3.833,12.663c1.196,3.88-0.575,6.89-5.122,8.088c-4.549,1.178-7.548-0.585-8.406-4.555
					C342.823,514.735,341.872,510.427,340.922,506.123 M348.311,518.241c0.433,1.764,1.508,2.213,2.949,1.837
					c1.443-0.376,2.163-1.295,1.676-3.045c-1.214-4.415-2.43-8.831-3.645-13.246c-0.485-1.752-1.477-2.191-2.77-1.852
					c-1.291,0.337-1.941,1.204-1.508,2.969C346.114,509.35,347.213,513.796,348.311,518.241"/>
			</g>
		</g>
		<g>
			<g>
				<path fill="#112F55" d="M376.538,515.102c-1.497,0.621-2.999,1.219-4.507,1.8c-0.811-1.337-1.615-2.677-2.412-4.02
					c-1.792,0.679-3.59,1.329-5.398,1.95c0.247,1.543,0.487,3.088,0.72,4.634c-1.388,0.469-2.779,0.924-4.173,1.361
					c-0.987-8.576-2.188-17.109-3.601-25.587c1.91-0.653,3.812-1.343,5.702-2.069C367.227,500.58,371.781,507.894,376.538,515.102
					 M363.653,511.379c1.389-0.485,2.775-0.985,4.157-1.503c-2.197-3.757-4.347-7.534-6.447-11.336
					C362.176,502.805,362.94,507.086,363.653,511.379"/>
			</g>
		</g>
		<g>
			<g>
				<polygon fill="#ED6A23" points="310.716,20 317.208,33.157 331.728,35.267 321.22,45.508 323.702,59.968 310.716,53.142 
					297.728,59.968 300.208,45.508 289.702,35.267 304.222,33.157 				"/>
			</g>
		</g>
		<g>
			<g>
				<polygon fill="#ED6A23" points="346.825,42.731 349.945,49.056 356.924,50.071 351.874,54.993 353.066,61.943 346.825,58.66 
					340.582,61.943 341.774,54.993 336.725,50.071 343.702,49.056 				"/>
			</g>
		</g>
		<g>
			<g>
				<polygon fill="#ED6A23" points="278.044,42.731 281.167,49.056 288.146,50.071 283.093,54.993 284.287,61.943 278.044,58.66 
					271.803,61.943 272.995,54.993 267.945,50.071 274.924,49.056 				"/>
			</g>
		</g>
		<g>
			<g>
				<path fill="#FFFFFF" d="M407.546,265.01l-1.998,10.583l-15.822,12.734l-28.831-40.424l-33.704-48.953l-14.751-18.707
					l-20.128,39.313l-24.088,42.509l-20.704-23.668c-41.806,50.962-76.305,90.905-88.856,104.127
					c4.913-1.225,10.266-2.757,15.061-2.721c3.593,0.025,7.176-1.32,10.766-1.413c-0.466-0.011,1.627-0.156,1.758-0.174
					c0.629-0.084,1.255-0.168,1.885-0.25c1.57-0.211,3.14-0.421,4.71-0.63c3.14-0.418,6.283-0.837,9.423-1.255
					c22.004-2.934,43.976-5.147,66.172-5.898c21.565-0.729,43.134-0.365,64.704-0.1c15.002,0.185,30.056,1.25,44.945,3.357
					c1.305-0.831,2.838-1.312,4.385-1.312c1.912,0,3.597,0.714,4.908,1.861c0.863-0.314,1.774-0.484,2.693-0.479
					c9.967,0.068,19.771,2.246,29.373,4.772c0.983-0.414,2.038-0.64,3.105-0.625c5.171,0.068,10.306,1.286,15.362,2.269
					c1.232,0.241,2.467,0.463,3.704,0.677c0.055,0.006,0.109,0.014,0.179,0.021c0.666,0.079,1.332,0.159,2.002,0.213
					c1.044,0.082,2.079,0.05,3.121,0.082c0.002,0,0.004,0,0.005,0c0.358-0.116,0.818-0.161,1.158-0.255
					c2.406-0.653,4.764-0.052,6.589,1.32c1.289-0.087,2.582-0.147,3.876-0.169C433.876,318.682,407.546,265.01,407.546,265.01"/>
			</g>
		</g>
		<g>
			<g>
				<path fill="#112F55" d="M160.9,341.562c25.753-20.892,41.115-41.469,41.745-41.474c0.686-0.006-0.895,15.289-0.895,15.289
					l6.741-8.24l-5.495,28.845c1.384-0.184,2.766-0.364,4.152-0.542c1.056-2.017,2.147-4.285,3.158-6.753
					c3.934-9.588,12.447-20.297,13.077-20.575c0.628-0.276,7.749,10.587,7.749,10.587l4.564-9.861c0,0,3.869,18.26,4.329,19.35
					c0.462,1.089,5.411-17.786,5.411-17.786l6.504,19.877c-0.095-21.018,9.847-33.651,9.847-33.651l8.886,5.118l-3.461-14.167
					l7.169,6.77l-0.267,10.647l-9.55,25.332c1.291-0.053,2.584-0.102,3.875-0.147c0.478-0.015,0.956-0.025,1.436-0.039l6.778-14.247
					l9.124,9.487l17.659-20.609l3.515,12.256l-1.828,12.752c1.37,0.009,2.739,0.014,4.109,0.025l2.061-18.269l4.913-7.134
					l4.677,20.985l17.464-33.437l9.774,22.309l-4.12-30.269c0,0,9.914,3.474,15.018,8.075c5.104,4.6,20.656,22.771,20.656,22.771
					l-8.63-22.316l-31.835-30.058l-0.489,15.016l-8.229,9.89l-1.629-14.183l-8.526,3.068l-0.845-24.561l-7.949,5.796l-9.48-17.672
					l7.344-34.367l3.294-10.826l11.768,19.299l32.48,36.247l27.302,40.953c-2.775,17.217,8.798,41.358,8.798,41.358
					c4.105-9.86,1.681-20.215,1.681-20.215c2.985,3.255,7.403,8.953,7.403,8.953c-0.632-1.908,0.274-7.373,0.274-7.373
					l15.428,13.259l12.655,0.178L418.5,315.09l8.311,3.485c-7.577-8.678-16.506-20.266-16.506-20.266l-3.636-15.944l4.087-5.897
					c18.934,38.484,39.092,58.259,47.414,65.356c0.272-0.006,0.546-0.017,0.818-0.021c-25.143-26.476-51.406-82.536-51.406-82.536
					s-5.751,12.145-5.401,13.794c0.351,1.646-13.369,11.105-13.369,11.105s-20.484-31.204-29.159-41.591
					c-8.678-10.387-31.234-45.72-31.234-45.72l-18.353-25.034l-29.502,57.603l-4.136,11.034l-10.707,14.936l-19.775-21.304
					c-25.614,35.427-78.295,92.508-93.003,109.024C153.822,342.882,159.996,341.725,160.9,341.562"/>
			</g>
		</g>
		<g>
			<g>
				<path fill="#FFFFFF" d="M246.469,242.775l16.907,18.037l-5.189,8.001l-3.447-6.522c0,0,0.038,21.836-8.587,34.186l-3.649-23.722
					l-11.269,7.456l0.969-17.33L246.469,242.775z"/>
			</g>
		</g>
		<g>
			<g>
				<path fill="#112F55" d="M514.253,476.546c-137.958-34.005-272.669-34.005-410.629,0c-9.639-39.447-19.28-78.893-28.92-118.337
					c156.848-39.104,311.621-39.104,468.468,0C533.532,397.652,523.893,437.098,514.253,476.546"/>
			</g>
		</g>
		<g>
			<g>
				<path fill="#FCB436" d="M505.833,466.901l-1.925-0.438c-66.231-15.012-130.003-22.309-194.968-22.309
					s-128.739,7.298-194.97,22.309l-1.925,0.438L88.199,364.239l1.898-0.438c73.039-16.771,146.668-25.276,218.842-25.276
					s145.804,8.505,218.843,25.276l1.898,0.438L505.833,466.901z M92.897,367.103l22.109,95.189
					c65.837-14.785,129.294-21.977,193.934-21.977c64.636,0,128.095,7.192,193.934,21.977l22.11-95.189
					c-72.121-16.414-144.801-24.738-216.043-24.738C237.694,342.365,165.016,350.689,92.897,367.103"/>
			</g>
		</g>
		<g>
			<g>
				<polygon fill="#FFFFFF" points="150.472,445.827 136.874,365.67 172.331,359.6 174.799,374.147 154.247,377.633 
					157.259,395.393 174.176,392.522 176.643,407.067 159.728,409.937 162.928,428.805 183.479,425.318 185.939,439.812 				"/>
			</g>
		</g>
		<g>
			<g>
				<polygon fill="#FFFFFF" points="226.656,353.255 222.443,435.611 202.572,437.787 180.587,358.298 195.784,356.635 
					210.383,417.305 211.511,354.911 				"/>
			</g>
		</g>
		<g>
			<g>
				<polygon fill="#FFFFFF" points="240.908,433.905 236.396,352.728 272.311,350.678 273.13,365.408 252.314,366.566 
					253.315,384.552 270.448,383.6 271.266,398.329 254.133,399.282 255.197,418.388 276.009,417.231 276.825,431.909 				"/>
			</g>
		</g>
		<g>
			<g>
				<path fill="#FFFFFF" d="M285.747,431.626l-0.118-81.301l20.742-0.031c3.421-0.005,6.415,0.384,8.982,1.163
					c2.566,0.781,4.705,2.016,6.42,3.707c1.712,1.691,2.997,3.854,3.857,6.488c0.858,2.637,1.291,5.807,1.296,9.514l0.014,9.193
					c0.004,3.279-0.696,6.21-2.1,8.796c-1.404,2.587-3.226,4.788-5.468,6.609c0.997,0.712,1.853,1.459,2.569,2.241
					c0.711,0.783,1.293,1.718,1.74,2.805c0.448,1.086,0.806,2.387,1.076,3.901c0.267,1.513,0.494,3.374,0.675,5.585l0.765,11.06
					c0.181,2.355,0.612,4.341,1.291,5.961c0.68,1.618,1.323,3.036,1.93,4.246l-15.663,0.023c-0.106-0.179-0.294-0.579-0.562-1.201
					c-0.267-0.624-0.544-1.371-0.831-2.245c-0.286-0.871-0.564-1.86-0.833-2.966c-0.27-1.104-0.44-2.225-0.514-3.367l-0.872-11.115
					c-0.109-1.926-0.369-3.502-0.781-4.732c-0.412-1.228-0.931-2.199-1.554-2.91c-0.625-0.711-1.312-1.201-2.061-1.466
					c-0.75-0.268-1.499-0.38-2.245-0.344l-2.621,0.004l0.046,30.361L285.747,431.626z M311.747,371.025
					c-0.003-2.138-0.426-3.678-1.266-4.62c-0.838-0.944-2.254-1.413-4.25-1.412l-5.398,0.01l0.032,21.487l5.396-0.009
					c1.996-0.002,3.413-0.592,4.249-1.767c0.834-1.178,1.251-2.622,1.25-4.333L311.747,371.025z"/>
			</g>
		</g>
		<g>
			<g>
				<polygon fill="#FFFFFF" points="336.007,431.907 340.288,350.717 376.216,352.559 375.439,367.292 354.62,366.195 
					353.673,384.182 370.807,385.086 370.03,399.818 352.896,398.916 351.888,418.026 372.705,419.124 371.934,433.801 				"/>
			</g>
		</g>
		<g>
			<g>
				<path fill="#FFFFFF" d="M421.789,419.14c-0.722,6.769-2.897,11.734-6.53,14.894c-3.634,3.162-8.993,4.366-16.081,3.611
					c-3.828-0.406-6.995-1.201-9.504-2.381c-2.507-1.179-4.464-2.739-5.873-4.681c-1.405-1.942-2.322-4.271-2.75-6.986
					c-0.428-2.714-0.457-5.809-0.088-9.282l0.682-6.432l14.991,1.594l-0.673,6.326c-0.111,1.064-0.134,2.02-0.063,2.869
					c0.07,0.85,0.281,1.571,0.63,2.162c0.349,0.594,0.854,1.069,1.515,1.426c0.661,0.356,1.504,0.59,2.533,0.699
					c2.125,0.226,3.629-0.195,4.515-1.266c0.883-1.072,1.422-2.51,1.613-4.318l0.063-0.584c0.145-1.347,0.227-2.557,0.253-3.63
					c0.023-1.072-0.073-2.075-0.297-3.013c-0.224-0.937-0.612-1.82-1.169-2.652c-0.559-0.828-1.346-1.675-2.365-2.536l-7-5.958
					c-2.666-2.219-4.743-4.258-6.227-6.12c-1.49-1.859-2.573-3.722-3.251-5.587c-0.68-1.864-1.037-3.82-1.069-5.865
					c-0.034-2.046,0.091-4.398,0.374-7.056l0.174-1.647c0.39-3.649,1.164-6.72,2.324-9.214c1.162-2.492,2.682-4.472,4.557-5.941
					c1.878-1.465,4.104-2.437,6.682-2.917c2.575-0.478,5.495-0.544,8.757-0.199c6.696,0.713,11.473,2.869,14.334,6.471
					c2.861,3.6,3.91,8.982,3.149,16.139l-0.745,7.017l-15.045-1.6l0.781-7.337c0.149-1.738-0.061-3.142-0.627-4.204
					c-0.568-1.064-1.756-1.692-3.565-1.885c-1.842-0.196-3.192,0.208-4.05,1.209c-0.861,1.002-1.37,2.426-1.531,4.273l-0.159,1.488
					c-0.145,1.704,0.045,3.445,0.575,5.222c0.528,1.774,1.568,3.267,3.126,4.471l6.173,4.634c2.551,1.956,4.612,3.896,6.179,5.818
					c1.57,1.924,2.764,3.914,3.586,5.973c0.82,2.058,1.316,4.216,1.488,6.474c0.172,2.258,0.156,4.685-0.046,7.278L421.789,419.14z"
					/>
			</g>
		</g>
		<g>
			<g>
				<polygon fill="#FFFFFF" points="460.936,377.69 450.463,443.463 435.418,441.069 445.893,375.294 433.328,373.294 
					435.641,358.777 475.761,365.166 473.448,379.682 				"/>
			</g>
		</g>
	</g>
</g>
</svg>
