<?xml version="1.0" encoding="utf-8"?>
<!-- Generator: Adobe Illustrator 25.2.3, SVG Export Plug-In . SVG Version: 6.00 Build 0)  -->
<svg version="1.1" id="Capa_1" xmlns="http://www.w3.org/2000/svg" xmlns:xlink="http://www.w3.org/1999/xlink" x="0px" y="0px"
	 viewBox="0 0 1517.27 282.728" enable-background="new 0 0 1517.27 282.728" xml:space="preserve">
<g>
	<g>
		<g>
			<path fill="#112F55" d="M273.127,245.449c-14.917,0-24.219-9.303-24.219-22.936v-35.366h13.633v34.243
				c0,6.095,2.967,11.708,10.666,11.708c7.779,0,10.666-5.613,10.666-11.708v-34.243h13.714v35.366
				C297.587,236.147,287.963,245.449,273.127,245.449z"/>
			<path fill="#112F55" d="M344.741,243.926l-22.856-37.13h-0.24l0.321,37.13h-13.312v-56.778h15.638l22.775,37.05h0.241
				l-0.321-37.05h13.312v56.778H344.741z"/>
			<path fill="#112F55" d="M372.007,243.926v-56.778H385.8v56.778H372.007z"/>
			<path fill="#112F55" d="M425.657,243.926h-13.713l-21.492-56.778h15.398l13.152,40.258h0.321l13.072-40.258h15.157
				L425.657,243.926z"/>
			<path fill="#112F55" d="M452.201,243.926v-56.778h38.173v11.628h-24.941v10.666h23.577v10.987h-23.577v11.789h26.384v11.708
				H452.201z"/>
			<path fill="#112F55" d="M531.273,243.926l-12.27-22.535h-4.651v22.535h-13.473v-56.778h21.653
				c10.906,0,21.732,4.17,21.732,17.161c0,7.619-4.491,13.072-11.788,15.317l14.836,24.299H531.273z M521.569,198.214h-7.298v13.232
				h6.496c4.411,0,9.944-1.123,9.944-6.896C530.711,199.257,525.659,198.214,521.569,198.214z"/>
			<path fill="#112F55" d="M584.041,201.903c-2.325-2.967-6.576-4.892-10.105-4.892c-3.528,0-7.939,1.203-7.939,5.694
				c0,3.769,3.369,4.972,8.742,6.656c7.698,2.486,17.642,5.774,17.642,17.082c0,13.072-10.505,18.926-21.733,18.926
				c-8.099,0-16.279-2.967-21.252-8.18l8.983-9.142c2.726,3.448,7.779,6.014,12.269,6.014c4.17,0,7.859-1.604,7.859-6.175
				c0-4.33-4.33-5.694-11.788-8.1c-7.218-2.326-14.516-6.014-14.516-16.279c0-12.591,11.388-17.804,21.974-17.804
				c6.416,0,13.634,2.406,18.605,6.977L584.041,201.903z"/>
			<path fill="#112F55" d="M601.443,243.926v-56.778h13.793v56.778H601.443z"/>
			<path fill="#112F55" d="M648.116,243.926h-21.171v-56.778h20.53c16.119,0,32.479,6.736,32.479,28.228
				C679.954,235.345,663.754,243.926,648.116,243.926z M647.153,198.856h-6.815v33.201h6.495c9.784,0,18.846-4.009,18.846-16.681
				C665.679,202.625,656.617,198.856,647.153,198.856z"/>
			<path fill="#112F55" d="M725.585,243.926l-4.411-11.147h-21.973l-4.172,11.147h-14.916l23.818-56.778h13.313l23.577,56.778
				H725.585z M710.347,202.304l-7.217,19.488h14.275L710.347,202.304z"/>
			<path fill="#112F55" d="M766.723,243.926h-21.171v-56.778h20.53c16.119,0,32.479,6.736,32.479,28.228
				C798.561,235.345,782.363,243.926,766.723,243.926z M765.762,198.856h-6.817v33.201h6.496c9.784,0,18.845-4.009,18.845-16.681
				C784.286,202.625,775.225,198.856,765.762,198.856z"/>
		</g>
		<g>
			<g>
				<polygon fill="#112F55" points="1147.685,248.459 814.446,248.459 841.243,178.755 1174.482,178.755 				"/>
			</g>
			<g>
				<path fill="#FFFFFF" d="M851.872,236.32l15.284-41.793h28.099l-3.13,8.559h-18.358l-2.871,7.851h17.355l-2.958,8.087h-17.355
					l-3.173,8.678h19.421l-3.152,8.618H851.872z"/>
				<path fill="#FFFFFF" d="M916.037,236.32l-6.829-27.33h-0.177l-9.759,27.33h-9.799l15.284-41.793h11.511l6.791,27.272h0.177
					l9.737-27.272h9.799l-15.284,41.793H916.037z"/>
				<path fill="#FFFFFF" d="M954.405,236.32l15.284-41.793h10.153l-12.068,32.998h16.175l-3.217,8.795H954.405z"/>
				<path fill="#FFFFFF" d="M987.225,236.32l15.285-41.793h10.153l-15.285,41.793H987.225z M1011.038,191.222h-7.32l9.248-8.501
					h9.798L1011.038,191.222z"/>
				<path fill="#FFFFFF" d="M1034.331,236.32l-6.828-27.33h-0.177l-9.759,27.33h-9.799l15.285-41.793h11.51l6.791,27.272h0.177
					l9.738-27.272h9.798l-15.283,41.793H1034.331z"/>
				<path fill="#FFFFFF" d="M1056.171,236.32l15.283-41.793h28.099l-3.13,8.559h-18.359l-2.871,7.851h17.356l-2.957,8.087h-17.356
					l-3.173,8.678h19.421l-3.152,8.618H1056.171z"/>
				<path fill="#FFFFFF" d="M1122.108,236.32l-0.247-8.205h-16.174l-6.071,8.205h-10.979l32.815-41.793h9.8l2.071,41.793H1122.108z
					 M1122.095,205.685l-10.559,14.344h10.508L1122.095,205.685z"/>
			</g>
		</g>
		<g>
			<g>
				<path fill="#FFFFFF" d="M1180.611,279.069c-1.566,0-2.962-0.998-3.467-2.486l-25.17-74.341
					c-0.464-1.374-0.074-2.894,0.997-3.873c0.688-0.63,1.573-0.96,2.471-0.96c0.498,0,1,0.102,1.475,0.311l71.83,31.638
					c1.46,0.644,2.335,2.158,2.163,3.745c-0.173,1.586-1.352,2.878-2.916,3.192l-22.838,4.594l16.552,18.084
					c1.891,2.066,2.996,4.669,3.109,7.332c0.123,2.862-0.943,5.545-2.928,7.362c-1.659,1.521-3.874,2.359-6.232,2.359l0,0
					c-3.098,0-6.154-1.398-8.387-3.836l-16.553-18.088l-6.596,22.344c-0.453,1.53-1.843,2.592-3.438,2.623
					C1180.659,279.069,1180.635,279.069,1180.611,279.069z"/>
			</g>
			<g>
				<path fill="#112F55" d="M1155.441,201.068l71.831,31.638l-29.191,5.872l20.927,22.865c2.711,2.961,2.895,7.25,0.41,9.524
					c-1.03,0.943-2.362,1.399-3.762,1.399c-1.981,0-4.099-0.913-5.688-2.648l-20.927-22.868l-8.431,28.56L1155.441,201.068
					 M1155.442,193.749c-1.794,0-3.566,0.66-4.942,1.92c-2.14,1.959-2.922,4.997-1.991,7.746l25.17,74.342
					c1.007,2.976,3.8,4.971,6.932,4.971c0.048,0,0.096-0.001,0.145-0.001c3.19-0.063,5.973-2.185,6.875-5.245l4.762-16.13
					l12.177,13.307c2.926,3.195,6.967,5.026,11.088,5.026c3.276,0,6.369-1.18,8.706-3.323c2.781-2.545,4.281-6.269,4.11-10.214
					c-0.152-3.521-1.596-6.947-4.068-9.647l-12.174-13.303l16.483-3.316c3.129-0.629,5.489-3.213,5.834-6.385
					c0.345-3.172-1.406-6.202-4.326-7.488l-71.831-31.638C1157.444,193.953,1156.44,193.749,1155.442,193.749L1155.442,193.749z"/>
			</g>
		</g>
	</g>
	<g>
		<path fill="#1A2D52" d="M0,116.323V3.04h27.521v113.283H0z"/>
		<path fill="#1A2D52" d="M119.68,116.323L74.079,42.241h-0.48l0.641,74.082H47.679V3.04h31.2l45.441,73.922h0.479L124.16,3.04
			h26.561v113.283H119.68z"/>
		<path fill="#1A2D52" d="M230.718,32.481c-4.64-5.92-13.12-9.76-20.16-9.76s-15.841,2.4-15.841,11.36
			c0,7.52,6.721,9.92,17.44,13.28c15.36,4.96,35.201,11.52,35.201,34.081c0,26.081-20.961,37.761-43.361,37.761
			c-16.16,0-32.48-5.92-42.4-16.321l17.92-18.24c5.44,6.88,15.521,12,24.48,12c8.32,0,15.681-3.2,15.681-12.32
			c0-8.64-8.641-11.36-23.521-16.16c-14.4-4.64-28.961-12-28.961-32.481c0-25.121,22.721-35.521,43.841-35.521
			c12.801,0,27.201,4.8,37.121,13.92L230.718,32.481z"/>
		<path fill="#1A2D52" d="M308.639,26.401v89.922h-27.36V26.401h-32.001V3.04h91.362v23.36H308.639z"/>
		<path fill="#1A2D52" d="M349.917,116.323V3.04h27.521v113.283H349.917z"/>
		<path fill="#1A2D52" d="M446.076,26.401v89.922h-27.36V26.401h-32.001V3.04h91.362v23.36H446.076z"/>
		<path fill="#1A2D52" d="M534.556,119.363c-29.761,0-48.321-18.561-48.321-45.761V3.04h27.2v68.322
			c0,12.16,5.92,23.361,21.28,23.361c15.521,0,21.281-11.2,21.281-23.361V3.04h27.36v70.562
			C583.356,100.802,564.156,119.363,534.556,119.363z"/>
		<path fill="#1A2D52" d="M650.713,26.401v89.922h-27.36V26.401h-32.001V3.04h91.362v23.36H650.713z"/>
		<path fill="#1A2D52" d="M743.515,119.363c-35.361,0-61.602-24.321-61.602-60.161C681.913,22.88,708.153,0,743.515,0
			c35.521,0,61.761,22.88,61.761,59.201C805.275,95.042,779.035,119.363,743.515,119.363z M743.515,24.641
			c-19.201,0-32.321,14.72-32.321,34.561c0,20.48,13.28,35.201,32.321,35.201c19.04,0,32.48-14.72,32.48-35.201
			C775.995,39.361,762.715,24.641,743.515,24.641z"/>
		<path fill="#1A2D52" d="M856.953,116.323V3.04h76.161v23.201h-49.761v21.281h47.041v21.92h-47.041v23.521h52.641v23.361H856.953z"
			/>
		<path fill="#1A2D52" d="M1007.033,116.323h-27.361L936.791,3.04h30.721l26.241,80.322h0.64l26.081-80.322h30.24L1007.033,116.323z
			"/>
		<path fill="#1A2D52" d="M1056.791,116.323V3.04h76.161v23.201h-49.761v21.281h47.041v21.92h-47.041v23.521h52.641v23.361H1056.791
			z"/>
		<path fill="#1A2D52" d="M1211.352,116.323l-24.48-44.961h-9.28v44.961h-26.88V3.04h43.2c21.761,0,43.361,8.32,43.361,34.241
			c0,15.2-8.96,26.081-23.521,30.561l29.601,48.481H1211.352z M1191.991,25.12h-14.561v26.401h12.961c8.8,0,19.84-2.24,19.84-13.76
			C1210.231,27.201,1200.151,25.12,1191.991,25.12z"/>
		<path fill="#1A2D52" d="M1253.589,116.323V3.04h76.161v23.201h-49.761v21.281h47.041v21.92h-47.041v23.521h52.641v23.361H1253.589
			z"/>
		<path fill="#1A2D52" d="M1407.349,32.481c-4.64-5.92-13.12-9.76-20.16-9.76s-15.841,2.4-15.841,11.36
			c0,7.52,6.721,9.92,17.44,13.28c15.36,4.96,35.201,11.52,35.201,34.081c0,26.081-20.961,37.761-43.361,37.761
			c-16.16,0-32.48-5.92-42.4-16.321l17.92-18.24c5.44,6.88,15.521,12,24.48,12c8.32,0,15.681-3.2,15.681-12.32
			c0-8.64-8.641-11.36-23.521-16.16c-14.4-4.64-28.961-12-28.961-32.481c0-25.121,22.721-35.521,43.841-35.521
			c12.801,0,27.201,4.8,37.121,13.92L1407.349,32.481z"/>
		<path fill="#1A2D52" d="M1485.269,26.401v89.922h-27.36V26.401h-32.001V3.04h91.362v23.36H1485.269z"/>
	</g>
</g>
</svg>
