<svg width="883" height="383" viewBox="0 0 883 383" fill="none" xmlns="http://www.w3.org/2000/svg">
<g clip-path="url(#clip0)">
<path d="M396.944 193.385C383.428 193.385 375 184.916 375 172.506V140.309H387.352V171.48C387.352 177.029 390.04 182.138 397.015 182.138C404.062 182.138 406.679 177.029 406.679 171.48V140.309H419.103V172.503C419.105 184.914 410.385 193.385 396.944 193.385Z" fill="#112F55"/>
<path d="M461.827 191.997L441.118 158.196H440.901L441.192 191.997H429.132V140.309H443.3L463.934 174.037H464.152L463.86 140.309H475.92V191.997H461.827Z" fill="#112F55"/>
<path d="M486.53 191.997V140.309H499.028V191.997H486.53Z" fill="#112F55"/>
<path d="M535.14 191.997H522.716L503.243 140.309H517.194L529.111 176.957H529.402L541.245 140.309H554.978L535.14 191.997Z" fill="#112F55"/>
<path d="M559.189 191.997V140.309H593.774V150.894H571.178V160.604H592.538V170.606H571.178V181.339H595.083V191.997H559.189Z" fill="#112F55"/>
<path d="M630.829 191.997L619.713 171.483H615.498V191.997H603.292V140.309H622.91C632.791 140.309 642.601 144.104 642.601 155.932C642.601 162.868 638.531 167.831 631.919 169.877L645.361 191.997H630.829V191.997ZM622.038 150.383H615.426V162.429H621.312C625.307 162.429 630.32 161.406 630.32 156.15C630.32 151.334 625.744 150.383 622.038 150.383Z" fill="#112F55"/>
<path d="M678.638 153.742C676.533 151.041 672.681 149.288 669.484 149.288C666.289 149.288 662.291 150.383 662.291 154.472C662.291 157.903 665.343 158.998 670.21 160.532C677.185 162.796 686.194 165.788 686.194 176.083C686.194 187.982 676.677 193.313 666.504 193.313C659.165 193.313 651.755 190.611 647.248 185.867L655.387 177.545C657.858 180.683 662.434 183.02 666.504 183.02C670.282 183.02 673.625 181.56 673.625 177.399C673.625 173.456 669.701 172.215 662.943 170.025C656.403 167.908 649.791 164.551 649.791 155.207C649.791 143.744 660.109 139 669.699 139C675.51 139 682.051 141.19 686.555 145.351L678.638 153.742Z" fill="#112F55"/>
<path d="M694.405 191.997V140.309H706.9V191.997H694.405Z" fill="#112F55"/>
<path d="M736.692 191.997H717.51V140.309H736.111C750.714 140.309 765.537 146.441 765.537 166.006C765.539 184.186 750.862 191.997 736.692 191.997ZM735.819 150.969H729.645V181.192H735.53C744.396 181.192 752.607 177.543 752.607 166.009C752.604 154.4 744.393 150.969 735.819 150.969Z" fill="#112F55"/>
<path d="M806.882 191.997L802.886 181.85H782.979L779.198 191.997H765.685L787.266 140.309H799.328L820.689 191.997H806.882ZM793.075 154.107L786.537 171.848H799.469L793.075 154.107Z" fill="#112F55"/>
<path d="M844.155 191.997H824.974V140.309H843.574C858.177 140.309 873 146.441 873 166.006C873 184.186 858.323 191.997 844.155 191.997ZM843.283 150.969H837.106V181.192H842.991C851.857 181.192 860.065 177.543 860.065 166.009C860.065 154.4 851.857 150.969 843.283 150.969Z" fill="#112F55"/>
<path d="M768.906 230.331C769.358 230.331 769.812 230.424 770.242 230.614L778.202 234.136L786.154 213.349H484.234L459.956 276.802H761.878L771.482 251.699L765.764 234.729C765.343 233.478 765.697 232.095 766.667 231.205C767.291 230.631 768.094 230.331 768.906 230.331ZM639.819 216.96H648.697L638.072 224.698H631.441L639.819 216.96ZM524.143 250.009H508.419L505.544 257.908H523.139L520.284 265.752H493.864L507.712 227.707H533.171L530.334 235.498H513.7L511.098 242.645H526.822L524.143 250.009ZM562.374 265.752H551.999L545.812 240.873H545.652L536.81 265.752H527.933L541.781 227.707H552.209L558.362 252.533H558.522L567.345 227.707H576.222L562.374 265.752ZM610.616 265.752H586.763L600.61 227.707H609.81L598.876 257.745H613.531L610.616 265.752ZM616.497 265.752L630.344 227.707H639.542L625.694 265.752H616.497ZM659.175 265.752L652.988 240.873H652.828L643.987 265.752H635.109L648.957 227.707H659.385L665.539 252.533H665.699L674.521 227.707H683.399L669.551 265.752H659.175ZM705.385 265.752H678.966L692.814 227.707H718.273L715.436 235.498H698.802L696.2 242.645H711.923L709.245 250.007H693.521L690.646 257.906H708.241L705.385 265.752ZM738.704 265.752L738.479 258.283H723.826L718.325 265.752H708.377L738.109 227.707H746.988L748.864 265.752H738.704Z" fill="#112F55"/>
<path d="M738.646 250.922L738.692 237.865L729.126 250.922H738.646Z" fill="#112F55"/>
<path d="M768.904 233.661L833.985 262.463L807.536 267.808L826.498 288.622C828.955 291.318 829.122 295.222 826.868 297.292C825.937 298.151 824.73 298.567 823.461 298.567C821.666 298.567 819.747 297.736 818.306 296.156L799.345 275.34L791.705 301.337L768.904 233.661ZM768.906 226.998C767.281 226.998 765.675 227.598 764.428 228.746C762.488 230.53 761.78 233.296 762.624 235.798L785.428 303.474C786.341 306.182 788.871 308 791.708 308C791.751 308 791.796 308 791.839 307.998C794.728 307.94 797.252 306.01 798.069 303.222L802.382 288.538L813.415 300.651C816.065 303.558 819.728 305.227 823.461 305.227C826.429 305.227 829.232 304.154 831.349 302.202C833.87 299.885 835.227 296.495 835.072 292.903C834.936 289.697 833.626 286.578 831.387 284.12L820.357 272.009L835.292 268.991C838.126 268.417 840.265 266.067 840.578 263.179C840.891 260.29 839.304 257.534 836.659 256.362L771.578 227.56C770.72 227.186 769.809 226.998 768.906 226.998Z" fill="#112F55"/>
<path d="M629.61 352.21C628.07 352.21 626.83 351.83 625.89 351.07C624.95 350.29 624.48 349.27 624.48 348.01C624.48 346.55 625.03 345.37 626.13 344.47C627.25 343.57 628.74 343.12 630.6 343.12C631.46 343.12 632.31 343.24 633.15 343.48C633.99 343.7 634.74 344.01 635.4 344.41L635.79 342.64C636.07 341.28 635.91 340.26 635.31 339.58C634.71 338.9 633.68 338.56 632.22 338.56C631.58 338.56 630.9 338.66 630.18 338.86C629.46 339.04 628.64 339.33 627.72 339.73L627.12 337.96C628.14 337.52 629.1 337.2 630 337C630.92 336.8 631.78 336.7 632.58 336.7C634.6 336.7 636.09 337.22 637.05 338.26C638.01 339.28 638.3 340.69 637.92 342.49L635.91 352H633.78L634.05 350.77C633.37 351.25 632.66 351.61 631.92 351.85C631.18 352.09 630.41 352.21 629.61 352.21ZM626.55 347.8C626.55 348.64 626.87 349.3 627.51 349.78C628.15 350.26 629.04 350.5 630.18 350.5C630.96 350.5 631.7 350.38 632.4 350.14C633.12 349.88 633.8 349.49 634.44 348.97L635.04 346.15C634.46 345.67 633.8 345.32 633.06 345.1C632.32 344.86 631.49 344.74 630.57 344.74C629.41 344.74 628.45 345.03 627.69 345.61C626.93 346.19 626.55 346.92 626.55 347.8ZM646.196 330.49L641.636 352H639.476L643.946 331L646.196 330.49ZM657.178 352.21C655.638 352.21 654.398 351.83 653.458 351.07C652.518 350.29 652.048 349.27 652.048 348.01C652.048 346.55 652.598 345.37 653.698 344.47C654.818 343.57 656.308 343.12 658.168 343.12C659.028 343.12 659.878 343.24 660.718 343.48C661.558 343.7 662.308 344.01 662.968 344.41L663.358 342.64C663.638 341.28 663.478 340.26 662.878 339.58C662.278 338.9 661.248 338.56 659.788 338.56C659.148 338.56 658.468 338.66 657.748 338.86C657.028 339.04 656.208 339.33 655.288 339.73L654.688 337.96C655.708 337.52 656.668 337.2 657.568 337C658.488 336.8 659.348 336.7 660.148 336.7C662.168 336.7 663.658 337.22 664.618 338.26C665.578 339.28 665.868 340.69 665.488 342.49L663.478 352H661.348L661.618 350.77C660.938 351.25 660.228 351.61 659.488 351.85C658.748 352.09 657.978 352.21 657.178 352.21ZM654.118 347.8C654.118 348.64 654.438 349.3 655.078 349.78C655.718 350.26 656.608 350.5 657.748 350.5C658.528 350.5 659.268 350.38 659.968 350.14C660.688 349.88 661.368 349.49 662.008 348.97L662.608 346.15C662.028 345.67 661.368 345.32 660.628 345.1C659.888 344.86 659.058 344.74 658.138 344.74C656.978 344.74 656.018 345.03 655.258 345.61C654.498 346.19 654.118 346.92 654.118 347.8ZM673.764 330.49L669.204 352H667.044L671.514 331L673.764 330.49ZM680.761 350.32C681.481 350.32 682.191 350.18 682.891 349.9C683.611 349.62 684.321 349.22 685.021 348.7L686.071 350.26C685.211 350.94 684.311 351.45 683.371 351.79C682.431 352.11 681.471 352.27 680.491 352.27C679.531 352.27 678.631 352.1 677.791 351.76C676.971 351.42 676.261 350.95 675.661 350.35C675.081 349.73 674.621 349 674.281 348.16C673.941 347.32 673.771 346.41 673.771 345.43C673.771 344.25 673.991 343.13 674.431 342.07C674.891 341.01 675.491 340.09 676.231 339.31C676.991 338.51 677.881 337.88 678.901 337.42C679.921 336.96 680.991 336.73 682.111 336.73C683.211 336.73 684.281 336.99 685.321 337.51C686.381 338.03 687.221 338.72 687.841 339.58L686.251 341.05C685.711 340.31 685.071 339.74 684.331 339.34C683.611 338.94 682.821 338.74 681.961 338.74C681.161 338.74 680.391 338.92 679.651 339.28C678.911 339.62 678.271 340.09 677.731 340.69C677.191 341.29 676.751 342 676.411 342.82C676.091 343.62 675.931 344.46 675.931 345.34C675.931 346.72 676.391 347.9 677.311 348.88C678.251 349.84 679.401 350.32 680.761 350.32ZM693.272 352.21C691.732 352.21 690.492 351.83 689.552 351.07C688.612 350.29 688.142 349.27 688.142 348.01C688.142 346.55 688.692 345.37 689.792 344.47C690.912 343.57 692.402 343.12 694.262 343.12C695.122 343.12 695.972 343.24 696.812 343.48C697.652 343.7 698.402 344.01 699.062 344.41L699.452 342.64C699.732 341.28 699.572 340.26 698.972 339.58C698.372 338.9 697.342 338.56 695.882 338.56C695.242 338.56 694.562 338.66 693.842 338.86C693.122 339.04 692.302 339.33 691.382 339.73L690.782 337.96C691.802 337.52 692.762 337.2 693.662 337C694.582 336.8 695.442 336.7 696.242 336.7C698.262 336.7 699.752 337.22 700.712 338.26C701.672 339.28 701.962 340.69 701.582 342.49L699.572 352H697.442L697.712 350.77C697.032 351.25 696.322 351.61 695.582 351.85C694.842 352.09 694.072 352.21 693.272 352.21ZM690.212 347.8C690.212 348.64 690.532 349.3 691.172 349.78C691.812 350.26 692.702 350.5 693.842 350.5C694.622 350.5 695.362 350.38 696.062 350.14C696.782 349.88 697.462 349.49 698.102 348.97L698.702 346.15C698.122 345.67 697.462 345.32 696.722 345.1C695.982 344.86 695.152 344.74 694.232 344.74C693.072 344.74 692.112 345.03 691.352 345.61C690.592 346.19 690.212 346.92 690.212 347.8ZM703.138 352L706.318 336.97H708.478L708.148 338.47C708.808 337.89 709.518 337.45 710.278 337.15C711.038 336.85 711.848 336.7 712.708 336.7C714.468 336.7 715.808 337.29 716.728 338.47C717.648 339.65 717.918 341.14 717.538 342.94L715.618 352H713.458L715.318 343.21C715.618 341.83 715.458 340.72 714.838 339.88C714.238 339.04 713.288 338.62 711.988 338.62C711.168 338.62 710.388 338.8 709.648 339.16C708.908 339.52 708.258 340.04 707.698 340.72L705.298 352H703.138ZM727.08 350.32C727.8 350.32 728.51 350.18 729.21 349.9C729.93 349.62 730.64 349.22 731.34 348.7L732.39 350.26C731.53 350.94 730.63 351.45 729.69 351.79C728.75 352.11 727.79 352.27 726.81 352.27C725.85 352.27 724.95 352.1 724.11 351.76C723.29 351.42 722.58 350.95 721.98 350.35C721.4 349.73 720.94 349 720.6 348.16C720.26 347.32 720.09 346.41 720.09 345.43C720.09 344.25 720.31 343.13 720.75 342.07C721.21 341.01 721.81 340.09 722.55 339.31C723.31 338.51 724.2 337.88 725.22 337.42C726.24 336.96 727.31 336.73 728.43 336.73C729.53 336.73 730.6 336.99 731.64 337.51C732.7 338.03 733.54 338.72 734.16 339.58L732.57 341.05C732.03 340.31 731.39 339.74 730.65 339.34C729.93 338.94 729.14 338.74 728.28 338.74C727.48 338.74 726.71 338.92 725.97 339.28C725.23 339.62 724.59 340.09 724.05 340.69C723.51 341.29 723.07 342 722.73 342.82C722.41 343.62 722.25 344.46 722.25 345.34C722.25 346.72 722.71 347.9 723.63 348.88C724.57 349.84 725.72 350.32 727.08 350.32ZM747.221 350.65C746.401 351.21 745.561 351.62 744.701 351.88C743.841 352.14 742.921 352.27 741.941 352.27C740.881 352.27 739.901 352.1 739.001 351.76C738.121 351.4 737.361 350.91 736.721 350.29C736.081 349.67 735.581 348.93 735.221 348.07C734.861 347.19 734.681 346.24 734.681 345.22C734.681 344.06 734.891 342.97 735.311 341.95C735.731 340.91 736.291 340.01 736.991 339.25C737.711 338.47 738.551 337.86 739.511 337.42C740.471 336.96 741.491 336.73 742.571 336.73C743.491 336.73 744.341 336.91 745.121 337.27C745.901 337.63 746.571 338.13 747.131 338.77C747.711 339.39 748.161 340.14 748.481 341.02C748.801 341.88 748.961 342.81 748.961 343.81C748.961 344.01 748.951 344.21 748.931 344.41C748.931 344.59 748.921 344.84 748.901 345.16H736.841C736.861 346.66 737.361 347.9 738.341 348.88C739.341 349.86 740.571 350.35 742.031 350.35C742.771 350.35 743.491 350.24 744.191 350.02C744.891 349.8 745.521 349.5 746.081 349.12L747.221 350.65ZM742.361 338.68C741.101 338.68 739.981 339.13 739.001 340.03C738.021 340.93 737.371 342.05 737.051 343.39H746.891C746.811 342.03 746.341 340.91 745.481 340.03C744.641 339.13 743.601 338.68 742.361 338.68ZM768.239 352L768.449 350.95C767.829 351.37 767.169 351.69 766.469 351.91C765.769 352.13 765.049 352.24 764.309 352.24C763.369 352.24 762.489 352.07 761.669 351.73C760.849 351.37 760.139 350.89 759.539 350.29C758.959 349.67 758.499 348.94 758.159 348.1C757.839 347.24 757.679 346.32 757.679 345.34C757.679 344.16 757.889 343.05 758.309 342.01C758.749 340.97 759.339 340.06 760.079 339.28C760.839 338.5 761.719 337.89 762.719 337.45C763.739 336.99 764.819 336.76 765.959 336.76C766.979 336.76 767.919 336.95 768.779 337.33C769.659 337.71 770.409 338.24 771.029 338.92L772.709 331L774.959 330.49L770.399 352H768.239ZM759.809 345.16C759.809 346.66 760.279 347.9 761.219 348.88C762.159 349.84 763.349 350.32 764.789 350.32C765.549 350.32 766.289 350.18 767.009 349.9C767.729 349.6 768.369 349.19 768.929 348.67L770.549 341.11C770.149 340.39 769.539 339.81 768.719 339.37C767.899 338.93 766.999 338.71 766.019 338.71C765.159 338.71 764.349 338.88 763.589 339.22C762.829 339.56 762.169 340.02 761.609 340.6C761.049 341.18 760.609 341.87 760.289 342.67C759.969 343.45 759.809 344.28 759.809 345.16ZM787.592 350.65C786.772 351.21 785.932 351.62 785.072 351.88C784.212 352.14 783.292 352.27 782.312 352.27C781.252 352.27 780.272 352.1 779.372 351.76C778.492 351.4 777.732 350.91 777.092 350.29C776.452 349.67 775.952 348.93 775.592 348.07C775.232 347.19 775.052 346.24 775.052 345.22C775.052 344.06 775.262 342.97 775.682 341.95C776.102 340.91 776.662 340.01 777.362 339.25C778.082 338.47 778.922 337.86 779.882 337.42C780.842 336.96 781.862 336.73 782.942 336.73C783.862 336.73 784.712 336.91 785.492 337.27C786.272 337.63 786.942 338.13 787.502 338.77C788.082 339.39 788.532 340.14 788.852 341.02C789.172 341.88 789.332 342.81 789.332 343.81C789.332 344.01 789.322 344.21 789.302 344.41C789.302 344.59 789.292 344.84 789.272 345.16H777.212C777.232 346.66 777.732 347.9 778.712 348.88C779.712 349.86 780.942 350.35 782.402 350.35C783.142 350.35 783.862 350.24 784.562 350.02C785.262 349.8 785.892 349.5 786.452 349.12L787.592 350.65ZM782.732 338.68C781.472 338.68 780.352 339.13 779.372 340.03C778.392 340.93 777.742 342.05 777.422 343.39H787.262C787.182 342.03 786.712 340.91 785.852 340.03C785.012 339.13 783.972 338.68 782.732 338.68ZM799.76 348.43L801.77 338.86H798.59L799.01 336.97H802.16L802.97 333.16L805.28 332.59L804.35 336.97H808.73L808.31 338.86H803.93L801.98 347.95C801.8 348.81 801.88 349.43 802.22 349.81C802.56 350.17 803.22 350.35 804.2 350.35C804.46 350.35 804.72 350.33 804.98 350.29C805.26 350.23 805.58 350.15 805.94 350.05L805.55 352C805.23 352.08 804.87 352.14 804.47 352.18C804.09 352.24 803.72 352.27 803.36 352.27C801.96 352.27 800.94 351.94 800.3 351.28C799.68 350.6 799.5 349.65 799.76 348.43ZM808.393 345.13C808.393 343.99 808.603 342.91 809.023 341.89C809.463 340.85 810.043 339.95 810.763 339.19C811.503 338.41 812.363 337.8 813.343 337.36C814.343 336.9 815.383 336.67 816.463 336.67C817.463 336.67 818.383 336.85 819.223 337.21C820.083 337.57 820.823 338.07 821.443 338.71C822.063 339.35 822.553 340.11 822.913 340.99C823.273 341.87 823.453 342.82 823.453 343.84C823.453 344.98 823.233 346.07 822.793 347.11C822.373 348.13 821.793 349.03 821.053 349.81C820.333 350.57 819.473 351.18 818.473 351.64C817.493 352.08 816.463 352.3 815.383 352.3C814.383 352.3 813.453 352.12 812.593 351.76C811.733 351.4 810.993 350.9 810.373 350.26C809.753 349.62 809.263 348.86 808.903 347.98C808.563 347.1 808.393 346.15 808.393 345.13ZM815.473 350.32C816.273 350.32 817.023 350.15 817.723 349.81C818.443 349.47 819.063 349.01 819.583 348.43C820.123 347.85 820.543 347.18 820.843 346.42C821.163 345.64 821.323 344.82 821.323 343.96C821.323 342.46 820.843 341.2 819.883 340.18C818.943 339.16 817.773 338.65 816.373 338.65C815.573 338.65 814.813 338.82 814.093 339.16C813.393 339.5 812.773 339.96 812.233 340.54C811.713 341.12 811.293 341.8 810.973 342.58C810.673 343.34 810.523 344.15 810.523 345.01C810.523 346.51 810.993 347.77 811.933 348.79C812.873 349.81 814.053 350.32 815.473 350.32ZM836.354 352L836.564 350.95C835.944 351.37 835.284 351.69 834.584 351.91C833.884 352.13 833.164 352.24 832.424 352.24C831.484 352.24 830.604 352.07 829.784 351.73C828.964 351.37 828.254 350.89 827.654 350.29C827.074 349.67 826.614 348.94 826.274 348.1C825.954 347.24 825.794 346.32 825.794 345.34C825.794 344.16 826.004 343.05 826.424 342.01C826.864 340.97 827.454 340.06 828.194 339.28C828.954 338.5 829.834 337.89 830.834 337.45C831.854 336.99 832.934 336.76 834.074 336.76C835.094 336.76 836.034 336.95 836.894 337.33C837.774 337.71 838.524 338.24 839.144 338.92L840.824 331L843.074 330.49L838.514 352H836.354ZM827.924 345.16C827.924 346.66 828.394 347.9 829.334 348.88C830.274 349.84 831.464 350.32 832.904 350.32C833.664 350.32 834.404 350.18 835.124 349.9C835.844 349.6 836.484 349.19 837.044 348.67L838.664 341.11C838.264 340.39 837.654 339.81 836.834 339.37C836.014 338.93 835.114 338.71 834.134 338.71C833.274 338.71 832.464 338.88 831.704 339.22C830.944 339.56 830.284 340.02 829.724 340.6C829.164 341.18 828.724 341.87 828.404 342.67C828.084 343.45 827.924 344.28 827.924 345.16ZM843.197 345.13C843.197 343.99 843.407 342.91 843.827 341.89C844.267 340.85 844.847 339.95 845.567 339.19C846.307 338.41 847.167 337.8 848.147 337.36C849.147 336.9 850.187 336.67 851.267 336.67C852.267 336.67 853.187 336.85 854.027 337.21C854.887 337.57 855.627 338.07 856.247 338.71C856.867 339.35 857.357 340.11 857.717 340.99C858.077 341.87 858.257 342.82 858.257 343.84C858.257 344.98 858.037 346.07 857.597 347.11C857.177 348.13 856.597 349.03 855.857 349.81C855.137 350.57 854.277 351.18 853.277 351.64C852.297 352.08 851.267 352.3 850.187 352.3C849.187 352.3 848.257 352.12 847.397 351.76C846.537 351.4 845.797 350.9 845.177 350.26C844.557 349.62 844.067 348.86 843.707 347.98C843.367 347.1 843.197 346.15 843.197 345.13ZM850.277 350.32C851.077 350.32 851.827 350.15 852.527 349.81C853.247 349.47 853.867 349.01 854.387 348.43C854.927 347.85 855.347 347.18 855.647 346.42C855.967 345.64 856.127 344.82 856.127 343.96C856.127 342.46 855.647 341.2 854.687 340.18C853.747 339.16 852.577 338.65 851.177 338.65C850.377 338.65 849.617 338.82 848.897 339.16C848.197 339.5 847.577 339.96 847.037 340.54C846.517 341.12 846.097 341.8 845.777 342.58C845.477 343.34 845.327 344.15 845.327 345.01C845.327 346.51 845.797 347.77 846.737 348.79C847.677 349.81 848.857 350.32 850.277 350.32ZM859.069 349.51L860.509 348.16C861.189 348.92 861.949 349.5 862.789 349.9C863.649 350.3 864.549 350.5 865.489 350.5C866.589 350.5 867.509 350.24 868.249 349.72C868.989 349.2 869.359 348.54 869.359 347.74C869.359 347.18 869.169 346.74 868.789 346.42C868.409 346.08 867.789 345.81 866.929 345.61L864.469 345.04C863.209 344.76 862.269 344.31 861.649 343.69C861.049 343.07 860.749 342.26 860.749 341.26C860.749 339.9 861.249 338.81 862.249 337.99C863.269 337.15 864.599 336.73 866.239 336.73C867.339 336.73 868.399 336.93 869.419 337.33C870.439 337.71 871.389 338.3 872.269 339.1L870.949 340.54C870.209 339.88 869.419 339.38 868.579 339.04C867.739 338.68 866.919 338.5 866.119 338.5C865.099 338.5 864.279 338.74 863.659 339.22C863.039 339.7 862.729 340.32 862.729 341.08C862.729 341.64 862.909 342.08 863.269 342.4C863.649 342.72 864.269 342.98 865.129 343.18L867.589 343.75C868.909 344.05 869.879 344.51 870.499 345.13C871.119 345.75 871.429 346.55 871.429 347.53C871.429 348.21 871.269 348.84 870.949 349.42C870.649 350 870.229 350.51 869.689 350.95C869.169 351.37 868.539 351.7 867.799 351.94C867.079 352.18 866.289 352.3 865.429 352.3C864.209 352.3 863.019 352.05 861.859 351.55C860.699 351.05 859.769 350.37 859.069 349.51Z" fill="#112F55"/>
<path d="M376.21 352L380.68 331H396.49L395.68 334.78H384.13L383.11 339.58H390.7L389.92 343.24H382.33L381.28 348.22H392.95L392.14 352H376.21ZM405.358 352L405.538 351.22C404.978 351.54 404.388 351.79 403.768 351.97C403.148 352.13 402.518 352.21 401.878 352.21C400.898 352.21 399.978 352.03 399.118 351.67C398.278 351.29 397.548 350.78 396.928 350.14C396.308 349.5 395.818 348.74 395.458 347.86C395.098 346.96 394.918 346 394.918 344.98C394.918 343.76 395.148 342.62 395.608 341.56C396.068 340.48 396.688 339.54 397.468 338.74C398.248 337.94 399.168 337.31 400.228 336.85C401.288 336.39 402.418 336.16 403.618 336.16C404.538 336.16 405.398 336.3 406.198 336.58C406.998 336.86 407.708 337.26 408.328 337.78L409.768 331L413.998 330.1L409.348 352H405.358ZM398.878 344.62C398.878 345.8 399.268 346.78 400.048 347.56C400.828 348.34 401.798 348.73 402.958 348.73C403.578 348.73 404.168 348.63 404.728 348.43C405.288 348.21 405.798 347.91 406.258 347.53L407.578 341.32C407.158 340.82 406.608 340.42 405.928 340.12C405.268 339.82 404.548 339.67 403.768 339.67C402.408 339.67 401.248 340.15 400.288 341.11C399.348 342.07 398.878 343.24 398.878 344.62ZM419.732 336.37L417.842 345.31C417.622 346.33 417.752 347.16 418.232 347.8C418.732 348.44 419.482 348.76 420.482 348.76C421.102 348.76 421.682 348.64 422.222 348.4C422.782 348.14 423.292 347.79 423.752 347.35L426.062 336.37H430.112L426.782 352H422.762L423.002 350.89C422.382 351.33 421.712 351.67 420.992 351.91C420.272 352.13 419.522 352.24 418.742 352.24C417.822 352.24 417.002 352.08 416.282 351.76C415.562 351.42 414.982 350.96 414.542 350.38C414.102 349.8 413.802 349.11 413.642 348.31C413.502 347.51 413.532 346.64 413.732 345.7L415.712 336.37H419.732ZM438.723 348.76C439.363 348.76 439.973 348.63 440.553 348.37C441.153 348.11 441.743 347.72 442.323 347.2L444.393 349.9C443.513 350.7 442.553 351.31 441.513 351.73C440.473 352.13 439.393 352.33 438.273 352.33C437.213 352.33 436.233 352.15 435.333 351.79C434.433 351.41 433.653 350.9 432.993 350.26C432.333 349.6 431.813 348.82 431.433 347.92C431.053 347.02 430.863 346.04 430.863 344.98C430.863 343.76 431.083 342.61 431.523 341.53C431.983 340.43 432.603 339.49 433.383 338.71C434.163 337.91 435.083 337.28 436.143 336.82C437.203 336.34 438.323 336.1 439.503 336.1C440.803 336.1 442.023 336.38 443.163 336.94C444.323 337.5 445.243 338.27 445.923 339.25L443.133 341.77C442.673 341.07 442.133 340.55 441.513 340.21C440.893 339.87 440.203 339.7 439.443 339.7C438.823 339.7 438.233 339.84 437.673 340.12C437.113 340.38 436.623 340.74 436.203 341.2C435.803 341.64 435.483 342.17 435.243 342.79C435.003 343.41 434.883 344.07 434.883 344.77C434.883 345.93 435.243 346.89 435.963 347.65C436.683 348.39 437.603 348.76 438.723 348.76ZM450.984 352.18C449.364 352.18 448.074 351.79 447.114 351.01C446.154 350.21 445.674 349.15 445.674 347.83C445.674 346.25 446.264 345 447.444 344.08C448.624 343.14 450.224 342.67 452.244 342.67C452.984 342.67 453.714 342.74 454.434 342.88C455.174 343.02 455.864 343.21 456.504 343.45L456.684 342.67C456.904 341.61 456.744 340.82 456.204 340.3C455.664 339.76 454.764 339.49 453.504 339.49C452.944 339.49 452.304 339.57 451.584 339.73C450.884 339.89 450.054 340.15 449.094 340.51L448.104 337.42C449.244 336.98 450.334 336.65 451.374 336.43C452.434 336.21 453.434 336.1 454.374 336.1C456.754 336.1 458.494 336.68 459.594 337.84C460.714 339 461.064 340.59 460.644 342.61L458.664 352H454.704L454.914 351.04C454.274 351.42 453.634 351.71 452.994 351.91C452.354 352.09 451.684 352.18 450.984 352.18ZM449.484 347.47C449.484 348.03 449.734 348.47 450.234 348.79C450.754 349.11 451.464 349.27 452.364 349.27C452.924 349.27 453.464 349.2 453.984 349.06C454.504 348.92 454.994 348.7 455.454 348.4L455.964 346.06C455.464 345.84 454.914 345.67 454.314 345.55C453.734 345.43 453.144 345.37 452.544 345.37C451.604 345.37 450.854 345.56 450.294 345.94C449.754 346.32 449.484 346.83 449.484 347.47ZM470.422 348.76C471.062 348.76 471.672 348.63 472.252 348.37C472.852 348.11 473.442 347.72 474.022 347.2L476.092 349.9C475.212 350.7 474.252 351.31 473.212 351.73C472.172 352.13 471.092 352.33 469.972 352.33C468.912 352.33 467.932 352.15 467.032 351.79C466.132 351.41 465.352 350.9 464.692 350.26C464.032 349.6 463.512 348.82 463.132 347.92C462.752 347.02 462.562 346.04 462.562 344.98C462.562 343.76 462.782 342.61 463.222 341.53C463.682 340.43 464.302 339.49 465.082 338.71C465.862 337.91 466.782 337.28 467.842 336.82C468.902 336.34 470.022 336.1 471.202 336.1C472.502 336.1 473.722 336.38 474.862 336.94C476.022 337.5 476.942 338.27 477.622 339.25L474.832 341.77C474.372 341.07 473.832 340.55 473.212 340.21C472.592 339.87 471.902 339.7 471.142 339.7C470.522 339.7 469.932 339.84 469.372 340.12C468.812 340.38 468.322 340.74 467.902 341.2C467.502 341.64 467.182 342.17 466.942 342.79C466.702 343.41 466.582 344.07 466.582 344.77C466.582 345.93 466.942 346.89 467.662 347.65C468.382 348.39 469.302 348.76 470.422 348.76ZM483.218 334.51C482.658 334.51 482.178 334.31 481.778 333.91C481.378 333.51 481.178 333.02 481.178 332.44C481.178 331.74 481.438 331.13 481.958 330.61C482.478 330.09 483.078 329.83 483.758 329.83C484.318 329.83 484.798 330.03 485.198 330.43C485.598 330.83 485.798 331.31 485.798 331.87C485.798 332.57 485.538 333.19 485.018 333.73C484.498 334.25 483.898 334.51 483.218 334.51ZM484.598 336.37L481.298 352H477.278L480.578 336.37H484.598ZM485.445 344.77C485.445 343.59 485.675 342.47 486.135 341.41C486.595 340.35 487.215 339.43 487.995 338.65C488.795 337.85 489.725 337.22 490.785 336.76C491.865 336.3 492.995 336.07 494.175 336.07C495.255 336.07 496.265 336.26 497.205 336.64C498.165 337.02 498.985 337.55 499.665 338.23C500.345 338.89 500.875 339.68 501.255 340.6C501.655 341.52 501.855 342.51 501.855 343.57C501.855 344.75 501.615 345.87 501.135 346.93C500.675 347.99 500.045 348.92 499.245 349.72C498.465 350.5 497.545 351.13 496.485 351.61C495.425 352.07 494.305 352.3 493.125 352.3C492.045 352.3 491.025 352.11 490.065 351.73C489.125 351.35 488.315 350.83 487.635 350.17C486.955 349.49 486.415 348.69 486.015 347.77C485.635 346.83 485.445 345.83 485.445 344.77ZM493.305 348.73C493.925 348.73 494.515 348.6 495.075 348.34C495.635 348.08 496.125 347.73 496.545 347.29C496.965 346.83 497.295 346.3 497.535 345.7C497.775 345.08 497.895 344.43 497.895 343.75C497.895 342.57 497.525 341.59 496.785 340.81C496.045 340.03 495.105 339.64 493.965 339.64C493.345 339.64 492.755 339.77 492.195 340.03C491.635 340.29 491.145 340.65 490.725 341.11C490.325 341.55 490.005 342.07 489.765 342.67C489.525 343.27 489.405 343.91 489.405 344.59C489.405 345.79 489.775 346.78 490.515 347.56C491.255 348.34 492.185 348.73 493.305 348.73ZM496.395 329.86H501.045L496.245 333.76H492.885L496.395 329.86ZM502.708 352L506.008 336.37H510.028L509.788 337.48C510.408 337.04 511.078 336.71 511.798 336.49C512.518 336.25 513.268 336.13 514.048 336.13C514.968 336.13 515.788 336.3 516.508 336.64C517.228 336.96 517.808 337.41 518.248 337.99C518.688 338.57 518.988 339.26 519.148 340.06C519.308 340.86 519.288 341.73 519.088 342.67L517.108 352H513.058L514.978 343.06C515.178 342.04 515.028 341.21 514.528 340.57C514.048 339.93 513.318 339.61 512.338 339.61C511.718 339.61 511.118 339.73 510.538 339.97C509.978 340.21 509.478 340.57 509.038 341.05L506.728 352H502.708ZM531.184 352L527.914 336.37H532.204L534.154 346.78L540.544 336.37H544.954L535.054 352H531.184ZM549.194 334.51C548.634 334.51 548.154 334.31 547.754 333.91C547.354 333.51 547.154 333.02 547.154 332.44C547.154 331.74 547.414 331.13 547.934 330.61C548.454 330.09 549.054 329.83 549.734 329.83C550.294 329.83 550.774 330.03 551.174 330.43C551.574 330.83 551.774 331.31 551.774 331.87C551.774 332.57 551.514 333.19 550.994 333.73C550.474 334.25 549.874 334.51 549.194 334.51ZM550.574 336.37L547.274 352H543.254L546.554 336.37H550.574ZM550.431 352L553.761 336.37H557.781L557.451 337.9C558.031 337.3 558.671 336.85 559.371 336.55C560.071 336.23 560.811 336.07 561.591 336.07C561.991 336.07 562.361 336.11 562.701 336.19C563.061 336.25 563.341 336.35 563.541 336.49L562.791 340.09C562.591 339.95 562.261 339.83 561.801 339.73C561.361 339.61 560.951 339.55 560.571 339.55C559.831 339.55 559.121 339.73 558.441 340.09C557.761 340.45 557.171 340.97 556.671 341.65L554.481 352H550.431ZM565.768 347.32L567.358 339.82H564.208L564.928 336.37H568.078L568.918 332.38L573.148 331.45L572.098 336.37H576.448L575.728 339.82H571.378L569.908 346.66C569.748 347.42 569.818 347.97 570.118 348.31C570.418 348.63 570.998 348.79 571.858 348.79C572.178 348.79 572.488 348.77 572.788 348.73C573.088 348.69 573.418 348.63 573.778 348.55L573.058 351.88C572.698 351.96 572.248 352.03 571.708 352.09C571.168 352.17 570.668 352.21 570.208 352.21C568.468 352.21 567.208 351.79 566.428 350.95C565.668 350.09 565.448 348.88 565.768 347.32ZM582.359 336.37L580.469 345.31C580.249 346.33 580.379 347.16 580.859 347.8C581.359 348.44 582.109 348.76 583.109 348.76C583.729 348.76 584.309 348.64 584.849 348.4C585.409 348.14 585.919 347.79 586.379 347.35L588.689 336.37H592.739L589.409 352H585.389L585.629 350.89C585.009 351.33 584.339 351.67 583.619 351.91C582.899 352.13 582.149 352.24 581.369 352.24C580.449 352.24 579.629 352.08 578.909 351.76C578.189 351.42 577.609 350.96 577.169 350.38C576.729 349.8 576.429 349.11 576.269 348.31C576.129 347.51 576.159 346.64 576.359 345.7L578.339 336.37H582.359ZM598.26 352.18C596.64 352.18 595.35 351.79 594.39 351.01C593.43 350.21 592.95 349.15 592.95 347.83C592.95 346.25 593.54 345 594.72 344.08C595.9 343.14 597.5 342.67 599.52 342.67C600.26 342.67 600.99 342.74 601.71 342.88C602.45 343.02 603.14 343.21 603.78 343.45L603.96 342.67C604.18 341.61 604.02 340.82 603.48 340.3C602.94 339.76 602.04 339.49 600.78 339.49C600.22 339.49 599.58 339.57 598.86 339.73C598.16 339.89 597.33 340.15 596.37 340.51L595.38 337.42C596.52 336.98 597.61 336.65 598.65 336.43C599.71 336.21 600.71 336.1 601.65 336.1C604.03 336.1 605.77 336.68 606.87 337.84C607.99 339 608.34 340.59 607.92 342.61L605.94 352H601.98L602.19 351.04C601.55 351.42 600.91 351.71 600.27 351.91C599.63 352.09 598.96 352.18 598.26 352.18ZM596.76 347.47C596.76 348.03 597.01 348.47 597.51 348.79C598.03 349.11 598.74 349.27 599.64 349.27C600.2 349.27 600.74 349.2 601.26 349.06C601.78 348.92 602.27 348.7 602.73 348.4L603.24 346.06C602.74 345.84 602.19 345.67 601.59 345.55C601.01 345.43 600.42 345.37 599.82 345.37C598.88 345.37 598.13 345.56 597.57 345.94C597.03 346.32 596.76 346.83 596.76 347.47ZM617.637 330.1L612.987 352H608.967L613.437 331L617.637 330.1Z" fill="#112F55"/>
<g clip-path="url(#clip1)">
<path d="M378.161 263.266C377.066 261.486 375.568 260.049 373.831 259.038C374.303 256.948 374.6 254.835 374.722 252.728C374.727 252.641 374.731 252.556 374.735 252.47C374.825 249.998 374.718 247.406 374.406 244.547C373.875 239.697 370.555 235.609 365.918 234.094C361.279 232.579 356.186 233.922 352.896 237.522C350.964 239.638 349.447 241.499 348.134 243.367C347.32 244.486 346.596 245.565 345.948 246.634C345.346 246.471 344.732 246.354 344.11 246.283L349.237 225.305C350.859 218.667 346.811 211.965 340.18 210.312C332.933 208.505 325.611 206.813 318.311 205.257V104.015C318.311 98.3533 314.481 93.409 308.999 91.9937L264.918 80.6122L269.55 69.8881C270.35 68.0302 270.908 66.1468 271.204 64.3267C271.653 61.6116 271.498 58.9324 270.742 56.3594C269.945 53.6492 268.503 51.2059 266.451 49.0935C264.688 47.2796 262.456 45.7811 259.794 44.6296C257.502 43.6426 255.226 43.0653 253.024 42.9039C251.778 41.8797 250.312 41.0827 248.669 40.5954L236.221 36.9031C235.239 36.6114 234.251 36.4618 233.272 36.4152C233.132 36.3544 232.997 36.2849 232.854 36.229C234.119 33.4517 234.346 30.2524 233.37 27.2479C232.125 23.416 229.118 20.4699 225.362 19.2626C223.111 16.1421 219.509 14.2159 215.597 14.1203C213.663 11.7142 210.867 10.0655 207.705 9.60615L205.153 9.23494L204.011 6.92139C201.92 2.68351 197.604 0 192.878 0C192.878 0 192.878 0 192.878 0C188.152 0 183.836 2.68227 181.744 6.92015L180.602 9.23494L178.048 9.60615C174.763 10.0829 171.874 11.8433 169.936 14.4039C166.961 15.0564 164.316 16.7814 162.527 19.262C158.77 20.4693 155.763 23.4154 154.519 27.2473C153.519 30.3263 153.779 33.6107 155.128 36.4351C154.937 36.5226 154.738 36.6014 154.55 36.6939C154 36.9677 153.473 37.2681 152.963 37.5884C151.145 37.2383 149.225 37.2774 147.321 37.8032L142.35 39.1769C141.818 39.3241 141.299 39.5053 140.796 39.7195C140.257 39.794 139.718 39.9051 139.181 40.0528L133.352 41.6643C132.226 41.9753 131.164 42.4477 130.185 43.0467C129.306 43.1554 128.426 43.3521 127.557 43.6594L122.695 45.3795C119.59 46.4776 117.049 48.7639 115.63 51.7354C114.212 54.7069 114.032 58.1211 115.131 61.2255L121.708 79.8182L74.5521 91.9931C69.0709 93.4084 65.2408 98.3527 65.2408 104.014V205.258C57.9402 206.814 50.6184 208.505 43.3705 210.312C36.739 211.965 32.691 218.668 34.3137 225.306L39.0333 244.618C37.3448 244.379 35.6527 244.493 34.0524 244.925C33.4037 243.858 32.6805 242.778 31.8654 241.659C30.5519 239.791 29.0361 237.931 27.1061 235.817C23.8174 232.214 18.7247 230.873 14.0858 232.385C9.44882 233.898 6.12718 237.986 5.59581 242.835C5.28171 245.698 5.17432 248.293 5.26681 250.769C5.26992 250.853 5.27426 250.936 5.27923 251.019C5.40027 253.126 5.69823 255.238 6.16877 257.329C4.435 258.339 2.93837 259.773 1.84398 261.549C-0.684966 265.657 -0.60551 270.857 2.04759 274.886C2.80118 276.031 3.52436 277.069 4.24381 278.044C4.97133 279.031 5.96516 280.333 7.23025 281.663C8.25139 282.75 9.24832 283.724 10.2471 284.605C9.50469 288.271 10.4495 292.141 12.9281 295.077C13.6035 295.878 14.5098 296.934 15.5254 298.007C15.6086 298.094 15.6924 298.18 15.7768 298.264C16.8172 299.3 17.8141 300.223 18.834 301.092C20.0016 302.086 21.1891 302.997 22.3642 303.802C22.3909 303.82 22.4176 303.839 22.4449 303.857C22.1842 307.559 23.597 311.249 26.3972 313.84L26.9901 314.389C27.139 314.527 27.2911 314.661 27.4469 314.791L28.0689 315.313C28.0875 315.327 28.1068 315.344 28.1254 315.359C28.6388 315.784 29.1559 316.201 29.6729 316.604C30.8102 317.49 31.8952 318.273 32.9878 318.996C34.5173 320.032 36.0084 320.794 37.2697 321.405C37.2939 321.418 37.3188 321.429 37.343 321.441C37.3436 321.441 37.3442 321.441 37.3448 321.442C37.6062 325.25 39.6186 328.789 42.8875 330.947C44.062 331.723 45.1483 332.404 46.2086 333.026C46.2427 333.046 46.2762 333.066 46.311 333.085L46.5431 333.22C47.018 333.495 47.668 333.873 48.4489 334.254C49.0901 334.568 49.7394 334.869 50.3912 335.156C51.8053 335.776 53.2231 336.314 54.644 336.767C54.7514 336.801 54.865 336.836 54.9848 336.873C55.8284 340.563 58.3312 343.726 61.8553 345.364L62.1011 345.479C62.6728 345.747 63.2445 346.009 63.828 346.252C63.9075 346.285 63.9875 346.317 64.0676 346.348C64.6989 346.594 65.3321 346.833 65.9373 347.049C67.3154 347.545 68.6786 347.977 69.9908 348.334C70.0244 348.343 70.0573 348.352 70.0914 348.361L70.2584 348.405C70.85 348.561 71.6607 348.776 72.6793 348.96C73.4577 349.096 74.2213 349.21 74.9618 349.299C75.0891 349.314 75.2157 349.329 75.3424 349.343C76.8675 352.952 80.0396 355.683 83.951 356.598C86.2204 357.128 89.3205 357.853 92.7712 357.991C94.284 358.065 96.078 358.107 98.0439 357.956C100.12 361.019 103.493 363.042 107.279 363.361C109.114 363.516 110.74 363.454 112.046 363.407L112.142 363.403C112.171 363.402 112.2 363.4 112.229 363.399C113.699 363.335 115.058 363.226 116.378 363.068C118.357 362.857 120.046 362.424 121.479 362.033C121.518 362.022 121.556 362.012 121.594 362.001C123.201 361.546 124.752 360.996 126.206 360.368C126.234 360.356 126.26 360.344 126.287 360.333C127.024 360.009 127.89 359.617 128.852 359.074C128.886 359.055 128.92 359.035 128.953 359.016C129.708 358.581 130.458 358.108 131.196 357.602C132.18 356.926 133.129 356.193 134.041 355.405C144.165 362.135 154.935 368.455 165.034 373.573C184.135 383.253 189.688 383.253 191.778 383.253C193.806 383.253 199.193 383.253 217.47 374.103C226.795 369.435 236.819 363.657 246.376 357.466C247.156 358.117 247.966 358.732 248.799 359.305C249.519 359.8 250.277 360.278 251.051 360.725C251.082 360.742 251.112 360.76 251.142 360.777C252.092 361.315 252.956 361.709 253.791 362.075C255.24 362.701 256.791 363.251 258.403 363.708C258.443 363.72 258.484 363.731 258.524 363.742C260.059 364.161 261.736 364.576 263.624 364.777C264.953 364.936 266.311 365.045 267.773 365.109C267.802 365.11 267.831 365.111 267.86 365.112L267.956 365.116C269.264 365.164 270.891 365.225 272.724 365.071C276.51 364.751 279.883 362.728 281.958 359.665C283.922 359.815 285.711 359.775 287.223 359.701C290.677 359.563 293.78 358.837 296.052 358.307C299.964 357.392 303.136 354.661 304.661 351.052C304.792 351.038 304.923 351.023 305.054 351.007C305.817 350.915 306.589 350.8 307.362 350.663C308.325 350.49 309.128 350.278 309.714 350.123L309.902 350.073C309.941 350.063 309.979 350.053 310.018 350.042C311.322 349.687 312.682 349.255 314.025 348.774C314.664 348.546 315.301 348.306 315.936 348.057C316.02 348.024 316.104 347.991 316.187 347.956C316.749 347.722 317.299 347.469 317.851 347.212L318.132 347.081C321.664 345.445 324.174 342.279 325.019 338.582C325.151 338.542 325.277 338.502 325.397 338.465C326.786 338.022 328.208 337.482 329.589 336.874C330.225 336.598 330.886 336.291 331.532 335.975C332.325 335.589 332.977 335.211 333.453 334.935L333.689 334.799C333.725 334.778 333.762 334.756 333.798 334.734C334.874 334.102 335.963 333.421 337.129 332.648C340.39 330.488 342.396 326.954 342.658 323.151C342.686 323.138 342.712 323.126 342.739 323.113C344.005 322.499 345.498 321.734 347.019 320.703C348.116 319.978 349.201 319.194 350.327 318.316C350.853 317.907 351.371 317.489 351.886 317.062C351.903 317.048 351.922 317.032 351.94 317.017L352.561 316.496C352.715 316.367 352.865 316.234 353.013 316.097L353.605 315.549C356.406 312.958 357.819 309.269 357.558 305.566C357.587 305.547 357.615 305.528 357.644 305.508C358.83 304.695 359.982 303.811 361.171 302.801C362.187 301.936 363.187 301.01 364.231 299.969C364.315 299.887 364.396 299.803 364.477 299.719C365.487 298.653 366.397 297.591 367.076 296.786C369.556 293.85 370.501 289.98 369.758 286.313C370.758 285.431 371.756 284.457 372.777 283.367C374.042 282.036 375.036 280.737 375.742 279.776C376.481 278.778 377.205 277.737 377.957 276.596C380.604 272.57 380.686 267.373 378.161 263.266Z" fill="white"/>
<path d="M135.911 339.506C134.827 339.061 133.751 338.553 132.69 337.963C132.68 337.957 132.673 337.951 132.663 337.946C132.183 337.964 131.697 337.982 131.207 337.999C130.718 338.017 130.226 338.035 129.729 338.053C129.482 338.061 129.231 338.072 128.98 338.08C128.73 338.085 128.478 338.071 128.225 338.067C127.212 338.043 126.185 338.017 125.138 337.992C124.616 337.98 124.089 337.967 123.557 337.954C123.026 337.954 122.496 337.875 121.959 337.84C120.885 337.748 119.797 337.657 118.695 337.562C117.59 337.497 116.486 337.302 115.366 337.144C114.245 336.979 113.113 336.812 111.97 336.644C110.837 336.409 109.694 336.172 108.54 335.931C107.963 335.812 107.385 335.692 106.803 335.572C106.224 335.442 105.652 335.269 105.072 335.119C103.915 334.807 102.751 334.493 101.578 334.178C100.414 333.833 99.2627 333.42 98.0926 333.041C97.5085 332.848 96.9244 332.655 96.3378 332.461C95.7499 332.27 95.1838 332.016 94.6027 331.795C93.4481 331.339 92.288 330.88 91.1247 330.42C89.9756 329.925 88.8428 329.381 87.6956 328.86L85.9786 328.071C85.4131 327.79 84.8582 327.487 84.2976 327.195C83.1778 326.607 82.0573 326.017 80.9356 325.428L77.6661 323.485C77.123 323.158 76.5717 322.844 76.0348 322.508L74.4525 321.456C73.4009 320.752 72.3376 320.067 71.3003 319.35C70.2847 318.602 69.2723 317.855 68.2605 317.111C67.7595 316.733 67.2437 316.378 66.7558 315.985C66.271 315.592 65.7874 315.198 65.3038 314.805C64.3398 314.017 63.3683 313.245 62.4229 312.453C61.5023 311.632 60.5861 310.815 59.6761 310.004C59.2211 309.598 58.7673 309.192 58.3154 308.79C57.8821 308.366 57.4488 307.944 57.0186 307.525C56.157 306.685 55.3023 305.852 54.4543 305.025C47.8079 298.267 42.3757 291.263 38.1428 285.007C33.9099 278.745 30.8371 273.24 28.8538 269.315C28.3523 268.337 27.9028 267.463 27.5136 266.703C27.1319 265.94 26.8401 265.274 26.5875 264.744C26.0896 263.677 25.8258 263.108 25.8258 263.108L24.6929 263.624C24.6929 263.624 24.9561 264.201 25.449 265.286C25.7004 265.825 25.9884 266.502 26.369 267.278C26.7563 268.05 27.2014 268.939 27.7011 269.933C27.95 270.431 28.2132 270.955 28.4888 271.505C28.6266 271.78 28.7682 272.062 28.9116 272.349C29.0668 272.631 29.2244 272.918 29.3864 273.214C30.0333 274.389 30.7335 275.662 31.4827 277.023C31.8446 277.71 32.2773 278.386 32.6982 279.096C33.1234 279.803 33.561 280.531 34.0104 281.278C34.8832 282.788 35.923 284.3 36.9665 285.905C41.2025 292.278 46.6421 299.435 53.3487 306.343C54.2023 307.191 55.0626 308.048 55.9298 308.909C56.3656 309.337 56.7945 309.777 57.2421 310.201C57.6971 310.615 58.1546 311.031 58.6134 311.446C59.5308 312.281 60.4557 313.119 61.3838 313.964C62.3515 314.764 63.3224 315.568 64.2988 316.378C64.7874 316.78 65.2771 317.186 65.7669 317.592C66.2753 317.975 66.7843 318.358 67.2946 318.743C68.317 319.509 69.3418 320.28 70.3692 321.051C71.4331 321.773 72.4996 322.495 73.5685 323.218L75.175 324.302L76.8325 325.306C77.9411 325.971 79.0398 326.659 80.1584 327.307C81.2969 327.92 82.4366 328.532 83.5744 329.145C84.1468 329.441 84.7017 329.774 85.289 330.041L87.037 330.865L88.7813 331.686C89.3655 331.952 89.9334 332.252 90.5337 332.478C92.9106 333.427 95.2403 334.453 97.6432 335.21C98.2391 335.414 98.8319 335.615 99.4241 335.818C100.017 336.018 100.602 336.237 101.205 336.389C102.403 336.723 103.594 337.056 104.775 337.385C105.95 337.743 107.146 337.976 108.325 338.234C109.506 338.484 110.672 338.756 111.836 338.981C113.007 339.163 114.167 339.344 115.314 339.522C115.887 339.61 116.457 339.7 117.024 339.787C117.592 339.872 118.162 339.903 118.725 339.963C120.982 340.169 123.18 340.432 125.326 340.446C126.397 340.482 127.452 340.518 128.488 340.552C129.526 340.572 130.544 340.509 131.544 340.493C132.544 340.465 133.525 340.438 134.485 340.411C135.103 340.383 135.708 340.327 136.307 340.271C136.156 340.03 136.024 339.772 135.911 339.506Z" fill="#112F55"/>
<path d="M17.9367 244.188C19.3104 245.693 20.6133 247.233 21.7667 248.883C22.9635 250.518 24.0604 252.245 24.9108 254.182C25.3578 255.142 25.7848 256.137 26.1325 257.204C26.4919 258.266 26.7557 259.404 27.0139 260.593C27.2778 261.78 27.4733 263.041 27.5968 264.398C27.662 265.074 27.6943 265.781 27.734 266.5C27.7818 267.215 27.811 267.956 27.8209 268.724C27.2057 268.26 26.6198 267.789 26.0623 267.311C25.5136 266.832 25.0176 266.334 24.5353 265.839C23.5774 264.845 22.727 263.837 21.9765 262.819C21.231 261.799 20.6463 260.747 20.1136 259.707C19.5935 258.662 19.1422 257.624 18.8008 256.575C18.1595 254.463 17.792 252.375 17.6735 250.309C17.5953 248.227 17.7182 246.184 17.9367 244.188Z" fill="#112F55"/>
<path d="M37.2924 256.911C37.5177 257.787 37.7213 258.671 37.8951 259.563C38.0671 260.459 38.2036 261.364 38.347 262.259C38.6164 264.056 38.6779 265.926 38.5426 267.848C38.4283 269.758 38.0509 271.754 37.3246 273.876C36.6164 275.987 35.6139 278.19 34.1408 280.573C33.5436 279.183 33.0346 277.876 32.6845 276.6C32.3468 275.319 32.1122 274.101 31.9688 272.945C31.6534 270.647 31.8477 268.514 32.2444 266.61C32.4486 265.654 32.7199 264.747 33.0458 263.881C33.3804 263.01 33.7913 262.169 34.2308 261.369C35.116 259.766 36.1657 258.3 37.2924 256.911Z" fill="#112F55"/>
<path d="M12.4151 268.058C13.0048 268.953 13.6113 269.832 14.2413 270.684C14.8701 271.538 15.5195 272.368 16.2519 273.136C17.6983 274.681 19.2353 276.097 21.0199 277.239C22.8263 278.371 24.8115 279.264 27.027 279.822C29.2611 280.37 31.7794 280.551 34.5437 280.326C33.6014 279.154 32.628 278.121 31.7068 277.167C30.7962 276.205 29.8799 275.353 28.9575 274.594C27.0835 273.096 25.328 271.898 23.4831 271.009C22.5662 270.562 21.6432 270.184 20.7145 269.861C19.7964 269.534 18.8932 269.254 17.972 269.025C16.1359 268.56 14.2792 268.274 12.4151 268.058Z" fill="#112F55"/>
<path d="M45.693 272.882C46.0171 273.725 46.3163 274.58 46.5944 275.445C46.8998 276.291 47.1735 277.151 47.4069 278.031C47.6397 278.912 47.8328 279.81 47.9724 280.734C48.1289 281.646 48.2574 282.565 48.3101 283.526C48.4908 287.392 47.8824 291.591 45.5763 296.73C44.8091 295.422 44.1666 294.168 43.6359 292.962C43.3758 292.355 43.1238 291.777 42.9344 291.183C42.7439 290.591 42.5793 290.009 42.4391 289.442C41.8798 287.167 41.6904 285.107 41.8947 283.132C42.0741 281.176 42.5384 279.38 43.1895 277.699C43.8668 275.998 44.7427 274.403 45.693 272.882Z" fill="#112F55"/>
<path d="M22.4148 287.07C23.1069 287.89 23.8065 288.697 24.5378 289.469C25.2963 290.226 26.0741 290.952 26.8792 291.638C27.6837 292.323 28.5149 292.969 29.379 293.56C30.2586 294.141 31.1947 294.653 32.1538 295.108C35.9559 296.955 40.552 297.599 45.9426 296.431C44.8631 295.388 43.7972 294.466 42.7407 293.652C42.2181 293.242 41.6774 292.874 41.1752 292.502C40.6711 292.133 40.1696 291.789 39.6686 291.469C37.6679 290.188 35.6617 289.3 33.7696 288.617C31.8521 287.951 29.9396 287.563 28.0314 287.348C26.1499 287.117 24.2876 287.054 22.4148 287.07Z" fill="#112F55"/>
<path d="M56.0049 287.559L56.3147 288.16L56.6387 288.746C56.8516 289.137 57.0596 289.532 57.2607 289.932C57.6624 290.734 58.0367 291.553 58.3719 292.397C58.6959 293.256 59.0454 294.073 59.3185 294.954C59.5991 295.828 59.83 296.735 60.0076 297.681C60.0969 298.152 60.1658 298.641 60.2329 299.127C60.3043 299.608 60.3608 300.099 60.4011 300.603C60.4812 301.609 60.4961 302.664 60.4377 303.776C60.3819 304.883 60.2403 306.058 60.0374 307.273C59.8437 308.48 59.5674 309.75 59.1987 311.091C58.7114 310.515 58.2558 309.946 57.8331 309.385C57.4289 308.805 57.0602 308.227 56.7176 307.662C56.0354 306.53 55.4711 305.434 55.0136 304.37C54.1514 302.189 53.7299 300.13 53.6082 298.202C53.5108 296.25 53.764 294.381 54.1911 292.627C54.63 290.859 55.2364 289.212 56.0049 287.559Z" fill="#112F55"/>
<path d="M34.8286 304.728L35.4208 305.277L36.0428 305.798C36.4593 306.143 36.8783 306.481 37.3023 306.811C38.1502 307.472 39.0131 308.1 39.8977 308.683C40.7679 309.279 41.7289 309.772 42.6811 310.234C43.6408 310.69 44.6234 311.089 45.6328 311.416C46.1387 311.578 46.6446 311.729 47.171 311.849C47.7036 311.962 48.2424 312.057 48.7881 312.13C49.8806 312.278 51.0011 312.34 52.1519 312.304C53.3059 312.267 54.4779 312.144 55.7057 311.887C56.9429 311.62 58.2117 311.242 59.5147 310.743C58.8914 310.319 58.2763 309.924 57.6698 309.558C57.0807 309.171 56.5034 308.808 55.9286 308.474C54.7808 307.805 53.6579 307.241 52.5542 306.768C50.4014 305.771 48.3405 305.122 46.3113 304.752C44.3093 304.361 42.3931 304.203 40.4756 304.24C38.5736 304.264 36.6579 304.488 34.8286 304.728Z" fill="#112F55"/>
<path d="M68.1593 300.501C68.6963 301.203 69.2177 301.919 69.7155 302.658L70.4493 303.776C70.6982 304.14 70.9391 304.513 71.1725 304.892C71.6393 305.651 72.0725 306.441 72.4661 307.271C72.6635 307.684 72.8454 308.114 73.0254 308.543C73.2135 308.962 73.3885 309.391 73.553 309.833C73.8802 310.718 74.1601 311.653 74.3836 312.644C74.6133 313.628 74.7648 314.705 74.9013 315.777C75.1565 317.95 75.162 320.398 74.8604 323.191C73.7275 322.184 72.7287 321.191 71.8553 320.21C71.4114 319.73 71.0284 319.212 70.6696 318.706C70.3109 318.198 69.98 317.696 69.6777 317.198C69.0756 316.199 68.5721 315.233 68.1866 314.259C67.816 313.264 67.5404 312.29 67.3455 311.337C66.5391 307.557 67.1711 303.909 68.1593 300.501Z" fill="#112F55"/>
<path d="M49.7297 320.591C50.641 321.193 51.5616 321.774 52.4921 322.32C52.9614 322.59 53.4176 322.866 53.9049 323.104C54.3922 323.342 54.882 323.57 55.3755 323.787C56.3612 324.22 57.3606 324.603 58.3737 324.926C58.8815 325.086 59.3868 325.236 59.9063 325.358C60.434 325.472 60.9641 325.567 61.4998 325.644C62.5675 325.798 63.6501 325.877 64.7464 325.867C65.847 325.849 66.9382 325.774 68.0947 325.528C70.3865 325.062 72.7268 324.187 75.1166 322.795C73.7665 322.136 72.4673 321.589 71.2071 321.138C70.5789 320.915 69.9725 320.7 69.3809 320.49C68.7887 320.288 68.2033 320.11 67.6279 319.954C66.477 319.638 65.3472 319.426 64.2653 319.258C63.1976 319.073 62.1553 318.965 61.1336 318.923C57.0099 318.786 53.3599 319.522 49.7297 320.591Z" fill="#112F55"/>
<path d="M81.9692 311.264L82.8966 312.195C83.212 312.493 83.5242 312.794 83.8315 313.104C84.4454 313.722 85.0394 314.368 85.6074 315.052C85.8942 315.389 86.1642 315.755 86.4448 316.095C86.7248 316.434 86.9985 316.784 87.2642 317.148C87.7937 317.871 88.2922 318.644 88.7534 319.473C88.9831 319.888 89.2041 320.317 89.4145 320.761C89.6324 321.19 89.8447 321.627 90.0427 322.085C90.4425 323 90.7982 323.984 91.1073 325.045C91.4195 326.103 91.6759 327.26 91.8957 328.469C92.1204 329.663 92.2942 330.949 92.4096 332.336C91.7529 331.962 91.1309 331.586 90.5412 331.206C89.9645 330.795 89.4232 330.375 88.9123 329.957C87.8906 329.121 86.9948 328.278 86.212 327.432C84.6962 325.643 83.6328 323.847 82.9115 322.074C82.2249 320.235 81.8792 318.411 81.7532 316.62C81.6899 315.724 81.683 314.834 81.719 313.951C81.7631 313.053 81.8544 312.151 81.9692 311.264Z" fill="#112F55"/>
<path d="M67.0872 334.107C67.5863 334.339 68.0798 334.575 68.5882 334.786C69.1028 334.987 69.6193 335.182 70.1364 335.367C71.1699 335.738 72.2091 336.072 73.2513 336.356C73.7758 336.495 74.2886 336.636 74.8249 336.732C75.36 336.827 75.8976 336.909 76.4351 336.973C77.509 337.102 78.5854 337.167 79.6618 337.156C80.2 337.149 80.7376 337.123 81.2751 337.077C81.8208 337.015 82.3702 336.925 82.9158 336.814C84.0083 336.594 85.0965 336.284 86.176 335.868C87.2586 335.448 88.3238 334.943 89.3952 334.283C90.4728 333.61 91.5387 332.82 92.5896 331.902C91.859 331.719 91.1457 331.561 90.448 331.427C89.7633 331.261 89.0985 331.111 88.4448 330.99C87.1388 330.745 85.888 330.588 84.6837 330.51C82.3255 330.255 80.1479 330.316 78.0901 330.614C76.072 330.846 74.1762 331.313 72.35 331.936C71.4375 332.246 70.5436 332.595 69.6615 332.969C68.7887 333.328 67.937 333.707 67.0872 334.107Z" fill="#112F55"/>
<path d="M97.1943 319.316C98.6394 320.226 100.028 321.298 101.408 322.325C102.78 323.385 104.057 324.689 105.291 326.045C105.903 326.745 106.489 327.51 107.049 328.353C107.329 328.772 107.604 329.212 107.871 329.671C108.138 330.125 108.406 330.57 108.662 331.053C109.693 332.972 110.609 335.243 111.387 337.95C109.959 337.438 108.661 336.886 107.485 336.302C107.193 336.157 106.907 336.008 106.629 335.858C106.351 335.704 106.087 335.526 105.827 335.357C105.308 335.016 104.818 334.667 104.356 334.314C103.434 333.607 102.621 332.879 101.908 332.132C101.211 331.34 100.612 330.524 100.098 329.704C99.5842 328.881 99.1553 328.048 98.7977 327.209C98.6183 326.787 98.4557 326.369 98.3136 325.941C98.1739 325.502 98.0504 325.06 97.9405 324.62C97.5041 322.855 97.2899 321.081 97.1943 319.316Z" fill="#112F55"/>
<path d="M86.7769 344.508C88.9595 345.019 91.1098 345.507 93.3234 345.588C95.5221 345.7 97.6693 345.684 99.8183 345.158C100.884 344.918 101.934 344.601 102.96 344.194C103.473 343.992 103.98 343.767 104.481 343.518C104.982 343.263 105.486 342.956 105.977 342.639C107.946 341.357 109.793 339.672 111.474 337.488C109.978 337.379 108.568 337.356 107.231 337.407C106.898 337.42 106.569 337.436 106.242 337.459C105.922 337.469 105.604 337.482 105.29 337.493C104.665 337.521 104.056 337.567 103.46 337.631C102.27 337.759 101.14 337.955 100.059 338.211C98.9915 338.422 97.9765 338.684 96.9976 339.006C96.0212 339.326 95.0832 339.698 94.1788 340.112C93.7262 340.318 93.2793 340.54 92.8442 340.762C92.4134 340.971 91.9894 341.194 91.571 341.422C89.8968 342.343 88.3201 343.398 86.7769 344.508Z" fill="#112F55"/>
<path d="M113.457 324.217C114.239 324.579 115.035 324.847 115.819 325.189C116.604 325.523 117.384 325.893 118.155 326.307C118.921 326.746 119.694 327.109 120.452 327.579C121.21 328.039 121.959 328.556 122.697 329.141C123.066 329.43 123.433 329.754 123.799 330.062C124.164 330.364 124.529 330.685 124.89 331.025C125.611 331.707 126.324 332.47 127.025 333.323C127.727 334.17 128.419 335.134 129.1 336.154C129.783 337.158 130.455 338.267 131.114 339.49C130.364 339.413 129.643 339.316 128.95 339.204C128.258 339.058 127.595 338.883 126.96 338.703C125.691 338.338 124.535 337.918 123.484 337.45C121.389 336.416 119.718 335.156 118.373 333.81C117.035 332.411 116.032 330.828 115.245 329.231C114.459 327.62 113.89 325.977 113.457 324.217Z" fill="#112F55"/>
<path d="M108.32 350.99C109.436 351.084 110.567 351.038 111.682 350.997C112.797 350.948 113.903 350.864 114.991 350.73C116.075 350.622 117.157 350.344 118.207 350.057C119.26 349.758 120.288 349.401 121.281 348.972C121.779 348.753 122.267 348.535 122.748 348.263C123.229 347.986 123.7 347.689 124.162 347.372C125.084 346.738 125.964 346.022 126.794 345.212C127.624 344.397 128.405 343.515 129.126 342.482C129.846 341.433 130.508 340.282 131.105 339.019C130.362 339.145 129.645 339.285 128.951 339.442C128.258 339.564 127.588 339.688 126.94 339.835C125.643 340.125 124.431 340.477 123.292 340.88C121.019 341.588 119.034 342.473 117.243 343.552C115.459 344.575 113.88 345.7 112.415 346.978C110.952 348.242 109.604 349.645 108.32 350.99Z" fill="#112F55"/>
<path d="M354.174 264.817C354.174 264.817 353.91 265.385 353.412 266.453C353.159 266.985 352.868 267.65 352.485 268.413C352.095 269.173 351.647 270.047 351.145 271.024C349.162 274.949 346.089 280.454 341.856 286.716C337.624 292.972 332.191 299.976 325.545 306.734C324.697 307.561 323.842 308.394 322.981 309.234C322.55 309.654 322.119 310.075 321.685 310.499C321.233 310.901 320.78 311.307 320.324 311.713C319.414 312.525 318.498 313.342 317.578 314.163C316.632 314.954 315.66 315.725 314.696 316.514C314.213 316.908 313.729 317.3 313.244 317.694C312.757 318.086 312.241 318.442 311.739 318.82C310.73 319.564 309.717 320.31 308.7 321.058C307.663 321.775 306.6 322.461 305.548 323.165L303.966 324.216C303.429 324.551 302.878 324.866 302.335 325.193L299.064 327.136C297.944 327.726 296.822 328.315 295.704 328.903C295.143 329.195 294.588 329.499 294.023 329.78L292.305 330.569C291.158 331.088 290.026 331.634 288.877 332.13C287.712 332.589 286.553 333.048 285.397 333.504C284.818 333.724 284.251 333.979 283.663 334.169C283.076 334.364 282.49 334.558 281.908 334.751C280.739 335.129 279.586 335.542 278.423 335.887C277.25 336.202 276.084 336.516 274.928 336.828C274.349 336.978 273.777 337.151 273.198 337.281C272.615 337.401 272.036 337.521 271.46 337.642C270.307 337.879 269.163 338.118 268.031 338.352C266.886 338.521 265.755 338.688 264.634 338.852C263.513 339.01 262.41 339.207 261.305 339.269C260.203 339.364 259.116 339.457 258.041 339.548C257.505 339.583 256.974 339.662 256.442 339.662C255.912 339.675 255.385 339.688 254.862 339.7C253.817 339.726 252.788 339.751 251.776 339.776C251.522 339.779 251.27 339.794 251.02 339.789C250.77 339.78 250.52 339.77 250.271 339.761C249.774 339.744 249.282 339.725 248.793 339.708C248.449 339.695 248.11 339.683 247.769 339.67C247.718 339.739 247.667 339.808 247.613 339.872C246.979 340.631 246.336 341.386 245.677 342.124C246.585 342.149 247.512 342.174 248.455 342.201C249.454 342.219 250.473 342.281 251.51 342.261C252.547 342.226 253.602 342.191 254.673 342.155C256.819 342.14 259.017 341.878 261.274 341.672C261.838 341.611 262.408 341.58 262.976 341.496C263.543 341.408 264.112 341.318 264.686 341.231C265.833 341.052 266.992 340.871 268.163 340.69C269.326 340.464 270.493 340.192 271.673 339.942C272.853 339.684 274.049 339.452 275.223 339.094C276.406 338.763 277.595 338.432 278.794 338.098C279.398 337.945 279.983 337.726 280.575 337.527C281.167 337.324 281.762 337.122 282.356 336.919C284.759 336.164 287.09 335.135 289.466 334.187C290.066 333.961 290.634 333.66 291.218 333.395L292.962 332.573L294.71 331.751C295.299 331.483 295.853 331.151 296.425 330.853C297.563 330.241 298.703 329.63 299.842 329.016C300.961 328.368 302.058 327.681 303.167 327.015L304.825 326.009L306.431 324.927C307.5 324.204 308.566 323.482 309.63 322.76C310.658 321.989 311.684 321.218 312.705 320.451C313.215 320.068 313.725 319.683 314.233 319.3C314.724 318.894 315.213 318.49 315.701 318.085C316.677 317.277 317.65 316.472 318.615 315.672C319.544 314.828 320.469 313.989 321.387 313.155C321.845 312.739 322.302 312.323 322.759 311.909C323.206 311.486 323.634 311.047 324.07 310.618C324.937 309.756 325.798 308.901 326.651 308.053C333.357 301.145 338.798 293.987 343.034 287.614C344.077 286.009 345.117 284.497 345.99 282.987C346.438 282.24 346.875 281.512 347.303 280.806C347.722 280.095 348.156 279.419 348.519 278.732C349.267 277.372 349.966 276.1 350.614 274.923C350.775 274.628 350.934 274.34 351.088 274.058C351.233 273.771 351.374 273.489 351.512 273.214C351.787 272.664 352.051 272.14 352.301 271.643C352.799 270.648 353.244 269.759 353.631 268.987C354.012 268.211 354.3 267.535 354.551 266.995C355.045 265.911 355.307 265.333 355.307 265.333L354.174 264.817Z" fill="#112F55"/>
<path d="M362.063 245.896C360.689 247.401 359.385 248.94 358.231 250.591C357.035 252.226 355.94 253.954 355.089 255.891C354.642 256.85 354.214 257.846 353.867 258.913C353.507 259.974 353.244 261.113 352.984 262.302C352.721 263.488 352.525 264.75 352.403 266.107C352.337 266.783 352.304 267.489 352.265 268.209C352.218 268.923 352.188 269.665 352.178 270.433C352.793 269.969 353.379 269.497 353.937 269.019C354.486 268.54 354.982 268.041 355.465 267.547C356.423 266.553 357.272 265.545 358.023 264.528C358.768 263.508 359.354 262.455 359.886 261.416C360.406 260.372 360.856 259.332 361.199 258.283C361.841 256.171 362.209 254.083 362.328 252.018C362.404 249.934 362.282 247.893 362.063 245.896Z" fill="#112F55"/>
<path d="M342.707 258.619C342.482 259.495 342.277 260.377 342.104 261.272C341.932 262.166 341.796 263.073 341.652 263.966C341.382 265.764 341.321 267.635 341.457 269.556C341.572 271.466 341.949 273.462 342.675 275.584C343.383 277.696 344.385 279.898 345.858 282.281C346.455 280.891 346.965 279.585 347.314 278.31C347.652 277.028 347.887 275.81 348.03 274.653C348.346 272.355 348.152 270.222 347.754 268.318C347.551 267.362 347.279 266.454 346.954 265.589C346.618 264.718 346.208 263.878 345.769 263.079C344.884 261.475 343.833 260.008 342.707 258.619Z" fill="#112F55"/>
<path d="M367.584 269.768C366.995 270.662 366.389 271.54 365.757 272.393C365.129 273.247 364.481 274.076 363.747 274.844C362.301 276.39 360.765 277.805 358.98 278.948C357.174 280.08 355.188 280.973 352.972 281.53C350.739 282.079 348.221 282.259 345.456 282.035C346.399 280.862 347.371 279.83 348.294 278.876C349.204 277.913 350.121 277.061 351.043 276.303C352.917 274.804 354.672 273.608 356.518 272.718C357.433 272.271 358.357 271.892 359.285 271.57C360.204 271.243 361.106 270.963 362.028 270.732C363.864 270.268 365.72 269.981 367.584 269.768Z" fill="#112F55"/>
<path d="M334.306 274.591C333.984 275.433 333.683 276.289 333.403 277.153C333.1 278 332.827 278.86 332.593 279.739C332.36 280.62 332.167 281.519 332.026 282.442C331.87 283.354 331.742 284.274 331.689 285.234C331.507 289.098 332.116 293.298 334.423 298.437C335.189 297.131 335.833 295.876 336.363 294.669C336.623 294.064 336.875 293.484 337.064 292.89C337.256 292.297 337.42 291.717 337.56 291.149C338.118 288.874 338.308 286.814 338.104 284.84C337.926 282.883 337.46 281.088 336.81 279.406C336.132 277.707 335.256 276.112 334.306 274.591Z" fill="#112F55"/>
<path d="M357.585 288.779C356.893 289.599 356.194 290.406 355.462 291.178C354.704 291.933 353.925 292.661 353.121 293.346C352.315 294.031 351.485 294.677 350.621 295.268C349.742 295.849 348.805 296.362 347.846 296.818C344.045 298.665 339.449 299.308 334.056 298.141C335.136 297.097 336.203 296.175 337.259 295.362C337.781 294.952 338.323 294.584 338.824 294.211C339.329 293.842 339.83 293.497 340.331 293.179C342.332 291.897 344.339 291.009 346.232 290.327C348.149 289.661 350.062 289.271 351.969 289.057C353.85 288.826 355.713 288.762 357.585 288.779Z" fill="#112F55"/>
<path d="M323.994 289.268L323.685 289.868L323.361 290.454C323.147 290.846 322.94 291.241 322.739 291.641C322.338 292.443 321.963 293.262 321.627 294.106C321.304 294.965 320.953 295.781 320.681 296.663C320.401 297.537 320.169 298.444 319.992 299.39C319.903 299.861 319.834 300.349 319.767 300.836C319.695 301.316 319.639 301.807 319.6 302.31C319.519 303.318 319.503 304.373 319.564 305.484C319.619 306.591 319.759 307.766 319.963 308.982C320.156 310.188 320.433 311.458 320.802 312.799C321.289 312.222 321.743 311.654 322.167 311.093C322.57 310.512 322.94 309.936 323.282 309.37C323.965 308.238 324.529 307.14 324.986 306.078C325.849 303.898 326.27 301.837 326.392 299.909C326.489 297.958 326.236 296.089 325.81 294.334C325.369 292.566 324.763 290.92 323.994 289.268Z" fill="#112F55"/>
<path d="M345.17 306.438L344.577 306.986L343.956 307.507C343.54 307.852 343.121 308.191 342.696 308.521C341.85 309.181 340.986 309.809 340.1 310.392C339.233 310.988 338.27 311.481 337.318 311.943C336.359 312.399 335.376 312.798 334.367 313.126C333.861 313.287 333.355 313.438 332.828 313.558C332.295 313.672 331.756 313.767 331.211 313.84C330.118 313.988 328.998 314.05 327.847 314.015C326.694 313.977 325.52 313.854 324.293 313.597C323.056 313.329 321.788 312.952 320.484 312.453C321.108 312.028 321.723 311.634 322.33 311.268C322.918 310.881 323.497 310.518 324.07 310.184C325.217 309.515 326.34 308.95 327.445 308.478C329.599 307.481 331.658 306.832 333.688 306.462C335.692 306.07 337.607 305.913 339.524 305.948C341.426 305.971 343.341 306.197 345.17 306.438Z" fill="#112F55"/>
<path d="M311.84 302.21C311.303 302.911 310.782 303.628 310.283 304.367L309.548 305.485C309.301 305.85 309.059 306.221 308.825 306.601C308.359 307.36 307.926 308.15 307.533 308.98C307.335 309.393 307.152 309.823 306.972 310.252C306.785 310.671 306.61 311.101 306.445 311.543C306.119 312.427 305.838 313.362 305.615 314.353C305.386 315.339 305.234 316.414 305.096 317.486C304.843 319.659 304.837 322.107 305.137 324.9C306.271 323.895 307.27 322.9 308.142 321.919C308.587 321.439 308.97 320.921 309.329 320.415C309.688 319.907 310.018 319.405 310.321 318.907C310.923 317.908 311.427 316.942 311.812 315.968C312.183 314.974 312.458 314 312.653 313.046C313.46 309.265 312.829 305.618 311.84 302.21Z" fill="#112F55"/>
<path d="M330.269 322.298C329.359 322.901 328.437 323.483 327.507 324.029C327.039 324.298 326.582 324.575 326.094 324.812C325.607 325.05 325.117 325.279 324.623 325.494C323.638 325.928 322.638 326.312 321.626 326.635C321.118 326.795 320.612 326.945 320.093 327.067C319.566 327.181 319.035 327.276 318.5 327.353C317.431 327.507 316.349 327.586 315.253 327.576C314.152 327.558 313.061 327.482 311.904 327.236C309.612 326.771 307.273 325.896 304.883 324.504C306.233 323.844 307.533 323.297 308.791 322.847C309.419 322.625 310.027 322.409 310.618 322.199C311.21 321.997 311.795 321.82 312.371 321.664C313.521 321.348 314.652 321.135 315.735 320.968C316.802 320.783 317.843 320.675 318.866 320.632C322.989 320.495 326.64 321.23 330.269 322.298Z" fill="#112F55"/>
<path d="M298.03 312.972L297.104 313.904C296.788 314.2 296.475 314.503 296.168 314.812C295.555 315.431 294.96 316.077 294.391 316.761C294.105 317.097 293.834 317.463 293.555 317.804C293.274 318.143 293.001 318.493 292.736 318.856C292.205 319.58 291.707 320.353 291.247 321.181C291.016 321.596 290.795 322.025 290.584 322.47C290.367 322.899 290.154 323.335 289.956 323.793C289.557 324.708 289.199 325.691 288.89 326.755C288.579 327.811 288.322 328.969 288.103 330.178C287.878 331.372 287.704 332.659 287.587 334.045C288.244 333.672 288.867 333.295 289.458 332.915C290.033 332.505 290.574 332.084 291.086 331.667C292.107 330.83 293.003 329.988 293.784 329.141C295.303 327.351 296.364 325.555 297.086 323.783C297.772 321.943 298.118 320.12 298.244 318.329C298.307 317.432 298.313 316.543 298.279 315.66C298.236 314.763 298.145 313.859 298.03 312.972Z" fill="#112F55"/>
<path d="M312.912 335.815C312.412 336.046 311.918 336.284 311.411 336.495C310.896 336.696 310.38 336.891 309.862 337.076C308.829 337.447 307.791 337.78 306.748 338.064C306.224 338.202 305.71 338.345 305.175 338.441C304.639 338.536 304.102 338.616 303.564 338.681C302.49 338.81 301.414 338.876 300.338 338.863C299.799 338.857 299.262 338.831 298.725 338.784C298.179 338.722 297.63 338.632 297.084 338.522C295.992 338.302 294.902 337.991 293.822 337.575C292.741 337.155 291.675 336.65 290.604 335.992C289.527 335.318 288.461 334.527 287.409 333.609C288.14 333.427 288.854 333.269 289.551 333.134C290.235 332.967 290.901 332.818 291.555 332.697C292.861 332.45 294.111 332.295 295.316 332.216C297.675 331.962 299.852 332.023 301.909 332.32C303.928 332.552 305.823 333.019 307.649 333.643C308.561 333.953 309.457 334.301 310.337 334.676C311.21 335.036 312.062 335.415 312.912 335.815Z" fill="#112F55"/>
<path d="M282.806 321.025C281.36 321.935 279.971 323.007 278.59 324.034C277.22 325.094 275.941 326.398 274.708 327.754C274.097 328.455 273.51 329.22 272.949 330.061C272.669 330.481 272.395 330.92 272.129 331.38C271.861 331.833 271.593 332.279 271.336 332.761C270.307 334.681 269.391 336.951 268.611 339.658C270.04 339.146 271.339 338.595 272.512 338.01C272.807 337.865 273.092 337.717 273.37 337.567C273.648 337.412 273.912 337.234 274.172 337.066C274.69 336.724 275.18 336.377 275.643 336.023C276.565 335.316 277.378 334.588 278.089 333.84C278.788 333.049 279.386 332.232 279.901 331.412C280.414 330.589 280.842 329.757 281.201 328.918C281.379 328.496 281.541 328.078 281.685 327.65C281.825 327.209 281.948 326.769 282.058 326.328C282.497 324.564 282.71 322.79 282.806 321.025Z" fill="#112F55"/>
<path d="M293.223 346.217C291.04 346.728 288.889 347.216 286.676 347.296C284.477 347.407 282.33 347.393 280.181 346.867C279.114 346.626 278.065 346.309 277.038 345.903C276.526 345.7 276.018 345.476 275.518 345.227C275.016 344.972 274.514 344.663 274.022 344.347C272.052 343.065 270.207 341.381 268.525 339.196C270.021 339.087 271.43 339.063 272.768 339.115C273.101 339.127 273.432 339.144 273.757 339.166C274.079 339.178 274.397 339.191 274.71 339.201C275.336 339.229 275.945 339.276 276.54 339.339C277.729 339.467 278.86 339.662 279.941 339.919C281.009 340.129 282.025 340.392 283.002 340.713C283.98 341.034 284.917 341.406 285.823 341.82C286.275 342.025 286.721 342.248 287.156 342.47C287.587 342.68 288.012 342.902 288.43 343.131C290.103 344.051 291.68 345.106 293.223 346.217Z" fill="#112F55"/>
<path d="M266.541 325.926C265.76 326.288 264.962 326.555 264.18 326.897C263.393 327.233 262.615 327.602 261.845 328.014C261.077 328.455 260.304 328.817 259.547 329.288C258.788 329.747 258.04 330.265 257.302 330.849C256.932 331.137 256.566 331.461 256.2 331.769C255.835 332.071 255.471 332.393 255.11 332.733C254.388 333.415 253.676 334.177 252.974 335.031C252.271 335.877 251.58 336.843 250.897 337.862C250.215 338.866 249.543 339.975 248.883 341.199C249.634 341.12 250.356 341.024 251.049 340.912C251.74 340.767 252.403 340.591 253.039 340.411C254.309 340.046 255.463 339.627 256.515 339.159C258.61 338.125 260.282 336.865 261.625 335.519C262.964 334.119 263.966 332.537 264.755 330.939C265.539 329.329 266.108 327.686 266.541 325.926Z" fill="#112F55"/>
<path d="M271.678 352.699C270.563 352.793 269.431 352.747 268.316 352.706C267.2 352.657 266.096 352.572 265.01 352.439C263.925 352.331 262.843 352.052 261.793 351.766C260.74 351.467 259.712 351.11 258.719 350.681C258.221 350.463 257.733 350.243 257.252 349.972C256.771 349.694 256.299 349.397 255.838 349.08C254.915 348.446 254.035 347.73 253.204 346.921C252.374 346.106 251.594 345.224 250.874 344.189C250.154 343.142 249.492 341.991 248.895 340.727C249.637 340.853 250.354 340.994 251.047 341.15C251.741 341.272 252.411 341.397 253.06 341.544C254.357 341.833 255.568 342.185 256.707 342.588C258.98 343.297 260.965 344.182 262.757 345.26C264.541 346.284 266.12 347.408 267.584 348.687C269.047 349.951 270.394 351.354 271.678 352.699Z" fill="#112F55"/>
<path d="M191.775 74.5499L77.6562 104.014V265.603C77.6562 317.751 180.376 370.838 191.775 370.838C203.174 370.838 305.895 317.751 305.895 265.603V104.014L191.775 74.5499Z" fill="#112F55"/>
<path d="M191.775 81.0778L82.6843 109.106V263.712C82.6843 313.563 180.877 364.312 191.775 364.312C202.671 364.312 300.865 313.563 300.865 263.712V109.106L191.775 81.0778Z" fill="#FCB436"/>
<path d="M191.775 83.693L84.6986 111.147V262.957C84.6986 311.886 181.08 361.696 191.775 361.696C202.47 361.696 298.851 311.886 298.851 262.957V111.146L191.775 83.693Z" fill="#112F55"/>
<path d="M191.775 220.391L92.6101 245.043V259.981C92.6101 305.298 181.868 351.427 191.775 351.427C201.68 351.427 290.94 305.298 290.94 259.981V245.043L191.775 220.391Z" fill="#FCB436"/>
<path d="M131.69 55.3661L126.828 57.0862L135.374 81.2449L140.237 79.5248L131.69 55.3661Z" fill="#112F55"/>
<path d="M143.488 78.3328L136.659 53.6312L142.489 52.0197L149.103 63.0616L145.658 51.1444L150.628 49.7707L157.458 74.4711L152.118 75.9466L144.727 64.1393L148.442 76.9634L143.488 78.3328Z" fill="#112F55"/>
<path d="M172.544 65.4013C172.958 67.5168 172.736 69.2108 171.88 70.4803C171.023 71.7516 169.468 72.5877 167.215 72.9881C166.035 73.1985 165.006 73.2401 164.129 73.1129C163.252 72.9856 162.506 72.6964 161.89 72.2475C161.277 71.7963 160.776 71.1786 160.39 70.3921C160.005 69.6056 159.712 68.659 159.515 67.5484L159.134 65.4031L164.195 64.5043L164.577 66.6508C164.671 67.1878 164.844 67.5807 165.09 67.8334C165.339 68.0835 165.729 68.1562 166.264 68.0488C166.848 67.9445 167.216 67.7403 167.364 67.4373C167.513 67.135 167.544 66.739 167.457 66.2492C167.379 65.8079 167.3 65.4186 167.221 65.0822C167.144 64.7464 167.037 64.4447 166.905 64.1796C166.77 63.9152 166.597 63.6805 166.383 63.4794C166.169 63.2777 165.883 63.0977 165.522 62.9406L162.875 61.75C161.843 61.2695 161.013 60.8052 160.386 60.3577C159.759 59.9088 159.263 59.4315 158.896 58.925C158.528 58.4178 158.253 57.8554 158.07 57.2359C157.887 56.617 157.723 55.8969 157.576 55.0744L157.48 54.5375C157.273 53.3692 157.235 52.3518 157.371 51.4852C157.507 50.618 157.804 49.8831 158.262 49.2803C158.72 48.6757 159.325 48.1859 160.077 47.8129C160.829 47.4404 161.723 47.1604 162.761 46.9779C163.809 46.7905 164.745 46.7508 165.57 46.8563C166.394 46.9624 167.108 47.23 167.714 47.6564C168.319 48.0841 168.819 48.6838 169.215 49.4566C169.61 50.2288 169.908 51.1848 170.112 52.3301L170.515 54.602L165.491 55.4953L165.059 53.1731C164.976 52.6969 164.826 52.345 164.614 52.1172C164.401 51.8912 164.05 51.8211 163.562 51.9067C163.084 51.993 162.779 52.1854 162.642 52.4859C162.506 52.7876 162.475 53.1886 162.551 53.692L162.624 54.1029C162.668 54.3407 162.727 54.5822 162.807 54.8274C162.889 55.0707 162.997 55.3029 163.134 55.5251C163.272 55.7461 163.44 55.9503 163.64 56.1359C163.839 56.3228 164.083 56.4699 164.373 56.5779L166.553 57.4258C167.557 57.8132 168.393 58.2427 169.061 58.7151C169.729 59.1863 170.285 59.7388 170.729 60.3732C171.174 61.0076 171.534 61.7345 171.808 62.5526C172.083 63.3708 172.329 64.3199 172.544 65.4013Z" fill="#112F55"/>
<path d="M182.416 49.9364L184.225 70.4517L179.07 70.9073L177.259 50.3915L173.369 50.7329L172.927 45.7228L185.864 44.58L186.307 49.5919L182.416 49.9364Z" fill="#112F55"/>
<path d="M194.554 44.4346L189.396 44.5244L189.842 70.147L195 70.0573L194.554 44.4346Z" fill="#112F55"/>
<path d="M206.991 49.9141L205.786 70.4765L200.619 70.1724L201.825 49.6118L197.926 49.3815L198.22 44.3602L211.184 45.1207L210.89 50.1432L206.991 49.9141Z" fill="#112F55"/>
<path d="M228.346 47.7986L225.06 67.0084C224.888 68.0115 224.629 68.8924 224.286 69.6497C223.94 70.4089 223.47 71.0209 222.873 71.4896C222.277 71.9589 221.542 72.2686 220.67 72.4207C219.796 72.5722 218.75 72.5449 217.533 72.3351C216.315 72.1283 215.32 71.8068 214.546 71.3729C213.773 70.9396 213.183 70.4027 212.777 69.762C212.371 69.122 212.13 68.3877 212.058 67.5571C211.985 66.7272 212.034 65.8116 212.205 64.8084L215.492 45.5992L220.54 46.464L217.257 65.6545C217.222 65.8587 217.205 66.0506 217.201 66.2355C217.201 66.4199 217.241 66.5925 217.317 66.7526C217.394 66.914 217.516 67.0512 217.681 67.1654C217.845 67.2803 218.076 67.3622 218.375 67.4119C218.673 67.4634 218.92 67.4634 219.112 67.4094C219.305 67.356 219.462 67.266 219.583 67.14C219.702 67.0127 219.796 66.8631 219.862 66.6906C219.928 66.5174 219.979 66.3293 220.013 66.1263L223.296 46.9345L228.346 47.7986Z" fill="#112F55"/>
<path d="M239.964 56.2104L234.108 75.9559L229.144 74.4847L235.003 54.7392L231.259 53.6268L232.69 48.8048L245.138 52.4971L243.71 57.3215L239.964 56.2104Z" fill="#112F55"/>
<path d="M246.139 59.7953C246.537 58.8716 247.003 58.064 247.533 57.3687C248.063 56.6753 248.684 56.1477 249.392 55.7883C250.101 55.4289 250.906 55.2551 251.81 55.2706C252.715 55.2836 253.738 55.5387 254.884 56.0322C256.029 56.5276 256.917 57.0981 257.547 57.7461C258.176 58.3942 258.605 59.1 258.83 59.8623C259.054 60.6252 259.097 61.439 258.954 62.3006C258.814 63.1628 258.543 64.0555 258.146 64.9773L253.175 76.4823C252.773 77.4178 252.306 78.231 251.775 78.9244C251.245 79.619 250.625 80.146 249.917 80.5061C249.209 80.8667 248.402 81.038 247.496 81.0244C246.593 81.0101 245.568 80.7556 244.424 80.2609C243.278 79.7667 242.391 79.1944 241.76 78.547C241.13 77.8989 240.702 77.1919 240.483 76.4227C240.259 75.6536 240.218 74.838 240.36 73.9764C240.503 73.1135 240.771 72.2221 241.169 71.2978L246.139 59.7953ZM246.412 75.6592C246.423 75.6648 246.434 75.6722 246.443 75.6828C246.449 75.6927 246.461 75.7008 246.472 75.7052C246.733 75.8051 246.968 75.8305 247.18 75.7827C247.392 75.7362 247.577 75.6449 247.734 75.5084C247.893 75.373 248.028 75.2079 248.146 75.0124C248.261 74.8193 248.363 74.6288 248.444 74.4394L253.403 62.9499C253.484 62.7618 253.554 62.5582 253.617 62.341C253.678 62.1231 253.702 61.9058 253.69 61.6904C253.677 61.4744 253.613 61.2739 253.496 61.0901C253.375 60.907 253.177 60.7549 252.899 60.6358C252.866 60.6215 252.846 60.606 252.839 60.5904C252.568 60.4862 252.329 60.4595 252.123 60.5079C251.916 60.5582 251.732 60.6488 251.569 60.7829C251.405 60.9176 251.267 61.079 251.152 61.2658C251.038 61.4545 250.941 61.6432 250.858 61.8326L245.892 73.3376C245.811 73.5263 245.74 73.7293 245.678 73.9478C245.616 74.1657 245.597 74.3798 245.618 74.5946C245.636 74.8069 245.705 75.008 245.821 75.1961C245.936 75.3861 246.135 75.5394 246.412 75.6592Z" fill="#112F55"/>
<path d="M191.775 89.4461L92.6101 114.872V210.095C92.6101 255.409 181.889 221.661 191.775 221.041C208.544 219.991 290.94 255.41 290.94 210.095V114.872L191.775 89.4461Z" fill="#FCB436"/>
<path d="M150.432 305.163C151.692 305.684 152.959 306.179 154.232 306.648C156.64 307.526 157.418 309.2 156.646 311.613C155.823 314.144 155.001 316.676 154.178 319.207C153.409 321.606 151.592 322.493 148.784 321.469C147.31 320.928 145.845 320.354 144.39 319.751C146.403 314.889 148.418 310.026 150.432 305.163ZM152.021 308.225C150.67 311.734 149.321 315.243 147.972 318.753C148.485 318.95 148.997 319.144 149.512 319.334C150.385 319.655 151.047 319.455 151.42 318.392C152.334 315.811 153.245 313.231 154.158 310.65C154.531 309.586 154.193 309.037 153.41 308.749C152.946 308.577 152.482 308.402 152.021 308.225Z" fill="#112F55"/>
<path d="M160.07 315.522C161.273 315.859 162.479 316.174 163.688 316.467C163.511 317.198 163.335 317.928 163.157 318.66C161.921 318.36 160.691 318.038 159.464 317.694C159.049 319.179 158.634 320.664 158.218 322.149C159.827 322.598 161.444 323.013 163.065 323.391C162.895 324.124 162.724 324.856 162.553 325.589C159.941 324.98 157.345 324.279 154.77 323.487C156.316 318.456 157.862 313.424 159.409 308.393C161.635 309.077 163.88 309.683 166.14 310.209C165.968 310.942 165.797 311.674 165.627 312.407C164.165 312.065 162.709 311.693 161.257 311.286C160.861 312.698 160.466 314.11 160.07 315.522Z" fill="#112F55"/>
<path d="M174.597 311.622C177.028 311.97 178.137 313.519 177.878 316.037C177.86 316.202 177.843 316.367 177.825 316.531C176.995 316.442 176.168 316.343 175.34 316.234C175.369 316.018 175.396 315.802 175.425 315.584C175.571 314.467 175.16 313.982 174.345 313.866C173.528 313.746 172.996 314.095 172.819 315.208C172.278 318.452 177.461 319.752 177.027 324.205C176.77 326.711 175.125 328.014 172.253 327.603C169.382 327.18 168.169 325.462 168.637 322.984L168.813 322.032C169.688 322.192 170.565 322.343 171.444 322.482C171.384 322.854 171.325 323.226 171.265 323.596C171.086 324.711 171.594 325.204 172.503 325.338C173.412 325.47 174.039 325.142 174.187 324.022C174.576 320.838 169.332 319.392 170.195 314.923C170.66 312.434 172.168 311.265 174.597 311.622Z" fill="#112F55"/>
<path d="M179.75 312.416C180.594 312.494 181.437 312.561 182.28 312.618C181.927 317.87 181.573 323.122 181.219 328.374C180.244 328.308 179.269 328.23 178.294 328.14C178.779 322.899 179.265 317.658 179.75 312.416Z" fill="#112F55"/>
<path d="M186.262 317.162C186.161 320.974 186.06 324.785 185.959 328.596C185.079 328.573 184.2 328.54 183.321 328.497L184.099 312.725C185.158 312.777 186.217 312.812 187.277 312.83C188.089 315.996 188.982 319.152 189.958 322.294C189.933 319.144 189.906 315.993 189.881 312.842C190.634 312.836 191.387 312.822 192.139 312.799C192.301 318.06 192.461 323.322 192.62 328.582C191.617 328.613 190.613 328.631 189.61 328.636C188.376 324.83 187.259 321.004 186.262 317.162Z" fill="#112F55"/>
<path d="M204.182 327.655C203.202 327.783 202.221 327.898 201.239 328.001C200.971 327.07 200.707 326.136 200.449 325.202C199.283 325.32 198.116 325.419 196.948 325.499C196.849 326.464 196.748 327.427 196.642 328.391C195.745 328.45 194.848 328.497 193.951 328.535C194.726 323.235 195.365 317.927 195.869 312.617C197.103 312.534 198.337 312.427 199.569 312.298C200.974 317.444 202.511 322.565 204.182 327.655ZM197.155 323.336C198.054 323.271 198.954 323.195 199.853 323.109C199.147 320.501 198.472 317.889 197.83 315.273C197.638 317.961 197.412 320.649 197.155 323.336Z" fill="#112F55"/>
<path d="M203.302 311.838C204.141 311.717 204.979 311.588 205.813 311.447C206.564 315.897 207.312 320.346 208.06 324.795C209.621 324.533 211.176 324.238 212.727 323.909C212.883 324.645 213.038 325.381 213.194 326.117C210.651 326.655 208.095 327.106 205.529 327.471C204.786 322.26 204.044 317.049 203.302 311.838Z" fill="#112F55"/>
<path d="M211.628 314.177C211.096 311.702 212.122 310.019 214.532 309.393C216.943 308.759 218.671 309.723 219.416 312.141C220.209 314.763 221.002 317.382 221.795 320.002C222.537 322.41 221.438 324.279 218.615 325.022C215.792 325.754 213.93 324.659 213.397 322.195C212.808 319.523 212.218 316.849 211.628 314.177ZM216.215 321.7C216.484 322.795 217.151 323.073 218.046 322.84C218.941 322.606 219.388 322.036 219.086 320.95C218.332 318.209 217.578 315.468 216.823 312.727C216.522 311.64 215.907 311.367 215.104 311.578C214.302 311.787 213.899 312.325 214.168 313.421C214.851 316.18 215.533 318.94 216.215 321.7Z" fill="#112F55"/>
<path d="M233.737 319.751C232.808 320.136 231.875 320.508 230.939 320.868C230.436 320.038 229.937 319.207 229.442 318.373C228.33 318.794 227.214 319.198 226.091 319.583C226.245 320.541 226.394 321.5 226.538 322.46C225.677 322.751 224.813 323.034 223.948 323.305C223.335 317.981 222.59 312.684 221.712 307.422C222.898 307.016 224.079 306.588 225.252 306.137C227.957 310.736 230.784 315.277 233.737 319.751ZM225.739 317.44C226.601 317.139 227.461 316.829 228.319 316.507C226.955 314.175 225.621 311.83 224.317 309.47C224.822 312.118 225.296 314.775 225.739 317.44Z" fill="#112F55"/>
<path d="M192.878 12.4151L196.908 20.5823L205.921 21.8921L199.398 28.2492L200.939 37.2253L192.878 32.988L184.815 37.2253L186.355 28.2492L179.833 21.8921L188.847 20.5823L192.878 12.4151Z" fill="#ED6A23"/>
<path d="M215.293 26.5254L217.229 30.4516L221.562 31.0817L218.427 34.1371L219.167 38.4513L215.293 36.4133L211.417 38.4513L212.157 34.1371L209.023 31.0817L213.354 30.4516L215.293 26.5254Z" fill="#ED6A23"/>
<path d="M172.597 26.5254L174.535 30.4516L178.867 31.0817L175.731 34.1371L176.472 38.4513L172.597 36.4133L168.722 38.4513L169.462 34.1371L166.328 31.0817L170.66 30.4516L172.597 26.5254Z" fill="#ED6A23"/>
<path d="M252.985 164.506L251.745 171.075L241.924 178.98L224.027 153.886L203.105 123.499L193.948 111.886L181.454 136.29L166.501 162.678L153.649 147.986C127.698 179.62 106.282 204.415 98.4911 212.623C101.541 211.862 104.864 210.911 107.84 210.934C110.071 210.949 112.295 210.114 114.523 210.057C114.234 210.05 115.533 209.96 115.615 209.949C116.005 209.896 116.394 209.844 116.785 209.793C117.759 209.662 118.734 209.532 119.708 209.402C121.658 209.143 123.609 208.883 125.558 208.623C139.217 206.802 152.856 205.428 166.634 204.962C180.021 204.509 193.41 204.735 206.799 204.9C216.112 205.015 225.457 205.676 234.699 206.984C235.509 206.468 236.461 206.169 237.421 206.169C238.608 206.169 239.654 206.613 240.468 207.325C241.004 207.13 241.569 207.024 242.14 207.027C248.327 207.069 254.412 208.421 260.373 209.989C260.983 209.732 261.638 209.592 262.3 209.602C265.51 209.644 268.698 210.4 271.836 211.01C272.601 211.16 273.368 211.297 274.136 211.43C274.17 211.434 274.203 211.439 274.247 211.443C274.66 211.492 275.074 211.542 275.489 211.576C276.138 211.626 276.78 211.607 277.427 211.626C277.428 211.626 277.429 211.626 277.43 211.626C277.652 211.554 277.938 211.526 278.149 211.468C279.642 211.063 281.106 211.436 282.239 212.288C283.039 212.234 283.842 212.196 284.645 212.183C269.33 197.823 252.985 164.506 252.985 164.506Z" fill="white"/>
<path d="M99.8791 212.026C115.865 199.057 125.401 186.284 125.792 186.28C126.218 186.277 125.237 195.771 125.237 195.771L129.421 190.656L126.01 208.562C126.869 208.448 127.727 208.336 128.588 208.225C129.243 206.973 129.92 205.565 130.548 204.033C132.99 198.082 138.275 191.434 138.666 191.261C139.055 191.09 143.476 197.833 143.476 197.833L146.309 191.712C146.309 191.712 148.711 203.047 148.996 203.724C149.283 204.4 152.355 192.683 152.355 192.683L156.392 205.022C156.334 191.975 162.505 184.133 162.505 184.133L168.021 187.31L165.873 178.515L170.323 182.718L170.157 189.327L164.229 205.052C165.03 205.019 165.833 204.989 166.634 204.961C166.931 204.951 167.228 204.945 167.526 204.937L171.733 196.093L177.397 201.982L188.359 189.189L190.541 196.797L189.406 204.712C190.256 204.718 191.106 204.721 191.957 204.728L193.236 193.387L196.286 188.959L199.189 201.985L210.03 181.229L216.097 195.078L213.54 176.288C213.54 176.288 219.694 178.445 222.862 181.301C226.03 184.156 235.684 195.436 235.684 195.436L230.327 181.583L210.566 162.925L210.262 172.246L205.154 178.385L204.143 169.581L198.85 171.485L198.326 156.239L193.391 159.837L187.506 148.867L192.065 127.534L194.11 120.813L201.415 132.793L221.577 155.294L238.525 180.715C236.802 191.403 243.986 206.388 243.986 206.388C246.534 200.268 245.03 193.84 245.03 193.84C246.883 195.861 249.625 199.398 249.625 199.398C249.233 198.213 249.795 194.821 249.795 194.821L259.372 203.051L267.228 203.162L259.785 195.593L264.944 197.756C260.241 192.369 254.698 185.176 254.698 185.176L252.441 175.279L254.978 171.618C266.731 195.507 279.244 207.783 284.41 212.188C284.579 212.184 284.749 212.178 284.918 212.175C269.311 195.74 253.008 160.941 253.008 160.941C253.008 160.941 249.438 168.48 249.655 169.503C249.873 170.525 241.356 176.397 241.356 176.397C241.356 176.397 228.641 157.027 223.256 150.579C217.869 144.131 203.867 122.198 203.867 122.198L192.474 106.658L174.161 142.416L171.593 149.265L164.947 158.537L152.672 145.312C136.772 167.303 104.07 202.737 94.9398 212.989C95.4855 212.845 99.318 212.127 99.8791 212.026Z" fill="#112F55"/>
<path d="M152.996 150.703L163.491 161.9L160.27 166.866L158.131 162.818C158.131 162.818 158.154 176.373 152.8 184.039L150.535 169.313L143.54 173.942L144.141 163.184L152.996 150.703Z" fill="white"/>
<path d="M319.224 295.817C233.586 274.709 149.964 274.709 64.3249 295.817C58.3415 271.33 52.3568 246.844 46.3727 222.359C143.737 198.085 239.812 198.085 337.176 222.359C331.191 246.844 325.208 271.33 319.224 295.817Z" fill="#112F55"/>
<path d="M313.997 289.83L312.802 289.558C271.689 280.239 232.103 275.71 191.775 275.71C151.448 275.71 111.86 280.24 70.7472 289.558L69.5522 289.83L54.7498 226.102L55.9279 225.83C101.267 215.42 146.973 210.14 191.775 210.14C236.577 210.14 282.283 215.42 327.622 225.83L328.8 226.102L313.997 289.83ZM57.6661 227.88L71.3903 286.969C112.259 277.791 151.65 273.327 191.775 273.327C231.898 273.327 271.291 277.791 312.16 286.969L325.885 227.88C281.116 217.691 236 212.524 191.776 212.524C147.549 212.524 102.434 217.691 57.6661 227.88Z" fill="#FCB436"/>
<path d="M93.4059 276.748L84.9649 226.991L106.975 223.223L108.507 232.253L95.7492 234.417L97.619 245.441L108.12 243.659L109.652 252.688L99.1516 254.47L101.138 266.182L113.895 264.017L115.422 273.015L93.4059 276.748Z" fill="white"/>
<path d="M140.697 219.284L138.082 270.407L125.747 271.757L112.1 222.414L121.533 221.382L130.596 259.043L131.296 220.312L140.697 219.284Z" fill="white"/>
<path d="M149.544 269.348L146.743 218.957L169.038 217.684L169.546 226.828L156.625 227.547L157.246 238.712L167.881 238.121L168.389 247.264L157.754 247.855L158.414 259.715L171.333 258.997L171.84 268.109L149.544 269.348Z" fill="white"/>
<path d="M177.378 267.933L177.305 217.465L190.181 217.446C192.304 217.443 194.163 217.684 195.756 218.168C197.349 218.653 198.677 219.419 199.742 220.469C200.804 221.519 201.602 222.861 202.136 224.496C202.668 226.133 202.937 228.101 202.94 230.402L202.949 236.109C202.951 238.144 202.517 239.964 201.645 241.569C200.774 243.175 199.643 244.541 198.251 245.672C198.87 246.114 199.401 246.577 199.846 247.063C200.287 247.549 200.648 248.129 200.926 248.804C201.204 249.478 201.426 250.286 201.594 251.225C201.76 252.165 201.9 253.32 202.013 254.692L202.488 261.558C202.6 263.02 202.868 264.253 203.289 265.258C203.711 266.263 204.11 267.143 204.487 267.894L194.764 267.908C194.698 267.797 194.582 267.549 194.415 267.163C194.25 266.775 194.078 266.312 193.9 265.769C193.722 265.228 193.549 264.614 193.382 263.928C193.215 263.243 193.109 262.547 193.063 261.838L192.522 254.938C192.454 253.743 192.293 252.764 192.037 252.001C191.782 251.238 191.459 250.636 191.073 250.194C190.685 249.753 190.258 249.449 189.793 249.284C189.328 249.118 188.863 249.048 188.4 249.071L186.773 249.073L186.801 267.92L177.378 267.933ZM193.518 230.315C193.516 228.988 193.253 228.032 192.732 227.447C192.212 226.861 191.333 226.57 190.094 226.57L186.743 226.577L186.763 239.915L190.112 239.909C191.351 239.908 192.231 239.542 192.75 238.812C193.268 238.081 193.527 237.185 193.526 236.123L193.518 230.315Z" fill="white"/>
<path d="M208.577 268.107L211.235 217.709L233.537 218.852L233.055 227.998L220.131 227.317L219.544 238.482L230.18 239.043L229.697 248.188L219.061 247.628L218.435 259.491L231.358 260.172L230.879 269.283L208.577 268.107Z" fill="white"/>
<path d="M261.827 260.182C261.379 264.384 260.028 267.466 257.773 269.428C255.517 271.391 252.191 272.138 247.791 271.669C245.415 271.417 243.449 270.924 241.891 270.191C240.335 269.459 239.12 268.491 238.245 267.286C237.373 266.08 236.804 264.634 236.538 262.949C236.273 261.264 236.255 259.343 236.484 257.187L236.907 253.194L246.213 254.184L245.795 258.111C245.726 258.771 245.712 259.365 245.756 259.892C245.799 260.419 245.93 260.867 246.147 261.234C246.364 261.603 246.677 261.897 247.088 262.119C247.498 262.34 248.021 262.485 248.66 262.553C249.979 262.693 250.913 262.432 251.463 261.767C252.011 261.102 252.345 260.209 252.464 259.087L252.503 258.724C252.593 257.888 252.644 257.137 252.66 256.471C252.674 255.805 252.615 255.183 252.476 254.6C252.337 254.019 252.096 253.471 251.75 252.954C251.403 252.44 250.914 251.914 250.282 251.38L245.937 247.682C244.282 246.304 242.992 245.038 242.071 243.883C241.146 242.729 240.474 241.572 240.053 240.414C239.631 239.257 239.409 238.043 239.39 236.774C239.368 235.504 239.446 234.044 239.622 232.394L239.73 231.371C239.972 229.106 240.452 227.2 241.172 225.652C241.894 224.105 242.837 222.876 244.001 221.964C245.167 221.054 246.549 220.451 248.149 220.153C249.747 219.856 251.56 219.815 253.585 220.029C257.742 220.472 260.707 221.81 262.483 224.046C264.259 226.281 264.91 229.622 264.438 234.065L263.975 238.421L254.636 237.427L255.121 232.873C255.213 231.794 255.083 230.922 254.731 230.263C254.379 229.603 253.641 229.213 252.518 229.093C251.375 228.971 250.537 229.222 250.004 229.844C249.47 230.466 249.154 231.35 249.054 232.496L248.955 233.42C248.865 234.478 248.983 235.558 249.312 236.661C249.64 237.763 250.286 238.689 251.253 239.437L255.085 242.313C256.668 243.527 257.948 244.732 258.92 245.925C259.895 247.119 260.636 248.354 261.146 249.633C261.655 250.91 261.963 252.25 262.07 253.651C262.177 255.053 262.167 256.56 262.041 258.169L261.827 260.182Z" fill="white"/>
<path d="M286.127 234.452L279.626 275.281L270.287 273.795L276.789 232.965L268.99 231.723L270.425 222.712L295.33 226.678L293.894 235.689L286.127 234.452Z" fill="white"/>
</g>
</g>
<defs>
<clipPath id="clip0">
<rect width="883" height="383" fill="white"/>
</clipPath>
<clipPath id="clip1">
<rect width="380" height="383.253" fill="white"/>
</clipPath>
</defs>
</svg>
