<?xml version="1.0" encoding="utf-8"?>
<!-- Generator: Adobe Illustrator 25.2.3, SVG Export Plug-In . SVG Version: 6.00 Build 0)  -->
<svg version="1.1" id="Capa_1" xmlns="http://www.w3.org/2000/svg" xmlns:xlink="http://www.w3.org/1999/xlink" x="0px" y="0px"
	 viewBox="0 0 399.941 374.784" enable-background="new 0 0 399.941 374.784" xml:space="preserve">
<g>
	<g>
		<path fill="#FFFFFF" d="M82.329,107.646C105.228,44.842,165.48,0,236.205,0c90.429,0,163.736,73.307,163.736,163.735
			s-73.307,163.735-163.736,163.735c-9.837,0-19.471-0.867-28.83-2.53l-91.995-44.935L82.329,107.646z"/>
	</g>
	<g>
		<path fill="#FBB336" d="M332.508,111.035c-5.171,0.015-10.34,0.458-15.438,1.323c-1.641,0.278-3.398,0.667-4.508,1.908
			c-0.821,0.918-1.159,2.183-1.216,3.413c-0.284,6.126,5.613,10.831,11.469,12.651s12.241,1.919,17.789,4.533
			c4.707,2.217,9.22,6.281,14.327,5.284c5.083-0.993,7.933-7.102,6.803-12.156s-5.191-8.974-9.627-11.646
			c-5.103-3.074-10.948-4.907-16.892-5.298L332.508,111.035z"/>
	</g>
	<g>
		<g>
			<path fill="#FBB336" d="M390.839,217.57c-8.408-12.57-30.398-39.627-38.831-43.563c-8.676-4.05-15.505-12.314-25.079-12.211
				c-8.142,0.087-16.773,3.912-24.066,0.291c-5.096-2.531-7.925-8.035-10.054-13.311c-2.13-5.277-4.069-10.934-8.324-14.712
				c-4.255-3.778-11.752-4.62-15.188-0.084c0.321,7.185-6.915,12.938-14.087,13.473c-7.172,0.535-14.043-2.756-20.27-6.355
				c-9.728-5.622-14.011-56.689-7.838-56.897c15.933-0.536,28.434,17.679,44.26,15.754c4.602-0.56,9.321-3.4,10.385-7.912
				c0.896-3.802-0.943-7.639-2.441-11.246c-9.96-23.98-5.923-52.041,10.731-71.697C273.172,3.23,255.07,0,236.205,0
				C165.48,0,105.228,44.842,82.329,107.646l14.842,77.401c14.494,5.371,36.489,0.429,67.018-21.045
				c14.005,16.937,19.764,9.179,37.894,21.601c7.844,5.375,17.117,3.074,26.475,4.762c22.215,4.007,51.879-29.389,53.91-27.684
				c8.961,7.521-0.554,15.18,10.353,19.411c-6.919,21.318-13.838,42.636-20.757,63.954c-1.085,3.344-2.183,6.874-1.475,10.317
				c1.224,5.949,7.461,9.593,13.447,10.619c5.986,1.026,12.161,0.21,18.169,1.1c6.008,0.89,12.35,4.193,13.978,10.044
				c0.959,3.449,0.099,7.132-1.042,10.526c-1.142,3.393-2.579,6.759-2.796,10.332c-0.158,2.612,0.387,6.971,1.999,8.671
				C349.851,288.337,377.374,256.247,390.839,217.57z"/>
		</g>
	</g>
	<g>
		<path fill="#FFFFFF" d="M58.028,247.537c-29.2,0-52.872,23.671-52.872,52.872v54.179c0,8.306,6.734,15.04,15.04,15.04h172.696
			c8.306,0,15.04-6.734,15.04-15.04v-54.179c0-29.201-23.671-52.872-52.872-52.872"/>
		<path fill="#1A2D52" d="M192.892,374.784H20.198C9.06,374.784,0,365.724,0,354.589V300.41c0-31.997,26.032-58.029,58.029-58.029
			v10.314c-26.311,0-47.715,21.404-47.715,47.715v54.179c0,5.449,4.434,9.881,9.883,9.881h172.695c5.449,0,9.883-4.432,9.883-9.881
			V300.41c0-26.311-21.404-47.715-47.715-47.715v-10.314c31.997,0,58.029,26.032,58.029,58.029v54.179
			C213.09,365.724,204.03,374.784,192.892,374.784z"/>
	</g>
	<g>
		<g>
			<path fill="#1A2D52" d="M44.572,374.784c-2.848,0-5.157-2.309-5.157-5.157V339.08c0-2.848,2.309-5.157,5.157-5.157
				c2.848,0,5.157,2.309,5.157,5.157v30.547C49.73,372.475,47.42,374.784,44.572,374.784z"/>
		</g>
		<g>
			<path fill="#1A2D52" d="M168.515,374.784c-2.848,0-5.157-2.309-5.157-5.157V339.08c0-2.848,2.309-5.157,5.157-5.157
				s5.157,2.309,5.157,5.157v30.547C173.672,372.475,171.363,374.784,168.515,374.784z"/>
		</g>
	</g>
	<g>
		<polygon fill="#FBB336" points="116.205,252.294 114.807,274.473 97.588,274.473 96.883,252.294 106.544,236.297 		"/>
		<path fill="#FBB336" d="M114.807,279.631H97.588c-2.785,0-5.066-2.211-5.155-4.993l-0.705-22.179
			c-0.033-0.995,0.227-1.977,0.74-2.83l9.662-15.997c0.934-1.546,2.609-2.49,4.414-2.49l0,0c1.805,0,3.48,0.944,4.414,2.49
			l9.659,15.997c0.544,0.899,0.798,1.944,0.733,2.991l-1.398,22.179C119.782,277.516,117.529,279.631,114.807,279.631z
			 M102.584,269.317h7.38l0.992-15.738l-4.412-7.305l-4.46,7.38L102.584,269.317z"/>
	</g>
	<g>
		<polygon fill="#FBB336" points="119.636,352.954 106.448,366.773 93.453,352.954 97.838,274.473 115.058,274.473 		"/>
		<path fill="#FBB336" d="M106.449,371.929c-0.005,0-0.013,0-0.018,0c-1.418-0.005-2.77-0.592-3.739-1.624l-12.996-13.817
			c-0.967-1.03-1.471-2.41-1.392-3.82l4.384-78.481c0.154-2.732,2.412-4.87,5.149-4.87h17.221c2.732,0,4.988,2.13,5.149,4.857
			l4.578,78.481c0.083,1.428-0.431,2.825-1.418,3.86l-13.187,13.817C109.207,371.352,107.859,371.929,106.449,371.929z
			 M98.726,351.034l7.751,8.239l7.882-8.257l-4.165-71.385h-7.479L98.726,351.034z"/>
	</g>
	<g>
		<g>
			<polyline fill="#FFFFFF" points="76.396,224.583 52.771,251.568 69.444,280.006 106.544,232.066 			"/>
			<path fill="#1A2D52" d="M69.444,285.163c-0.111,0-0.219-0.003-0.33-0.01c-1.71-0.111-3.253-1.063-4.12-2.538l-16.672-28.439
				c-1.123-1.916-0.894-4.336,0.569-6.006l23.625-26.984c1.876-2.148,5.129-2.359,7.277-0.483c2.143,1.876,2.359,5.134,0.483,7.277
				l-21.175,24.186l10.933,18.651l32.43-41.906c1.745-2.254,4.983-2.662,7.234-0.924c2.254,1.745,2.667,4.983,0.924,7.234
				l-37.101,47.939C72.541,284.428,71.032,285.163,69.444,285.163z"/>
		</g>
		<g>
			<polyline fill="#FFFFFF" points="136.693,224.583 160.318,251.568 143.645,280.006 106.544,232.066 			"/>
			<path fill="#1A2D52" d="M143.644,285.163c-1.589,0-3.097-0.735-4.079-2.002l-37.099-47.939c-1.743-2.251-1.33-5.489,0.924-7.234
				c2.251-1.74,5.489-1.335,7.234,0.924l32.43,41.906l10.934-18.651l-21.175-24.186c-1.876-2.143-1.659-5.401,0.483-7.277
				c2.138-1.876,5.399-1.664,7.277,0.483l23.625,26.984c1.463,1.669,1.692,4.089,0.569,6.006l-16.675,28.439
				c-0.866,1.478-2.41,2.427-4.12,2.538C143.863,285.161,143.752,285.163,143.644,285.163z"/>
		</g>
	</g>
	<g>
		<ellipse fill="#FFFFFF" cx="106.544" cy="167.603" rx="59.305" ry="64.463"/>
		<path fill="#1A2D52" d="M106.545,237.224c-37.353,0-64.463-29.28-64.463-69.62s27.11-69.62,64.463-69.62
			s64.463,29.28,64.463,69.62S143.898,237.224,106.545,237.224z M106.545,108.298c-31.375,0-54.149,24.942-54.149,59.306
			s22.773,59.306,54.149,59.306s54.149-24.942,54.149-59.306S137.92,108.298,106.545,108.298z"/>
	</g>
</g>
</svg>
