<?xml version="1.0" encoding="utf-8"?>
<!-- Generator: Adobe Illustrator 25.2.3, SVG Export Plug-In . SVG Version: 6.00 Build 0)  -->
<svg version="1.1" id="Capa_1" xmlns="http://www.w3.org/2000/svg" xmlns:xlink="http://www.w3.org/1999/xlink" x="0px" y="0px"
	 viewBox="0 0 336.945 313.933" enable-background="new 0 0 336.945 313.933" xml:space="preserve">
<g>
	<g>
		<rect x="62.131" y="179.28" fill="#FFFFFF" width="78.106" height="129.496"/>
	</g>
	<g>
		<g>
			<path fill="#FBB336" d="M67.646,186.685H52.872C23.672,186.685,0,210.356,0,239.557v54.179c0,8.307,6.734,15.04,15.04,15.04
				h62.92L67.646,186.685z"/>
		</g>
		<g>
			<path fill="#FBB336" d="M149.904,186.685H135.13l-10.314,122.091h62.92c8.306,0,15.04-6.733,15.04-15.04v-54.179
				C202.776,210.356,179.105,186.685,149.904,186.685z"/>
		</g>
	</g>
	<g>
		<g>
			<path fill="#1A2D52" d="M39.416,313.933c-2.848,0-5.157-2.309-5.157-5.157v-30.547c0-2.848,2.309-5.157,5.157-5.157
				s5.157,2.309,5.157,5.157v30.547C44.573,311.623,42.264,313.933,39.416,313.933z"/>
		</g>
		<g>
			<path fill="#1A2D52" d="M163.361,313.933c-2.848,0-5.157-2.309-5.157-5.157v-30.547c0-2.848,2.309-5.157,5.157-5.157
				s5.157,2.309,5.157,5.157v30.547C168.518,311.623,166.209,313.933,163.361,313.933z"/>
		</g>
	</g>
	<g>
		<polygon fill="#FBB336" points="111.049,191.442 109.651,213.621 92.431,213.621 91.727,191.442 101.388,175.445 		"/>
		<path fill="#FBB336" d="M109.65,218.779H92.431c-2.785,0-5.066-2.211-5.155-4.993l-0.705-22.179
			c-0.033-0.995,0.227-1.977,0.74-2.83l9.662-15.997c1.868-3.092,6.96-3.092,8.828,0l9.662,15.997
			c0.544,0.899,0.798,1.944,0.733,2.991l-1.4,22.179C114.626,216.664,112.372,218.779,109.65,218.779z M97.427,208.465h7.38
			l0.995-15.738l-4.414-7.307l-4.46,7.383L97.427,208.465z"/>
	</g>
	<g>
		<polygon fill="#FBB336" points="114.479,292.102 101.292,305.921 88.297,292.102 92.682,213.621 109.902,213.621 		"/>
		<path fill="#FBB336" d="M101.292,311.077c-0.005,0-0.013,0-0.018,0c-1.418-0.005-2.77-0.592-3.739-1.624L84.54,295.634
			c-0.967-1.03-1.471-2.41-1.392-3.82l4.386-78.478c0.154-2.732,2.412-4.87,5.149-4.87h17.219c2.732,0,4.988,2.13,5.149,4.857
			l4.578,78.478c0.083,1.428-0.431,2.825-1.418,3.86l-13.187,13.819C104.05,310.5,102.703,311.077,101.292,311.077z M93.57,290.18
			l7.751,8.242l7.882-8.259l-4.165-71.382h-7.476L93.57,290.18z"/>
	</g>
	<g>
		<g>
			<polyline fill="#FFFFFF" points="71.239,163.731 47.615,190.716 64.287,219.154 101.388,171.214 			"/>
			<path fill="#1A2D52" d="M64.287,224.312c-0.111,0-0.219-0.003-0.33-0.01c-1.71-0.111-3.253-1.063-4.12-2.538l-16.672-28.439
				c-1.123-1.916-0.894-4.336,0.569-6.006l23.625-26.984c1.873-2.148,5.129-2.362,7.277-0.483c2.143,1.876,2.359,5.134,0.483,7.277
				l-21.175,24.186l10.933,18.651l32.43-41.908c1.748-2.254,4.986-2.662,7.234-0.924c2.254,1.745,2.667,4.983,0.924,7.234
				L68.366,222.31C67.384,223.576,65.876,224.312,64.287,224.312z"/>
		</g>
		<g>
			<polyline fill="#FFFFFF" points="131.537,163.731 155.161,190.716 138.488,219.154 101.388,171.214 			"/>
			<path fill="#1A2D52" d="M138.49,224.312c-1.589,0-3.097-0.735-4.079-2.002l-37.101-47.942c-1.743-2.251-1.33-5.489,0.924-7.234
				c2.251-1.74,5.489-1.332,7.234,0.924l32.43,41.908l10.933-18.651l-21.175-24.186c-1.876-2.143-1.659-5.401,0.483-7.277
				c2.138-1.878,5.399-1.664,7.277,0.483l23.625,26.984c1.463,1.669,1.692,4.089,0.569,6.006l-16.672,28.439
				c-0.866,1.476-2.41,2.427-4.12,2.538C138.709,224.309,138.598,224.312,138.49,224.312z"/>
		</g>
	</g>
	<g>
		<ellipse fill="#FFFFFF" cx="101.388" cy="106.751" rx="59.305" ry="64.463"/>
		<path fill="#1A2D52" d="M101.388,176.37c-37.353,0-64.463-29.28-64.463-69.62s27.11-69.62,64.463-69.62s64.463,29.28,64.463,69.62
			S138.741,176.37,101.388,176.37z M101.388,47.444c-31.375,0-54.149,24.942-54.149,59.306s22.773,59.306,54.149,59.306
			s54.149-24.942,54.149-59.306S132.763,47.444,101.388,47.444z"/>
	</g>
	<g>
		<polygon fill="#FBB336" points="254.687,126.523 207.036,151.574 216.137,98.514 177.587,60.937 230.862,53.196 254.687,4.92 
			278.512,53.196 331.788,60.937 293.237,98.514 302.338,151.574 		"/>
		<path fill="#FBB336" d="M207.037,156.731c-1.068,0-2.133-0.332-3.032-0.985c-1.586-1.153-2.382-3.11-2.052-5.044l8.642-50.389
			L173.987,64.63c-1.405-1.372-1.911-3.42-1.304-5.288c0.607-1.866,2.221-3.228,4.165-3.51l50.591-7.35L250.061,2.64
			c1.737-3.52,7.511-3.52,9.249,0l22.627,45.842l50.591,7.35c1.944,0.282,3.558,1.644,4.165,3.51
			c0.607,1.868,0.101,3.916-1.304,5.288l-36.608,35.684l8.642,50.389c0.33,1.934-0.466,3.89-2.052,5.044
			c-1.586,1.158-3.691,1.307-5.431,0.393l-45.252-23.791l-45.25,23.791C208.681,156.535,207.858,156.731,207.037,156.731z
			 M254.686,121.365c0.823,0,1.649,0.196,2.4,0.592l38.403,20.19l-7.335-42.762c-0.285-1.672,0.269-3.379,1.483-4.565l31.068-30.282
			L277.772,58.3c-1.682-0.244-3.132-1.299-3.885-2.823l-19.2-38.902l-19.198,38.902c-0.753,1.523-2.203,2.579-3.885,2.823
			l-42.933,6.237l31.068,30.282c1.214,1.186,1.768,2.893,1.483,4.565l-7.335,42.762l38.401-20.19
			C253.037,121.561,253.863,121.365,254.686,121.365z"/>
	</g>
</g>
</svg>
