<?xml version="1.0" encoding="utf-8"?>
<!-- Generator: Adobe Illustrator 25.2.3, SVG Export Plug-In . SVG Version: 6.00 Build 0)  -->
<svg version="1.1" id="Capa_1" xmlns="http://www.w3.org/2000/svg" xmlns:xlink="http://www.w3.org/1999/xlink" x="0px" y="0px"
	 viewBox="0 0 441.572 337.316" enable-background="new 0 0 441.572 337.316" xml:space="preserve">
<g>
	<g>
		<polyline fill="#FFFFFF" points="192.784,308.445 226.926,321.308 436.414,250.928 319.372,206.832 292.888,215.73 		"/>
		<path fill="#1A2D52" d="M226.927,326.466c-0.617,0-1.234-0.111-1.818-0.332l-34.143-12.865c-2.667-1.002-4.011-3.979-3.007-6.643
			c1.002-2.667,3.979-4.014,6.643-3.007l32.423,12.215l194.023-65.183l-101.773-38.345l-24.745,8.312
			c-2.692,0.914-5.623-0.546-6.529-3.246c-0.909-2.699,0.546-5.623,3.246-6.529l26.485-8.899c1.126-0.375,2.354-0.355,3.46,0.063
			l117.04,44.097c2.042,0.768,3.377,2.737,3.339,4.918c-0.04,2.181-1.448,4.102-3.515,4.794l-209.486,70.38
			C228.035,326.378,227.481,326.466,226.927,326.466z"/>
	</g>
	<g>
		<polyline fill="#FBB336" points="49.259,273.247 5.158,288.063 122.199,332.159 331.687,261.779 287.585,245.163 		"/>
		<path fill="#1A2D52" d="M122.198,337.316c-0.617,0-1.234-0.111-1.818-0.332L3.34,292.887c-2.042-0.768-3.377-2.737-3.339-4.918
			c0.04-2.181,1.448-4.102,3.515-4.794l44.102-14.816c2.702-0.912,5.625,0.549,6.529,3.246c0.909,2.699-0.546,5.623-3.246,6.529
			L20.523,288.34l101.773,38.345l194.025-65.183l-30.554-11.51c-2.664-1.005-4.011-3.981-3.009-6.645
			c1.007-2.667,3.979-4.011,6.645-3.009l44.102,16.614c2.042,0.771,3.377,2.74,3.339,4.92c-0.04,2.181-1.448,4.102-3.515,4.794
			l-209.489,70.38C123.306,337.226,122.752,337.316,122.198,337.316z"/>
	</g>
	<g>
		<polyline fill="#FFFFFF" points="103.67,223.535 5.158,256.632 122.199,300.727 331.687,230.347 236.517,194.492 		"/>
		<path fill="#1A2D52" d="M122.198,305.883c-0.617,0-1.234-0.111-1.818-0.33L3.34,261.457c-2.042-0.768-3.377-2.737-3.339-4.918
			c0.04-2.181,1.448-4.102,3.515-4.794l98.512-33.098c2.702-0.912,5.625,0.546,6.529,3.246c0.909,2.699-0.546,5.623-3.246,6.529
			l-84.789,28.487l101.773,38.343l194.025-65.183l-81.623-30.753c-2.667-1.002-4.011-3.979-3.007-6.643
			c1.002-2.667,3.971-4.021,6.643-3.007l95.171,35.857c2.042,0.768,3.377,2.737,3.339,4.918c-0.04,2.181-1.448,4.102-3.515,4.794
			L123.84,305.614C123.306,305.795,122.752,305.883,122.198,305.883z"/>
	</g>
	<g>
		<path fill="#FFFFFF" d="M363.783,65.367c-2.997-2.137-6.988-4.977-12.275-8.734C316.097,31.472,331.673,0,314.659,0
			c-25.215,0-4.233,55.674-4.233,55.674h-56.712c-7.147,0-12.94,5.793-12.94,12.94s5.793,12.94,12.94,12.94
			c0,0-9.958,5.793-9.958,12.94c0,7.147,5.793,12.94,12.94,12.94c0,0-8.017,5.793-8.017,12.94c0,7.147,5.793,12.94,12.94,12.94
			c0,0-7.905,5.793-7.905,12.94s5.793,12.94,12.94,12.94c0,0,66.91,5.792,80.489-7.787h16.64"/>
	</g>
	<g>
		<rect x="363.783" y="55.062" fill="#FBB336" width="60.866" height="104.717"/>
		<path fill="#FBB336" d="M424.649,164.936h-60.867c-2.848,0-5.157-2.309-5.157-5.157V55.062c0-2.848,2.309-5.157,5.157-5.157
			h60.867c2.848,0,5.157,2.309,5.157,5.157v104.717C429.806,162.627,427.497,164.936,424.649,164.936z M368.939,154.622h50.553
			V60.219h-50.553V154.622z"/>
	</g>
	<g>
		<g>
			<path fill="#FBB336" d="M212.932,227.74c-2.848,0-5.157-2.309-5.157-5.157v-16.488c0-2.848,2.309-5.157,5.157-5.157
				s5.157,2.309,5.157,5.157v16.488C218.089,225.431,215.78,227.74,212.932,227.74z"/>
		</g>
		<g>
			<rect x="107.736" y="210.364" fill="#FBB336" width="99.135" height="19.376"/>
			<path fill="#FBB336" d="M206.871,234.896h-99.134c-2.848,0-5.157-2.309-5.157-5.157v-19.377c0-2.848,2.309-5.157,5.157-5.157
				h99.134c2.848,0,5.157,2.309,5.157,5.157v19.377C212.028,232.587,209.719,234.896,206.871,234.896z M112.894,224.582h88.82
				v-9.063h-88.82V224.582z"/>
		</g>
		<g>
			<ellipse fill="#FFFFFF" cx="158.559" cy="206.094" rx="54.374" ry="21.209"/>
			<path fill="#FFFFFF" d="M158.559,232.461c-28.86,0-59.53-9.241-59.53-26.367s30.67-26.367,59.53-26.367s59.53,9.241,59.53,26.367
				S187.419,232.461,158.559,232.461z M158.559,190.041c-30.043,0-49.216,9.508-49.216,16.053c0,6.544,19.173,16.053,49.216,16.053
				s49.216-9.508,49.216-16.053C207.775,199.55,188.602,190.041,158.559,190.041z"/>
		</g>
		<g>
			<path fill="#FBB336" d="M104.185,223.589c0,11.713,24.344,21.209,54.374,21.209s54.374-9.496,54.374-21.209"/>
			<path fill="#FBB336" d="M158.559,249.954c-28.86,0-59.53-9.239-59.53-26.364c0-2.848,2.309-5.157,5.157-5.157
				s5.157,2.309,5.157,5.157c0,6.544,19.173,16.05,49.216,16.05c30.046,0,49.218-9.506,49.218-16.05
				c0-2.848,2.309-5.157,5.157-5.157s5.157,2.309,5.157,5.157C218.092,240.715,187.419,249.954,158.559,249.954z"/>
		</g>
		<g>
			<path fill="#FBB336" d="M104.186,227.74c-2.848,0-5.157-2.309-5.157-5.157v-16.488c0-2.848,2.309-5.157,5.157-5.157
				s5.157,2.309,5.157,5.157v16.488C109.343,225.431,107.034,227.74,104.186,227.74z"/>
		</g>
		<g>
			<ellipse fill="#FFFFFF" cx="158.559" cy="206.094" rx="54.374" ry="21.209"/>
			<path fill="#FFFFFF" d="M158.559,232.461c-28.86,0-59.53-9.241-59.53-26.367s30.67-26.367,59.53-26.367s59.53,9.241,59.53,26.367
				S187.419,232.461,158.559,232.461z M158.559,190.041c-30.043,0-49.216,9.508-49.216,16.053c0,6.544,19.173,16.053,49.216,16.053
				s49.216-9.508,49.216-16.053C207.775,199.55,188.602,190.041,158.559,190.041z"/>
		</g>
	</g>
	<g>
		<g>
			<path fill="#FBB336" d="M233.21,196.002c-2.848,0-5.157-2.309-5.157-5.157v-16.488c0-2.848,2.309-5.157,5.157-5.157
				s5.157,2.309,5.157,5.157v16.488C238.367,193.693,236.058,196.002,233.21,196.002z"/>
		</g>
		<g>
			<rect x="128.014" y="178.627" fill="#FBB336" width="99.135" height="19.376"/>
			<path fill="#FBB336" d="M227.149,203.161h-99.134c-2.848,0-5.157-2.309-5.157-5.157v-19.377c0-2.848,2.309-5.157,5.157-5.157
				h99.134c2.848,0,5.157,2.309,5.157,5.157v19.377C232.306,200.852,229.997,203.161,227.149,203.161z M133.172,192.847h88.82
				v-9.063h-88.82V192.847z"/>
		</g>
		<g>
			<ellipse fill="#FFFFFF" cx="178.837" cy="174.357" rx="54.374" ry="21.209"/>
			<path fill="#FFFFFF" d="M178.837,200.723c-28.86,0-59.532-9.241-59.532-26.367s30.673-26.364,59.532-26.364
				s59.53,9.239,59.53,26.364S207.697,200.723,178.837,200.723z M178.837,158.306c-30.046,0-49.218,9.506-49.218,16.05
				c0,6.544,19.173,16.053,49.218,16.053c30.043,0,49.216-9.508,49.216-16.053C228.053,167.812,208.88,158.306,178.837,158.306z"/>
		</g>
		<g>
			<path fill="#FBB336" d="M124.463,191.852c0,11.713,24.344,21.209,54.374,21.209s54.374-9.496,54.374-21.209"/>
			<path fill="#FBB336" d="M178.837,218.219c-28.86,0-59.532-9.241-59.532-26.367c0-2.848,2.309-5.157,5.157-5.157
				s5.157,2.309,5.157,5.157c0,6.544,19.173,16.053,49.218,16.053c30.043,0,49.216-9.508,49.216-16.053
				c0-2.848,2.309-5.157,5.157-5.157s5.157,2.309,5.157,5.157C238.367,208.977,207.697,218.219,178.837,218.219z"/>
		</g>
		<g>
			<path fill="#FBB336" d="M124.462,196.002c-2.848,0-5.157-2.309-5.157-5.157v-16.488c0-2.848,2.309-5.157,5.157-5.157
				s5.157,2.309,5.157,5.157v16.488C129.619,193.693,127.31,196.002,124.462,196.002z"/>
		</g>
		<g>
			<ellipse fill="#FFFFFF" cx="178.837" cy="174.357" rx="54.374" ry="21.209"/>
			<path fill="#FFFFFF" d="M178.837,200.723c-28.86,0-59.532-9.241-59.532-26.367s30.673-26.364,59.532-26.364
				s59.53,9.239,59.53,26.364S207.697,200.723,178.837,200.723z M178.837,158.306c-30.046,0-49.218,9.506-49.218,16.05
				c0,6.544,19.173,16.053,49.218,16.053c30.043,0,49.216-9.508,49.216-16.053C228.053,167.812,208.88,158.306,178.837,158.306z"/>
		</g>
	</g>
	<g>
		<g>
			<path fill="#FBB336" d="M221.441,156.649c-2.848,0-5.157-2.309-5.157-5.157v-16.488c0-2.848,2.309-5.157,5.157-5.157
				s5.157,2.309,5.157,5.157v16.488C226.598,154.34,224.288,156.649,221.441,156.649z"/>
		</g>
		<g>
			<rect x="116.245" y="139.273" fill="#FBB336" width="99.135" height="19.376"/>
			<path fill="#FBB336" d="M215.38,163.806h-99.134c-2.848,0-5.157-2.309-5.157-5.157v-19.377c0-2.848,2.309-5.157,5.157-5.157
				h99.134c2.848,0,5.157,2.309,5.157,5.157v19.377C220.537,161.497,218.227,163.806,215.38,163.806z M121.402,153.492h88.82v-9.063
				h-88.82V153.492z"/>
		</g>
		<g>
			<ellipse fill="#FFFFFF" cx="167.067" cy="135.003" rx="54.374" ry="21.209"/>
			<path fill="#FFFFFF" d="M167.068,161.368c-28.86,0-59.532-9.239-59.532-26.364s30.673-26.367,59.532-26.367
				s59.53,9.241,59.53,26.367S195.927,161.368,167.068,161.368z M167.068,118.951c-30.046,0-49.218,9.508-49.218,16.053
				c0,6.544,19.173,16.05,49.218,16.05c30.043,0,49.216-9.506,49.216-16.05C216.284,128.459,197.111,118.951,167.068,118.951z"/>
		</g>
		<g>
			<path fill="#FBB336" d="M112.693,152.498c0,11.713,24.344,21.209,54.374,21.209s54.374-9.496,54.374-21.209"/>
			<path fill="#FBB336" d="M167.068,178.864c-28.86,0-59.532-9.239-59.532-26.364c0-2.848,2.309-5.157,5.157-5.157
				s5.157,2.309,5.157,5.157c0,6.544,19.173,16.05,49.218,16.05c30.043,0,49.216-9.506,49.216-16.05
				c0-2.848,2.309-5.157,5.157-5.157s5.157,2.309,5.157,5.157C226.598,169.625,195.927,178.864,167.068,178.864z"/>
		</g>
		<g>
			<path fill="#FBB336" d="M112.692,156.649c-2.848,0-5.157-2.309-5.157-5.157v-16.488c0-2.848,2.309-5.157,5.157-5.157
				s5.157,2.309,5.157,5.157v16.488C117.849,154.34,115.54,156.649,112.692,156.649z"/>
		</g>
		<g>
			<ellipse fill="#FFFFFF" cx="167.067" cy="135.003" rx="54.374" ry="21.209"/>
			<path fill="#FFFFFF" d="M167.068,161.368c-28.86,0-59.532-9.239-59.532-26.364s30.673-26.367,59.532-26.367
				s59.53,9.241,59.53,26.367S195.927,161.368,167.068,161.368z M167.068,118.951c-30.046,0-49.218,9.508-49.218,16.053
				c0,6.544,19.173,16.05,49.218,16.05c30.043,0,49.216-9.506,49.216-16.05C216.284,128.459,197.111,118.951,167.068,118.951z"/>
		</g>
	</g>
</g>
</svg>
