<?xml version="1.0" encoding="utf-8"?>
<!-- Generator: Adobe Illustrator 25.2.3, SVG Export Plug-In . SVG Version: 6.00 Build 0)  -->
<svg version="1.1" id="Capa_1" xmlns="http://www.w3.org/2000/svg" xmlns:xlink="http://www.w3.org/1999/xlink" x="0px" y="0px"
	 viewBox="0 0 439.45 326.105" enable-background="new 0 0 439.45 326.105" xml:space="preserve">
<g>
	<g>
		<polygon fill="#FFFFFF" points="418.37,249.951 403.404,268.916 244.987,268.916 244.987,7.07 432.693,7.07 432.693,238.671 		"/>
	</g>
	<g>
		<path fill="#FFFFFF" d="M434.293,242.229c-2.848,0-5.157-2.309-5.157-5.157V10.314H250.143v52.89c0,2.848-2.309,5.157-5.157,5.157
			s-5.157-2.309-5.157-5.157V5.157c0-2.848,2.309-5.157,5.157-5.157h189.307c2.848,0,5.157,2.309,5.157,5.157v231.915
			C439.45,239.92,437.141,242.229,434.293,242.229z"/>
	</g>
	<g>
		<path fill="#FFFFFF" d="M291.802,274.073h-46.816c-2.848,0-5.157-2.309-5.157-5.157v-30.942c0-2.848,2.309-5.157,5.157-5.157
			s5.157,2.309,5.157,5.157v25.785h41.659c2.848,0,5.157,2.309,5.157,5.157C296.959,271.764,294.65,274.073,291.802,274.073z"/>
	</g>
	<g>
		<path fill="#FFFFFF" d="M402.449,274.073h-81.18c-2.848,0-5.157-2.309-5.157-5.157c0-2.848,2.309-5.157,5.157-5.157h81.18
			c2.848,0,5.157,2.309,5.157,5.157C407.606,271.764,405.297,274.073,402.449,274.073z"/>
	</g>
	<g>
		<g>
			<path fill="#1A2D52" d="M393.938,47.113H285.341c-2.848,0-5.157-2.309-5.157-5.157s2.309-5.157,5.157-5.157h108.597
				c2.848,0,5.157,2.309,5.157,5.157S396.786,47.113,393.938,47.113z"/>
		</g>
		<g>
			<path fill="#1A2D52" d="M393.938,74.15H285.341c-2.848,0-5.157-2.309-5.157-5.157s2.309-5.157,5.157-5.157h108.597
				c2.848,0,5.157,2.309,5.157,5.157S396.786,74.15,393.938,74.15z"/>
		</g>
		<g>
			<path fill="#1A2D52" d="M393.938,101.186H285.341c-2.848,0-5.157-2.309-5.157-5.157s2.309-5.157,5.157-5.157h108.597
				c2.848,0,5.157,2.309,5.157,5.157S396.786,101.186,393.938,101.186z"/>
		</g>
		<g>
			<path fill="#1A2D52" d="M343.922,128.226h-58.581c-2.848,0-5.157-2.309-5.157-5.157s2.309-5.157,5.157-5.157h58.581
				c2.848,0,5.157,2.309,5.157,5.157S346.77,128.226,343.922,128.226z"/>
		</g>
	</g>
	<g>
		<polygon fill="#FBB336" points="402.449,268.916 402.449,237.073 434.292,237.073 		"/>
		<path fill="#FBB336" d="M402.449,274.073c-0.665,0-1.335-0.128-1.974-0.393c-1.926-0.798-3.183-2.679-3.183-4.764v-31.844
			c0-2.848,2.309-5.157,5.157-5.157h31.844c2.085,0,3.966,1.257,4.764,3.183c0.798,1.929,0.358,4.145-1.118,5.62l-31.844,31.844
			C405.108,273.549,403.791,274.073,402.449,274.073z M407.606,242.229v14.237l14.237-14.237H407.606z"/>
	</g>
	<g>
		<g>
			<polyline fill="#FFFFFF" points="338.027,162.257 363.69,137.036 362.834,173.008 			"/>
			<path fill="#1A2D52" d="M362.837,178.164c-0.043,0-0.083,0-0.126-0.003c-2.845-0.065-5.099-2.43-5.031-5.278l0.551-23.252
				l-16.589,16.305c-2.035,1.994-5.298,1.962-7.295-0.063c-1.994-2.032-1.967-5.298,0.063-7.295l25.662-25.221
				c1.501-1.473,3.742-1.889,5.666-1.053c1.926,0.833,3.155,2.755,3.105,4.855l-0.854,35.971
				C367.924,175.936,365.627,178.164,362.837,178.164z"/>
		</g>
		<g>
			
				<rect x="311.349" y="162.331" transform="matrix(0.9175 0.3976 -0.3976 0.9175 116.9006 -110.4934)" fill="#FBB336" width="27.037" height="128.575"/>
			<path fill="#FBB336" d="M311.708,296.139c-0.7,0-1.398-0.141-2.05-0.426l-24.808-10.752c-2.614-1.133-3.815-4.17-2.682-6.781
				l51.127-117.972c1.131-2.614,4.167-3.817,6.781-2.682l24.808,10.75c1.257,0.544,2.244,1.564,2.747,2.835
				c0.501,1.272,0.478,2.692-0.065,3.946l-51.127,117.974c-0.544,1.257-1.564,2.244-2.835,2.747
				C312.995,296.018,312.35,296.139,311.708,296.139z M293.681,277.548l15.345,6.65l47.025-108.509l-15.343-6.65L293.681,277.548z"
				/>
		</g>
		<g>
			<g>
				<path fill="#FFFFFF" d="M300.953,320.947c-0.685,0-1.38-0.138-2.047-0.428l-24.806-10.75c-2.614-1.133-3.815-4.167-2.682-6.781
					l10.75-24.808c0.544-1.257,1.564-2.244,2.835-2.747c0.609-0.239,1.254-0.36,1.896-0.36c0.7,0,1.398,0.141,2.05,0.426
					l24.808,10.752c1.257,0.544,2.244,1.564,2.747,2.835c0.501,1.272,0.478,2.692-0.065,3.948l-10.752,24.806
					C304.844,319.784,302.945,320.947,300.953,320.947z"/>
			</g>
			<g>
				<path fill="#1A2D52" d="M286.9,280.23l24.807,10.751l-10.751,24.807l-24.807-10.751L286.9,280.23 M286.905,269.913
					c-3.987,0-7.782,2.324-9.469,6.215l-10.751,24.807c-2.265,5.227,0.136,11.3,5.362,13.565l24.807,10.751
					c1.336,0.579,2.728,0.853,4.096,0.853c3.987,0,7.782-2.324,9.469-6.215l10.751-24.807c2.265-5.227-0.136-11.3-5.362-13.565
					l-24.807-10.751C289.666,270.187,288.274,269.913,286.905,269.913L286.905,269.913z"/>
			</g>
		</g>
	</g>
	<g>
		<path fill="#FFFFFF" d="M171.494,68.361h-69.461c-2.848,0-5.157-2.309-5.157-5.157V33.128c0-2.848,2.309-5.157,5.157-5.157h69.461
			c2.848,0,5.157,2.309,5.157,5.157v30.076C176.651,66.052,174.342,68.361,171.494,68.361z M107.19,58.047h59.147V38.285H107.19
			V58.047z"/>
	</g>
	<g>
		<path fill="#FBB336" d="M256.663,237.974H16.862c-6.464,0-11.704-5.24-11.704-11.704V74.907c0-6.464,5.24-11.704,11.704-11.704
			h239.801c6.464,0,11.704,5.24,11.704,11.704V226.27C268.367,232.734,263.127,237.974,256.663,237.974z"/>
		<path fill="#FBB336" d="M256.663,243.13H16.861C7.564,243.13,0,235.566,0,226.269V74.908c0-9.297,7.564-16.861,16.861-16.861
			h239.802c9.297,0,16.861,7.564,16.861,16.861v151.362C273.524,235.566,265.959,243.13,256.663,243.13z M16.861,68.361
			c-3.611,0-6.547,2.936-6.547,6.547v151.362c0,3.611,2.936,6.547,6.547,6.547h239.802c3.611,0,6.547-2.936,6.547-6.547V74.908
			c0-3.611-2.936-6.547-6.547-6.547H16.861z"/>
	</g>
	<g>
		<g>
			<rect x="51.921" y="145.7" fill="#FFFFFF" width="34.166" height="24.764"/>
			<path fill="#1A2D52" d="M86.086,175.621H51.92c-2.848,0-5.157-2.309-5.157-5.157v-24.763c0-2.848,2.309-5.157,5.157-5.157h34.165
				c2.848,0,5.157,2.309,5.157,5.157v24.763C91.243,173.312,88.933,175.621,86.086,175.621z M57.077,165.307h23.851v-14.449H57.077
				V165.307z"/>
		</g>
		<g>
			<rect x="187.439" y="145.7" fill="#FFFFFF" width="34.166" height="24.764"/>
			<path fill="#1A2D52" d="M221.603,175.621h-34.165c-2.848,0-5.157-2.309-5.157-5.157v-24.763c0-2.848,2.309-5.157,5.157-5.157
				h34.165c2.848,0,5.157,2.309,5.157,5.157v24.763C226.76,173.312,224.451,175.621,221.603,175.621z M192.595,165.307h23.851
				v-14.449h-23.851V165.307z"/>
		</g>
	</g>
	<g>
		<path fill="#1A2D52" d="M237.812,164.438h-16.206c-2.848,0-5.157-2.309-5.157-5.157s2.309-5.157,5.157-5.157h16.206
			c14.003,0,25.397-11.394,25.397-25.397c0-2.848,2.309-5.157,5.157-5.157c2.848,0,5.157,2.309,5.157,5.157
			C273.524,148.418,257.504,164.438,237.812,164.438z"/>
	</g>
	<g>
		<path fill="#1A2D52" d="M187.438,164.438H86.086c-2.848,0-5.157-2.309-5.157-5.157s2.309-5.157,5.157-5.157h101.353
			c2.848,0,5.157,2.309,5.157,5.157S190.286,164.438,187.438,164.438z"/>
	</g>
	<g>
		<path fill="#1A2D52" d="M51.92,164.438H35.711C16.02,164.438,0,148.418,0,128.727c0-2.848,2.309-5.157,5.157-5.157
			s5.157,2.309,5.157,5.157c0,14.003,11.394,25.397,25.397,25.397H51.92c2.848,0,5.157,2.309,5.157,5.157
			S54.768,164.438,51.92,164.438z"/>
	</g>
</g>
</svg>
