<?xml version="1.0" encoding="utf-8"?>
<!-- Generator: Adobe Illustrator 25.2.3, SVG Export Plug-In . SVG Version: 6.00 Build 0)  -->
<svg version="1.1" id="Capa_1" xmlns="http://www.w3.org/2000/svg" xmlns:xlink="http://www.w3.org/1999/xlink" x="0px" y="0px"
	 viewBox="0 0 372.952 269.765" enable-background="new 0 0 372.952 269.765" xml:space="preserve">
<g>
	<g>
		<path fill="#FFFFFF" d="M269.459,229.566H15.471C6.927,229.566,0,222.64,0,214.095V15.471C0,6.927,6.927,0,15.471,0h297.855
			c8.544,0,15.471,6.927,15.471,15.471v149.74"/>
	</g>
	<g>
		<path fill="#FFFFFF" d="M350.535,171.035l-95.616-25.62c-3.835-1.027-7.344,2.481-6.316,6.316l25.62,95.616
			c1.027,3.835,5.821,5.119,8.628,2.312l25.334-25.334l36.289,36.289c5.337,5.337,13.99,5.337,19.327,0l0,0
			c5.337-5.337,5.337-13.99,0-19.327l-36.289-36.289l25.334-25.334C355.654,176.856,354.37,172.063,350.535,171.035z"/>
		<path fill="#1A2D52" d="M354.139,269.765c-4.822,0-9.642-1.833-13.311-5.505l-32.642-32.642l-21.688,21.686
			c-2.634,2.636-6.356,3.646-9.962,2.669c-3.601-0.964-6.328-3.691-7.292-7.292l-25.621-95.614
			c-0.964-3.603,0.033-7.328,2.669-9.964c2.636-2.631,6.361-3.629,9.962-2.669l95.616,25.621c3.601,0.964,6.328,3.692,7.292,7.292
			c0.967,3.601-0.033,7.325-2.669,9.962l-21.688,21.688l32.644,32.642c7.338,7.34,7.338,19.281,0,26.621
			C363.78,267.929,358.958,269.765,354.139,269.765z M308.186,217.034l39.934,39.934c3.319,3.319,8.718,3.319,12.036,0
			c3.316-3.319,3.316-8.718,0-12.036l-39.937-39.934l28.981-28.981l-95.616-25.621l25.621,95.616L308.186,217.034z"/>
	</g>
	<g>
		<path fill="#FBB336" d="M162.132,146.148l-74.03-36.23c-3.853-1.886-3.853-7.378,0-9.264l74.03-36.23c1.43-0.7,3.104-0.7,4.534,0
			l74.03,36.23c3.853,1.886,3.853,7.378,0,9.264l-74.03,36.23C165.235,146.848,163.562,146.848,162.132,146.148z"/>
	</g>
	<g>
		<path fill="#FBB336" d="M328.797,42.715H0V15.471C0,6.927,6.927,0,15.471,0h297.855c8.544,0,15.471,6.927,15.471,15.471V42.715z"
			/>
	</g>
	<g>
		<path fill="#FFFFFF" d="M184.451,30.466H18.625c-5.102,0-9.238-4.136-9.238-9.238v0c0-5.102,4.136-9.238,9.238-9.238h165.826
			c5.102,0,9.238,4.136,9.238,9.238v0C193.689,26.33,189.553,30.466,184.451,30.466z"/>
	</g>
	<g>
		<circle fill="#FFFFFF" cx="308.144" cy="21.357" r="9.108"/>
	</g>
	<g>
		<path fill="#FBB336" d="M162.132,156.462l-58.376-28.569v30.579c0,1.936,1.085,3.71,2.809,4.591l55.486,28.379
			c1.475,0.754,3.222,0.754,4.697,0l55.485-28.379c1.724-0.882,2.809-2.655,2.809-4.591v-30.579l-58.375,28.569
			C165.236,157.162,163.562,157.162,162.132,156.462z"/>
	</g>
	<g>
		<path fill="#1A2D52" d="M208.271,152.722c-2.848,0-5.157-2.309-5.157-5.157V129.07l-40.899-19.112
			c-2.581-1.204-3.694-4.273-2.488-6.854c1.204-2.584,4.278-3.691,6.854-2.488l46.846,21.887v25.062
			C213.428,150.413,211.119,152.722,208.271,152.722z"/>
	</g>
</g>
</svg>
