<?xml version="1.0" encoding="utf-8"?>
<!-- Generator: Adobe Illustrator 25.2.3, SVG Export Plug-In . SVG Version: 6.00 Build 0)  -->
<svg version="1.1" id="Capa_1" xmlns="http://www.w3.org/2000/svg" xmlns:xlink="http://www.w3.org/1999/xlink" x="0px" y="0px"
	 viewBox="0 0 428.438 289.445" enable-background="new 0 0 428.438 289.445" xml:space="preserve">
<g>
	<path fill="#FFFFFF" d="M423.281,10.83H156.373c-2.848,0-5.157,2.309-5.157,5.157v87.065c0,2.848,2.309,5.157,5.157,5.157
		c0.836,0,1.594-0.245,2.293-0.598l25.343,25.307l8.8,17.005l6.291,37.932l-2.28,15.784c-1.688,0.848-2.876,2.55-2.876,4.567
		c0,2.848,2.309,5.157,5.157,5.157h195.04c2.848,0,5.157-2.309,5.157-5.157c0-1.974-1.147-3.632-2.776-4.499l22.294-22.215
		c0.876,1.6,2.514,2.727,4.467,2.727c2.848,0,5.157-2.309,5.157-5.157V15.987C428.438,13.139,426.129,10.83,423.281,10.83z
		 M418.124,37.906L161.53,43.104v-21.96h256.595V37.906z"/>
	<g>
		<g>
			<path fill="#1A2D52" d="M235.01,96.311h-56.858c-2.848,0-5.157-2.309-5.157-5.157s2.309-5.157,5.157-5.157h56.858
				c2.848,0,5.157,2.309,5.157,5.157S237.858,96.311,235.01,96.311z"/>
		</g>
		<g>
			<path fill="#1A2D52" d="M318.257,96.311h-56.858c-2.848,0-5.157-2.309-5.157-5.157s2.309-5.157,5.157-5.157h56.858
				c2.848,0,5.157,2.309,5.157,5.157S321.105,96.311,318.257,96.311z"/>
		</g>
		<g>
			<path fill="#1A2D52" d="M401.505,96.311h-56.858c-2.848,0-5.157-2.309-5.157-5.157s2.309-5.157,5.157-5.157h56.858
				c2.848,0,5.157,2.309,5.157,5.157S404.353,96.311,401.505,96.311z"/>
		</g>
		<g>
			<path fill="#1A2D52" d="M235.01,129.278h-56.858c-2.848,0-5.157-2.309-5.157-5.157s2.309-5.157,5.157-5.157h56.858
				c2.848,0,5.157,2.309,5.157,5.157S237.858,129.278,235.01,129.278z"/>
		</g>
		<g>
			<path fill="#1A2D52" d="M318.257,129.278h-56.858c-2.848,0-5.157-2.309-5.157-5.157s2.309-5.157,5.157-5.157h56.858
				c2.848,0,5.157,2.309,5.157,5.157S321.105,129.278,318.257,129.278z"/>
		</g>
		<g>
			<path fill="#1A2D52" d="M401.505,129.278h-56.858c-2.848,0-5.157-2.309-5.157-5.157s2.309-5.157,5.157-5.157h56.858
				c2.848,0,5.157,2.309,5.157,5.157S404.353,129.278,401.505,129.278z"/>
		</g>
		<g>
			<path fill="#1A2D52" d="M235.01,162.242h-38.851c-2.848,0-5.157-2.309-5.157-5.157s2.309-5.157,5.157-5.157h38.851
				c2.848,0,5.157,2.309,5.157,5.157S237.858,162.242,235.01,162.242z"/>
		</g>
		<g>
			<path fill="#1A2D52" d="M318.257,162.242h-56.858c-2.848,0-5.157-2.309-5.157-5.157s2.309-5.157,5.157-5.157h56.858
				c2.848,0,5.157,2.309,5.157,5.157S321.105,162.242,318.257,162.242z"/>
		</g>
		<g>
			<path fill="#1A2D52" d="M401.505,162.242h-56.858c-2.848,0-5.157-2.309-5.157-5.157s2.309-5.157,5.157-5.157h56.858
				c2.848,0,5.157,2.309,5.157,5.157S404.353,162.242,401.505,162.242z"/>
		</g>
	</g>
	<path fill="#FBB336" d="M428.438,53.931V15.987c0-2.848-2.309-5.157-5.157-5.157H156.373c-2.848,0-5.157,2.309-5.157,5.157v37.943
		H428.438z"/>
	<path fill="#FBB336" d="M428.046,177.089c-0.798-1.926-2.679-3.183-4.764-3.183H394.14c-2.848,0-5.157,2.309-5.157,5.157v29.144
		c0,2.085,1.257,3.966,3.183,4.764c0.64,0.264,1.309,0.393,1.974,0.393c1.342,0,2.659-0.524,3.646-1.511l29.142-29.144
		C428.403,181.234,428.844,179.015,428.046,177.089z"/>
	<g>
		<g>
			<path fill="#FFFFFF" d="M185.915,33.725c-2.848,0-5.157-2.309-5.157-5.157V5.157c0-2.848,2.309-5.157,5.157-5.157
				s5.157,2.309,5.157,5.157v23.411C191.072,31.416,188.763,33.725,185.915,33.725z"/>
		</g>
		<g>
			<path fill="#FFFFFF" d="M227.481,33.725c-2.848,0-5.157-2.309-5.157-5.157V5.157c0-2.848,2.309-5.157,5.157-5.157
				s5.157,2.309,5.157,5.157v23.411C232.638,31.416,230.329,33.725,227.481,33.725z"/>
		</g>
		<g>
			<path fill="#FFFFFF" d="M269.047,33.725c-2.848,0-5.157-2.309-5.157-5.157V5.157c0-2.848,2.309-5.157,5.157-5.157
				c2.848,0,5.157,2.309,5.157,5.157v23.411C274.204,31.416,271.895,33.725,269.047,33.725z"/>
		</g>
		<g>
			<path fill="#FFFFFF" d="M310.61,33.725c-2.848,0-5.157-2.309-5.157-5.157V5.157c0-2.848,2.309-5.157,5.157-5.157
				c2.848,0,5.157,2.309,5.157,5.157v23.411C315.767,31.416,313.458,33.725,310.61,33.725z"/>
		</g>
		<g>
			<path fill="#FFFFFF" d="M352.176,33.725c-2.848,0-5.157-2.309-5.157-5.157V5.157c0-2.848,2.309-5.157,5.157-5.157
				c2.848,0,5.157,2.309,5.157,5.157v23.411C357.333,31.416,355.024,33.725,352.176,33.725z"/>
		</g>
		<g>
			<path fill="#FFFFFF" d="M393.742,33.725c-2.848,0-5.157-2.309-5.157-5.157V5.157c0-2.848,2.309-5.157,5.157-5.157
				c2.848,0,5.157,2.309,5.157,5.157v23.411C398.899,31.416,396.59,33.725,393.742,33.725z"/>
		</g>
	</g>
	<path fill="#FBB336" d="M124.461,40.821H83.852c-2.848,0-5.157,2.309-5.157,5.157v20.067c0,2.848,2.309,5.157,5.157,5.157h4.16
		v18.855c0,2.848,2.309,5.157,5.157,5.157h21.978c2.848,0,5.157-2.309,5.157-5.157V71.201h4.157c2.848,0,5.157-2.309,5.157-5.157
		V45.978C129.618,43.13,127.309,40.821,124.461,40.821z"/>
	<g>
		<g>
			<path fill="#FFFFFF" d="M104.852,284.288c-54.972,0-99.696-44.721-99.696-99.693s44.724-99.696,99.696-99.696
				s99.693,44.724,99.693,99.696S159.824,284.288,104.852,284.288z"/>
		</g>
		<g>
			<path fill="#1A2D52" d="M104.851,90.057c52.211,0,94.537,42.326,94.537,94.537s-42.326,94.537-94.537,94.537
				s-94.537-42.326-94.537-94.537S52.64,90.057,104.851,90.057 M104.851,79.743C47.036,79.743,0,126.779,0,184.594
				s47.036,104.851,104.851,104.851s104.851-47.036,104.851-104.851S162.666,79.743,104.851,79.743L104.851,79.743z"/>
		</g>
	</g>
	<g>
		<path fill="#1A2D52" d="M130.197,209.836c-1.123,0-2.251-0.365-3.2-1.116l-25.349-20.084c-1.234-0.977-1.954-2.465-1.954-4.042
			v-49.12c0-2.848,2.309-5.157,5.157-5.157s5.157,2.309,5.157,5.157v46.627l23.395,18.536c2.231,1.768,2.609,5.011,0.839,7.245
			C133.224,209.167,131.718,209.836,130.197,209.836z"/>
	</g>
	<g>
		<g>
			<path fill="#FBB336" d="M104.85,120.613c-2.848,0-5.157-2.309-5.157-5.157v-12.918c0-2.848,2.309-5.157,5.157-5.157
				s5.157,2.309,5.157,5.157v12.918C110.007,118.304,107.698,120.613,104.85,120.613z"/>
		</g>
		<g>
			<path fill="#FBB336" d="M104.85,269.016c-2.848,0-5.157-2.309-5.157-5.157v-12.918c0-2.848,2.309-5.157,5.157-5.157
				s5.157,2.309,5.157,5.157v12.918C110.007,266.707,107.698,269.016,104.85,269.016z"/>
		</g>
	</g>
	<g>
		<g>
			<path fill="#FBB336" d="M185.512,188.357h-12.918c-2.848,0-5.157-2.309-5.157-5.157s2.309-5.157,5.157-5.157h12.918
				c2.848,0,5.157,2.309,5.157,5.157S188.36,188.357,185.512,188.357z"/>
		</g>
		<g>
			<path fill="#FBB336" d="M37.109,188.357H24.191c-2.848,0-5.157-2.309-5.157-5.157s2.309-5.157,5.157-5.157h12.918
				c2.848,0,5.157,2.309,5.157,5.157S39.957,188.357,37.109,188.357z"/>
		</g>
	</g>
</g>
</svg>
