<?xml version="1.0" encoding="utf-8"?>
<!-- Generator: Adobe Illustrator 25.2.3, SVG Export Plug-In . SVG Version: 6.00 Build 0)  -->
<svg version="1.1" id="Capa_1" xmlns="http://www.w3.org/2000/svg" xmlns:xlink="http://www.w3.org/1999/xlink" x="0px" y="0px"
	 viewBox="0 0 123.279 104.724" enable-background="new 0 0 123.279 104.724" xml:space="preserve">
<g>
	<path fill="#FBB336" d="M33.763,36.576H22.509c-1.554,0-2.814,1.26-2.814,2.814v14.068c0,1.554,1.26,2.814,2.814,2.814h11.254
		c1.554,0,2.814-1.26,2.814-2.814V39.39C36.576,37.836,35.317,36.576,33.763,36.576z"/>
	<path fill="#1A2D52" d="M77.373,37.28H49.237c-1.943,0-3.517,1.574-3.517,3.517c0,1.942,1.574,3.517,3.517,3.517h28.136
		c1.942,0,3.517-1.574,3.517-3.517C80.89,38.854,79.315,37.28,77.373,37.28z"/>
	<path fill="#1A2D52" d="M77.373,51.347H49.237c-1.943,0-3.517,1.574-3.517,3.517c0,1.942,1.574,3.517,3.517,3.517h28.136
		c1.942,0,3.517-1.574,3.517-3.517C80.89,52.922,79.315,51.347,77.373,51.347z"/>
	<path fill="#1A2D52" d="M77.373,65.415H23.915c-1.943,0-3.517,1.574-3.517,3.517s1.574,3.517,3.517,3.517h53.457
		c1.942,0,3.517-1.574,3.517-3.517S79.315,65.415,77.373,65.415z"/>
	<path fill="#FBB336" d="M73.981,90.383c-0.549-0.549-1.432-0.555-1.982-0.007c-0.918,0.914-2.233,2.225-2.857,2.853
		c-0.235,0.237-0.369,0.54-0.394,0.873l-0.701,9.107c-0.068,0.881,0.685,1.607,1.563,1.506l8.75-1.007
		c0.315-0.036,0.609-0.178,0.834-0.403l2.86-2.86c0.549-0.549,0.549-1.44,0-1.989L73.981,90.383z"/>
	<path fill="#FBB336" d="M111.748,68.679l-8.071-8.071c-0.549-0.549-1.44-0.549-1.989,0L79.08,83.216
		c-0.549,0.549-0.549,1.44,0,1.99l8.071,8.071c0.549,0.549,1.44,0.549,1.99,0l22.608-22.608
		C112.297,70.119,112.297,69.228,111.748,68.679z"/>
	<path fill="#1A2D52" d="M122.867,57.643l-8.071-8.071c-0.55-0.549-1.44-0.549-1.99,0l-4.24,4.24c-0.549,0.549-0.549,1.44,0,1.989
		l8.071,8.071c0.549,0.549,1.44,0.549,1.989,0l4.24-4.24C123.417,59.083,123.417,58.192,122.867,57.643z"/>
	<path fill="#1A2D52" d="M70.476,81.593H14.068c-1.554,0-2.814-1.259-2.814-2.814v-47.83c0-1.554,1.26-2.814,2.814-2.814H87.22
		c1.554,0,2.814,1.259,2.814,2.814v31.086l11.254-11.254V11.254C101.288,5.039,96.249,0,90.034,0H11.254C5.039,0,0,5.039,0,11.254
		v70.339c0,6.215,5.039,11.254,11.254,11.254h47.967L70.476,81.593z M33.763,9.847h11.254c2.33,0,4.22,1.889,4.22,4.22
		s-1.89,4.22-4.22,4.22H33.763c-2.33,0-4.22-1.889-4.22-4.22S31.433,9.847,33.763,9.847z M16.881,8.441
		c3.108,0,5.627,2.519,5.627,5.627s-2.519,5.627-5.627,5.627c-3.108,0-5.627-2.519-5.627-5.627S13.774,8.441,16.881,8.441z"/>
</g>
</svg>
