<?xml version="1.0" encoding="utf-8"?>
<!-- Generator: Adobe Illustrator 25.2.3, SVG Export Plug-In . SVG Version: 6.00 Build 0)  -->
<svg version="1.1" id="Capa_1" xmlns="http://www.w3.org/2000/svg" xmlns:xlink="http://www.w3.org/1999/xlink" x="0px" y="0px"
	 viewBox="0 0 118.169 104.805" enable-background="new 0 0 118.169 104.805" xml:space="preserve">
<g>
	<g>
		<g>
			<g>
				<path fill="#FBB336" d="M60.612,47.931c-1.796,0-3.568-0.473-5.125-1.367L37.911,36.466v10.946l17.931,10.302
					c2.008,1.154,4.477,1.154,6.485,0L81.14,46.905c2.02-1.161,3.266-3.314,3.266-5.644v-5.424l-18.67,10.726
					C64.18,47.458,62.408,47.931,60.612,47.931z M92.521,17.42L63.578,0.791C62.659,0.264,61.636,0,60.612,0
					c-1.024,0-2.047,0.264-2.965,0.791L28.703,17.42c-2.177,1.251-2.177,4.393,0,5.644l30.287,17.401
					c0.502,0.288,1.062,0.432,1.621,0.432c0.56,0,1.12-0.144,1.621-0.432l30.287-17.401C94.698,21.812,94.698,18.671,92.521,17.42z"
					/>
				<g>
					<path fill="#1A2D52" d="M112.542,2.11H79.993l16.032,9.21c0.952,0.547,1.78,1.249,2.495,2.044h8.395v50.644H11.254V13.364
						h11.45c0.716-0.795,1.544-1.497,2.495-2.043L41.231,2.11H5.627C2.519,2.11,0,4.629,0,7.737v70.339
						c0,3.108,2.519,5.627,5.627,5.627h41.969l-2.11,12.661H35.169c-2.33,0-4.22,1.889-4.22,4.22s1.89,4.22,4.22,4.22H83
						c2.33,0,4.22-1.889,4.22-4.22s-1.89-4.22-4.22-4.22H72.683l-2.11-12.661h41.969c3.108,0,5.627-2.519,5.627-5.627V7.737
						C118.169,4.629,115.65,2.11,112.542,2.11z"/>
					<circle fill="#FFFFFF" cx="59.085" cy="75.263" r="4.22"/>
				</g>
				<path fill="#FBB336" d="M25.322,29.699V44.58l-2.326,3.033c-0.636,0.829-0.636,1.98,0,2.809l3.044,3.969
					c0.924,1.204,2.739,1.204,3.663,0l3.044-3.969c0.636-0.829,0.636-1.98,0-2.809l-1.798-2.344V32.932L25.322,29.699z"/>
			</g>
		</g>
	</g>
</g>
</svg>
