<?xml version="1.0" encoding="utf-8"?>
<!-- Generator: Adobe Illustrator 25.2.3, SVG Export Plug-In . SVG Version: 6.00 Build 0)  -->
<svg version="1.1" id="Capa_1" xmlns="http://www.w3.org/2000/svg" xmlns:xlink="http://www.w3.org/1999/xlink" x="0px" y="0px"
	 viewBox="0 0 57.151 100.468" enable-background="new 0 0 57.151 100.468" xml:space="preserve">
<path fill="#1A2D52" d="M52.161,0H4.991C2.234,0,0,2.234,0,4.991v90.487c0,2.756,2.234,4.991,4.991,4.991h47.17
	c2.756,0,4.991-2.234,4.991-4.991V4.991C57.151,2.234,54.917,0,52.161,0z M24.543,5.397h8.064c1.088,0,1.969,0.882,1.969,1.969
	s-0.881,1.969-1.969,1.969h-8.064c-1.088,0-1.969-0.882-1.969-1.969S23.456,5.397,24.543,5.397z M28.576,93.078
	c-2.787,0-5.046-2.259-5.046-5.046c0-2.787,2.259-5.046,5.046-5.046c2.787,0,5.046,2.259,5.046,5.046
	C33.622,90.818,31.363,93.078,28.576,93.078z M49.526,74.21c0,1.552-1.258,2.811-2.811,2.811H10.437
	c-1.552,0-2.811-1.259-2.811-2.811V18.528c0-1.553,1.259-2.811,2.811-2.811h36.278c1.553,0,2.811,1.258,2.811,2.811V74.21z"/>
</svg>
