<?xml version="1.0" encoding="utf-8"?>
<!-- Generator: Adobe Illustrator 25.2.3, SVG Export Plug-In . SVG Version: 6.00 Build 0)  -->
<svg version="1.1" id="Capa_1" xmlns="http://www.w3.org/2000/svg" xmlns:xlink="http://www.w3.org/1999/xlink" x="0px" y="0px"
	 viewBox="0 0 94.43 94.43" enable-background="new 0 0 94.43 94.43" xml:space="preserve">
<path fill="#1A2D52" d="M47.215,0C21.139,0,0,21.139,0,47.215C0,73.291,21.139,94.43,47.215,94.43S94.43,73.291,94.43,47.215
	C94.43,21.139,73.291,0,47.215,0z M65.371,63.243c-0.748,0.848-1.792,1.281-2.841,1.281c-0.891,0-1.785-0.312-2.505-0.948
	L44.708,50.055c-0.028-0.025-0.048-0.055-0.075-0.081c-0.101-0.095-0.192-0.199-0.282-0.304c-0.074-0.086-0.15-0.17-0.215-0.261
	c-0.073-0.103-0.134-0.214-0.197-0.324c-0.059-0.104-0.121-0.206-0.17-0.314c-0.05-0.111-0.086-0.227-0.125-0.343
	c-0.04-0.118-0.082-0.233-0.11-0.354c-0.026-0.112-0.039-0.228-0.055-0.344c-0.019-0.134-0.036-0.266-0.04-0.401
	c-0.001-0.039-0.012-0.075-0.012-0.114V17.909c0-2.092,1.695-3.788,3.788-3.788c2.092,0,3.788,1.695,3.788,3.788v27.598
	l14.036,12.39C66.606,59.28,66.756,61.674,65.371,63.243z"/>
</svg>
