<?xml version="1.0" encoding="utf-8"?>
<!-- Generator: Adobe Illustrator 25.2.3, SVG Export Plug-In . SVG Version: 6.00 Build 0)  -->
<svg version="1.1" id="Capa_1" xmlns="http://www.w3.org/2000/svg" xmlns:xlink="http://www.w3.org/1999/xlink" x="0px" y="0px"
	 viewBox="0 0 87.632 81.498" enable-background="new 0 0 87.632 81.498" xml:space="preserve">
<path fill-rule="evenodd" clip-rule="evenodd" fill="#1A2D52" d="M66.268,81.312c-2.977,0.275-6.013-0.235-8.929-1.173
	c-19.797-5.766-34.747-17.886-46.727-34.351C6.121,39.694,1.877,33.144,0.557,25.454C-1.3,16.505,1.536,8.507,8.367,2.366
	c2.245-2.132,8.809-3.097,11.517-1.737c0.805,0.751,1.314,1.482,1.857,2.313c2.501,6.161,5.088,11.88,7.542,17.678
	c0.376,1.194,0.309,2.454-0.328,3.64c-1.328,2.729-3.392,4.921-5.309,7.146c-1.643,1.401-1.643,3.044-0.543,4.767
	c7.12,11.805,16.632,20.266,29.477,25.28c1.83,0.798,3.312,0.463,4.492-0.965c2.172-2.601,4.364-5.383,6.416-8.098
	c1.26-1.737,2.99-1.978,4.847-1.194c4.23,1.924,8.313,3.909,12.436,5.766c1.053,0.597,1.858,0.992,2.91,1.327
	c4.237,2.199,4.237,2.434,3.721,7.012c-0.543,9.07-7.415,13.642-15.359,15.808C69.915,81.587,68.185,81.587,66.268,81.312z"/>
</svg>
