<?xml version="1.0" encoding="utf-8"?>
<!-- Generator: Adobe Illustrator 25.2.3, SVG Export Plug-In . SVG Version: 6.00 Build 0)  -->
<svg version="1.1" id="Capa_1" xmlns="http://www.w3.org/2000/svg" xmlns:xlink="http://www.w3.org/1999/xlink" x="0px" y="0px"
	 viewBox="0 0 58.428 100.468" enable-background="new 0 0 58.428 100.468" xml:space="preserve">
<g>
	<path fill="#1A2D52" d="M29.214,0C13.079,0,0,13.079,0,29.214c0,16.134,29.214,56.448,29.214,56.448s29.214-40.314,29.214-56.448
		C58.428,13.079,45.349,0,29.214,0z M29.214,44.48c-8.943,0-16.192-7.25-16.192-16.193c0-8.943,7.249-16.193,16.192-16.193
		c8.943,0,16.193,7.249,16.193,16.193C45.407,37.23,38.157,44.48,29.214,44.48z"/>
	<path fill="#1A2D52" d="M41.318,98.089c0,1.314-5.419,2.379-12.104,2.379c-6.685,0-12.105-1.065-12.105-2.379
		c0-1.314,5.419-2.38,12.105-2.38C35.899,95.709,41.318,96.774,41.318,98.089z"/>
</g>
</svg>
