<?xml version="1.0" encoding="utf-8"?>
<!-- Generator: Adobe Illustrator 25.2.3, SVG Export Plug-In . SVG Version: 6.00 Build 0)  -->
<svg version="1.1" id="Capa_1" xmlns="http://www.w3.org/2000/svg" xmlns:xlink="http://www.w3.org/1999/xlink" x="0px" y="0px"
	 viewBox="0 0 100.813 100.813" enable-background="new 0 0 100.813 100.813" xml:space="preserve">
<g>
	<path fill="#1A2D52" d="M0,74.442V26.371C0,11.867,11.867,0,26.371,0h48.071c14.504,0,26.371,11.867,26.371,26.371l0,48.072
		c0,14.503-11.867,26.37-26.371,26.371h-16.16l-8.462-2.062l-7.29,2.062l-16.16,0C11.867,100.813,0,88.946,0,74.442z"/>
	<g>
		<path fill="#FBB336" d="M70.028,66.633l2.235-14.571h-13.98v-9.455c0-3.986,1.953-7.872,8.214-7.872h6.356V22.33
			c0,0-5.769-0.985-11.284-0.985c-11.514,0-19.039,6.978-19.039,19.612v11.105H29.732v14.571h12.799v34.18h15.752v-34.18H70.028z"/>
	</g>
</g>
</svg>
