<?xml version="1.0" encoding="utf-8"?>
<!-- Generator: Adobe Illustrator 25.2.3, SVG Export Plug-In . SVG Version: 6.00 Build 0)  -->
<svg version="1.1" id="Capa_1" xmlns="http://www.w3.org/2000/svg" xmlns:xlink="http://www.w3.org/1999/xlink" x="0px" y="0px"
	 viewBox="0 0 107.617 97.957" enable-background="new 0 0 107.617 97.957" xml:space="preserve">
<g>
	<g>
		<path fill="#FFFFFF" d="M90.166,0H78.532c-3.213,0-5.817,2.604-5.817,5.817c0,3.213-2.605,5.817-5.817,5.817
			c-3.213,0-5.817-2.605-5.817-5.817C61.08,2.604,58.475,0,55.263,0H40.72c-3.213,0-5.817,2.604-5.817,5.817
			c0,3.213-2.605,5.817-5.817,5.817c-3.213,0-5.817-2.605-5.817-5.817C23.269,2.604,20.664,0,17.451,0H5.817
			C2.605,0,0,2.604,0,5.817v72.714c0,3.213,2.605,5.817,5.817,5.817h44.092c-1.552-3.891-2.431-8.124-2.431-12.569
			c0-18.757,15.205-33.962,33.962-33.962c5.212,0,10.13,1.209,14.543,3.306V5.817C95.983,2.604,93.378,0,90.166,0z M17.451,70.326
			c-3.213,0-5.817-2.605-5.817-5.817c0-3.213,2.605-5.817,5.817-5.817c3.212,0,5.817,2.604,5.817,5.817
			C23.269,67.721,20.664,70.326,17.451,70.326z M17.451,52.874c-3.213,0-5.817-2.605-5.817-5.817c0-3.213,2.605-5.817,5.817-5.817
			c3.212,0,5.817,2.604,5.817,5.817C23.269,50.27,20.664,52.874,17.451,52.874z M34.903,70.326c-3.213,0-5.817-2.605-5.817-5.817
			c0-3.213,2.605-5.817,5.817-5.817c3.212,0,5.817,2.604,5.817,5.817C40.72,67.721,38.115,70.326,34.903,70.326z M34.903,52.874
			c-3.213,0-5.817-2.605-5.817-5.817c0-3.213,2.605-5.817,5.817-5.817c3.212,0,5.817,2.604,5.817,5.817
			C40.72,50.27,38.115,52.874,34.903,52.874z M34.903,35.423c-3.213,0-5.817-2.605-5.817-5.817c0-3.213,2.605-5.817,5.817-5.817
			c3.212,0,5.817,2.604,5.817,5.817C40.72,32.818,38.115,35.423,34.903,35.423z M52.354,35.423c-3.213,0-5.817-2.605-5.817-5.817
			c0-3.213,2.605-5.817,5.817-5.817c3.212,0,5.817,2.604,5.817,5.817C58.172,32.818,55.567,35.423,52.354,35.423z"/>
		<path fill="#FFFFFF" d="M81.44,45.603c-14.457,0-26.177,11.72-26.177,26.177s11.72,26.177,26.177,26.177
			c14.457,0,26.177-11.72,26.177-26.177S95.898,45.603,81.44,45.603z M85.076,73.235c0,2.008-1.628,3.636-3.636,3.636H66.897
			c-2.008,0-3.636-1.628-3.636-3.636c0-2.008,1.628-3.636,3.636-3.636h10.907V55.783c0-2.008,1.628-3.636,3.636-3.636
			c2.008,0,3.636,1.628,3.636,3.636V73.235z"/>
	</g>
</g>
</svg>
