<?xml version="1.0" encoding="utf-8"?>
<!-- Generator: Adobe Illustrator 25.2.3, SVG Export Plug-In . SVG Version: 6.00 Build 0)  -->
<svg version="1.1" id="Capa_1" xmlns="http://www.w3.org/2000/svg" xmlns:xlink="http://www.w3.org/1999/xlink" x="0px" y="0px"
	 viewBox="0 0 118.125 93.855" enable-background="new 0 0 118.125 93.855" xml:space="preserve">
<g>
	<g>
		<path fill="#FFFFFF" d="M13.26,73.819V54.787l-5.817-3.342v22.208c-2.657,1.082-4.534,3.683-4.534,6.729
			c0,4.016,3.255,7.271,7.271,7.271c4.016,0,7.271-3.256,7.271-7.271C17.452,77.472,15.73,74.98,13.26,73.819z"/>
		<path fill="#FFFFFF" d="M59.063,79.109c-2.27,0-4.509-0.597-6.477-1.728L20.458,58.922v14.497
			c0.148,0.094,0.284,0.203,0.437,0.291l32.372,18.598c3.589,2.062,8.003,2.062,11.592,0L97.23,73.71
			c3.612-2.075,5.838-5.922,5.838-10.088v-7.803L65.54,77.38C63.572,78.511,61.332,79.109,59.063,79.109z M115.249,30.497
			L64.858,1.546C63.064,0.515,61.063,0,59.063,0c-2.001,0-4.001,0.515-5.796,1.546L2.876,30.497c-3.834,2.203-3.834,7.735,0,9.938
			l53.332,30.64c0.884,0.508,1.869,0.762,2.855,0.762c0.985,0,1.971-0.254,2.855-0.762l53.332-30.64
			C119.084,38.232,119.084,32.7,115.249,30.497z"/>
	</g>
</g>
</svg>
