<?xml version="1.0" encoding="utf-8"?>
<!-- Generator: Adobe Illustrator 25.2.3, SVG Export Plug-In . SVG Version: 6.00 Build 0)  -->
<svg version="1.1" id="Capa_1" xmlns="http://www.w3.org/2000/svg" xmlns:xlink="http://www.w3.org/1999/xlink" x="0px" y="0px"
	 viewBox="0 0 125.541 91.212" enable-background="new 0 0 125.541 91.212" xml:space="preserve">
<g>
	<path fill="#FFFFFF" d="M117.284,91.212c4.561,0,8.257-3.697,8.257-8.258V69.718l-21.494,21.494H117.284z"/>
	<path fill="#FFFFFF" d="M117.284,0h-11.838v11.526c0,1.98-1.605,3.585-3.585,3.585c-1.98,0-3.585-1.605-3.585-3.585V0H79.385
		v11.526c0,1.98-1.605,3.585-3.585,3.585c-1.98,0-3.585-1.605-3.585-3.585V0H53.325v11.526c0,1.98-1.605,3.585-3.585,3.585
		c-1.98,0-3.585-1.605-3.585-3.585V0H27.264v11.526c0,1.98-1.605,3.585-3.585,3.585s-3.585-1.605-3.585-3.585V0H8.258
		C3.697,0,0,3.697,0,8.257v74.697c0,4.56,3.697,8.258,8.258,8.258h95.789V76.013c0-3.477,2.819-6.295,6.296-6.295h15.199V8.257
		C125.541,3.697,121.844,0,117.284,0z M30.661,77.847c0,3.168-2.568,5.736-5.736,5.736H13.009c-3.168,0-5.736-2.568-5.736-5.736
		v-2.394c0-3.168,2.568-5.736,5.736-5.736h11.917c3.168,0,5.736,2.567,5.736,5.736V77.847z M30.661,57.467
		c0,3.168-2.568,5.736-5.736,5.736H13.009c-3.168,0-5.736-2.568-5.736-5.736v-2.394c0-3.167,2.568-5.736,5.736-5.736h11.917
		c3.168,0,5.736,2.568,5.736,5.736V57.467z M30.661,37.086c0,3.167-2.568,5.736-5.736,5.736H13.009
		c-3.168,0-5.736-2.568-5.736-5.736v-2.394c0-3.168,2.568-5.736,5.736-5.736h11.917c3.168,0,5.736,2.568,5.736,5.736V37.086z
		 M59.863,77.847c0,3.168-2.568,5.736-5.736,5.736H42.211c-3.168,0-5.736-2.568-5.736-5.736v-2.394c0-3.168,2.568-5.736,5.736-5.736
		h11.917c3.168,0,5.736,2.567,5.736,5.736V77.847z M59.863,57.467c0,3.168-2.568,5.736-5.736,5.736H42.211
		c-3.168,0-5.736-2.568-5.736-5.736v-2.394c0-3.167,2.568-5.736,5.736-5.736h11.917c3.168,0,5.736,2.568,5.736,5.736V57.467z
		 M59.863,37.086c0,3.167-2.568,5.736-5.736,5.736H42.211c-3.168,0-5.736-2.568-5.736-5.736v-2.394c0-3.168,2.568-5.736,5.736-5.736
		h11.917c3.168,0,5.736,2.568,5.736,5.736V37.086z M89.066,77.847c0,3.168-2.568,5.736-5.736,5.736H71.414
		c-3.168,0-5.736-2.568-5.736-5.736v-2.394c0-3.168,2.568-5.736,5.736-5.736H83.33c3.168,0,5.736,2.567,5.736,5.736V77.847z
		 M89.066,57.467c0,3.168-2.568,5.736-5.736,5.736H71.414c-3.168,0-5.736-2.568-5.736-5.736v-2.394c0-3.167,2.568-5.736,5.736-5.736
		H83.33c3.168,0,5.736,2.568,5.736,5.736V57.467z M89.066,37.086c0,3.167-2.568,5.736-5.736,5.736H71.414
		c-3.168,0-5.736-2.568-5.736-5.736v-2.394c0-3.168,2.568-5.736,5.736-5.736H83.33c3.168,0,5.736,2.568,5.736,5.736V37.086z
		 M118.268,57.467c0,3.168-2.568,5.736-5.736,5.736h-11.917c-3.168,0-5.736-2.568-5.736-5.736v-2.394
		c0-3.167,2.568-5.736,5.736-5.736h11.917c3.168,0,5.736,2.568,5.736,5.736V57.467z M118.268,37.086
		c0,3.167-2.568,5.736-5.736,5.736h-11.917c-3.168,0-5.736-2.568-5.736-5.736v-2.394c0-3.168,2.568-5.736,5.736-5.736h11.917
		c3.168,0,5.736,2.568,5.736,5.736V37.086z"/>
</g>
</svg>
