<?xml version="1.0" encoding="utf-8"?>
<!-- Generator: Adobe Illustrator 25.2.3, SVG Export Plug-In . SVG Version: 6.00 Build 0)  -->
<svg version="1.1" id="Capa_1" xmlns="http://www.w3.org/2000/svg" xmlns:xlink="http://www.w3.org/1999/xlink" x="0px" y="0px"
	 viewBox="0 0 81.215 63.569" enable-background="new 0 0 81.215 63.569" xml:space="preserve">
<g>
	<path fill="#1A2D52" d="M71.949,62.863H9.267C4.149,62.863,0,58.715,0,53.597V9.267C0,4.149,4.149,0,9.267,0h62.682
		c5.118,0,9.267,4.149,9.267,9.267v44.33C81.215,58.715,77.066,62.863,71.949,62.863z"/>
	<g>
		<path fill="#FFFFFF" d="M41.437,39.709H17.38c-4.832,0-8.75,3.917-8.75,8.75v15.11h41.558v-15.11
			C50.187,43.627,46.27,39.709,41.437,39.709z"/>
		<circle fill="#FFFFFF" cx="29.409" cy="21.722" r="13.859"/>
		<g>
			<path fill="#FFFFFF" d="M58.889,31.149c-0.862,0-1.688-0.353-2.285-0.979l-6.693-7.018c-1.204-1.262-1.157-3.262,0.106-4.466
				c1.262-1.205,3.262-1.157,4.466,0.106l4.245,4.45l9.27-11.162c1.114-1.342,3.106-1.527,4.448-0.412
				c1.342,1.115,1.526,3.106,0.412,4.448L61.32,30.008c-0.576,0.694-1.421,1.108-2.321,1.139
				C58.962,31.148,58.926,31.149,58.889,31.149z"/>
		</g>
	</g>
</g>
</svg>
