<?xml version="1.0" encoding="utf-8"?>
<!-- Generator: Adobe Illustrator 25.2.3, SVG Export Plug-In . SVG Version: 6.00 Build 0)  -->
<svg version="1.1" id="Capa_1" xmlns="http://www.w3.org/2000/svg" xmlns:xlink="http://www.w3.org/1999/xlink" x="0px" y="0px"
	 viewBox="0 0 100.813 100.813" enable-background="new 0 0 100.813 100.813" xml:space="preserve">
<g>
	<path fill="#575756" d="M0,74.442V26.371C0,11.867,11.867,0,26.371,0l48.072,0c14.504,0,26.371,11.866,26.371,26.371v48.071
		c0,14.504-11.867,26.371-26.371,26.371l-48.072,0C11.867,100.813,0,88.946,0,74.442z"/>
	<g>
		<path fill="#FFFFFF" d="M66.053,31.408c-1.913,0-3.465,1.551-3.465,3.465c0,1.914,1.551,3.465,3.465,3.465
			c1.914,0,3.465-1.551,3.465-3.465C69.518,32.96,67.967,31.408,66.053,31.408z"/>
		<path fill="#FFFFFF" d="M50.649,35.852c-8.026,0-14.555,6.529-14.555,14.555c0,8.025,6.529,14.555,14.555,14.555
			c8.025,0,14.555-6.529,14.555-14.555C65.204,42.381,58.674,35.852,50.649,35.852z M50.649,59.73c-5.141,0-9.324-4.182-9.324-9.323
			s4.182-9.323,9.324-9.323c5.141,0,9.323,4.182,9.323,9.323S55.79,59.73,50.649,59.73z"/>
		<path fill="#FFFFFF" d="M62.204,79.957H38.608c-9.789,0-17.752-7.964-17.752-17.752V38.608c0-9.789,7.964-17.752,17.752-17.752
			h23.596c9.789,0,17.753,7.963,17.753,17.752v23.597C79.957,71.994,71.992,79.957,62.204,79.957z M38.608,26.416
			c-6.723,0-12.192,5.469-12.192,12.192v23.597c0,6.723,5.469,12.192,12.192,12.192h23.596c6.723,0,12.193-5.469,12.193-12.192
			V38.608c0-6.723-5.47-12.192-12.193-12.192H38.608z"/>
	</g>
</g>
</svg>
