<?xml version="1.0" encoding="utf-8"?>
<!-- Generator: Adobe Illustrator 25.2.3, SVG Export Plug-In . SVG Version: 6.00 Build 0)  -->
<svg version="1.1" id="Capa_1" xmlns="http://www.w3.org/2000/svg" xmlns:xlink="http://www.w3.org/1999/xlink" x="0px" y="0px"
	 viewBox="0 0 100.813 100.813" enable-background="new 0 0 100.813 100.813" xml:space="preserve">
<g>
	<path fill="#575756" d="M0,74.442V26.371C0,11.867,11.867,0,26.371,0h48.071c14.504,0,26.371,11.867,26.371,26.371l0,48.072
		c0,14.503-11.867,26.37-26.371,26.371l-48.072,0C11.867,100.813,0,88.946,0,74.442z"/>
	<path fill="#FFFFFF" d="M29.267,41.019h9.763V72.38h-9.763V41.019z M34.15,25.435c3.122,0,5.652,2.533,5.652,5.648
		c0,3.12-2.53,5.656-5.652,5.656c-3.13,0-5.659-2.537-5.659-5.656C28.491,27.967,31.02,25.435,34.15,25.435"/>
	<path fill="#FFFFFF" d="M45.146,41.019h9.351v4.29h0.128c1.304-2.468,4.483-5.066,9.231-5.066c9.869,0,11.689,6.491,11.689,14.937
		v17.2h-9.741V57.133c0-3.64-0.071-8.317-5.066-8.317c-5.074,0-5.848,3.961-5.848,8.051V72.38h-9.743V41.019z"/>
</g>
</svg>
