<?xml version="1.0" encoding="utf-8"?>
<!-- Generator: Adobe Illustrator 25.2.3, SVG Export Plug-In . SVG Version: 6.00 Build 0)  -->
<svg version="1.1" xmlns="http://www.w3.org/2000/svg" xmlns:xlink="http://www.w3.org/1999/xlink" x="0px" y="0px"
	 viewBox="0 0 257.507 708.822" enable-background="new 0 0 257.507 708.822" xml:space="preserve">
<g id="Capa_1" display="none">
	<rect x="-1120.678" y="-46.651" display="inline" fill="#FBB336" width="3999.5" height="1284.041"/>
	<g display="inline">
		<g>
			<rect x="118.819" y="-26.841" fill="#FFFFFF" width="865.954" height="718.113"/>
			<g>
				<g>
					<rect x="118.819" y="357.1" fill="#CFC9CD" width="865.954" height="6.011"/>
				</g>
				<g>
					<rect x="118.819" y="81.507" fill="#CFC9CD" width="865.875" height="6.011"/>
				</g>
			</g>
		</g>
		<g>
			<linearGradient id="SVGID_1_" gradientUnits="userSpaceOnUse" x1="750.5702" y1="528.4375" x2="750.5702" y2="1396.6758">
				<stop  offset="0.0053" style="stop-color:#AB9591"/>
				<stop  offset="0.6844" style="stop-color:#514E4E"/>
				<stop  offset="1" style="stop-color:#6582A3"/>
			</linearGradient>
			<rect x="-1509.382" y="523.733" fill="url(#SVGID_1_)" width="4519.905" height="868.238"/>
			<rect x="-1509.382" y="629.826" opacity="0.08" fill="#FFFFFF" width="4519.905" height="221.543"/>
			<rect x="-1509.382" y="523.58" opacity="0.24" fill="#FFFFFF" width="4519.905" height="106.248"/>
			<polygon opacity="0.1" fill="#231F20" points="-1195.177,525.236 -1195.177,1391.971 -66.571,1391.971 801.706,523.694 			"/>
		</g>
		<g>
			<g>
				<g>
					<rect x="-253.737" y="454.175" fill="#0D3142" width="400.944" height="128.155"/>
					<rect x="-396.682" y="435.777" fill="#F5CB99" width="631.881" height="18.398"/>
					<linearGradient id="SVGID_2_" gradientUnits="userSpaceOnUse" x1="9.5491" y1="569.7591" x2="119.0016" y2="569.7591">
						<stop  offset="0" style="stop-color:#A2A6AB"/>
						<stop  offset="1" style="stop-color:#C3C8CF"/>
					</linearGradient>
					<rect x="9.549" y="479.009" fill="url(#SVGID_2_)" width="109.453" height="181.501"/>
					<rect x="-100.823" y="479.009" fill="#FFFFFF" width="110.372" height="181.501"/>
					<g>
						<rect x="-100.823" y="527.581" fill="#A7A9AC" width="110.373" height="4.027"/>
					</g>
					<g>
						<rect x="-100.823" y="567.746" fill="#A7A9AC" width="110.373" height="4.027"/>
					</g>
					<g>
						<rect x="-100.823" y="607.908" fill="#A7A9AC" width="110.373" height="4.027"/>
					</g>
					<rect x="-14.058" y="435.777" fill="#EBA452" width="249.258" height="18.398"/>
					<rect x="52.472" y="454.175" fill="#FFFFFF" width="14.41" height="206.335"/>
					<rect x="132.798" y="454.175" fill="#FFFFFF" width="14.41" height="206.335"/>
					<rect x="176.312" y="454.175" fill="#FFFFFF" width="14.41" height="206.335"/>
				</g>
				<g>
					<path fill="#69783E" d="M5.87,377.065c-10.583,0-19.162,8.579-19.162,19.162c0,10.583,8.579,19.162,19.162,19.162
						s19.162-8.579,19.162-19.162C25.032,385.644,16.453,377.065,5.87,377.065z"/>
					<rect x="-11.299" y="411.633" fill="#FFFFFF" width="34.338" height="24.308"/>
				</g>
				<g>
					<rect x="34.375" y="356.986" fill="#D15030" width="50.741" height="78.791"/>
					<rect x="34.375" y="356.986" fill="#EB7F3D" width="12.11" height="78.791"/>
				</g>
				<g>
					<rect x="55.072" y="356.986" fill="#527491" width="50.741" height="78.791"/>
					<rect x="55.072" y="356.986" fill="#73A3CC" width="12.11" height="78.791"/>
				</g>
				<g>
					<rect x="75.997" y="371.702" fill="#717780" width="50.74" height="64.075"/>
					<rect x="75.997" y="371.702" fill="#BCBEC0" width="12.11" height="64.075"/>
				</g>
			</g>
		</g>
		<rect x="-95.737" y="-180.283" fill="none" width="908.915" height="908.915"/>
	</g>
	<linearGradient id="SVGID_3_" gradientUnits="userSpaceOnUse" x1="855.7105" y1="294.8162" x2="855.7105" y2="-44.629">
		<stop  offset="0" style="stop-color:#FBB336;stop-opacity:0"/>
		<stop  offset="0.1413" style="stop-color:#FBB336;stop-opacity:0.1413"/>
		<stop  offset="1" style="stop-color:#FBB336"/>
	</linearGradient>
	<rect x="-1201.799" y="-44.629" display="inline" fill="url(#SVGID_3_)" width="4115.019" height="339.445"/>
	<rect x="-1201.799" y="-44.629" display="inline" opacity="0.8" fill="#FBB336" width="4115.019" height="1895.936"/>
	<rect x="-1121.201" y="-44.629" display="inline" fill="none" width="4000.023" height="1921.101"/>
</g>
<g id="Capa_2">
	<g>
		<path opacity="0.1" fill="#3C3C3B" d="M199.186,694.386c0,7.973-44.589,14.437-99.593,14.437C44.589,708.822,0,702.358,0,694.386
			c0-7.971,44.589-14.435,99.593-14.435C154.597,679.951,199.186,686.415,199.186,694.386z"/>
		<g>
			<path fill="#6A371A" d="M58.244,159.996c0,0-14.221-90.347,5.987-135.581C79.918-10.701,101.28,5.7,101.28,5.7
				s19.084-14.541,33.305,2.827c14.222,17.366,38.171,61.246,9.73,114.562C115.875,176.401,58.244,159.996,58.244,159.996z"/>
			<g>
				<g>
					<path fill="#F4A984" d="M18.702,327.832l-10.694,6.859c0,0-5.172,14.166-5.733,19.503c-0.564,5.335,4.167,16.685,7.091,18.834
						c0,0,5.748,3.665,7.572,5.145c0,0,2.466,1.032,3.223-2.722c0,0,3.36,0.434,4.208-2.371c0,0,2.99-3.291,3.44-8.979
						c0,0-1.641-6.71-3.547-9.455c0,0,3.352-9.964,1.184-15.947L18.702,327.832z"/>
					<path fill="#D88D6C" d="M18.67,339.433c0,0-1.091,9.743-2.596,15.243c0,0,5.099,7.03,2.361,10.24c0,0-3.851-2.496-9.092-8.112
						c0,0,3.52,9.218,4.128,10.657c0.605,1.439,5.321,4.168,5.863,6.586c0,0,3.614-1.411,3.777-3.414c0,0,3.129-3.671,2.935-6.158
						c0,0-1.184-5.475-2.737-9.311c0,0,4.563-9.844,1.784-16.368C24.919,338.387,18.975,339.7,18.67,339.433z"/>
				</g>
				<path fill="#F0F2F1" d="M8.595,322.914L5.64,334.387c0,0,7.807,7.918,21.31,4.992l3.377-10.375L8.595,322.914z"/>
				<path fill="#131917" d="M60.356,140.613c0,0-20.575,14.838-28.027,106.023c0,0-16.383,42.441-25.747,79.076
					c0,0,7.317,10.025,22.728,7.165l29.708-83.93C59.018,248.946,71.761,144.687,60.356,140.613z"/>
			</g>
			<path fill="#935C41" d="M147.287,28.63c-3.252-6.722-6.859-12.399-10.172-16.856c-29.234,16.135-54.459,8.942-67.496,2.771
				c-1.841,2.719-3.651,5.975-5.389,9.869c-1.076,2.409-2.05,4.957-2.939,7.601C79.695,33.778,113.478,35.391,147.287,28.63z"/>
			<g>
				<path fill="#F4A984" d="M160.773,413.245h-54.544c0.348,23.465,1.555,50.295,5.001,67.133
					c7.365,35.98,1.545,157.374,1.545,157.374l20.727,1.126c30.873-113.252,13.871-170.935,13.871-170.935
					C153.756,448.361,158.062,430.032,160.773,413.245z"/>
				<defs>
					<filter id="Adobe_OpacityMaskFilter" filterUnits="userSpaceOnUse" x="106.752" y="432.933" width="40.866" height="79.738">
						<feFlood  style="flood-color:white;flood-opacity:1" result="back"/>
						<feBlend  in="SourceGraphic" in2="back" mode="normal"/>
					</filter>
				</defs>
				<mask maskUnits="userSpaceOnUse" x="106.752" y="432.933" width="40.866" height="79.738" id="SVGID_4_">
					<g filter="url(#Adobe_OpacityMaskFilter)">
						<defs>
							
								<filter id="Adobe_OpacityMaskFilter_1_" filterUnits="userSpaceOnUse" x="106.752" y="432.933" width="40.866" height="79.738">
								<feFlood  style="flood-color:white;flood-opacity:1" result="back"/>
								<feBlend  in="SourceGraphic" in2="back" mode="normal"/>
							</filter>
						</defs>
						<mask maskUnits="userSpaceOnUse" x="106.752" y="432.933" width="40.866" height="79.738" id="SVGID_4_">
						</mask>
						
							<radialGradient id="SVGID_5_" cx="5434.6025" cy="382.9826" r="23.0285" fx="5432.7554" fy="383.177" gradientTransform="matrix(-0.9982 0.0605 0.0606 0.9967 5528.3647 -233.8971)" gradientUnits="userSpaceOnUse">
							<stop  offset="0" style="stop-color:#808080"/>
							<stop  offset="0.1669" style="stop-color:#7B7B7B"/>
							<stop  offset="0.3464" style="stop-color:#6E6E6E"/>
							<stop  offset="0.5319" style="stop-color:#595959"/>
							<stop  offset="0.7213" style="stop-color:#3B3B3B"/>
							<stop  offset="0.9121" style="stop-color:#141414"/>
							<stop  offset="1" style="stop-color:#000000"/>
						</radialGradient>
						<path mask="url(#SVGID_4_)" fill="url(#SVGID_5_)" d="M147.372,467.943c2.986,29.567-21.957,40.506-33.05,44.728
							c-0.55-13.176-1.516-24.59-3.093-32.293c-2.482-12.133-3.801-29.454-4.477-46.963
							C118.362,430.731,144.432,438.851,147.372,467.943z"/>
					</g>
				</mask>
				
					<radialGradient id="SVGID_6_" cx="5434.6025" cy="382.9826" r="23.0285" fx="5432.7554" fy="383.177" gradientTransform="matrix(-0.9982 0.0605 0.0606 0.9967 5528.3647 -233.8971)" gradientUnits="userSpaceOnUse">
					<stop  offset="0" style="stop-color:#E3574E"/>
					<stop  offset="0.1879" style="stop-color:#E45B51"/>
					<stop  offset="0.3899" style="stop-color:#E76859"/>
					<stop  offset="0.5985" style="stop-color:#EB7E67"/>
					<stop  offset="0.8103" style="stop-color:#F29C7B"/>
					<stop  offset="1" style="stop-color:#F9BD91"/>
				</radialGradient>
				<path fill="url(#SVGID_6_)" d="M147.372,467.943c2.986,29.567-21.957,40.506-33.05,44.728
					c-0.55-13.176-1.516-24.59-3.093-32.293c-2.482-12.133-3.801-29.454-4.477-46.963
					C118.362,430.731,144.432,438.851,147.372,467.943z"/>
			</g>
			<g>
				<path fill="#25302C" d="M112.828,637.992c0,0-15.431,55.525-9.761,56.374h30.828c0,0,4.604,1.671-0.394-55.249l-11.231-1.338
					L112.828,637.992z"/>
				<path fill="#F4A984" d="M112.828,637.752l-5.144,42.123c2.68,0.566,16.914-2.224,22.238,1.699c0,0,3.259-18.213,3.579-42.697
					l-9.531-13.823L112.828,637.752z"/>
			</g>
			<g>
				<path fill="#F4A984" d="M101.214,413.245H49.566c6.53,32.081,13.124,63.275,15.998,73.126
					c6.6,22.635,12.995,151.381,12.995,151.381h21.46c0.362-21.475,3.043-46.032,4.924-59.957
					c10.77-79.767-6.107-112.738-6.107-112.738C101.498,448.258,101.878,430.063,101.214,413.245z"/>
			</g>
			<g>
				<path fill="#25302C" d="M100.019,637.752c-7.016,20.079-25.149,42.123-25.149,42.123l-15.796,1.803l-15.82,3.745
					c0,0-3.958,3.848-0.492,9.793h40.195l13.744-34.194l-0.934,34.194h4.198l8.57-42.272
					C108.535,652.944,107.672,642.971,100.019,637.752z"/>
				<path fill="#F4A984" d="M100.019,637.701l-10.1-9.172l-11.361,9.159c0,0-12.256,38.897-19.485,43.99l14.44-0.104
					C73.514,681.574,93.003,657.778,100.019,637.701z"/>
			</g>
			<path fill="#25302C" d="M53.57,273.332c0,0-35.44,56.308-0.743,176.708c0,0,25.862,10.19,104.771,0
				c0,0,30.438-121.709-30.892-178.257L53.57,273.332z"/>
			<g>
				<path fill="#D4D6D5" d="M84.924,224.945l35.385-63.898l13.313-25.85c-20.905-6.021-39.175-4.052-52.222-0.576l-3.884,25.79
					C77.517,160.411,77.541,202.444,84.924,224.945z"/>
				<g>
					<g>
						<path fill="#F4A984" d="M94.531,123.848l-0.082,21.016l25.753,0.101l0.108-27.341
							C109.603,124.614,98.927,124.413,94.531,123.848z"/>
						<path fill="#D88D6C" d="M120.309,117.624l0.083-21.062l-25.753-0.1l-0.109,27.385
							C98.927,124.413,109.603,124.614,120.309,117.624z"/>
					</g>
					<path fill="#25302C" d="M133.9,135.197L117.506,160.2l-32.495,57.741c-7.384-22.501-4.517-57.316-4.517-57.316l0.924-26.004
						c-13.039,3.475-21.054,5.992-21.054,5.992l-3.378,22.568c-13.332,17.04-17.343,26.944-17.468,31.898
						c-0.283,11.145,12.425,21.051,12.425,21.051l1.628,57.203c44.341,17.209,75.543,0.986,75.543,0.986
						c4.92-33.45,26.575-82.276,26.575-82.276v-48.013C148.885,140.053,140.813,137.19,133.9,135.197z"/>
					<path fill="#F0F2F1" d="M94.449,124.908c0,0-0.455,12.166,8.015,17.037c0,0,16.905-3.706,18.095-17.268l9.266,9.508
						c0,0-10.591,20.076-22.882,26.157l-5.011-15.426l-13.051,12.877c0,0-5.293-15.035-4.413-24.914L94.449,124.908z"/>
					<path fill="#1B2320" d="M69.829,172.655l-5.984,6.508c0,0,7.853,34.816,20.525,53.213c0,0,35.818-32.552,45.456-49.532
						l-8.317-8.209l12.114-0.285l11.99-34.883c-4.076-1.727-8.081-3.145-11.99-4.271L117.367,160.2L84.94,217.941
						c-7.382-22.501-4.481-57.316-4.481-57.316l0.942-26.004c-3.818,1.017-7.213,1.65-10.073,2.762l-9.153,33.006L69.829,172.655z"
						/>
				</g>
			</g>
			<polygon fill="#131917" points="48.144,299.458 74.507,317.928 85.135,304.553 94.703,317.928 133.5,294.816 95.128,326.417 
				85.561,313.045 73.444,327.481 			"/>
			<g>
				<path fill="#F4A984" d="M145.449,59.1l-0.669,0.258l0,0c0,0-2.46,26.794-13.064-4.986c-22.181-15.344-30.013-39.66-30.013-39.66
					c-7.257,18.416-25.911,44.42-35.921,48.969c-0.057,6.085,1.022,15.273,2.168,23.472c2.243,16.046,11.193,27.436,27.203,30.412
					c38.601,7.174,47.637-29.549,47.637-29.549s14.366-0.38,15.147-18.993C158.581,53.804,145.449,59.1,145.449,59.1z"/>
				<path fill="#D88D6C" d="M103.246,27.891c0,0,11.247,19.437,28.47,26.481c-22.23-15.408-30.013-39.66-30.013-39.66
					c-6.451,16.37-21.902,38.718-32.285,46.683C76.557,58.106,88.978,49.636,103.246,27.891z"/>
				<path fill="#D88D6C" d="M139.248,84.246c0,0-9.071,27.268-30.332,31.172c-12.941,2.379-24.405-2.642-31.399-6.933
					c4.411,4.56,10.275,7.711,17.637,9.08c38.601,7.174,47.637-29.549,47.637-29.549s11.375-0.392,14.423-13.445
					C148.304,88.243,139.248,84.246,139.248,84.246z"/>
				<g>
					<path fill="#56362E" d="M89.249,95.007c0,0,9.994,2.605,25.62-1.264c0,0-3.213,12.953-13.996,12.637
						C91.271,106.101,89.249,95.007,89.249,95.007z"/>
					<g>
						<defs>
							<path id="SVGID_37_" d="M89.249,95.007c0,0,9.994,2.605,25.62-1.264c0,0-3.213,12.953-13.996,12.637
								C91.271,106.101,89.249,95.007,89.249,95.007z"/>
						</defs>
						<clipPath id="SVGID_7_">
							<use xlink:href="#SVGID_37_"  overflow="visible"/>
						</clipPath>
						<path clip-path="url(#SVGID_7_)" fill="#FFFFFF" d="M89.566,94.547c0,0,10.404,3.005,24.601-1.212
							c0,0-2.158,5.451-13.487,5.646C90.612,99.155,89.566,94.547,89.566,94.547z"/>
					</g>
				</g>
				<path fill="#6A371A" d="M86.107,57.284c0,0-8.796-2.949-17.88,4.109c0,0-0.163-1.139,1.666-3.163
					c1.829-2.027,7.492-5.205,13.616-4.09C83.509,54.14,87.328,56.045,86.107,57.284z"/>
				<path fill="#6A371A" d="M106.559,58.396c0,0,8.384-3.974,18.245,1.954c0,0,0.026-1.151-2.033-2.943
					c-2.057-1.794-8.058-4.274-14.007-2.441C108.765,54.966,105.202,57.312,106.559,58.396z"/>
				<g>
					<path fill="#D88D6C" d="M100.853,89.695c-7.444,3.781-11.916,0.515-12.539-3.102c-0.409-2.354,0.754-4.578,2.961-5.668
						c4.542-2.239,7.229-9.743,7.255-9.819l0,0c0.164,1.657-0.972,8.04-6.633,12.019c-1.224,0.857-1.959,1.718-1.758,2.882
						C90.489,88.037,93.709,90.831,100.853,89.695L100.853,89.695z"/>
				</g>
				<path fill="#56362E" d="M80.302,64.303c0,0-4.764,0.059-5.428-1.727c0,0-0.605,2.514,2.286,3.363
					c-0.918,1.124-1.496,2.729-1.496,4.517c0,3.402,2.076,6.157,4.638,6.157c2.562,0,4.638-2.755,4.638-6.157
					C84.94,67.059,82.864,64.303,80.302,64.303z"/>
				<path fill="#56362E" d="M116.87,64.303c0,0-4.765,0.059-5.43-1.727c0,0-0.604,2.514,2.288,3.363
					c-0.918,1.124-1.496,2.729-1.496,4.517c0,3.402,2.076,6.157,4.638,6.157c2.561,0,4.638-2.755,4.638-6.157
					C121.508,67.059,119.431,64.303,116.87,64.303z"/>
			</g>
			<g>
				<g>
					<polygon fill="#CA6039" points="257.507,474.199 120.291,489.767 112.601,485.183 102.171,393.544 233.963,378.591 
						248.215,385.619 					"/>
					<g>
						<polygon fill="#87412B" points="120.204,487.269 113.389,483.621 103.164,393.715 110.78,398.109 						"/>
						<polygon fill="#723424" points="103.164,393.715 110.78,398.109 120.204,487.269 118.579,486.4 109.511,400.219 
							103.385,395.705 						"/>
					</g>
					<path fill="#723424" d="M119.763,454.491c0,0-0.047,6.492,3.237,6.514c3.284,0.019,50.397-5.653,50.397-5.653l1.117,9.832
						l25.424-2.229l-1.223-10.739l55.867-5.946l-0.616-5.827L119.763,454.491z"/>
					<path fill="#B55735" d="M101.669,393.601l10.214,5.16l6.874,57.21c0,0,0.614,2.851,3.379,2.931
						c2.766,0.079,131.887-15.01,131.887-15.01s2.732-0.621,2.377-3.726c-0.352-3.104-6.535-57.443-6.535-57.443l-12.728-4.493
						L101.669,393.601z"/>
					
						<rect x="176.066" y="447.905" transform="matrix(0.9936 -0.1127 0.1127 0.9936 -50.1473 24.1386)" fill="#FFB12B" width="24.661" height="15.286"/>
					
						<rect x="176.134" y="449.103" transform="matrix(0.9936 -0.113 0.113 0.9936 -50.4846 23.0268)" fill="#E58628" width="3.402" height="15.285"/>
					<path fill="#E58E73" d="M247.564,385.073c0.085,0.75-0.454,1.428-1.207,1.512l-130.784,14.839
						c-0.752,0.086-1.43-0.453-1.515-1.204l-0.076-0.656c-0.085-0.751,0.454-1.429,1.205-1.513l130.786-14.841
						c0.751-0.083,1.43,0.454,1.514,1.206L247.564,385.073z"/>
					
						<rect x="190.209" y="371.388" transform="matrix(0.9937 -0.1122 0.1122 0.9937 -41.1054 23.9514)" fill="#E58E73" width="4.251" height="11.888"/>
					
						<rect x="157.353" y="376.018" transform="matrix(0.9935 -0.1135 0.1135 0.9935 -42.3313 20.5244)" fill="#E58E73" width="3.401" height="11.889"/>
					
						<rect x="197.311" y="449.348" transform="matrix(0.9935 -0.1135 0.1135 0.9935 -50.3431 25.4285)" fill="#FFFFFF" width="1.701" height="11.039"/>
					<path fill="#FFB12B" d="M164.98,387.699c0.146,1.286-0.564,2.201-1.555,2.314l-7.78,0.882
						c-0.991,0.113-1.887-0.621-2.034-1.905l0,0c-0.148-1.287,0.564-2.201,1.554-2.314l7.78-0.882
						C163.936,385.681,164.834,386.413,164.98,387.699L164.98,387.699z"/>
					<path fill="#FFB12B" d="M198.798,383.862c0.148,1.284-0.529,2.198-1.48,2.305l-7.446,0.845
						c-0.949,0.108-1.812-0.628-1.959-1.914l0,0c-0.146-1.286,0.529-2.196,1.481-2.305l7.445-0.845
						C197.789,381.84,198.651,382.578,198.798,383.862L198.798,383.862z"/>
					<path fill="#CA6039" d="M195.408,370.502c0.137,1.204-0.729,2.29-1.932,2.427l-36.199,4.107
						c-1.203,0.138-2.29-0.728-2.428-1.93l-0.08-0.707c-0.136-1.203,0.73-2.287,1.934-2.425l36.196-4.107
						c1.204-0.137,2.292,0.729,2.428,1.93L195.408,370.502z"/>
				</g>
				<path fill="#F4A984" d="M165.755,340.441l-2.716,6.647c0,0-6.744,9.784-6.531,13.973c0.272,5.377-2.734,13.185-2.734,13.185
					s5.941,3.291,8.015-6.125c0,0,1.368,10.781,4.644,10.987c0,0,1.785,0.131,3.653-1.114c0,0,3.258,3.003,6.342-0.597
					c0,0,3.923,1.587,5.559-1.546c0,0,2.524,1.712,4.11-1.797c1.637-3.613,1.757-3.932,2.543-11.009c0,0-1.182-14.358-7.174-19.157
					L165.755,340.441z"/>
				<path fill="#F0F2F1" d="M184.602,335.526v11.651c0,0-11.055,4.04-23.811-0.364V336.3L184.602,335.526z"/>
				<path fill="#25302C" d="M154.398,144.029c0,0,25.442,9.887,30.49,109.66c0,0,1.131,45.006-0.556,85.57
					c0,0-11.974,3.792-26.973-0.76l-0.612-83.111C156.747,255.388,132.651,154.905,154.398,144.029z"/>
			</g>
		</g>
		<linearGradient id="SVGID_8_" gradientUnits="userSpaceOnUse" x1="129.8682" y1="695.2158" x2="129.8682" y2="3.965845e-05">
			<stop  offset="0.4022" style="stop-color:#FBB336"/>
			<stop  offset="0.9155" style="stop-color:#FBB336;stop-opacity:0.1413"/>
			<stop  offset="1" style="stop-color:#FBB336;stop-opacity:0"/>
		</linearGradient>
		<path opacity="0.8" fill="url(#SVGID_8_)" d="M150.546,486.334l106.961-12.135l-2.93-27.928l0.005-0.001l-0.262-2.477
			c0.687-0.258,2.363-1.14,2.079-3.626c-0.352-3.103-6.535-57.443-6.535-57.443l-12.728-4.493l-38.836,4.407
			c-0.371-0.482-0.889-0.753-1.461-0.688l-1.817,0.206l-1.068-9.38c0.934-0.337,1.57-1.242,1.453-2.272l-0.081-0.705
			c-0.136-1.201-1.224-2.067-2.428-1.93l-4.935,0.56c0.206-1.254,0.401-2.897,0.677-5.382c0,0-0.799-9.632-4.381-15.754
			c0.205-0.066,0.342-0.114,0.342-0.114v-11.651l-0.124,0.004c1.472-39.543,0.41-81.841,0.41-81.841
			c-4.365-86.258-23.968-105.329-29.2-108.914v-0.746c-6.129-3.583-13.282-6.255-19.696-8.208c2.966-3.729,5.766-7.939,8.323-12.732
			c9.683-18.15,13.285-35.203,13.274-50.492c0.173-1.112,0.296-2.296,0.349-3.573c0.119-2.819-0.236-4.93-0.891-6.506
			c-1.37-13.014-5.211-24.475-9.764-33.887c0.002,0,0.003,0,0.005-0.001c-0.19-0.392-0.385-0.768-0.576-1.153
			c-0.449-0.9-0.902-1.779-1.361-2.639c-0.192-0.361-0.383-0.73-0.576-1.083c-0.255-0.465-0.512-0.912-0.769-1.364
			c-0.2-0.352-0.399-0.709-0.599-1.053c-0.257-0.442-0.515-0.869-0.773-1.298c-0.203-0.337-0.404-0.674-0.607-1.003
			c-0.258-0.418-0.515-0.825-0.773-1.23c-0.201-0.317-0.403-0.631-0.603-0.941c-0.258-0.396-0.515-0.786-0.771-1.169
			c-0.203-0.301-0.403-0.595-0.603-0.888c-0.253-0.368-0.505-0.735-0.755-1.09c-0.201-0.285-0.399-0.558-0.599-0.835
			c-0.249-0.344-0.497-0.691-0.743-1.022c-0.021-0.028-0.043-0.06-0.063-0.088c-0.001,0-0.001,0.001-0.002,0.001
			c-0.866-1.164-1.714-2.255-2.528-3.248C120.365-8.841,101.28,5.7,101.28,5.7S84.404-7.227,69.636,14.553
			c-0.005-0.003-0.011-0.005-0.017-0.008c-0.154,0.227-0.306,0.481-0.459,0.715c-0.212,0.324-0.423,0.648-0.633,0.986
			c-0.291,0.469-0.581,0.961-0.87,1.459c-0.194,0.333-0.388,0.659-0.581,1.006c-0.327,0.587-0.651,1.209-0.974,1.835
			c-0.152,0.295-0.306,0.575-0.457,0.879c-0.476,0.954-0.948,1.945-1.414,2.989c-0.517,1.156-1.004,2.349-1.477,3.562
			c-0.032,0.081-0.064,0.161-0.096,0.242c-13.297,34.46-9.247,90.624-6.304,117.094c-6.366,9.331-18.631,35.33-24.024,101.324
			c0,0-16.383,42.441-25.747,79.076c0,0,0.345,0.458,1.001,1.133l-1.943,7.542c0,0,0.672,0.668,1.925,1.538
			c-1.259,3.548-4.83,13.883-5.29,18.269c-0.565,5.335,4.166,16.685,7.092,18.834c0,0,5.748,3.665,7.572,5.145
			c0,0,2.465,1.032,3.223-2.722c0,0,3.36,0.434,4.208-2.371c0,0,2.99-3.291,3.44-8.979c0,0-1.64-6.711-3.547-9.455
			c0,0,3.026-9.023,1.449-15.052c0.413-0.071,0.814-0.122,1.24-0.214l2.104-6.467c0.087-0.015,0.166-0.019,0.254-0.036l24.023-67.87
			l0.237,8.326c0,0-35.44,56.307-0.744,176.708c0,0,1.448,0.563,4.646,1.29c3.463,16.243,6.413,29.286,8.091,35.04
			c6.539,22.426,12.876,148.992,12.992,151.326c-0.06,0.187-12.271,38.9-19.482,43.981l-15.82,3.745c0,0-3.958,3.848-0.492,9.793
			h40.195l13.744-34.194l-0.935,34.194h4.198l2.709-13.362c-1.103,7.093-1.303,12.258,0.394,12.513h30.828
			c0,0,4.604,1.671-0.394-55.249l-0.004,0c0.001-0.081,0.003-0.159,0.004-0.24C154.301,562.578,153.367,511.543,150.546,486.334z
			 M162.653,347.387c0.051,0.014,0.102,0.033,0.153,0.047c-0.037,0.055-0.074,0.111-0.119,0.178
			C162.675,347.536,162.665,347.462,162.653,347.387z M189.742,373.352l1.056,9.281l-1.404,0.159
			c-0.573,0.065-1.017,0.445-1.27,0.998l-23.003,2.61c0.036-2.636,0.039-5.31-0.003-8.019c0.4,0.418,0.835,0.695,1.316,0.725
			c0,0,1.785,0.131,3.653-1.114c0,0,3.258,3.003,6.342-0.597c0,0,3.923,1.587,5.559-1.546c0,0,2.524,1.712,4.11-1.797
			c0.049-0.107,0.091-0.202,0.138-0.304L189.742,373.352z M157.245,322.974c-5.471-18.119-14.316-35.2-28.101-48.849
			c3.056-20.556,12.377-46.834,19.112-64.049c3.39,24.032,8.491,45.312,8.491,45.312L157.245,322.974z M100.019,637.752
			c-7.016,20.079-25.149,42.123-25.149,42.123l-0.003,0c4.527-5.773,19.221-25.251,25.133-42.124H100.019
			c0.362-21.475,3.043-46.032,4.925-59.957c10.769-79.767-6.107-112.738-6.107-112.738c0.547-3.456,0.976-6.98,1.342-10.53
			c2.482-0.036,5.044-0.091,7.755-0.187c0.004,0.049,0.008,0.098,0.012,0.147c0.069,0.88,0.14,1.752,0.214,2.618
			c0.036,0.426,0.072,0.853,0.109,1.275c0.107,1.203,0.217,2.394,0.334,3.566c0.022,0.217,0.045,0.427,0.067,0.642
			c0.102,0.997,0.207,1.98,0.317,2.951c0.043,0.378,0.086,0.753,0.13,1.127c0.106,0.9,0.214,1.786,0.328,2.66
			c0.034,0.268,0.068,0.542,0.103,0.808c0.146,1.098,0.299,2.171,0.456,3.221c0.043,0.279,0.086,0.549,0.129,0.824
			c0.126,0.812,0.256,1.609,0.39,2.389c0.052,0.297,0.102,0.595,0.154,0.887c0.179,1,0.362,1.982,0.555,2.922
			c0.174,0.848,0.337,1.759,0.496,2.694c0.036,0.214,0.073,0.422,0.109,0.64c0.137,0.839,0.267,1.717,0.394,2.618
			c0.058,0.417,0.114,0.842,0.17,1.272c0.069,0.527,0.134,1.073,0.2,1.619c0.121,1.016,0.238,2.056,0.347,3.135
			c0.013,0.123,0.025,0.246,0.038,0.369c4.561,45.54-0.208,145.025-0.208,145.025l0.052,0.003l-0.052,0.428
			c-0.419,1.52-3.398,12.383-6.146,24.164l1.906-9.402C108.535,652.944,107.671,642.971,100.019,637.752z"/>
	</g>
</g>
</svg>
