<svg width="481" height="364" viewBox="0 0 481 364" fill="none" xmlns="http://www.w3.org/2000/svg">
<g opacity="0.7" clip-path="url(#clip0)">
<path d="M455.905 247.859C455.905 247.859 472.522 259.679 473.575 291.24C474.627 322.8 478.838 367.09 478.838 367.09C478.838 367.09 516.732 424.844 524.101 439.047C524.101 439.047 509.364 470.552 471.47 461.637C471.47 461.637 443.576 398.544 437.786 373.822L455.905 247.859Z" fill="#360F22"/>
<path d="M520.124 365.733L517.355 363.804L409.039 433.443L409.946 436.65L520.124 365.733Z" fill="#873A22"/>
<path d="M398.947 365.056C398.947 365.056 356.108 278.2 334.121 227.654C357.803 218.79 392.39 220.131 414.89 231.357C417.16 252.96 426.232 316.825 398.947 365.056Z" fill="#D4D6D5"/>
<path d="M401.453 248.159L393.752 261.748L412.55 344.897L399.802 361.4L384.024 345.785L385.323 262.366L378.63 251.629L388.156 237.787L401.453 248.159Z" fill="#111D36"/>
<path d="M400.9 217.324C400.9 217.324 399.152 232.92 388.156 237.787C388.156 237.787 364.544 227.654 358.85 215.091L340.84 225.486C340.84 225.486 356.141 248.322 378.104 256.039L388.02 240.932L401.495 253.394C401.495 253.394 413.956 238.487 412.888 228.744L400.9 217.324Z" fill="#F0F2F1"/>
<path d="M420.547 120.7C420.547 120.7 419.501 212.185 414.435 219.274C409.369 226.366 401.493 232.923 378.985 232.923C356.475 232.923 341.153 222.072 339.069 208.647C336.985 195.221 337.421 180.389 337.421 180.389C337.421 180.389 322.944 182.271 322.105 165.728C321.267 149.185 332.84 145.27 339.069 153.511L339.866 116.859C339.866 116.859 345.019 96.6843 382.741 94.7293C420.464 92.7753 420.351 114.835 420.547 120.7Z" fill="#F4A984"/>
<path d="M420.452 127.191C420.452 127.191 426.74 80.8191 418.203 73C418.203 73 414.646 89.1714 398.16 88.8909C381.674 88.6125 339.94 88.0875 339.892 103.74C339.843 119.394 339.653 127.316 339.653 127.316H350.05C350.05 127.316 374.639 112.837 414.122 126.343C416.311 127.092 417.997 126.754 420.452 127.191Z" fill="#D65730"/>
<path d="M418.242 181.844C418.242 181.844 342.262 192.815 341.472 155.954V153.652L338.762 153.511C338.762 153.511 344.339 178.92 337.267 182.832C337.267 182.832 324.332 238.378 380.983 238.393C427.651 238.405 418.746 205.383 418.242 181.844Z" fill="#D65730"/>
<path d="M350.049 127.316C350.049 127.316 342.643 141.391 342.085 154.097L339.069 154.179L339.652 127.316H350.049V127.316Z" fill="#D88D6C"/>
<path d="M399.094 160.495C399.094 163.29 401.175 165.555 403.745 165.555C406.313 165.555 408.395 163.29 408.395 160.495C408.395 157.7 406.313 155.435 403.745 155.435C401.175 155.435 399.094 157.7 399.094 160.495Z" fill="#56362E"/>
<path d="M363.347 160.495C363.347 163.29 365.43 165.555 367.998 165.555C370.566 165.555 372.649 163.29 372.649 160.495C372.649 157.7 370.566 155.435 367.998 155.435C365.43 155.435 363.347 157.7 363.347 160.495Z" fill="#56362E"/>
<path d="M391.954 183.383C393.069 183.383 394.253 183.164 395.369 182.717C398.201 181.586 400.066 179.194 400.487 176.159C400.703 174.601 400.475 173.403 399.788 172.499C398.743 171.119 396.96 170.877 395.389 170.661C393.597 170.416 392.479 170.217 392.082 169.213C390.879 166.164 391.206 156.905 391.434 153.596L390.633 155.953C390.545 157.23 388.115 166.011 389.744 170.136C390.699 172.557 393.109 172.887 395.046 173.151C396.187 173.308 397.368 173.469 397.783 174.016C398.041 174.357 398.113 174.962 397.994 175.815C397.592 178.712 395.626 180.063 394.498 180.592C392.888 181.348 392.275 181.823 389.795 181.544L388.434 181.194C389.351 181.924 390.5 183.383 391.954 183.383Z" fill="#D88D6C"/>
<path d="M377.515 151.705C377.515 151.705 378.32 145.001 376.83 143.859C375.341 142.716 360.934 144.467 357.681 147.233C357.681 147.233 354.678 152.375 356.16 153.911C357.64 155.445 366.864 149.535 377.515 151.705Z" fill="#D65730"/>
<path d="M393.734 152.513C393.734 152.513 393.266 145.856 394.707 144.645C396.148 143.431 409.548 144.493 412.474 147.099C412.474 147.099 415.064 152.095 413.614 153.699C412.165 155.304 403.788 149.84 393.734 152.513Z" fill="#D65730"/>
<path d="M336.768 187.52C344.995 238.074 398.409 229.188 414.89 225.179C409.905 233.074 400.11 238.399 381.371 238.393C334.835 238.38 335.166 200.906 336.768 187.52Z" fill="#BC4226"/>
<path d="M401.869 120.875C401.996 120.875 402.125 120.844 402.248 120.784C402.49 120.659 426.365 108.053 419.356 74.5277C419.26 74.0756 418.815 73.788 418.364 73.8794C417.91 73.9739 417.62 74.4177 417.715 74.8708C424.456 107.107 402.428 118.809 401.487 119.291C401.074 119.502 400.913 120.006 401.122 120.418C401.27 120.708 401.563 120.875 401.869 120.875Z" fill="#E26649"/>
<path d="M385.57 119.094C385.779 119.094 385.988 119.017 386.149 118.862C386.585 118.446 396.797 108.561 395.006 99.341C394.141 94.8875 390.638 91.4058 384.592 88.9937C384.159 88.8221 383.673 89.0317 383.502 89.4611C383.331 89.8905 383.541 90.3785 383.971 90.5501C389.452 92.7373 392.611 95.8008 393.361 99.6595C394.977 107.992 385.091 117.555 384.991 117.65C384.657 117.97 384.644 118.501 384.965 118.835C385.129 119.007 385.349 119.094 385.57 119.094Z" fill="#E26649"/>
<path d="M369.118 119.426C369.563 119.426 369.935 118.908 369.954 118.458C369.968 118.155 370.213 110.898 364.474 105.836C359.455 101.41 351.565 100.034 341.024 101.825C340.567 101.903 340.26 102.315 340.339 102.771C340.416 103.227 340.849 103.525 341.305 103.446C351.322 101.744 358.745 102.94 363.364 107.013C368.509 111.551 368.281 118.322 368.279 118.389C368.258 118.849 368.617 119.426 369.08 119.426C369.092 119.426 369.105 119.426 369.118 119.426Z" fill="#E26649"/>
<path d="M401.569 237.427C401.8 237.427 402.032 237.331 402.196 237.144C418.606 218.599 411.129 185.312 410.801 183.905C410.697 183.453 410.249 183.172 409.797 183.277C409.344 183.382 409.065 183.832 409.169 184.283C409.246 184.62 416.775 218.141 400.941 236.034C400.635 236.381 400.667 236.911 401.014 237.217C401.172 237.357 401.371 237.427 401.569 237.427Z" fill="#E26649"/>
<path d="M343.533 227.654C343.661 227.654 343.79 227.625 343.91 227.563C355.021 221.961 350.67 174.976 350.479 172.979C350.436 172.52 350.029 172.183 349.566 172.224C349.105 172.268 348.767 172.678 348.811 173.138C350.08 186.427 351.536 221.841 343.156 226.067C342.742 226.275 342.576 226.78 342.785 227.192C342.932 227.484 343.227 227.654 343.533 227.654Z" fill="#E26649"/>
<path d="M356.979 237.148C356.993 237.148 357.008 237.148 357.023 237.146C359.297 237.027 361.292 235.981 362.955 234.035C372.51 222.845 368.546 184.376 368.374 182.745C368.324 182.283 367.901 181.959 367.451 182C366.991 182.048 366.656 182.46 366.707 182.92C366.749 183.313 370.769 222.304 361.68 232.948C360.31 234.551 358.758 235.378 356.936 235.473C356.474 235.498 356.119 235.892 356.144 236.354C356.165 236.8 356.536 237.148 356.979 237.148Z" fill="#E26649"/>
<path d="M380.063 241.093C380.157 241.093 380.249 241.077 380.342 241.045C398.231 234.774 391.127 186.039 390.815 183.967C390.746 183.509 390.315 183.19 389.862 183.262C389.403 183.331 389.089 183.758 389.156 184.216C389.23 184.709 396.377 233.648 379.786 239.462C379.349 239.615 379.12 240.093 379.273 240.53C379.393 240.876 379.718 241.093 380.063 241.093Z" fill="#E26649"/>
<path d="M401.451 189.536C401.451 189.536 386.199 190.397 366.597 187.817C366.597 187.817 370.966 205.456 385.637 205.024C398.699 204.641 401.451 189.536 401.451 189.536Z" fill="#56362E"/>
<path d="M400.9 190.387C400.9 190.387 385.908 191.962 367.429 188.735C367.429 188.735 370.485 194.737 385.899 195.003C399.593 195.24 400.9 190.387 400.9 190.387Z" fill="white"/>
<path d="M414.121 126.106C414.121 126.106 419.52 134.658 419.947 150.09L420.452 127.191L414.121 126.106Z" fill="#D88D6C"/>
<path d="M282.859 243.017C282.859 243.017 317.502 231.05 340.198 225.388C353.401 275.69 399.094 358.281 399.094 358.281C419.729 304.175 415.223 251.074 412.954 229.471C423.993 233.069 444.24 241.597 455.905 247.858C455.905 247.858 462.338 330.455 439.744 472.228C439.744 472.228 388.148 494.211 309.531 466.705C309.531 466.705 317.594 359.479 297.674 305.683C297.674 305.684 280.776 255.304 282.859 243.017Z" fill="#360F22"/>
<path d="M431.361 279.879L441.98 294.4C441.98 294.4 422.978 342.991 399.507 376.503C399.507 376.503 345.299 315.345 331.887 295.796L343.062 282.671L324.9 279.599L322.321 230.336C328.54 228.491 334.717 226.755 340.198 225.388C353.401 275.69 399.094 358.281 399.094 358.281C419.729 304.175 415.223 251.074 412.954 229.471C417.756 231.037 424.302 233.535 431.125 236.374L441.98 276.805L431.361 279.879Z" fill="#21010E"/>
<path d="M249.176 457.143C245.049 420.288 248.061 378.71 248.061 378.71C248.061 378.71 255.019 336.377 260.013 293.841C264.866 252.505 282.86 243.016 282.86 243.016C296.224 271.7 304.164 326.334 304.164 326.334L293.271 381.129C295.942 404.43 301.702 432.848 301.289 450.787C293.955 454.423 275.003 460.399 249.176 457.143Z" fill="#360F22"/>
<path opacity="0.8" d="M568 440.027L554.142 418.523L556.551 417.057L536.849 384.706L533.617 386.672L520.125 365.734L517.356 363.805L488.701 382.228C482.943 373.346 478.838 367.09 478.838 367.09C478.838 367.09 474.627 322.8 473.575 291.24C472.522 259.679 455.905 247.859 455.905 247.859C449.315 244.322 439.987 240.062 431.125 236.375C430.243 236.007 429.364 235.647 428.494 235.291C428.128 235.142 427.769 234.999 427.407 234.853C426.867 234.635 426.328 234.417 425.795 234.204C425.413 234.052 425.04 233.906 424.664 233.757C424.155 233.557 423.649 233.358 423.149 233.165C422.784 233.023 422.425 232.885 422.065 232.747C421.567 232.556 421.077 232.369 420.591 232.187C420.248 232.057 419.907 231.929 419.57 231.803C419.082 231.622 418.606 231.447 418.134 231.275C417.822 231.161 417.509 231.047 417.205 230.937C416.704 230.758 416.224 230.588 415.745 230.421C415.495 230.333 415.236 230.241 414.992 230.157C414.285 229.913 413.6 229.682 412.953 229.471C412.988 229.806 413.026 230.171 413.062 230.521C413.017 230.501 412.974 230.482 412.931 230.462C412.954 229.876 412.948 229.3 412.887 228.745L412.471 228.348C413.376 227.346 414.187 226.291 414.889 225.178C414.724 225.218 414.534 225.261 414.363 225.301C420.936 214.988 419.205 200.236 418.469 187.227C419.698 165.662 420.25 139.202 420.451 127.188C420.456 127.157 426.168 84.9562 419.266 74.3202C419.238 74.2657 419.208 74.2154 419.169 74.1691C418.868 73.7253 418.551 73.3185 418.202 72.999C418.202 72.999 418.09 73.4757 417.85 74.2205C417.766 74.3417 417.723 74.4845 417.711 74.6355C416.298 78.7285 411.407 89.1149 398.158 88.8899C381.673 88.6115 339.938 88.0865 339.89 103.739C339.862 112.962 339.784 119.478 339.725 123.295L339.069 153.511C332.841 145.27 321.268 149.185 322.106 165.728C322.945 182.271 337.421 180.389 337.421 180.389C337.421 180.389 337.396 181.262 337.387 182.75C337.346 182.775 337.31 182.808 337.267 182.832C337.267 182.832 331.629 207.105 344.171 223.564L340.841 225.486C340.841 225.486 340.855 225.508 340.863 225.517C340.668 225.57 340.47 225.622 340.277 225.676C340.253 225.581 340.224 225.482 340.199 225.388C338.87 225.719 337.498 226.074 336.097 226.446C336.034 226.462 335.975 226.478 335.913 226.494C334.525 226.862 333.107 227.249 331.667 227.649C331.602 227.666 331.539 227.684 331.474 227.702C330.032 228.103 328.568 228.518 327.093 228.943C327.027 228.963 326.962 228.98 326.896 229C325.415 229.427 323.924 229.864 322.429 230.307C322.393 230.317 322.357 230.327 322.322 230.337C302.791 236.134 282.86 243.017 282.86 243.017C282.86 243.017 264.865 252.507 260.013 293.842C255.02 336.378 248.062 378.711 248.062 378.711C248.062 378.711 245.05 420.288 249.177 457.144C249.525 457.189 249.858 457.212 250.203 457.253C250.777 462.202 251.452 467.086 252.277 471.778C252.763 471.839 253.222 471.869 253.702 471.923C255.616 482.763 258.334 492.517 262.172 499.534C278.752 529.845 284.238 526.157 287.88 527.257C291.521 528.357 303.106 524.49 303.106 524.49C303.106 524.49 303.891 519.818 302.454 517.424C301.016 515.031 295.584 514.9 295.584 514.9C295.584 514.9 289.463 510.366 288.814 506.092C288.166 501.818 293.556 492.963 293.556 492.963L299.736 504.433C299.736 504.433 302.708 508.351 307.923 506.994C311.683 506.016 307.477 497.561 307.477 497.561C307.477 497.561 304.768 472.761 296.631 468.138C298.121 467.617 298.941 467.259 298.941 467.259C298.941 467.259 299.47 461.07 299.734 451.514C300.299 451.264 300.82 451.022 301.289 450.788C301.703 432.849 295.941 404.431 293.271 381.13L303.861 327.858C315.717 384.426 309.531 466.706 309.531 466.706C311.977 467.562 314.397 468.369 316.791 469.132L311.232 564.398V564.397L308.974 603.124C289.415 642.056 297.674 731.508 297.674 731.508C298.34 731.799 298.995 732.065 299.647 732.323C299.437 733.865 299.203 735.801 298.995 737.986C298.993 737.986 298.992 737.986 298.99 737.986C298.99 737.986 298.979 738.12 298.963 738.312C298.352 744.918 298.012 753.699 299.391 760.886H298.842V768.776H326.596L326.935 763.391C326.935 763.391 338.375 768.353 354.106 768.353C358.427 768.353 366.685 768.428 373.053 768.493V768.776H399.952L400.286 763.391C400.286 763.391 411.6 768.353 427.1 768.353C434.633 768.353 454.368 768.587 454.368 768.587V760.886H454.866C454.866 760.886 457.658 741.37 422.128 741.417L406.75 729.979C407.552 729.364 407.889 728.932 407.889 728.932C407.849 727.8 407.817 726.636 407.789 725.452C407.78 725.058 407.775 724.651 407.765 724.251C407.75 723.456 407.735 722.657 407.723 721.842C407.716 721.345 407.712 720.838 407.708 720.335C407.701 719.595 407.693 718.854 407.69 718.099C407.688 717.554 407.686 717.004 407.686 716.453C407.685 715.713 407.686 714.967 407.688 714.216C407.69 713.657 407.693 713.097 407.697 712.532C407.702 711.759 407.709 710.979 407.717 710.196C407.722 709.644 407.727 709.095 407.735 708.539C407.746 707.713 407.759 706.878 407.774 706.043C407.782 705.512 407.789 704.985 407.799 704.451C407.82 703.383 407.843 702.306 407.869 701.227C407.875 700.936 407.881 700.647 407.888 700.354C407.921 699.007 407.958 697.652 407.997 696.294C408.015 695.704 408.034 695.112 408.053 694.52C408.077 693.706 408.103 692.893 408.13 692.077C408.152 691.433 408.175 690.789 408.198 690.144C408.224 689.403 408.251 688.662 408.279 687.92C408.305 687.206 408.333 686.492 408.362 685.779C408.387 685.111 408.415 684.444 408.443 683.777C408.474 683.037 408.504 682.299 408.536 681.56C408.564 680.906 408.593 680.252 408.622 679.6C408.655 678.862 408.688 678.124 408.723 677.389C408.752 676.773 408.781 676.161 408.81 675.548C408.847 674.775 408.883 674.001 408.922 673.232C408.947 672.742 408.971 672.257 408.996 671.769C409.099 669.734 409.204 667.717 409.313 665.733C409.317 665.662 409.32 665.589 409.325 665.517C409.372 664.664 409.419 663.825 409.467 662.984C409.493 662.522 409.519 662.057 409.545 661.599C409.592 660.781 409.64 659.975 409.687 659.17C409.712 658.721 409.74 658.27 409.766 657.825C409.813 657.037 409.859 656.26 409.907 655.486C409.935 655.028 409.963 654.571 409.991 654.119C410.038 653.358 410.085 652.605 410.132 651.863C410.158 651.443 410.186 651.03 410.211 650.617C410.261 649.842 410.311 649.069 410.36 648.314C410.378 648.045 410.394 647.783 410.412 647.517C410.668 643.623 410.914 640.033 411.142 636.845C411.153 636.693 411.165 636.533 411.176 636.382C411.225 635.694 411.273 635.037 411.32 634.39C411.334 634.194 411.349 633.995 411.363 633.804C411.407 633.19 411.451 632.6 411.494 632.026C411.51 631.818 411.525 631.609 411.539 631.406C411.58 630.868 411.619 630.347 411.656 629.848C411.674 629.612 411.691 629.383 411.71 629.157C411.739 628.767 411.768 628.385 411.796 628.022C411.83 627.577 411.863 627.153 411.894 626.751C411.905 626.616 411.916 626.469 411.926 626.338C412.154 623.417 412.292 621.765 412.292 621.765C418.426 599.987 427.418 520.448 431.227 485.035C431.228 485.028 431.228 485.021 431.229 485.015C431.666 480.95 432.036 477.458 432.325 474.711C432.97 474.526 433.568 474.348 434.132 474.176L457.825 510.943L498.578 484.712L499.597 486.364C501.373 489.251 504.971 490.108 507.628 488.274L507.903 488.084C510.017 486.626 510.893 483.91 510.273 481.404L510.743 482.165C513.072 485.947 517.356 487.359 520.311 485.318L520.617 485.107C522.972 483.481 523.768 480.153 522.815 476.954C525.205 478.889 528.148 479.358 530.318 477.86L530.624 477.648C533.531 475.642 533.955 470.867 531.617 466.897C533.681 468.247 536.34 468.332 538.462 466.866L538.769 466.656C541.598 464.704 542.415 460.727 540.745 457.572L568 440.027ZM448.595 408.011C448.647 407.565 448.698 407.119 448.749 406.675C448.875 407.006 449.002 407.337 449.129 407.668L448.595 408.011ZM369.701 600.709C357.034 652.134 369.701 731.508 369.701 731.508C370.977 731.814 372.198 732.08 373.396 732.327C373.189 733.868 372.959 735.802 372.754 737.985C372.752 737.985 372.751 737.985 372.749 737.985C372.749 737.985 372.739 738.114 372.725 738.3C372.518 740.549 372.346 743.048 372.259 745.654C367.313 743.176 359.989 741.402 349.101 741.416L335.496 731.445C336.62 730.788 337.212 730.327 337.212 730.327C337.048 729.858 336.903 729.324 336.769 728.746C336.759 728.704 336.749 728.666 336.738 728.623C336.614 728.064 336.505 727.447 336.407 726.793C336.395 726.713 336.382 726.638 336.37 726.557C336.278 725.909 336.2 725.215 336.131 724.485C336.121 724.376 336.109 724.271 336.1 724.161C336.035 723.429 335.983 722.658 335.94 721.852C335.934 721.724 335.925 721.594 335.92 721.464C335.881 720.651 335.852 719.805 335.833 718.925C335.83 718.784 335.828 718.639 335.826 718.496C335.811 717.6 335.803 716.676 335.807 715.719C335.807 715.584 335.81 715.446 335.811 715.309C335.817 714.323 335.831 713.311 335.856 712.267C335.859 712.158 335.862 712.046 335.865 711.936C335.893 710.846 335.929 709.732 335.976 708.586C335.978 708.551 335.98 708.514 335.981 708.479C336.029 707.316 336.087 706.126 336.151 704.912C336.155 704.847 336.158 704.782 336.162 704.716C336.226 703.538 336.3 702.335 336.38 701.116C336.389 700.969 336.399 700.822 336.409 700.673C336.487 699.495 336.573 698.298 336.665 697.09C336.679 696.901 336.692 696.712 336.708 696.522C336.8 695.328 336.898 694.121 337 692.904C337.017 692.698 337.034 692.494 337.052 692.287C337.156 691.071 337.265 689.846 337.379 688.612C337.398 688.401 337.418 688.189 337.437 687.979C337.552 686.745 337.671 685.505 337.795 684.26C337.816 684.048 337.838 683.837 337.858 683.625C337.983 682.374 338.112 681.118 338.244 679.862C338.264 679.671 338.284 679.48 338.305 679.289C338.441 678.001 338.581 676.714 338.723 675.428C338.738 675.293 338.753 675.16 338.768 675.025C338.912 673.724 339.06 672.427 339.21 671.135C339.217 671.068 339.225 671 339.234 670.933C339.385 669.64 339.536 668.353 339.689 667.074C339.712 666.888 339.733 666.7 339.756 666.515C339.904 665.296 340.052 664.088 340.201 662.889C340.228 662.663 340.256 662.436 340.284 662.211C340.428 661.053 340.573 659.908 340.718 658.774C340.752 658.509 340.786 658.243 340.82 657.98C340.961 656.885 341.102 655.805 341.241 654.738C341.278 654.461 341.314 654.183 341.351 653.908C341.492 652.847 341.63 651.799 341.769 650.772C341.803 650.526 341.835 650.283 341.868 650.039C342.009 649 342.148 647.978 342.285 646.981C342.315 646.764 342.345 646.552 342.373 646.338C342.513 645.331 342.651 644.34 342.785 643.382C342.809 643.216 342.831 643.055 342.855 642.891C342.983 641.98 343.109 641.09 343.232 640.228C343.262 640.011 343.293 639.799 343.324 639.585C343.435 638.812 343.544 638.064 343.648 637.337C343.68 637.119 343.712 636.895 343.743 636.682C343.845 635.984 343.942 635.322 344.037 634.672C344.083 634.359 344.13 634.043 344.175 633.741C344.261 633.153 344.345 632.589 344.426 632.046C344.465 631.785 344.504 631.523 344.541 631.274C344.618 630.76 344.692 630.273 344.761 629.809C344.802 629.542 344.842 629.279 344.88 629.028C344.942 628.621 345.001 628.231 345.056 627.869C345.092 627.632 345.127 627.408 345.16 627.191C345.201 626.924 345.24 626.671 345.276 626.437C345.512 624.912 345.647 624.069 345.647 624.069C356.758 600.263 372.289 511.944 372.289 511.944L369.701 600.709Z" fill="url(#paint0_linear)"/>
</g>
<g opacity="0.8" clip-path="url(#clip1)">
<path d="M33.244 262.996C33.244 262.996 19.023 172.649 39.231 127.415C54.918 92.299 76.28 108.7 76.28 108.7C76.28 108.7 95.364 94.159 109.585 111.527C123.807 128.893 147.756 172.773 119.315 226.089C90.875 279.401 33.244 262.996 33.244 262.996Z" fill="#6A371A"/>
<path d="M35.356 243.613C35.356 243.613 14.781 258.451 7.329 349.636C7.329 349.636 -9.054 392.077 -18.418 428.712C-18.418 428.712 -11.101 438.737 4.31 435.877L34.018 351.947C34.018 351.946 46.761 247.687 35.356 243.613Z" fill="#131917"/>
<path d="M122.287 131.63C119.035 124.908 115.428 119.231 112.115 114.774C82.881 130.909 57.656 123.716 44.619 117.545C42.778 120.264 40.968 123.52 39.23 127.414C38.154 129.823 37.18 132.371 36.291 135.015C54.695 136.778 88.478 138.391 122.287 131.63Z" fill="#935C41"/>
<path d="M59.924 327.945L95.309 264.047L108.622 238.197C87.717 232.176 69.447 234.145 56.4 237.621L52.516 263.411C52.517 263.411 52.541 305.444 59.924 327.945Z" fill="#D4D6D5"/>
<path d="M69.531 226.848L69.449 247.864L95.202 247.965L95.31 220.624C84.603 227.614 73.927 227.413 69.531 226.848Z" fill="#F4A984"/>
<path d="M95.309 220.624L95.392 199.562L69.639 199.462L69.53 226.847C73.927 227.413 84.603 227.614 95.309 220.624Z" fill="#D88D6C"/>
<path d="M108.9 238.197L92.506 263.2L60.011 320.941C52.627 298.44 55.494 263.625 55.494 263.625L56.418 237.621C43.379 241.096 35.364 243.613 35.364 243.613L31.986 266.181C18.654 283.221 14.643 293.125 14.518 298.079C14.235 309.224 26.943 319.13 26.943 319.13L28.571 376.333C72.912 393.542 104.114 377.319 104.114 377.319C109.034 343.869 130.689 295.043 130.689 295.043V247.03C123.885 243.053 115.813 240.19 108.9 238.197Z" fill="#25302C"/>
<path d="M69.449 227.908C69.449 227.908 68.994 240.074 77.464 244.945C77.464 244.945 94.369 241.239 95.559 227.677L104.825 237.185C104.825 237.185 94.234 257.261 81.943 263.342L76.932 247.916L63.881 260.793C63.881 260.793 58.588 245.758 59.468 235.879L69.449 227.908Z" fill="#F0F2F1"/>
<path d="M44.829 275.655L38.845 282.163C38.845 282.163 46.698 316.979 59.37 335.376C59.37 335.376 95.188 302.824 104.826 285.844L96.509 277.635L108.623 277.35L120.613 242.467C116.537 240.74 112.532 239.322 108.623 238.196L92.367 263.2L59.94 320.941C52.558 298.44 55.459 263.625 55.459 263.625L56.401 237.621C52.583 238.638 49.188 239.271 46.328 240.383L37.175 273.389L44.829 275.655Z" fill="#1B2320"/>
<path d="M120.449 162.1L119.78 162.358C119.78 162.358 117.32 189.152 106.716 157.372C84.535 142.028 76.703 117.712 76.703 117.712C69.446 136.128 50.792 162.132 40.782 166.681C40.725 172.766 41.804 181.954 42.95 190.153C45.193 206.199 54.143 217.589 70.153 220.565C108.754 227.739 117.79 191.016 117.79 191.016C117.79 191.016 132.156 190.636 132.937 172.023C133.581 156.804 120.449 162.1 120.449 162.1Z" fill="#F4A984"/>
<path d="M78.246 130.891C78.246 130.891 89.493 150.328 106.716 157.372C84.486 141.964 76.703 117.712 76.703 117.712C70.252 134.082 54.801 156.43 44.418 164.395C51.557 161.106 63.978 152.636 78.246 130.891Z" fill="#D88D6C"/>
<path d="M114.248 187.246C114.248 187.246 105.177 214.514 83.916 218.418C70.975 220.797 59.511 215.776 52.517 211.485C56.928 216.045 62.792 219.196 70.154 220.565C108.755 227.739 117.791 191.016 117.791 191.016C117.791 191.016 129.166 190.624 132.214 177.571C123.304 191.243 114.248 187.246 114.248 187.246Z" fill="#D88D6C"/>
<path d="M64.249 198.007C64.249 198.007 74.243 200.612 89.869 196.743C89.869 196.743 86.656 209.696 75.873 209.38C66.271 209.101 64.249 198.007 64.249 198.007Z" fill="#56362E"/>
<path d="M64.566 197.547C64.566 197.547 74.97 200.552 89.167 196.335C89.167 196.335 87.009 201.786 75.68 201.981C65.612 202.155 64.566 197.547 64.566 197.547Z" fill="white"/>
<path d="M61.107 160.284C61.107 160.284 52.311 157.335 43.227 164.393C43.227 164.393 43.064 163.254 44.893 161.23C46.722 159.203 52.385 156.025 58.509 157.14C58.509 157.14 62.328 159.045 61.107 160.284Z" fill="#6A371A"/>
<path d="M81.559 161.396C81.559 161.396 89.943 157.422 99.804 163.35C99.804 163.35 99.83 162.199 97.771 160.407C95.714 158.613 89.713 156.133 83.764 157.966C83.765 157.966 80.202 160.312 81.559 161.396Z" fill="#6A371A"/>
<path d="M75.853 192.695C68.409 196.476 63.937 193.21 63.314 189.593C62.905 187.239 64.068 185.015 66.275 183.925C70.817 181.686 73.504 174.182 73.53 174.106C73.694 175.763 72.558 182.146 66.897 186.125C65.673 186.982 64.938 187.843 65.139 189.007C65.489 191.037 68.709 193.831 75.853 192.695Z" fill="#D88D6C"/>
<path d="M55.302 167.303C55.302 167.303 50.538 167.362 49.874 165.576C49.874 165.576 49.269 168.09 52.16 168.939C51.242 170.063 50.664 171.668 50.664 173.456C50.664 176.858 52.74 179.613 55.302 179.613C57.864 179.613 59.94 176.858 59.94 173.456C59.94 170.059 57.864 167.303 55.302 167.303Z" fill="#56362E"/>
<path d="M91.87 167.303C91.87 167.303 87.105 167.362 86.44 165.576C86.44 165.576 85.836 168.09 88.728 168.939C87.81 170.063 87.232 171.668 87.232 173.456C87.232 176.858 89.308 179.613 91.87 179.613C94.431 179.613 96.508 176.858 96.508 173.456C96.508 170.059 94.431 167.303 91.87 167.303Z" fill="#56362E"/>
<path d="M129.398 247.029C129.398 247.029 154.84 256.916 159.888 356.689C159.888 356.689 161.019 401.695 159.332 442.259C159.332 442.259 147.358 446.051 132.359 441.499L131.747 358.388C131.747 358.388 107.651 257.905 129.398 247.029Z" fill="#25302C"/>
<path opacity="0.8" d="M125.546 589.334L232.507 577.199L229.577 549.271L229.582 549.27L229.32 546.793C230.007 546.535 231.683 545.653 231.399 543.167C231.047 540.064 224.864 485.724 224.864 485.724L212.136 481.231L173.3 485.638C172.929 485.156 172.411 484.885 171.839 484.95L170.022 485.156L168.954 475.776C169.888 475.439 170.524 474.534 170.407 473.504L170.326 472.799C170.19 471.598 169.102 470.732 167.898 470.869L162.963 471.429C163.169 470.175 163.364 468.532 163.64 466.047C163.64 466.047 162.841 456.415 159.259 450.293C159.464 450.227 159.601 450.179 159.601 450.179V438.528L159.477 438.532C160.949 398.989 159.887 356.691 159.887 356.691C155.522 270.433 135.919 251.362 130.687 247.777V247.031C124.558 243.448 117.405 240.776 110.991 238.823C113.957 235.094 116.757 230.884 119.314 226.091C128.997 207.941 132.599 190.888 132.588 175.599C132.761 174.487 132.884 173.303 132.937 172.026C133.056 169.207 132.701 167.096 132.046 165.52C130.676 152.506 126.835 141.045 122.282 131.633C122.284 131.633 122.285 131.633 122.287 131.632C122.097 131.24 121.902 130.864 121.711 130.479C121.262 129.579 120.809 128.7 120.35 127.84C120.158 127.479 119.967 127.11 119.774 126.757C119.519 126.292 119.262 125.845 119.005 125.393C118.805 125.041 118.606 124.684 118.406 124.34C118.149 123.898 117.891 123.471 117.633 123.042C117.43 122.705 117.229 122.368 117.026 122.039C116.768 121.621 116.511 121.214 116.253 120.809C116.052 120.492 115.85 120.178 115.65 119.868C115.392 119.472 115.135 119.082 114.879 118.699C114.676 118.398 114.476 118.104 114.276 117.811C114.023 117.443 113.771 117.076 113.521 116.721C113.32 116.436 113.122 116.163 112.922 115.886C112.673 115.542 112.425 115.195 112.179 114.864C112.158 114.836 112.136 114.804 112.116 114.776C112.115 114.776 112.115 114.777 112.114 114.777C111.248 113.613 110.4 112.522 109.586 111.529C95.365 94.159 76.28 108.7 76.28 108.7C76.28 108.7 59.404 95.773 44.636 117.553C44.631 117.55 44.625 117.548 44.619 117.545C44.465 117.772 44.313 118.026 44.16 118.26C43.948 118.584 43.737 118.908 43.527 119.246C43.236 119.715 42.946 120.207 42.657 120.705C42.463 121.038 42.269 121.364 42.076 121.711C41.749 122.298 41.425 122.92 41.102 123.546C40.95 123.841 40.796 124.121 40.645 124.425C40.169 125.379 39.697 126.37 39.231 127.414C38.714 128.57 38.227 129.763 37.754 130.976C37.722 131.057 37.69 131.137 37.658 131.218C24.361 165.678 28.411 221.842 31.354 248.312C24.988 257.643 12.723 283.642 7.32999 349.636C7.32999 349.636 -9.05301 392.077 -18.417 428.712C-18.417 428.712 -18.072 429.17 -17.416 429.845L-19.359 437.387C-19.359 437.387 -18.687 438.055 -17.434 438.925C-18.693 442.473 -22.264 452.808 -22.724 457.194C-23.289 462.529 -18.558 473.879 -15.632 476.028C-15.632 476.028 -9.88401 479.693 -8.06001 481.173C-8.06001 481.173 -5.59501 482.205 -4.83701 478.451C-4.83701 478.451 -1.47701 478.885 -0.629007 476.08C-0.629007 476.08 2.36099 472.789 2.81099 467.101C2.81099 467.101 1.17099 460.39 -0.736008 457.646C-0.736008 457.646 2.28999 448.623 0.712992 442.594C1.12599 442.523 1.52699 442.472 1.95299 442.38L4.05699 435.913C4.14399 435.898 4.22299 435.894 4.31099 435.877L28.334 368.007L28.571 376.333C28.571 376.333 -6.86901 432.64 27.827 553.041C27.827 553.041 29.275 553.604 32.473 554.331C35.936 570.574 38.886 583.617 40.564 589.371C47.103 611.797 53.44 738.363 53.556 740.697C53.496 740.884 41.285 779.597 34.074 784.678L18.254 788.423C18.254 788.423 14.296 792.271 17.762 798.216H57.957L71.701 764.022L70.766 798.216H74.964L77.673 784.854C76.57 791.947 76.37 797.112 78.067 797.367H108.895C108.895 797.367 113.499 799.038 108.501 742.118H108.497C108.498 742.037 108.5 741.959 108.501 741.878C129.301 665.578 128.367 614.543 125.546 589.334ZM137.653 450.387C137.704 450.401 137.755 450.42 137.806 450.434C137.769 450.489 137.732 450.545 137.687 450.612C137.675 450.536 137.665 450.462 137.653 450.387ZM164.742 476.352L165.798 485.633L164.394 485.792C163.821 485.857 163.377 486.237 163.124 486.79L140.121 489.4C140.157 486.764 140.16 484.09 140.118 481.381C140.518 481.799 140.953 482.076 141.434 482.106C141.434 482.106 143.219 482.237 145.087 480.992C145.087 480.992 148.345 483.995 151.429 480.395C151.429 480.395 155.352 481.982 156.988 478.849C156.988 478.849 159.512 480.561 161.098 477.052C161.147 476.945 161.189 476.85 161.236 476.748L164.742 476.352ZM132.245 425.974C126.774 407.855 117.929 390.774 104.144 377.125C107.2 356.569 116.521 330.291 123.256 313.076C126.646 337.108 131.747 358.388 131.747 358.388L132.245 425.974ZM75.019 740.752C68.003 760.831 49.87 782.875 49.87 782.875H49.867C54.394 777.102 69.088 757.624 75 740.751H75.019C75.381 719.276 78.062 694.719 79.944 680.794C90.713 601.027 73.837 568.056 73.837 568.056C74.384 564.6 74.813 561.076 75.179 557.526C77.661 557.49 80.223 557.435 82.934 557.339C82.938 557.388 82.942 557.437 82.946 557.486C83.015 558.366 83.086 559.238 83.16 560.104C83.196 560.53 83.232 560.957 83.269 561.379C83.376 562.582 83.486 563.773 83.603 564.945C83.625 565.162 83.648 565.372 83.67 565.587C83.772 566.584 83.877 567.567 83.987 568.538C84.03 568.916 84.073 569.291 84.117 569.665C84.223 570.565 84.331 571.451 84.445 572.325C84.479 572.593 84.513 572.867 84.548 573.133C84.694 574.231 84.847 575.304 85.004 576.354C85.047 576.633 85.09 576.903 85.133 577.178C85.259 577.99 85.389 578.787 85.523 579.567C85.575 579.864 85.625 580.162 85.677 580.454C85.856 581.454 86.039 582.436 86.232 583.376C86.406 584.224 86.569 585.135 86.728 586.07C86.764 586.284 86.801 586.492 86.837 586.71C86.974 587.549 87.104 588.427 87.231 589.328C87.289 589.745 87.345 590.17 87.401 590.6C87.47 591.127 87.535 591.673 87.601 592.219C87.722 593.235 87.839 594.275 87.948 595.354C87.961 595.477 87.973 595.6 87.986 595.723C92.547 641.263 87.778 740.748 87.778 740.748L87.83 740.751L87.778 741.179C87.359 742.699 84.38 753.562 81.632 765.343L83.538 755.941C83.535 755.944 82.671 745.971 75.019 740.752Z" fill="url(#paint1_linear)"/>
</g>
<g clip-path="url(#clip2)">
<path d="M272.391 44.988C266.028 12.464 211.239 7.509 211.239 7.509C183.268 -11.462 192.971 11.495 192.971 11.495C145.565 -8.18 166.369 36.385 166.369 36.385C148.53 34.859 165.833 52.645 165.833 52.645C160.829 71.341 169.427 87.432 169.427 87.432L257.929 109.04L277.75 113.98C282.616 98.185 284.74 85.986 285.184 76.564C286.531 47.966 272.391 44.988 272.391 44.988Z" fill="#261E18"/>
<path d="M258.018 55.061C258.018 55.061 216.172 72.429 206.384 70.866C196.594 69.304 165.833 52.645 165.833 52.645C160.829 71.341 169.427 87.432 169.427 87.432L257.929 109.04L277.75 113.98C282.616 98.185 284.74 85.986 285.184 76.564C267.093 71.49 258.018 55.061 258.018 55.061Z" fill="#131917"/>
<path d="M258.265 196.061C237.303 191.499 211.597 188.819 185.002 192.998C185.169 210.326 185.673 285.153 202.747 344.629C202.747 344.629 250.671 235.96 258.265 196.061Z" fill="#D4D6D5"/>
<path d="M200.747 217.014L210.27 233.797L187.028 336.496L202.787 356.877L219.113 342.081L220.689 234.56L228.964 221.299L217.187 204.203L200.747 217.014Z" fill="#C94949"/>
<path d="M201.704 180.723L201 206.322L243.472 207.487L244.389 174.184C226.542 182.266 208.938 181.592 201.704 180.723Z" fill="#F4A984"/>
<path d="M244.39 174.184L245.095 148.529L202.623 147.363L201.704 180.723C208.938 181.592 226.542 182.266 244.39 174.184Z" fill="#D88D6C"/>
<path d="M271.059 95.74L262.545 107.19C261.313 103.796 260.349 100.269 259.595 96.723C255.23 76.208 258.017 55.061 258.017 55.061C210.529 70.762 171.363 55.711 171.363 55.711C172.427 78.888 160.092 130.272 176.48 157.25C181.362 165.288 188.788 171.165 199.886 173.477C248.232 183.548 264.402 132.491 264.402 132.491C264.402 132.491 280.765 132.208 285.011 109.886C288.534 91.394 271.059 95.74 271.059 95.74Z" fill="#F4A984"/>
<path d="M199.172 106.415C198.682 111.398 195.757 115.193 192.641 114.884C189.525 114.578 187.398 110.29 187.89 105.304C188.381 100.32 191.306 96.529 194.421 96.835C197.539 97.142 199.666 101.43 199.172 106.415Z" fill="#131917"/>
<path d="M242.083 109.425C241.593 114.408 238.667 118.203 235.551 117.895C232.435 117.586 230.306 113.297 230.801 108.314C231.294 103.33 234.218 99.538 237.332 99.843C240.448 100.151 242.577 104.442 242.083 109.425Z" fill="#131917"/>
<path d="M206.6 133.076C196.74 135.591 192.295 130.518 192.514 126.052C192.657 123.142 194.636 120.808 197.549 120.099C203.546 118.644 208.742 110.438 208.795 110.353C208.549 112.367 205.496 119.654 197.701 122.879C196.017 123.577 194.914 124.403 194.842 125.841C194.717 128.346 197.801 132.525 206.6 133.076Z" fill="#D88D6C"/>
<path d="M177.67 85.67L177.402 82.816C178.02 82.799 187.88 80.645 199.243 82.178L199.12 86.625C189.84 84.774 177.824 85.666 177.67 85.67Z" fill="#131917"/>
<path d="M246.761 90.631C239.284 87.297 225.175 86.035 225.044 86L226.178 81.996C226.729 82.137 239.526 83.227 247.842 88.215L246.761 90.631Z" fill="#131917"/>
<path d="M171.921 6.537C171.921 6.537 191.232 27.494 238.683 29.834C238.683 29.834 206.603 49.858 165.112 33.35C165.112 33.349 154.255 7.682 171.921 6.537Z" fill="#3F362D"/>
<path d="M307.821 212.596C307.821 212.596 283.62 199.404 254.158 192.992C246.562 232.889 202.747 344.628 202.747 344.628C185.673 285.152 189.234 208.787 189.064 191.461C175.655 193.568 159.065 195.873 145.699 202.108C145.699 202.108 127.696 282.847 135.623 466.69C135.623 466.69 195.466 488.175 291.513 469.884C291.513 469.884 282.478 341.128 294.955 290.78C294.955 290.781 303.874 244.242 307.821 212.596Z" fill="#162644"/>
<path d="M294.955 290.781C294.955 290.781 298.934 270.014 302.755 246.792L286.294 251.408C281.671 278.422 263.994 318.275 263.994 318.275C253.529 330.036 231.814 322.505 212 320.518C206.504 335.052 202.748 344.628 202.748 344.628C200.311 336.136 198.296 327.299 196.627 318.341C181.722 315.67 166.193 312.237 162.061 311.068C151.421 308.057 149.824 262.132 149.824 262.132L140.423 235.409C137.485 263.897 134.29 313.923 135.576 391.251C148.643 393.43 175.324 396.075 200.684 387.534C200.684 387.534 239.126 400.858 253.404 402.23C264.106 403.256 278.828 411.356 288.192 426.015C287.039 386.592 286.782 323.762 294.955 290.781Z" fill="#111D36"/>
<path d="M145.699 202.109C145.699 202.109 124.915 195.486 109.37 271.54C98.191 326.235 100.519 361.936 107.209 364.15C113.9 366.366 156.312 384.559 229.752 349.189L221.039 336.938L149.242 327.299L149.863 257.876L145.699 202.109Z" fill="#162644"/>
<path d="M201.63 183.395C201.63 183.395 203.594 198.19 217.186 204.204C217.186 204.204 242.491 199.882 244.274 183.363L257.04 195.802C257.04 195.802 249.22 219.448 229.611 226.75L217.354 208.09L200.694 223.481C200.694 223.481 185.291 205.07 186.61 193.038L201.63 183.395Z" fill="#F0F2F1"/>
<path d="M175.988 247.912L168.573 254.637C168.573 254.637 188.396 332.496 202.643 360.721C202.643 360.721 243.766 291.94 256.713 261.885L250.525 252.078L264.099 247.912C264.099 247.912 269.539 219.463 268.017 196.569C263.587 195.256 258.944 194.033 254.158 192.992C246.562 232.889 202.747 344.628 202.747 344.628C185.673 285.152 189.234 208.787 189.064 191.461C185.126 192.08 180.811 192.988 176.35 194.11L166.867 239.071L175.988 247.912Z" fill="#111D36"/>
<path d="M221.038 336.938L149.241 327.299C149.241 327.299 177.756 350.796 180.388 367.554C194.124 364.201 210.463 358.479 229.751 349.189L221.038 336.938Z" fill="#111D36"/>
<path d="M193.646 323.283C155.564 304.866 149.241 327.299 149.241 327.299C160.876 335.459 171.842 342.412 182.128 348.346C189.212 335.512 193.646 323.283 193.646 323.283Z" fill="#F4A984"/>
<path d="M205.337 323.009L194.96 321.423C194.96 321.423 182.102 330.143 182.128 348.345C185.729 350.422 189.242 352.367 192.672 354.2C197.335 339.068 202.298 330.015 205.337 323.009Z" fill="#E5EAE8"/>
<path d="M307.821 212.596C287.856 208.332 269.846 332.882 269.846 332.882L205.691 321.676C200.478 327.011 190.092 341.773 191.047 356.601C254.682 390.585 290.796 381.477 290.796 381.477C290.796 381.477 314.703 384.792 321.606 303.772C328.511 222.75 307.821 212.596 307.821 212.596Z" fill="#162644"/>
<path d="M244.39 328.435C244.39 328.435 268.541 312.616 273.305 311.569C278.052 310.526 295.643 304.393 295.643 304.393C295.643 304.393 297.715 306.979 294.867 309.825C292.017 312.67 281.306 315.257 281.306 315.257C281.306 315.257 293.83 316.81 298.752 319.655C298.752 319.655 300.912 324.656 295.211 325C295.211 325 301.602 329.138 293.83 330.711C293.83 330.711 286.144 328.9 283.206 329.485L293.054 336.815C293.054 336.815 293.572 339.057 289.255 338.883C284.935 338.712 278.716 330.003 269.847 332.881L244.39 328.435Z" fill="#F4A984"/>
<path d="M195.473 140.48C195.473 140.48 207.652 143.654 226.694 138.94C226.694 138.94 222.779 154.724 209.638 154.339C197.936 153.998 195.473 140.48 195.473 140.48Z" fill="#56362E"/>
<path d="M195.858 139.919C195.858 139.919 208.536 143.581 225.836 138.442C225.836 138.442 223.207 145.085 209.401 145.322C197.133 145.534 195.858 139.919 195.858 139.919Z" fill="white"/>
<path d="M256.057 293.6C266.085 293.6 274.215 285.47 274.215 275.442C274.215 265.414 266.085 257.284 256.057 257.284C246.029 257.284 237.899 265.414 237.899 275.442C237.899 285.47 246.029 293.6 256.057 293.6Z" fill="white"/>
<path d="M258.776 260.817L246.69 261.5L243.454 277.778C242.41 283.031 251.694 290.436 252.842 290.664C253.99 290.892 265.401 287.602 266.445 282.349L269.681 266.071L258.776 260.817Z" fill="#112F55"/>
<path d="M258.593 261.738L247.257 262.359L244.217 277.651C243.237 282.58 251.948 289.528 253.026 289.742C254.103 289.956 264.81 286.869 265.79 281.94L268.83 266.648L258.593 261.738Z" fill="#112F55"/>
<path d="M255.855 275.508L245.372 276.005L245.073 277.51C244.165 282.075 252.233 288.509 253.231 288.708C254.229 288.906 264.144 286.047 265.052 281.482L265.351 279.977L255.855 275.508Z" fill="#FBB336"/>
<path d="M258.478 262.318L247.979 262.893L246.072 272.485C245.164 277.05 254.834 275.438 255.842 275.574C257.552 275.804 265.143 281.022 266.051 276.457L267.958 266.865L258.478 262.318Z" fill="#FBB336"/>
<path d="M263.14 271.105L262.883 271.742L261.735 272.342L260.435 269.456L258.936 265.976L258.246 264.623L256.499 266.831L254.464 269.19L253.464 267.453C250.216 270.12 247.562 272.189 246.613 272.859C246.935 272.843 247.289 272.814 247.589 272.876C247.813 272.922 248.054 272.883 248.28 272.922C248.251 272.916 248.384 272.932 248.392 272.933C248.432 272.936 248.473 272.938 248.513 272.941C248.614 272.947 248.715 272.954 248.815 272.96C249.017 272.973 249.218 272.986 249.42 272.999C250.832 273.089 252.234 273.224 253.631 273.453C254.989 273.676 256.333 273.966 257.678 274.251C258.614 274.449 259.542 274.703 260.447 275.02C260.539 274.984 260.641 274.973 260.737 274.992C260.857 275.016 260.953 275.081 261.021 275.169C261.079 275.16 261.138 275.161 261.195 275.173C261.817 275.301 262.403 275.559 262.972 275.837C263.039 275.823 263.107 275.822 263.174 275.837C263.496 275.906 263.802 276.046 264.106 276.17C264.18 276.2 264.255 276.23 264.329 276.258C264.332 276.259 264.336 276.26 264.34 276.262C264.381 276.275 264.421 276.289 264.463 276.3C264.527 276.318 264.592 276.329 264.657 276.344C264.681 276.341 264.71 276.344 264.733 276.342C264.892 276.331 265.032 276.398 265.129 276.506C265.211 276.517 265.292 276.529 265.373 276.544C264.119 274.788 263.14 271.105 263.14 271.105Z" fill="white"/>
<path d="M246.766 272.825C248.636 271.839 249.853 270.743 249.892 270.751C249.935 270.759 249.646 271.696 249.646 271.696L250.17 271.265L249.467 273C249.556 273.006 249.645 273.012 249.733 273.018C249.824 272.905 249.921 272.777 250.014 272.635C250.379 272.084 251.045 271.521 251.088 271.511C251.131 271.502 251.441 272.269 251.441 272.269L251.849 271.709C251.849 271.709 251.864 272.899 251.879 272.973C251.894 273.047 252.438 271.928 252.438 271.928L252.598 273.252C252.853 271.937 253.632 271.27 253.632 271.27L254.124 271.7L254.084 270.771L254.448 271.283L254.299 271.945L253.387 273.41C253.468 273.423 253.55 273.436 253.631 273.449C253.661 273.454 253.691 273.459 253.721 273.464L254.322 272.657L254.775 273.364L256.135 272.295L256.202 273.105L255.929 273.88C256.015 273.898 256.1 273.915 256.186 273.933L256.542 272.816L256.938 272.431L256.97 273.801L258.478 271.927L258.812 273.443L258.931 271.499C258.931 271.499 259.508 271.839 259.77 272.191C260.032 272.543 260.779 273.872 260.779 273.872L260.517 272.369L258.9 270.094L258.683 271.027L258.045 271.543L258.119 270.636L257.548 270.722L257.801 269.176L257.232 269.44L256.859 268.217L257.746 266.159L258.087 265.523L258.583 266.876L260.163 269.546L261.361 272.446C260.973 273.488 261.397 275.142 261.397 275.142C261.776 274.577 261.753 273.899 261.753 273.899C261.899 274.14 262.105 274.551 262.105 274.551C262.089 274.424 262.214 274.093 262.214 274.093L263.014 275.114L263.803 275.282L263.205 274.37L263.681 274.691C263.315 274.054 262.901 273.218 262.901 273.218L262.872 272.176L263.201 271.858C263.906 274.5 264.921 275.987 265.353 276.534C265.37 276.537 265.387 276.54 265.404 276.543C264.161 274.575 263.216 270.743 263.216 270.743C263.216 270.743 262.705 271.431 262.707 271.538C262.708 271.645 261.733 272.066 261.733 272.066C261.733 272.066 260.84 269.86 260.427 269.103C260.013 268.346 259.042 265.856 259.042 265.856L258.206 264.062L255.645 267.297L255.249 267.936L254.394 268.737L253.422 267.159C251.38 269.056 247.376 271.97 246.251 272.82C246.307 272.82 246.707 272.824 246.766 272.825Z" fill="#112F55"/>
<path d="M253.344 267.712L254.177 269.05L253.753 269.486L253.619 269.035C253.619 269.035 253.35 270.401 252.657 271.066L252.724 269.537L251.927 269.863L252.203 268.791L253.344 267.712Z" fill="white"/>
<path d="M267.183 285.659C258.979 281.817 250.556 280.143 241.506 280.554C241.394 277.968 241.281 275.381 241.169 272.795C251.463 272.3 261.141 274.224 270.463 278.619C269.369 280.965 268.276 283.312 267.183 285.659Z" fill="#112F55"/>
<path d="M242.196 273.577L242.395 279.804C246.696 279.698 250.753 280.037 254.795 280.841C258.837 281.645 262.715 282.883 266.649 284.626L269.215 278.949C264.909 277.026 260.468 275.602 256.013 274.716C251.558 273.83 246.909 273.447 242.196 273.577Z" fill="#112F55"/>
<path d="M244.817 279.215L244.963 274.034L247.256 274.095L247.23 275.035L245.901 274.998L245.869 276.146L246.962 276.177L246.936 277.117L245.842 277.086L245.808 278.306L247.136 278.343L247.11 279.28L244.817 279.215Z" fill="white"/>
<path d="M250.732 274.374L249.445 279.471L248.175 279.36L247.789 274.116L248.76 274.201L248.918 278.177L249.764 274.289L250.732 274.374Z" fill="white"/>
<path d="M250.62 279.594L251.348 274.462L253.619 274.78L253.487 275.711L252.171 275.525L252.01 276.662L253.093 276.816L252.961 277.747L251.878 277.593L251.707 278.801L253.023 278.988L252.891 279.916L250.62 279.594Z" fill="white"/>
<path d="M253.453 280.009L254.456 274.924L255.753 275.18C255.967 275.222 256.149 275.284 256.3 275.364C256.451 275.445 256.569 275.549 256.655 275.676C256.741 275.803 256.795 275.954 256.816 276.13C256.837 276.306 256.825 276.509 256.779 276.741L256.666 277.316C256.625 277.521 256.545 277.696 256.425 277.84C256.305 277.984 256.164 278.099 256.001 278.185C256.055 278.242 256.099 278.299 256.134 278.357C256.169 278.415 256.193 278.48 256.208 278.554C256.222 278.627 256.229 278.713 256.227 278.811C256.225 278.909 256.216 279.028 256.2 279.169L256.11 279.87C256.092 280.02 256.094 280.149 256.117 280.259C256.139 280.369 256.162 280.465 256.185 280.549L255.205 280.356C255.201 280.343 255.194 280.316 255.185 280.274C255.176 280.232 255.168 280.181 255.161 280.123C255.154 280.065 255.149 280 255.146 279.927C255.143 279.855 255.146 279.782 255.156 279.71L255.24 279.004C255.257 278.882 255.26 278.78 255.25 278.698C255.24 278.616 255.219 278.549 255.189 278.497C255.159 278.445 255.122 278.406 255.078 278.38C255.034 278.354 254.989 278.338 254.942 278.331L254.778 278.299L254.403 280.198L253.453 280.009ZM255.832 276.543C255.858 276.409 255.851 276.308 255.81 276.238C255.769 276.169 255.687 276.122 255.562 276.097L255.224 276.031L254.959 277.375L255.297 277.442C255.422 277.467 255.518 277.447 255.585 277.384C255.652 277.321 255.696 277.236 255.717 277.129L255.832 276.543Z" fill="white"/>
<path d="M256.592 280.651L257.869 275.628L260.093 276.19L259.861 277.101L258.573 276.774L258.29 277.887L259.35 278.156L259.118 279.068L258.058 278.798L257.758 279.981L259.046 280.308L258.815 281.216L256.592 280.651Z" fill="white"/>
<path d="M262.115 280.919C261.986 281.333 261.788 281.617 261.522 281.769C261.255 281.922 260.905 281.93 260.472 281.795C260.238 281.722 260.05 281.633 259.907 281.528C259.765 281.423 259.662 281.301 259.598 281.162C259.534 281.023 259.506 280.866 259.513 280.691C259.52 280.516 259.557 280.322 259.623 280.109L259.746 279.715L260.664 280.001L260.543 280.388C260.523 280.453 260.509 280.513 260.503 280.567C260.497 280.621 260.501 280.669 260.516 280.71C260.53 280.751 260.556 280.787 260.593 280.818C260.63 280.848 260.68 280.874 260.743 280.893C260.873 280.934 260.972 280.926 261.041 280.87C261.11 280.814 261.161 280.731 261.196 280.62L261.207 280.584C261.233 280.502 261.253 280.427 261.268 280.36C261.283 280.293 261.289 280.229 261.287 280.168C261.285 280.107 261.271 280.047 261.247 279.988C261.222 279.929 261.184 279.867 261.131 279.8L260.767 279.34C260.628 279.168 260.523 279.015 260.454 278.88C260.384 278.745 260.339 278.615 260.32 278.49C260.301 278.365 260.303 278.238 260.326 278.11C260.349 277.982 260.386 277.836 260.437 277.673L260.468 277.572C260.538 277.349 260.624 277.166 260.728 277.025C260.832 276.884 260.951 276.779 261.087 276.71C261.223 276.642 261.374 276.609 261.541 276.611C261.708 276.613 261.891 276.645 262.091 276.707C262.501 276.835 262.773 277.029 262.907 277.29C263.041 277.551 263.04 277.9 262.903 278.338L262.769 278.767L261.848 278.48L261.988 278.031C262.019 277.924 262.023 277.834 262.001 277.76C261.979 277.686 261.912 277.632 261.802 277.598C261.689 277.563 261.6 277.571 261.534 277.623C261.468 277.675 261.418 277.758 261.385 277.871L261.357 277.962C261.327 278.067 261.317 278.178 261.328 278.296C261.339 278.413 261.385 278.52 261.468 278.614L261.796 278.98C261.931 279.134 262.036 279.281 262.11 279.421C262.184 279.561 262.234 279.7 262.26 279.839C262.286 279.978 262.29 280.119 262.273 280.262C262.256 280.405 262.224 280.557 262.18 280.717L262.115 280.919Z" fill="white"/>
<path d="M265.078 278.814L263.605 282.797L262.694 282.46L264.167 278.477L263.406 278.196L263.731 277.317L266.161 278.215L265.836 279.094L265.078 278.814Z" fill="white"/>
</g>
<defs>
<linearGradient id="paint0_linear" x1="407.5" y1="768.776" x2="407.5" y2="73" gradientUnits="userSpaceOnUse">
<stop offset="0.4022" stop-color="#FBB336"/>
<stop offset="0.9155" stop-color="#FBB336" stop-opacity="0.1413"/>
<stop offset="1" stop-color="#FBB336" stop-opacity="0"/>
</linearGradient>
<linearGradient id="paint1_linear" x1="104.868" y1="798.216" x2="104.868" y2="103" gradientUnits="userSpaceOnUse">
<stop offset="0.4022" stop-color="#FBB336"/>
<stop offset="0.9155" stop-color="#FBB336" stop-opacity="0.1413"/>
<stop offset="1" stop-color="#FBB336" stop-opacity="0"/>
</linearGradient>
<clipPath id="clip0">
<rect width="234" height="291" fill="white" transform="translate(247 73)"/>
</clipPath>
<clipPath id="clip1">
<rect width="233" height="261" fill="white" transform="translate(0 103)"/>
</clipPath>
<clipPath id="clip2">
<rect width="309" height="364" fill="white" transform="translate(56)"/>
</clipPath>
</defs>
</svg>
