<?xml version="1.0" encoding="utf-8"?>
<!-- Generator: Adobe Illustrator 25.2.3, SVG Export Plug-In . SVG Version: 6.00 Build 0)  -->
<svg version="1.1" xmlns="http://www.w3.org/2000/svg" xmlns:xlink="http://www.w3.org/1999/xlink" x="0px" y="0px"
	 viewBox="0 0 312.739 690.131" enable-background="new 0 0 312.739 690.131" xml:space="preserve">
<g id="Capa_1" display="none">
	<rect x="-2063.11" y="-24.5" display="inline" fill="#FBB336" width="3999.5" height="1284.041"/>
	<g display="inline">
		<g>
			<rect x="183.949" y="-4.69" fill="#FFFFFF" width="865.954" height="718.113"/>
			<g>
				<g>
					<rect x="183.949" y="379.251" fill="#CFC9CD" width="865.954" height="6.011"/>
				</g>
				<g>
					<rect x="183.949" y="103.658" fill="#CFC9CD" width="865.875" height="6.011"/>
				</g>
			</g>
		</g>
		<g>
			<rect x="-823.613" y="-4.69" fill="#FFFFFF" width="865.954" height="718.113"/>
			<g>
				<g>
					<rect x="-823.613" y="379.251" fill="#CFC9CD" width="865.954" height="6.011"/>
				</g>
				<g>
					<rect x="-823.613" y="103.658" fill="#CFC9CD" width="865.875" height="6.011"/>
				</g>
			</g>
		</g>
		<g>
			<linearGradient id="SVGID_1_" gradientUnits="userSpaceOnUse" x1="-191.8615" y1="550.5884" x2="-191.8615" y2="1418.8267">
				<stop  offset="0.0053" style="stop-color:#AB9591"/>
				<stop  offset="0.6844" style="stop-color:#514E4E"/>
				<stop  offset="1" style="stop-color:#6582A3"/>
			</linearGradient>
			<rect x="-2451.814" y="545.883" fill="url(#SVGID_1_)" width="4519.905" height="868.238"/>
			<rect x="-2451.814" y="651.977" opacity="0.08" fill="#FFFFFF" width="4519.905" height="221.543"/>
			<rect x="-2451.814" y="545.731" opacity="0.24" fill="#FFFFFF" width="4519.905" height="106.248"/>
			<linearGradient id="SVGID_2_" gradientUnits="userSpaceOnUse" x1="308.8628" y1="1788.6283" x2="308.8628" y2="844.7742">
				<stop  offset="0" style="stop-color:#89D6FD"/>
				<stop  offset="1" style="stop-color:#000000"/>
			</linearGradient>
			<rect x="84.95" y="545.731" opacity="0.49" fill="url(#SVGID_2_)" width="447.825" height="868.391"/>
		</g>
	</g>
	<linearGradient id="SVGID_3_" gradientUnits="userSpaceOnUse" x1="-86.7211" y1="316.9671" x2="-86.7211" y2="-22.4781">
		<stop  offset="0" style="stop-color:#FBB336;stop-opacity:0"/>
		<stop  offset="0.1413" style="stop-color:#FBB336;stop-opacity:0.1413"/>
		<stop  offset="1" style="stop-color:#FBB336"/>
	</linearGradient>
	<rect x="-2144.23" y="-22.478" display="inline" fill="url(#SVGID_3_)" width="4115.019" height="339.445"/>
	<rect x="-2144.23" y="-22.478" display="inline" opacity="0.8" fill="#FBB336" width="4115.019" height="1895.936"/>
	<rect x="-2063.633" y="-22.478" display="inline" fill="none" width="4000.023" height="1921.101"/>
</g>
<g id="Capa_2">
	<g>
		<path opacity="0.1" fill="#3C3C3B" d="M10.51,677.075c0,7.21,51.309,13.056,114.603,13.056c63.294,0,114.603-5.846,114.603-13.056
			c0-7.212-51.309-13.057-114.603-13.057C61.819,664.018,10.51,669.863,10.51,677.075z"/>
		<g>
			<path fill="#360F22" d="M203.529,170.205c0,0,16.189,11.506,17.215,42.227c1.025,30.72,5.128,73.831,5.128,73.831
				s36.918,56.217,44.098,70.042c0,0-14.358,30.667-51.277,21.989c0,0-27.176-61.414-32.817-85.478L203.529,170.205z"/>
			<g>
				<polygon fill="#B55735" points="205.396,426.289 312.739,357.259 266.095,284.942 158.753,353.972 				"/>
				<polygon fill="#873A22" points="266.095,284.942 263.397,283.065 157.869,350.85 158.753,353.972 				"/>
				<polygon fill="#F2EEDD" points="300.792,354.057 263.078,297.241 170.089,357.976 208.189,417.717 				"/>
				<polygon fill="#D4D6D5" points="285.781,344.506 301.585,334.9 282.389,303.41 266.585,313.016 				"/>
				<g>
					<polygon fill="#6D6A5B" points="254.121,322.065 272.842,351.392 278.031,348.09 259.31,318.762 					"/>
					<polygon fill="#6D6A5B" points="233.739,321.569 265.068,370.649 267.663,368.998 236.333,319.918 					"/>
					
						<rect x="243.386" y="324.351" transform="matrix(0.8429 -0.5381 0.5381 0.8429 -149.4815 186.4449)" fill="#6D6A5B" width="2.307" height="49.705"/>
					<polygon fill="#6D6A5B" points="220.5,330.835 251.065,378.718 253.011,377.48 222.446,329.598 					"/>
					<polygon fill="#6D6A5B" points="213.597,338.597 241.105,381.691 243.051,380.453 215.543,337.358 					"/>
					<polygon fill="#6D6A5B" points="211.545,352.528 227.591,377.666 229.536,376.428 213.49,351.289 					"/>
				</g>
				<polygon fill="#F4F4F4" points="291.696,318.679 284.155,306.308 278.438,305.812 266.585,313.016 				"/>
				<polygon fill="#BCBCBC" points="298.715,330.193 273.581,324.492 278.372,332.351 298.076,337.034 301.585,334.9 				"/>
			</g>
			<path fill="#D88D6C" d="M241.722,384.437l0.267-0.185c2.117-1.459,4.842-1.168,6.715,0.521c-1.662-3.493-1.035-7.505,1.606-9.325
				l0.297-0.206c1.999-1.379,4.621-1.135,6.797,0.375c-1.399-3.502-0.772-7.266,1.702-8.973l0.298-0.205
				c2.444-1.686,5.893-0.814,8.352,1.868c-0.529-2.623,0.436-5.403,2.637-6.921l0.299-0.207c2.879-1.986,6.775-1.059,8.703,2.068
				l6.582,10.677c1.928,3.127,1.156,7.271-1.722,9.256l-0.298,0.205c-2.068,1.426-4.658,1.343-6.67,0.029
				c2.278,3.864,1.865,8.512-0.967,10.465l-0.297,0.206c-2.114,1.458-4.981,1.003-7.31-0.882c0.929,3.114,0.154,6.354-2.141,7.936
				l-0.298,0.206c-2.879,1.985-7.052,0.612-9.321-3.069l-0.457-0.741c0.604,2.439-0.25,5.083-2.309,6.502l-0.269,0.185
				c-2.589,1.785-6.094,0.952-7.825-1.859l-5.919-9.602C238.439,389.95,239.132,386.223,241.722,384.437z"/>
			<g>
				<path fill="#3F332B" d="M123.703,638.055c0,0-3.276,18.467-0.804,31.523h79.617c0,0,2.72-18.997-31.895-18.951l-22.207-16.503
					L123.703,638.055z"/>
				<path fill="#261E18" d="M122.807,677.259h26.208l0.324-5.242c0,0,11.023,4.83,26.124,4.83c7.34,0,26.566,0.228,26.566,0.228
					v-7.496h-79.222V677.259z"/>
				<path fill="#5E4F45" d="M172.856,650.732c0,0,1.169,13.486,28.643,12.846C201.499,663.579,197.715,651.301,172.856,650.732z"/>
				<path fill="#352B25" d="M148.614,669.579c0,0-0.771-22.158-26.1-22.291c0,0-1.346,15.379,0.631,22.291H148.614z"/>
			</g>
			<g>
				<path fill="#3F332B" d="M51.858,638.055c0,0-3.325,18.467-0.817,31.523h80.803c0,0,2.759-18.997-32.371-18.951l-22.537-16.503
					L51.858,638.055z"/>
				<path fill="#261E18" d="M50.507,677.259h27.04l0.33-5.242c0,0,11.145,4.83,26.471,4.83c7.449,0,26.919,0.228,26.919,0.228
					v-7.496h-80.76V677.259z"/>
				<path fill="#5E4F45" d="M101.742,650.732c0,0,1.187,13.486,29.07,12.846C130.812,663.579,126.972,651.301,101.742,650.732z"/>
				<path fill="#352B25" d="M77.14,669.579c0,0-0.783-22.158-26.489-22.291c0,0-1.366,15.379,0.642,22.291H77.14z"/>
			</g>
			<path fill="#360F22" d="M181.25,384.312c0,0-12.455,122.326-20.214,149.849c0,0-5.607,66.962-4.288,104.314
				c0,0-7.441,9.638-37.205,2.509c0,0-12.341-77.262,0-127.318l2.523-86.404c0,0-15.132,85.969-25.957,109.142
				c0,0-13.919,87.121-8.219,103.431c0,0-14.683,11.541-38.521,1.15c0,0-8.047-87.073,11.008-124.968l8.167-139.857L181.25,384.312z
				"/>
			<path fill="#21010E" d="M68.545,376.158l112.705,8.154c0,0-0.659,6.473-1.767,16.758c-15.614,3.634-62.733,13.548-113.202,13.848
				L68.545,376.158z"/>
			<path fill="#21010E" d="M160.804,537.026c-1.042,13.166-5.212,68.692-4.056,101.449c0,0-7.441,9.638-37.205,2.509
				c0,0-12.341-77.262,0-127.318l0.718-24.597C134.286,525.392,149.644,535.458,160.804,537.026z"/>
			<path fill="#21010E" d="M60.378,516.015l2.201-37.696c9.522,49.051,23.575,58.99,33.387,58.989
				c-1.45,9.249-13.435,87.189-8.076,102.526c0,0-14.683,11.541-38.521,1.15C49.37,640.983,41.323,553.911,60.378,516.015z"/>
			<path fill="#21010E" d="M122.066,427.261c0,0,14.266-7.337,19.982-13.861c5.717-6.524-21.299,58.984-21.299,58.984
				L122.066,427.261z"/>
			<path fill="#D4D6D5" d="M148.037,284.283c0,0-41.737-84.544-63.158-133.745c23.072-8.628,56.769-7.323,78.69,3.605
				C165.781,175.171,174.619,237.336,148.037,284.283z"/>
			<polygon fill="#111D36" points="150.478,170.497 142.975,183.725 161.29,264.661 148.87,280.725 133.498,265.525 
				134.763,184.326 128.242,173.875 137.523,160.401 			"/>
			<path fill="#F0F2F1" d="M149.939,140.483c0,0-1.703,15.181-12.416,19.918c0,0-23.004-9.863-28.551-22.092l-17.547,10.119
				c0,0,14.907,22.228,36.305,29.74l9.661-14.705l13.128,12.13c0,0,12.14-14.51,11.1-23.994L149.939,140.483z"/>
			<g>
				<path fill="#F4A984" d="M169.081,46.431c0,0-1.019,89.05-5.955,95.95c-4.936,6.903-12.609,13.286-34.538,13.286
					c-21.93,0-36.858-10.562-38.888-23.63c-2.031-13.069-1.606-27.506-1.606-27.506S73.99,106.363,73.172,90.26
					C72.356,74.157,83.631,70.347,89.7,78.368l0.776-35.676c0,0,5.02-19.638,41.772-21.541C169,19.249,168.89,40.722,169.081,46.431
					z"/>
				<path fill="#D65730" d="M168.988,52.749c0,0,6.126-45.138-2.191-52.749c0,0-3.465,15.741-19.527,15.468
					c-16.062-0.271-56.722-0.782-56.769,14.454c-0.047,15.237-0.232,22.948-0.232,22.948h10.129c0,0,23.956-14.093,62.423-0.947
					C164.954,52.652,166.596,52.323,168.988,52.749z"/>
				<path fill="#D65730" d="M166.835,105.947c0,0-74.025,10.679-74.794-25.201v-2.24l-2.64-0.138c0,0,5.433,24.733-1.457,28.541
					c0,0-12.602,54.068,42.591,54.082C176.002,161.003,167.326,128.86,166.835,105.947z"/>
				<path fill="#D88D6C" d="M100.397,52.87c0,0-7.215,13.701-7.759,26.069L89.7,79.019l0.568-26.149H100.397z"/>
				<path fill="#56362E" d="M148.18,85.166c0,2.721,2.027,4.926,4.531,4.926c2.502,0,4.53-2.205,4.53-4.926
					c0-2.72-2.028-4.925-4.53-4.925C150.207,80.241,148.18,82.446,148.18,85.166z"/>
				<path fill="#56362E" d="M113.353,85.166c0,2.721,2.029,4.926,4.531,4.926c2.502,0,4.531-2.205,4.531-4.926
					c0-2.72-2.029-4.925-4.531-4.925C115.382,80.241,113.353,82.446,113.353,85.166z"/>
				<g>
					<path fill="#D88D6C" d="M141.224,107.445c1.086,0,2.239-0.213,3.327-0.648c2.759-1.101,4.576-3.429,4.986-6.383
						c0.21-1.517-0.012-2.683-0.681-3.563c-1.018-1.343-2.755-1.579-4.286-1.789c-1.746-0.239-2.835-0.432-3.222-1.41
						c-1.172-2.967-0.853-11.98-0.631-15.201l-0.78,2.294c-0.086,1.243-2.454,9.791-0.867,13.806
						c0.931,2.356,3.279,2.678,5.166,2.935c1.112,0.152,2.262,0.309,2.667,0.842c0.251,0.332,0.321,0.92,0.205,1.751
						c-0.392,2.82-2.307,4.135-3.406,4.65c-1.568,0.735-2.166,1.198-4.582,0.926l-1.326-0.34
						C138.688,106.025,139.807,107.445,141.224,107.445z"/>
				</g>
				<path fill="#D65730" d="M127.156,76.61c0,0,0.784-6.525-0.667-7.637c-1.451-1.112-15.487,0.592-18.656,3.284
					c0,0-2.926,5.006-1.482,6.501C107.793,80.251,116.779,74.498,127.156,76.61z"/>
				<path fill="#D65730" d="M142.958,77.397c0,0-0.456-6.48,0.948-7.659c1.404-1.181,14.459-0.148,17.309,2.389
					c0,0,2.524,4.863,1.111,6.424C160.914,80.114,152.753,74.795,142.958,77.397z"/>
				<path fill="#BC4226" d="M87.458,111.472c8.015,49.209,60.054,40.559,76.111,36.657c-4.856,7.685-14.399,12.868-32.656,12.862
					C85.575,160.979,85.897,124.502,87.458,111.472z"/>
				<g>
					<g>
						<path fill="#E26649" d="M150.883,46.601c0.124,0,0.25-0.03,0.37-0.089c0.235-0.121,23.496-12.392,16.667-45.025
							c-0.093-0.44-0.527-0.72-0.966-0.631c-0.442,0.092-0.725,0.524-0.632,0.965c6.567,31.378-14.894,42.769-15.811,43.238
							c-0.402,0.205-0.559,0.696-0.355,1.097C150.3,46.438,150.585,46.601,150.883,46.601z"/>
					</g>
					<g>
						<path fill="#E26649" d="M135.004,44.867c0.203,0,0.407-0.075,0.564-0.226c0.425-0.404,10.374-10.026,8.629-19.001
							c-0.843-4.335-4.256-7.724-10.146-10.072c-0.422-0.167-0.895,0.037-1.062,0.455c-0.167,0.418,0.038,0.893,0.457,1.06
							c5.34,2.129,8.418,5.111,9.148,8.867c1.575,8.111-8.057,17.419-8.154,17.512c-0.326,0.311-0.338,0.828-0.026,1.153
							C134.574,44.783,134.789,44.867,135.004,44.867z"/>
					</g>
					<g>
						<path fill="#E26649" d="M118.975,45.19c0.434,0,0.796-0.504,0.815-0.942c0.013-0.295,0.252-7.359-5.339-12.286
							c-4.89-4.308-12.577-5.647-22.847-3.904c-0.445,0.076-0.744,0.477-0.667,0.921c0.075,0.444,0.497,0.734,0.941,0.657
							c9.759-1.657,16.991-0.493,21.491,3.472c5.013,4.417,4.791,11.008,4.789,11.073c-0.021,0.448,0.329,1.009,0.78,1.009
							C118.95,45.19,118.963,45.19,118.975,45.19z"/>
					</g>
					<g>
						<path fill="#E26649" d="M150.591,160.051c0.225,0,0.451-0.093,0.611-0.275c15.988-18.052,8.703-50.453,8.384-51.823
							c-0.102-0.44-0.538-0.713-0.979-0.611c-0.441,0.102-0.713,0.54-0.611,0.979c0.075,0.328,7.41,32.957-8.017,50.374
							c-0.298,0.338-0.267,0.854,0.071,1.152C150.204,159.983,150.398,160.051,150.591,160.051z"/>
					</g>
					<g>
						<path fill="#E26649" d="M94.049,150.538c0.124,0,0.25-0.028,0.367-0.088c10.825-5.453,6.586-51.188,6.4-53.132
							c-0.042-0.447-0.438-0.775-0.89-0.735c-0.449,0.043-0.778,0.442-0.735,0.89c1.236,12.935,2.655,47.407-5.51,51.52
							c-0.403,0.203-0.565,0.694-0.361,1.095C93.463,150.373,93.751,150.538,94.049,150.538z"/>
					</g>
					<g>
						<path fill="#E26649" d="M107.149,159.779c0.013,0,0.028,0,0.043-0.002c2.215-0.115,4.159-1.134,5.779-3.028
							c9.309-10.892,5.447-48.337,5.279-49.925c-0.048-0.449-0.46-0.765-0.899-0.725c-0.448,0.047-0.774,0.448-0.725,0.896
							c0.041,0.382,3.958,38.335-4.897,48.696c-1.335,1.561-2.847,2.366-4.622,2.458c-0.45,0.024-0.796,0.408-0.772,0.858
							C106.356,159.441,106.717,159.779,107.149,159.779z"/>
					</g>
					<g>
						<path fill="#E26649" d="M129.639,163.619c0.091,0,0.181-0.015,0.271-0.046c17.429-6.104,10.508-53.542,10.204-55.559
							c-0.067-0.446-0.487-0.757-0.929-0.686c-0.447,0.067-0.753,0.482-0.687,0.928c0.072,0.48,7.035,48.117-9.129,53.776
							c-0.426,0.149-0.649,0.614-0.5,1.039C128.986,163.408,129.302,163.619,129.639,163.619z"/>
					</g>
				</g>
				<g>
					<path fill="#56362E" d="M150.476,113.435c0,0-14.859,0.838-33.957-1.674c0,0,4.257,17.17,18.55,16.749
						C147.795,128.138,150.476,113.435,150.476,113.435z"/>
					<path fill="#FFFFFF" d="M149.939,114.263c0,0-14.606,1.533-32.609-1.608c0,0,2.977,5.842,17.994,6.101
						C148.666,118.987,149.939,114.263,149.939,114.263z"/>
				</g>
				<path fill="#D88D6C" d="M162.82,51.693c0,0,5.26,8.324,5.676,23.345l0.492-22.289L162.82,51.693z"/>
			</g>
			<path fill="#360F22" d="M34.936,165.492c0,0,33.752-11.648,55.864-17.16c12.863,48.964,57.38,129.357,57.38,129.357
				c20.104-52.666,15.714-104.354,13.503-125.382c10.755,3.502,30.481,11.803,41.846,17.897c0,0,6.267,80.399-15.745,218.399
				c0,0-50.268,21.398-126.862-5.376c0,0,7.855-104.372-11.552-156.737C49.37,226.491,32.907,177.452,34.936,165.492z"/>
			<path fill="#21010E" d="M179.616,201.373l10.346,14.135c0,0-18.513,47.298-41.38,79.918c0,0-52.813-59.531-65.88-78.559
				l10.888-12.776l-17.695-2.99l-2.512-47.952c6.059-1.796,12.077-3.486,17.417-4.817c12.863,48.964,57.38,129.357,57.38,129.357
				c20.104-52.666,15.714-104.354,13.503-125.382c4.679,1.524,11.056,3.956,17.704,6.719l10.575,39.355L179.616,201.373z"/>
			<path fill="#F4A984" d="M47.454,384.198c8.629,3.097,11.466,29.064,11.466,29.064s4.098,8.23,0.434,9.182
				c-5.081,1.322-7.976-2.493-7.976-2.493l-6.021-11.165c0,0-5.251,8.62-4.619,12.78s6.596,8.573,6.596,8.573
				s5.292,0.128,6.692,2.457c1.4,2.331,0.635,6.878,0.635,6.878s-11.287,3.764-14.834,2.694c-3.547-1.071-8.893,2.519-25.046-26.986
				c-3.757-6.862-6.414-16.411-8.279-27.022c7.824-4.938,20.453-10.325,19.868-9.836L47.454,384.198z"/>
			<path fill="#F0F2F1" d="M51.419,366.761c-0.237,10.252-0.816,17.005-0.816,17.005s-17.524,7.855-45.463,4.399
				c-0.868-4.931-1.579-10.069-2.164-15.28C27.196,368.276,39.416,367.324,51.419,366.761z"/>
			<path fill="#360F22" d="M2.12,373.92c-4.021-35.875-1.086-76.346-1.086-76.346s6.779-41.206,11.644-82.61
				c4.728-40.236,22.259-49.473,22.259-49.473c13.02,27.921,20.756,81.101,20.756,81.101L45.08,299.929
				c2.602,22.68,8.214,50.342,7.812,67.804C45.747,371.272,27.282,377.089,2.12,373.92z"/>
		</g>
		<linearGradient id="SVGID_4_" gradientUnits="userSpaceOnUse" x1="156.3695" y1="677.2589" x2="156.3695" y2="8.781393e-06">
			<stop  offset="0.4022" style="stop-color:#FBB336"/>
			<stop  offset="0.9155" style="stop-color:#FBB336;stop-opacity:0.1413"/>
			<stop  offset="1" style="stop-color:#FBB336;stop-opacity:0"/>
		</linearGradient>
		<path opacity="0.8" fill="url(#SVGID_4_)" d="M312.739,357.259l-13.501-20.932l2.347-1.427l-19.195-31.49l-3.149,1.914
			l-13.145-20.381l-2.698-1.877l-27.917,17.932c-5.61-8.645-9.609-14.735-9.609-14.735s-4.103-43.111-5.128-73.831
			c-1.026-30.721-17.215-42.227-17.215-42.227c-6.421-3.443-15.509-7.589-24.142-11.178v0c-0.86-0.358-1.716-0.709-2.564-1.055
			c-0.356-0.145-0.706-0.284-1.059-0.427c-0.526-0.212-1.051-0.424-1.57-0.631c-0.372-0.148-0.736-0.29-1.102-0.435
			c-0.496-0.195-0.989-0.389-1.476-0.577c-0.356-0.138-0.706-0.272-1.056-0.406c-0.485-0.186-0.963-0.368-1.436-0.546
			c-0.335-0.126-0.667-0.251-0.995-0.373c-0.476-0.177-0.939-0.347-1.399-0.514c-0.304-0.111-0.609-0.222-0.905-0.329
			c-0.488-0.175-0.956-0.34-1.423-0.503c-0.243-0.085-0.496-0.175-0.733-0.257c-0.689-0.237-1.356-0.462-1.987-0.667
			c0.034,0.326,0.071,0.681,0.106,1.022c-0.043-0.02-0.085-0.038-0.127-0.058c0.022-0.57,0.016-1.131-0.043-1.671l-0.405-0.386
			c0.881-0.976,1.671-2.003,2.355-3.086c-0.16,0.039-0.345,0.081-0.512,0.12c6.404-10.039,4.717-24.398,4-37.061
			c1.198-20.991,1.735-46.747,1.931-58.441c0.005-0.03,5.57-41.108-1.154-51.461c-0.028-0.053-0.057-0.102-0.095-0.147
			c-0.293-0.432-0.602-0.828-0.942-1.139c0,0-0.109,0.464-0.343,1.189c-0.082,0.118-0.124,0.257-0.135,0.404
			c-1.377,3.984-6.142,14.094-19.05,13.875c-16.061-0.271-56.722-0.782-56.769,14.454c-0.027,8.977-0.103,15.32-0.16,19.035
			L89.7,78.368c-6.068-8.021-17.343-4.211-16.527,11.892c0.818,16.103,14.921,14.271,14.921,14.271s-0.024,0.85-0.033,2.298
			c-0.04,0.024-0.075,0.057-0.117,0.08c0,0-5.493,23.627,6.726,39.648l-3.244,1.871c0,0,0.014,0.021,0.021,0.03
			c-0.19,0.052-0.382,0.102-0.57,0.155c-0.024-0.093-0.052-0.189-0.076-0.281c-1.295,0.323-2.632,0.668-3.997,1.03
			c-0.061,0.016-0.119,0.031-0.179,0.047c-1.352,0.358-2.734,0.735-4.137,1.124c-0.063,0.017-0.125,0.034-0.188,0.052
			c-1.405,0.39-2.831,0.794-4.268,1.208c-0.064,0.019-0.128,0.036-0.192,0.055c-1.443,0.416-2.896,0.841-4.352,1.272
			c-0.035,0.01-0.07,0.02-0.104,0.03v0c-19.029,5.642-38.447,12.342-38.447,12.342s-17.532,9.238-22.259,49.473
			c-4.864,41.404-11.643,82.61-11.643,82.61s-2.935,40.47,1.086,76.346c0.339,0.043,0.663,0.066,1,0.106
			c0.559,4.817,1.216,9.571,2.02,14.138c0.474,0.059,0.921,0.089,1.389,0.141c1.864,10.552,4.512,20.046,8.252,26.876
			c16.153,29.505,21.498,25.915,25.046,26.986c3.547,1.07,14.834-2.694,14.834-2.694s0.765-4.547-0.635-6.878
			c-1.401-2.329-6.693-2.457-6.693-2.457s-5.964-4.413-6.596-8.573c-0.631-4.16,4.62-12.78,4.62-12.78l6.021,11.165
			c0,0,2.895,3.814,7.976,2.493c3.663-0.952-0.434-9.182-0.434-9.182s-2.64-24.14-10.567-28.64c1.451-0.507,2.25-0.856,2.25-0.856
			s0.516-6.024,0.773-15.326c0.55-0.243,1.058-0.479,1.515-0.706c0.403-17.462-5.21-45.124-7.812-67.804l10.318-51.855
			c11.551,55.063,5.524,135.153,5.524,135.153c2.383,0.833,4.741,1.619,7.073,2.361l-5.416,92.731c0,0,0-0.001,0-0.001l-2.2,37.696
			c-19.056,37.896-11.009,124.968-11.009,124.968c0.649,0.283,1.287,0.542,1.922,0.793c-0.204,1.501-0.432,3.385-0.635,5.512
			c-0.002,0-0.003,0-0.005,0c0,0-0.011,0.131-0.026,0.318c-0.596,6.43-0.927,14.977,0.417,21.973h-0.535v7.68h27.04l0.33-5.242
			c0,0,11.145,4.83,26.472,4.83c4.209,0,12.255,0.073,18.459,0.136v0.276h26.207l0.325-5.242c0,0,11.023,4.83,26.124,4.83
			c7.339,0,26.566,0.228,26.566,0.228v-7.496h0.486c0,0,2.72-18.997-31.896-18.951l-14.982-11.134
			c0.781-0.598,1.11-1.019,1.11-1.019c-0.039-1.102-0.071-2.235-0.098-3.387c-0.009-0.384-0.014-0.78-0.023-1.169
			c-0.015-0.774-0.03-1.552-0.041-2.345c-0.007-0.484-0.011-0.977-0.015-1.467c-0.007-0.72-0.014-1.442-0.017-2.176
			c-0.002-0.531-0.004-1.066-0.004-1.603c-0.001-0.72,0-1.446,0.002-2.177c0.002-0.544,0.005-1.089,0.008-1.639
			c0.005-0.753,0.012-1.512,0.02-2.274c0.005-0.537,0.01-1.072,0.017-1.613c0.011-0.804,0.024-1.617,0.038-2.43
			c0.008-0.516,0.015-1.029,0.025-1.549c0.02-1.04,0.043-2.088,0.068-3.138c0.006-0.284,0.012-0.565,0.019-0.85
			c0.032-1.311,0.068-2.63,0.106-3.952c0.017-0.574,0.036-1.151,0.054-1.727c0.024-0.792,0.049-1.584,0.075-2.378
			c0.022-0.627,0.044-1.254,0.067-1.881c0.025-0.722,0.051-1.443,0.078-2.165c0.026-0.695,0.053-1.39,0.081-2.084
			c0.025-0.65,0.052-1.3,0.079-1.949c0.03-0.72,0.06-1.439,0.091-2.158c0.027-0.637,0.055-1.273,0.084-1.908
			c0.032-0.718,0.064-1.437,0.098-2.152c0.028-0.6,0.057-1.195,0.085-1.792c0.036-0.752,0.071-1.506,0.109-2.254
			c0.024-0.477,0.048-0.949,0.072-1.424c0.1-1.981,0.203-3.945,0.309-5.876c0.004-0.069,0.007-0.14,0.012-0.21
			c0.045-0.83,0.091-1.647,0.138-2.466c0.025-0.449,0.051-0.902,0.076-1.348c0.046-0.796,0.092-1.581,0.138-2.364
			c0.025-0.437,0.052-0.876,0.077-1.309c0.046-0.767,0.091-1.524,0.138-2.277c0.027-0.446,0.054-0.891,0.081-1.331
			c0.046-0.74,0.092-1.473,0.138-2.196c0.025-0.408,0.052-0.81,0.077-1.212c0.048-0.755,0.097-1.507,0.145-2.242
			c0.017-0.262,0.033-0.517,0.051-0.776c0.249-3.79,0.489-7.285,0.711-10.388c0.011-0.148,0.022-0.304,0.033-0.451
			c0.048-0.669,0.094-1.309,0.14-1.939c0.014-0.19,0.028-0.384,0.042-0.57c0.043-0.598,0.086-1.172,0.128-1.731
			c0.015-0.202,0.03-0.406,0.044-0.603c0.04-0.524,0.078-1.031,0.114-1.517c0.017-0.229,0.034-0.452,0.052-0.672
			c0.028-0.38,0.057-0.752,0.084-1.105c0.033-0.433,0.065-0.846,0.095-1.237c0.011-0.132,0.022-0.275,0.032-0.402
			c0.222-2.844,0.356-4.452,0.356-4.452c5.976-21.198,14.737-98.62,18.448-133.091l0,0c0.001-0.007,0.001-0.013,0.002-0.019
			c0.426-3.957,0.786-7.356,1.068-10.03c0.628-0.18,1.211-0.353,1.76-0.521l23.083,35.789l39.705-25.533l0.992,1.608
			c1.731,2.81,5.236,3.644,7.825,1.859l0.268-0.185c2.059-1.419,2.913-4.063,2.309-6.502l0.458,0.741
			c2.269,3.681,6.442,5.055,9.321,3.069l0.298-0.206c2.295-1.582,3.07-4.822,2.142-7.936c2.328,1.884,5.196,2.34,7.31,0.882
			l0.298-0.206c2.832-1.953,3.245-6.601,0.967-10.465c2.011,1.314,4.602,1.397,6.669-0.03l0.299-0.205
			c2.756-1.9,3.552-5.771,1.925-8.842L312.739,357.259z M196.407,326.095c0.051-0.434,0.1-0.868,0.15-1.3
			c0.123,0.322,0.246,0.644,0.37,0.966L196.407,326.095z M119.543,513.665c-12.341,50.056,0,127.318,0,127.318
			c1.243,0.298,2.433,0.556,3.6,0.797c-0.201,1.5-0.426,3.382-0.625,5.507c-0.002,0-0.003,0-0.005,0c0,0-0.01,0.126-0.024,0.307
			c-0.201,2.189-0.369,4.622-0.454,7.158c-4.818-2.412-11.954-4.139-22.562-4.125l-13.254-9.706
			c1.095-0.639,1.671-1.088,1.671-1.088c-0.159-0.456-0.301-0.976-0.431-1.539c-0.01-0.041-0.02-0.078-0.03-0.119
			c-0.121-0.545-0.227-1.145-0.323-1.782c-0.012-0.078-0.024-0.151-0.036-0.23c-0.09-0.63-0.166-1.306-0.233-2.016
			c-0.01-0.106-0.021-0.209-0.03-0.316c-0.063-0.712-0.114-1.463-0.156-2.247c-0.006-0.125-0.014-0.251-0.019-0.378
			c-0.038-0.791-0.067-1.615-0.085-2.471c-0.003-0.138-0.005-0.279-0.007-0.418c-0.015-0.872-0.022-1.772-0.018-2.703
			c0-0.131,0.002-0.266,0.003-0.399c0.006-0.96,0.02-1.945,0.044-2.961c0.003-0.106,0.006-0.215,0.009-0.322
			c0.027-1.061,0.062-2.146,0.108-3.261c0.002-0.034,0.004-0.07,0.005-0.104c0.047-1.132,0.103-2.291,0.166-3.472
			c0.004-0.064,0.007-0.127,0.01-0.191c0.063-1.147,0.135-2.318,0.213-3.504c0.009-0.144,0.018-0.287,0.028-0.432
			c0.076-1.146,0.16-2.311,0.249-3.487c0.014-0.184,0.027-0.368,0.042-0.553c0.09-1.162,0.185-2.337,0.285-3.522
			c0.016-0.2,0.033-0.399,0.051-0.6c0.101-1.184,0.207-2.377,0.318-3.578c0.019-0.205,0.038-0.411,0.057-0.616
			c0.112-1.201,0.228-2.408,0.348-3.62c0.021-0.206,0.042-0.412,0.062-0.618c0.122-1.218,0.247-2.44,0.376-3.663
			c0.019-0.186,0.039-0.372,0.059-0.558c0.133-1.253,0.269-2.506,0.408-3.758c0.014-0.131,0.029-0.261,0.043-0.392
			c0.141-1.266,0.285-2.529,0.431-3.787c0.007-0.065,0.015-0.131,0.023-0.196c0.147-1.259,0.295-2.511,0.444-3.756
			c0.022-0.181,0.043-0.364,0.065-0.545c0.144-1.186,0.288-2.362,0.433-3.529c0.027-0.22,0.054-0.441,0.081-0.66
			c0.141-1.127,0.282-2.242,0.423-3.346c0.033-0.258,0.066-0.516,0.1-0.772c0.137-1.066,0.274-2.118,0.41-3.156
			c0.036-0.27,0.071-0.54,0.107-0.808c0.137-1.033,0.272-2.053,0.407-3.053c0.033-0.239,0.064-0.476,0.097-0.713
			c0.137-1.011,0.272-2.006,0.406-2.977c0.029-0.211,0.058-0.417,0.086-0.626c0.136-0.98,0.27-1.944,0.401-2.877
			c0.023-0.162,0.045-0.318,0.068-0.478c0.125-0.887,0.248-1.753,0.367-2.592c0.03-0.211,0.06-0.418,0.09-0.626
			c0.108-0.752,0.214-1.48,0.316-2.188c0.031-0.212,0.062-0.43,0.092-0.638c0.1-0.679,0.194-1.323,0.287-1.956
			c0.045-0.305,0.09-0.612,0.134-0.906c0.084-0.573,0.166-1.122,0.245-1.65c0.038-0.254,0.076-0.509,0.112-0.752
			c0.075-0.5,0.147-0.974,0.214-1.426c0.04-0.26,0.079-0.516,0.116-0.76c0.06-0.396,0.118-0.776,0.172-1.128
			c0.035-0.231,0.069-0.449,0.101-0.66c0.04-0.26,0.078-0.506,0.113-0.734c0.23-1.484,0.361-2.305,0.361-2.305
			c10.825-23.172,25.957-109.141,25.957-109.141L119.543,513.665z"/>
	</g>
</g>
</svg>
