<svg width="481" height="364" viewBox="0 0 481 364" fill="none" xmlns="http://www.w3.org/2000/svg">
<g clip-path="url(#clip0)">
<path d="M272.391 44.988C266.028 12.464 211.239 7.509 211.239 7.509C183.268 -11.462 192.971 11.495 192.971 11.495C145.565 -8.18 166.369 36.385 166.369 36.385C148.53 34.859 165.833 52.645 165.833 52.645C160.829 71.341 169.427 87.432 169.427 87.432L257.929 109.04L277.75 113.98C282.616 98.185 284.74 85.986 285.184 76.564C286.531 47.966 272.391 44.988 272.391 44.988Z" fill="#261E18"/>
<path d="M258.018 55.061C258.018 55.061 216.172 72.429 206.384 70.866C196.594 69.304 165.833 52.645 165.833 52.645C160.829 71.341 169.427 87.432 169.427 87.432L257.929 109.04L277.75 113.98C282.616 98.185 284.74 85.986 285.184 76.564C267.093 71.49 258.018 55.061 258.018 55.061Z" fill="#131917"/>
<path d="M258.265 196.061C237.303 191.499 211.597 188.819 185.002 192.998C185.169 210.326 185.673 285.153 202.747 344.629C202.747 344.629 250.671 235.96 258.265 196.061Z" fill="#D4D6D5"/>
<path d="M200.747 217.014L210.27 233.797L187.028 336.496L202.787 356.877L219.113 342.081L220.689 234.56L228.964 221.299L217.187 204.203L200.747 217.014Z" fill="#C94949"/>
<path d="M201.704 180.723L201 206.322L243.472 207.487L244.389 174.184C226.542 182.266 208.938 181.592 201.704 180.723Z" fill="#F4A984"/>
<path d="M244.39 174.184L245.095 148.529L202.623 147.363L201.704 180.723C208.938 181.592 226.542 182.266 244.39 174.184Z" fill="#D88D6C"/>
<path d="M271.059 95.74L262.545 107.19C261.313 103.796 260.349 100.269 259.595 96.723C255.23 76.208 258.017 55.061 258.017 55.061C210.529 70.762 171.363 55.711 171.363 55.711C172.427 78.888 160.092 130.272 176.48 157.25C181.362 165.288 188.788 171.165 199.886 173.477C248.232 183.548 264.402 132.491 264.402 132.491C264.402 132.491 280.765 132.208 285.011 109.886C288.534 91.394 271.059 95.74 271.059 95.74Z" fill="#F4A984"/>
<path d="M199.172 106.415C198.682 111.398 195.757 115.193 192.641 114.884C189.525 114.578 187.398 110.29 187.89 105.304C188.381 100.32 191.306 96.529 194.421 96.835C197.539 97.142 199.666 101.43 199.172 106.415Z" fill="#131917"/>
<path d="M242.083 109.425C241.593 114.408 238.667 118.203 235.551 117.895C232.435 117.586 230.306 113.297 230.801 108.314C231.294 103.33 234.218 99.538 237.332 99.843C240.448 100.151 242.577 104.442 242.083 109.425Z" fill="#131917"/>
<path d="M206.6 133.076C196.74 135.591 192.295 130.518 192.514 126.052C192.657 123.142 194.636 120.808 197.549 120.099C203.546 118.644 208.742 110.438 208.795 110.353C208.549 112.367 205.496 119.654 197.701 122.879C196.017 123.577 194.914 124.403 194.842 125.841C194.717 128.346 197.801 132.525 206.6 133.076Z" fill="#D88D6C"/>
<path d="M177.67 85.67L177.402 82.816C178.02 82.799 187.88 80.645 199.243 82.178L199.12 86.625C189.84 84.774 177.824 85.666 177.67 85.67Z" fill="#131917"/>
<path d="M246.761 90.631C239.284 87.297 225.175 86.035 225.044 86L226.178 81.996C226.729 82.137 239.526 83.227 247.842 88.215L246.761 90.631Z" fill="#131917"/>
<path d="M171.921 6.537C171.921 6.537 191.232 27.494 238.683 29.834C238.683 29.834 206.603 49.858 165.112 33.35C165.112 33.349 154.255 7.682 171.921 6.537Z" fill="#3F362D"/>
<path d="M307.821 212.596C307.821 212.596 283.62 199.404 254.158 192.992C246.562 232.889 202.747 344.628 202.747 344.628C185.673 285.152 189.234 208.787 189.064 191.461C175.655 193.568 159.065 195.873 145.699 202.108C145.699 202.108 127.696 282.847 135.623 466.69C135.623 466.69 195.466 488.175 291.513 469.884C291.513 469.884 282.478 341.128 294.955 290.78C294.955 290.781 303.874 244.242 307.821 212.596Z" fill="#162644"/>
<path d="M294.955 290.781C294.955 290.781 298.934 270.014 302.755 246.792L286.294 251.408C281.671 278.422 263.994 318.275 263.994 318.275C253.529 330.036 231.814 322.505 212 320.518C206.504 335.052 202.748 344.628 202.748 344.628C200.311 336.136 198.296 327.299 196.627 318.341C181.722 315.67 166.193 312.237 162.061 311.068C151.421 308.057 149.824 262.132 149.824 262.132L140.423 235.409C137.485 263.897 134.29 313.923 135.576 391.251C148.643 393.43 175.324 396.075 200.684 387.534C200.684 387.534 239.126 400.858 253.404 402.23C264.106 403.256 278.828 411.356 288.192 426.015C287.039 386.592 286.782 323.762 294.955 290.781Z" fill="#111D36"/>
<path d="M145.699 202.109C145.699 202.109 124.915 195.486 109.37 271.54C98.191 326.235 100.519 361.936 107.209 364.15C113.9 366.366 156.312 384.559 229.752 349.189L221.039 336.938L149.242 327.299L149.863 257.876L145.699 202.109Z" fill="#162644"/>
<path d="M201.63 183.395C201.63 183.395 203.594 198.19 217.186 204.204C217.186 204.204 242.491 199.882 244.274 183.363L257.04 195.802C257.04 195.802 249.22 219.448 229.611 226.75L217.354 208.09L200.694 223.481C200.694 223.481 185.291 205.07 186.61 193.038L201.63 183.395Z" fill="#F0F2F1"/>
<path d="M175.988 247.912L168.573 254.637C168.573 254.637 188.396 332.496 202.643 360.721C202.643 360.721 243.766 291.94 256.713 261.885L250.525 252.078L264.099 247.912C264.099 247.912 269.539 219.463 268.017 196.569C263.587 195.256 258.944 194.033 254.158 192.992C246.562 232.889 202.747 344.628 202.747 344.628C185.673 285.152 189.234 208.787 189.064 191.461C185.126 192.08 180.811 192.988 176.35 194.11L166.867 239.071L175.988 247.912Z" fill="#111D36"/>
<path d="M221.038 336.938L149.241 327.299C149.241 327.299 177.756 350.796 180.388 367.554C194.124 364.201 210.463 358.479 229.751 349.189L221.038 336.938Z" fill="#111D36"/>
<path d="M193.646 323.283C155.564 304.866 149.241 327.299 149.241 327.299C160.876 335.459 171.842 342.412 182.128 348.346C189.212 335.512 193.646 323.283 193.646 323.283Z" fill="#F4A984"/>
<path d="M205.337 323.009L194.96 321.423C194.96 321.423 182.102 330.143 182.128 348.345C185.729 350.422 189.242 352.367 192.672 354.2C197.335 339.068 202.298 330.015 205.337 323.009Z" fill="#E5EAE8"/>
<path d="M307.821 212.596C287.856 208.332 269.846 332.882 269.846 332.882L205.691 321.676C200.478 327.011 190.092 341.773 191.047 356.601C254.682 390.585 290.796 381.477 290.796 381.477C290.796 381.477 314.703 384.792 321.606 303.772C328.511 222.75 307.821 212.596 307.821 212.596Z" fill="#162644"/>
<path d="M244.39 328.435C244.39 328.435 268.541 312.616 273.305 311.569C278.052 310.526 295.643 304.393 295.643 304.393C295.643 304.393 297.715 306.979 294.867 309.825C292.017 312.67 281.306 315.257 281.306 315.257C281.306 315.257 293.83 316.81 298.752 319.655C298.752 319.655 300.912 324.656 295.211 325C295.211 325 301.602 329.138 293.83 330.711C293.83 330.711 286.144 328.9 283.206 329.485L293.054 336.815C293.054 336.815 293.572 339.057 289.255 338.883C284.935 338.712 278.716 330.003 269.847 332.881L244.39 328.435Z" fill="#F4A984"/>
<path d="M195.473 140.48C195.473 140.48 207.652 143.654 226.694 138.94C226.694 138.94 222.779 154.724 209.638 154.339C197.936 153.998 195.473 140.48 195.473 140.48Z" fill="#56362E"/>
<path d="M195.858 139.919C195.858 139.919 208.536 143.581 225.836 138.442C225.836 138.442 223.207 145.085 209.401 145.322C197.133 145.534 195.858 139.919 195.858 139.919Z" fill="white"/>
<path d="M256.057 293.6C266.085 293.6 274.215 285.47 274.215 275.442C274.215 265.414 266.085 257.284 256.057 257.284C246.029 257.284 237.899 265.414 237.899 275.442C237.899 285.47 246.029 293.6 256.057 293.6Z" fill="white"/>
<path d="M258.776 260.817L246.69 261.5L243.454 277.778C242.41 283.031 251.694 290.436 252.842 290.664C253.99 290.892 265.401 287.602 266.445 282.349L269.681 266.071L258.776 260.817Z" fill="#112F55"/>
<path d="M258.593 261.738L247.257 262.359L244.217 277.651C243.237 282.58 251.948 289.528 253.026 289.742C254.103 289.956 264.81 286.869 265.79 281.94L268.83 266.648L258.593 261.738Z" fill="#112F55"/>
<path d="M255.855 275.508L245.372 276.005L245.073 277.51C244.165 282.075 252.233 288.509 253.231 288.708C254.229 288.906 264.144 286.047 265.052 281.482L265.351 279.977L255.855 275.508Z" fill="#FBB336"/>
<path d="M258.478 262.318L247.979 262.893L246.072 272.485C245.164 277.05 254.834 275.438 255.842 275.574C257.552 275.804 265.143 281.022 266.051 276.457L267.958 266.865L258.478 262.318Z" fill="#FBB336"/>
<path d="M263.14 271.105L262.883 271.742L261.735 272.342L260.435 269.456L258.936 265.976L258.246 264.623L256.499 266.831L254.464 269.19L253.464 267.453C250.216 270.12 247.562 272.189 246.613 272.859C246.935 272.843 247.289 272.814 247.589 272.876C247.813 272.922 248.054 272.883 248.28 272.922C248.251 272.916 248.384 272.932 248.392 272.933C248.432 272.936 248.473 272.938 248.513 272.941C248.614 272.947 248.715 272.954 248.815 272.96C249.017 272.973 249.218 272.986 249.42 272.999C250.832 273.089 252.234 273.224 253.631 273.453C254.989 273.676 256.333 273.966 257.678 274.251C258.614 274.449 259.542 274.703 260.447 275.02C260.539 274.984 260.641 274.973 260.737 274.992C260.857 275.016 260.953 275.081 261.021 275.169C261.079 275.16 261.138 275.161 261.195 275.173C261.817 275.301 262.403 275.559 262.972 275.837C263.039 275.823 263.107 275.822 263.174 275.837C263.496 275.906 263.802 276.046 264.106 276.17C264.18 276.2 264.255 276.23 264.329 276.258C264.332 276.259 264.336 276.26 264.34 276.262C264.381 276.275 264.421 276.289 264.463 276.3C264.527 276.318 264.592 276.329 264.657 276.344C264.681 276.341 264.71 276.344 264.733 276.342C264.892 276.331 265.032 276.398 265.129 276.506C265.211 276.517 265.292 276.529 265.373 276.544C264.119 274.788 263.14 271.105 263.14 271.105Z" fill="white"/>
<path d="M246.766 272.825C248.636 271.839 249.853 270.743 249.892 270.751C249.935 270.759 249.646 271.696 249.646 271.696L250.17 271.265L249.467 273C249.556 273.006 249.645 273.012 249.733 273.018C249.824 272.905 249.921 272.777 250.014 272.635C250.379 272.084 251.045 271.521 251.088 271.511C251.131 271.502 251.441 272.269 251.441 272.269L251.849 271.709C251.849 271.709 251.864 272.899 251.879 272.973C251.894 273.047 252.438 271.928 252.438 271.928L252.598 273.252C252.853 271.937 253.632 271.27 253.632 271.27L254.124 271.7L254.084 270.771L254.448 271.283L254.299 271.945L253.387 273.41C253.468 273.423 253.55 273.436 253.631 273.449C253.661 273.454 253.691 273.459 253.721 273.464L254.322 272.657L254.775 273.364L256.135 272.295L256.202 273.105L255.929 273.88C256.015 273.898 256.1 273.915 256.186 273.933L256.542 272.816L256.938 272.431L256.97 273.801L258.478 271.927L258.812 273.443L258.931 271.499C258.931 271.499 259.508 271.839 259.77 272.191C260.032 272.543 260.779 273.872 260.779 273.872L260.517 272.369L258.9 270.094L258.683 271.027L258.045 271.543L258.119 270.636L257.548 270.722L257.801 269.176L257.232 269.44L256.859 268.217L257.746 266.159L258.087 265.523L258.583 266.876L260.163 269.546L261.361 272.446C260.973 273.488 261.397 275.142 261.397 275.142C261.776 274.577 261.753 273.899 261.753 273.899C261.899 274.14 262.105 274.551 262.105 274.551C262.089 274.424 262.214 274.093 262.214 274.093L263.014 275.114L263.803 275.282L263.205 274.37L263.681 274.691C263.315 274.054 262.901 273.218 262.901 273.218L262.872 272.176L263.201 271.858C263.906 274.5 264.921 275.987 265.353 276.534C265.37 276.537 265.387 276.54 265.404 276.543C264.161 274.575 263.216 270.743 263.216 270.743C263.216 270.743 262.705 271.431 262.707 271.538C262.708 271.645 261.733 272.066 261.733 272.066C261.733 272.066 260.84 269.86 260.427 269.103C260.013 268.346 259.042 265.856 259.042 265.856L258.206 264.062L255.645 267.297L255.249 267.936L254.394 268.737L253.422 267.159C251.38 269.056 247.376 271.97 246.251 272.82C246.307 272.82 246.707 272.824 246.766 272.825Z" fill="#112F55"/>
<path d="M253.344 267.712L254.177 269.05L253.753 269.486L253.619 269.035C253.619 269.035 253.35 270.401 252.657 271.066L252.724 269.537L251.927 269.863L252.203 268.791L253.344 267.712Z" fill="white"/>
<path d="M267.183 285.659C258.979 281.817 250.556 280.143 241.506 280.554C241.394 277.968 241.281 275.381 241.169 272.795C251.463 272.3 261.141 274.224 270.463 278.619C269.369 280.965 268.276 283.312 267.183 285.659Z" fill="#112F55"/>
<path d="M242.196 273.577L242.395 279.804C246.696 279.698 250.753 280.037 254.795 280.841C258.837 281.645 262.715 282.883 266.649 284.626L269.215 278.949C264.909 277.026 260.468 275.602 256.013 274.716C251.558 273.83 246.909 273.447 242.196 273.577Z" fill="#112F55"/>
<path d="M244.817 279.215L244.963 274.034L247.256 274.095L247.23 275.035L245.901 274.998L245.869 276.146L246.962 276.177L246.936 277.117L245.842 277.086L245.808 278.306L247.136 278.343L247.11 279.28L244.817 279.215Z" fill="white"/>
<path d="M250.732 274.374L249.445 279.471L248.175 279.36L247.789 274.116L248.76 274.201L248.918 278.177L249.764 274.289L250.732 274.374Z" fill="white"/>
<path d="M250.62 279.594L251.348 274.462L253.619 274.78L253.487 275.711L252.171 275.525L252.01 276.662L253.093 276.816L252.961 277.747L251.878 277.593L251.707 278.801L253.023 278.988L252.891 279.916L250.62 279.594Z" fill="white"/>
<path d="M253.453 280.009L254.456 274.924L255.753 275.18C255.967 275.222 256.149 275.284 256.3 275.364C256.451 275.445 256.569 275.549 256.655 275.676C256.741 275.803 256.795 275.954 256.816 276.13C256.837 276.306 256.825 276.509 256.779 276.741L256.666 277.316C256.625 277.521 256.545 277.696 256.425 277.84C256.305 277.984 256.164 278.099 256.001 278.185C256.055 278.242 256.099 278.299 256.134 278.357C256.169 278.415 256.193 278.48 256.208 278.554C256.222 278.627 256.229 278.713 256.227 278.811C256.225 278.909 256.216 279.028 256.2 279.169L256.11 279.87C256.092 280.02 256.094 280.149 256.117 280.259C256.139 280.369 256.162 280.465 256.185 280.549L255.205 280.356C255.201 280.343 255.194 280.316 255.185 280.274C255.176 280.232 255.168 280.181 255.161 280.123C255.154 280.065 255.149 280 255.146 279.927C255.143 279.855 255.146 279.782 255.156 279.71L255.24 279.004C255.257 278.882 255.26 278.78 255.25 278.698C255.24 278.616 255.219 278.549 255.189 278.497C255.159 278.445 255.122 278.406 255.078 278.38C255.034 278.354 254.989 278.338 254.942 278.331L254.778 278.299L254.403 280.198L253.453 280.009ZM255.832 276.543C255.858 276.409 255.851 276.308 255.81 276.238C255.769 276.169 255.687 276.122 255.562 276.097L255.224 276.031L254.959 277.375L255.297 277.442C255.422 277.467 255.518 277.447 255.585 277.384C255.652 277.321 255.696 277.236 255.717 277.129L255.832 276.543Z" fill="white"/>
<path d="M256.592 280.651L257.869 275.628L260.093 276.19L259.861 277.101L258.573 276.774L258.29 277.887L259.35 278.156L259.118 279.068L258.058 278.798L257.758 279.981L259.046 280.308L258.815 281.216L256.592 280.651Z" fill="white"/>
<path d="M262.115 280.919C261.986 281.333 261.788 281.617 261.522 281.769C261.255 281.922 260.905 281.93 260.472 281.795C260.238 281.722 260.05 281.633 259.907 281.528C259.765 281.423 259.662 281.301 259.598 281.162C259.534 281.023 259.506 280.866 259.513 280.691C259.52 280.516 259.557 280.322 259.623 280.109L259.746 279.715L260.664 280.001L260.543 280.388C260.523 280.453 260.509 280.513 260.503 280.567C260.497 280.621 260.501 280.669 260.516 280.71C260.53 280.751 260.556 280.787 260.593 280.818C260.63 280.848 260.68 280.874 260.743 280.893C260.873 280.934 260.972 280.926 261.041 280.87C261.11 280.814 261.161 280.731 261.196 280.62L261.207 280.584C261.233 280.502 261.253 280.427 261.268 280.36C261.283 280.293 261.289 280.229 261.287 280.168C261.285 280.107 261.271 280.047 261.247 279.988C261.222 279.929 261.184 279.867 261.131 279.8L260.767 279.34C260.628 279.168 260.523 279.015 260.454 278.88C260.384 278.745 260.339 278.615 260.32 278.49C260.301 278.365 260.303 278.238 260.326 278.11C260.349 277.982 260.386 277.836 260.437 277.673L260.468 277.572C260.538 277.349 260.624 277.166 260.728 277.025C260.832 276.884 260.951 276.779 261.087 276.71C261.223 276.642 261.374 276.609 261.541 276.611C261.708 276.613 261.891 276.645 262.091 276.707C262.501 276.835 262.773 277.029 262.907 277.29C263.041 277.551 263.04 277.9 262.903 278.338L262.769 278.767L261.848 278.48L261.988 278.031C262.019 277.924 262.023 277.834 262.001 277.76C261.979 277.686 261.912 277.632 261.802 277.598C261.689 277.563 261.6 277.571 261.534 277.623C261.468 277.675 261.418 277.758 261.385 277.871L261.357 277.962C261.327 278.067 261.317 278.178 261.328 278.296C261.339 278.413 261.385 278.52 261.468 278.614L261.796 278.98C261.931 279.134 262.036 279.281 262.11 279.421C262.184 279.561 262.234 279.7 262.26 279.839C262.286 279.978 262.29 280.119 262.273 280.262C262.256 280.405 262.224 280.557 262.18 280.717L262.115 280.919Z" fill="white"/>
<path d="M265.078 278.814L263.605 282.797L262.694 282.46L264.167 278.477L263.406 278.196L263.731 277.317L266.161 278.215L265.836 279.094L265.078 278.814Z" fill="white"/>
</g>
<defs>
<clipPath id="clip0">
<rect width="309" height="364" fill="white" transform="translate(56)"/>
</clipPath>
</defs>
</svg>
