<?xml version="1.0" encoding="utf-8"?>
<!-- Generator: Adobe Illustrator 25.2.3, SVG Export Plug-In . SVG Version: 6.00 Build 0)  -->
<svg version="1.1" xmlns="http://www.w3.org/2000/svg" xmlns:xlink="http://www.w3.org/1999/xlink" x="0px" y="0px"
	 viewBox="0 0 308.815 886.7" enable-background="new 0 0 308.815 886.7" xml:space="preserve">
<g id="Capa_1" display="none">
	<rect x="-1491.393" y="54.604" display="inline" fill="#FBB336" width="3999.5" height="1284.041"/>
	<g display="inline">
		<g>
			<rect x="-251.897" y="74.414" fill="#FFFFFF" width="865.954" height="718.113"/>
			<g>
				<g>
					<rect x="142.799" y="74.414" fill="#CFC9CD" width="6.011" height="718.234"/>
				</g>
				<g>
					<rect x="-251.897" y="458.354" fill="#CFC9CD" width="865.954" height="6.011"/>
				</g>
				<g>
					<rect x="-251.897" y="182.762" fill="#CFC9CD" width="865.875" height="6.011"/>
				</g>
			</g>
		</g>
		<g>
			<linearGradient id="SVGID_1_" gradientUnits="userSpaceOnUse" x1="379.855" y1="629.692" x2="379.855" y2="1497.9303">
				<stop  offset="0.0053" style="stop-color:#AB9591"/>
				<stop  offset="0.6844" style="stop-color:#514E4E"/>
				<stop  offset="1" style="stop-color:#6582A3"/>
			</linearGradient>
			<rect x="-1880.098" y="624.987" fill="url(#SVGID_1_)" width="4519.905" height="868.238"/>
			<rect x="-1880.098" y="731.081" opacity="0.08" fill="#FFFFFF" width="4519.905" height="221.543"/>
			<rect x="-1880.098" y="624.834" opacity="0.24" fill="#FFFFFF" width="4519.905" height="106.248"/>
			<linearGradient id="SVGID_2_" gradientUnits="userSpaceOnUse" x1="209.2697" y1="697.6235" x2="209.2697" y2="1214.2264">
				<stop  offset="0" style="stop-color:#FFFFFF"/>
				<stop  offset="1" style="stop-color:#000000"/>
			</linearGradient>
			<rect x="14.191" y="731.081" opacity="0.1" fill="url(#SVGID_2_)" width="390.158" height="540.601"/>
			<polygon opacity="0.1" fill="#231F20" points="-1565.892,626.491 -1565.892,1493.225 -437.286,1493.225 430.991,624.949 			"/>
		</g>
		<rect x="-466.452" y="-79.028" fill="none" width="908.915" height="908.915"/>
	</g>
	<linearGradient id="SVGID_3_" gradientUnits="userSpaceOnUse" x1="484.9954" y1="396.0707" x2="484.9954" y2="56.6255">
		<stop  offset="0" style="stop-color:#FBB336;stop-opacity:0"/>
		<stop  offset="0.1413" style="stop-color:#FBB336;stop-opacity:0.1413"/>
		<stop  offset="1" style="stop-color:#FBB336"/>
	</linearGradient>
	<rect x="-1572.514" y="56.626" display="inline" fill="url(#SVGID_3_)" width="4115.019" height="339.445"/>
	<rect x="-1572.514" y="56.626" display="inline" opacity="0.8" fill="#FBB336" width="4115.019" height="1895.936"/>
	<rect x="-1491.917" y="56.626" display="inline" fill="none" width="4000.023" height="1921.101"/>
</g>
<g id="Capa_2">
	<path fill="#261E18" d="M216.391,44.988c-6.363-32.524-61.152-37.479-61.152-37.479c-27.971-18.971-18.268,3.986-18.268,3.986
		C89.565-8.18,110.369,36.385,110.369,36.385c-17.839-1.526-0.536,16.26-0.536,16.26c-5.004,18.696,3.594,34.787,3.594,34.787
		l88.502,21.608l19.821,4.94c4.866-15.795,6.99-27.994,7.434-37.416C230.531,47.966,216.391,44.988,216.391,44.988z"/>
	<path fill="#131917" d="M202.018,55.061c0,0-41.846,17.368-51.634,15.805c-9.79-1.562-40.551-18.221-40.551-18.221
		c-5.004,18.696,3.594,34.787,3.594,34.787l88.502,21.608l19.821,4.94c4.866-15.795,6.99-27.994,7.434-37.416
		C211.093,71.49,202.018,55.061,202.018,55.061z"/>
	<path opacity="0.1" fill="#3C3C3B" d="M308.815,869.11c0,9.714-69.13,17.59-154.407,17.59S0,878.824,0,869.11
		c0-9.717,69.132-17.591,154.408-17.591S308.815,859.393,308.815,869.11z"/>
	<g>
		<path fill="#3F332B" d="M198.97,862.113h59.067c0,0,3.471-15.914-8.857-36.607l-39.799,0.611
			C209.382,826.117,197.933,842.452,198.97,862.113z"/>
		<rect x="200.004" y="862.113" fill="#261E18" width="59.068" height="9.313"/>
		<path fill="#5E4F45" d="M250.783,845.247c0,4.033-9.975,7.307-22.279,7.307c-12.306,0-22.281-3.273-22.281-7.307
			c0-4.037,9.975-7.307,22.281-7.307C240.808,837.94,250.783,841.21,250.783,845.247z"/>
	</g>
	<g>
		<path fill="#3F332B" d="M140.158,821.891c0,0,4.577,23.666,1.124,40.222H30.052c0,0-3.799-24.325,44.561-24.269l31.024-20.939
			L140.158,821.891z"/>
		<path fill="#261E18" d="M141.971,871.426h-37.176l-0.453-6.655c0,0-15.221,6.126-36.317,6.126
			c-10.256,0-36.937,0.281-36.937,0.281v-9.065h110.883V871.426z"/>
		<path fill="#5E4F45" d="M71.491,837.754c0,0-1.635,17.113-40.017,16.3C31.474,854.054,36.761,838.477,71.491,837.754z"/>
		<path fill="#352B25" d="M105.357,862.113c0,0,1.076-28.114,36.462-28.286c0,0,1.88,18.974-0.881,28.286H105.357z"/>
	</g>
	<path fill="#1A2D52" d="M84.977,439.935l-2.073,385.571c0,0,30.225,15.051,58.723,3.214l10.889-321.161l8.414-0.423l41.148,321.531
		c0,0,21.762,9.973,53.887-1.855l-32.608-386.876H84.977z"/>
	<path fill="#111D36" d="M83.7,677.114l-0.796,148.268c0,0,30.225,15.112,58.723,3.277l6.727-198.356
		C132.401,693.658,97.741,684.072,83.7,677.114z"/>
	<path fill="#111D36" d="M241.383,653.637c-21.347,57.8-49.582,20.71-61.699,0.036l22.393,174.985c0,0,21.762,9.85,53.887-1.975
		L241.383,653.637z"/>
	<path fill="#111D36" d="M223.356,439.935H86.01v53.448c11.399,4.974,33.677,12.967,66.789,18.781l-0.024-4.636l8.285-0.41
		l0.867,6.616c19.284,2.942,41.764,5.206,67.524,5.678L223.356,439.935z"/>
	<path fill="#D4D6D5" d="M202.265,196.061c-20.962-4.562-46.668-7.242-73.263-3.063c0.167,17.328,0.671,92.155,17.745,151.631
		C146.747,344.629,194.671,235.96,202.265,196.061z"/>
	<polygon fill="#C94949" points="144.747,217.014 154.27,233.797 131.028,336.496 146.787,356.877 163.113,342.081 164.689,234.56 
		172.964,221.299 161.187,204.203 	"/>
	<g>
		<path fill="#F4A984" d="M145.704,180.723l-0.704,25.599l42.472,1.165l0.917-33.303
			C170.542,182.266,152.938,181.592,145.704,180.723z"/>
		<path fill="#D88D6C" d="M188.39,174.184l0.705-25.655l-42.472-1.166l-0.919,33.36C152.938,181.592,170.542,182.266,188.39,174.184
			z"/>
	</g>
	<path fill="#F4A984" d="M215.059,95.74l-8.514,11.45c-1.232-3.394-2.196-6.921-2.95-10.467
		c-4.365-20.515-1.578-41.662-1.578-41.662c-47.488,15.701-86.654,0.65-86.654,0.65c1.064,23.177-11.271,74.561,5.117,101.539
		c4.882,8.038,12.308,13.915,23.406,16.227c48.346,10.071,64.516-40.986,64.516-40.986s16.363-0.283,20.609-22.605
		C232.534,91.394,215.059,95.74,215.059,95.74z"/>
	<path fill="#131917" d="M143.172,106.415c-0.49,4.983-3.415,8.778-6.531,8.469c-3.116-0.306-5.243-4.594-4.751-9.58
		c0.491-4.984,3.416-8.775,6.531-8.469C141.539,97.142,143.666,101.43,143.172,106.415z"/>
	<path fill="#131917" d="M186.083,109.425c-0.49,4.983-3.416,8.778-6.532,8.47c-3.116-0.309-5.245-4.598-4.75-9.581
		c0.493-4.984,3.417-8.776,6.531-8.471C184.448,100.151,186.577,104.442,186.083,109.425z"/>
	<g>
		<path fill="#D88D6C" d="M150.6,133.076c-9.86,2.515-14.305-2.558-14.086-7.024c0.143-2.91,2.122-5.244,5.035-5.953
			c5.997-1.455,11.193-9.661,11.246-9.746l0,0c-0.246,2.014-3.299,9.301-11.094,12.526c-1.684,0.698-2.787,1.524-2.859,2.962
			C138.717,128.346,141.801,132.525,150.6,133.076L150.6,133.076z"/>
	</g>
	<g>
		<path fill="#131917" d="M121.67,85.67l-0.268-2.854c0.618-0.017,10.478-2.171,21.841-0.638l-0.123,4.447
			C133.84,84.774,121.824,85.666,121.67,85.67z"/>
	</g>
	<g>
		<path fill="#131917" d="M190.761,90.631c-7.477-3.334-21.586-4.596-21.717-4.631l1.134-4.004
			c0.551,0.141,13.348,1.231,21.664,6.219L190.761,90.631z"/>
	</g>
	<path fill="#3F362D" d="M115.921,6.537c0,0,19.311,20.957,66.762,23.297c0,0-32.08,20.024-73.571,3.516
		C109.112,33.349,98.255,7.682,115.921,6.537z"/>
	<path fill="#162644" d="M251.821,212.596c0,0-24.201-13.192-53.663-19.604c-7.596,39.897-51.411,151.636-51.411,151.636
		c-17.074-59.476-13.513-135.841-13.683-153.167c-13.409,2.107-29.999,4.412-43.365,10.647c0,0-18.003,80.739-10.076,264.582
		c0,0,59.843,21.485,155.89,3.194c0,0-9.035-128.756,3.442-179.104C238.955,290.781,247.874,244.242,251.821,212.596z"/>
	<path fill="#111D36" d="M238.955,290.781c0,0,3.979-20.767,7.8-43.989l-16.461,4.616c-4.623,27.014-22.3,66.867-22.3,66.867
		c-10.465,11.761-32.18,4.23-51.994,2.243c-5.496,14.534-9.252,24.11-9.252,24.11c-2.437-8.492-4.452-17.329-6.121-26.287
		c-14.905-2.671-30.434-6.104-34.566-7.273c-10.64-3.011-12.237-48.936-12.237-48.936l-9.401-26.723
		c-2.938,28.488-6.133,78.514-4.847,155.842c13.067,2.179,39.748,4.824,65.108-3.717c0,0,38.442,13.324,52.72,14.696
		c10.702,1.026,25.424,9.126,34.788,23.785C231.039,386.592,230.782,323.762,238.955,290.781z"/>
	<path fill="#162644" d="M89.699,202.109c0,0-20.784-6.623-36.329,69.431c-11.179,54.695-8.851,90.396-2.161,92.61
		c6.691,2.216,49.103,20.409,122.543-14.961l-8.713-12.251l-71.797-9.639l0.621-69.423L89.699,202.109z"/>
	<path fill="#F0F2F1" d="M145.63,183.395c0,0,1.964,14.795,15.556,20.809c0,0,25.305-4.322,27.088-20.841l12.766,12.439
		c0,0-7.82,23.646-27.429,30.948l-12.257-18.66l-16.66,15.391c0,0-15.403-18.411-14.084-30.443L145.63,183.395z"/>
	<path fill="#111D36" d="M119.988,247.912l-7.415,6.725c0,0,19.823,77.859,34.07,106.084c0,0,41.123-68.781,54.07-98.836
		l-6.188-9.807l13.574-4.166c0,0,5.44-28.449,3.918-51.343c-4.43-1.313-9.073-2.536-13.859-3.577
		c-7.596,39.897-51.411,151.636-51.411,151.636c-17.074-59.476-13.513-135.841-13.683-153.167
		c-3.938,0.619-8.253,1.527-12.714,2.649l-9.483,44.961L119.988,247.912z"/>
	<path fill="#111D36" d="M165.038,336.938l-71.797-9.639c0,0,28.515,23.497,31.147,40.255c13.736-3.353,30.075-9.075,49.363-18.365
		L165.038,336.938z"/>
	<path fill="#F4A984" d="M137.646,323.283c-38.082-18.417-44.405,4.016-44.405,4.016c11.635,8.16,22.601,15.113,32.887,21.047
		C133.212,335.512,137.646,323.283,137.646,323.283z"/>
	<path fill="#E5EAE8" d="M149.337,323.009l-10.377-1.586c0,0-12.858,8.72-12.832,26.922c3.601,2.077,7.114,4.022,10.544,5.855
		C141.335,339.068,146.298,330.015,149.337,323.009z"/>
	<path fill="#162644" d="M251.821,212.596c-19.965-4.264-37.975,120.286-37.975,120.286l-64.155-11.206
		c-5.213,5.335-15.599,20.097-14.644,34.925c63.635,33.984,99.749,24.876,99.749,24.876s23.907,3.315,30.81-77.705
		C272.511,222.75,251.821,212.596,251.821,212.596z"/>
	<path fill="#F4A984" d="M188.39,328.435c0,0,24.151-15.819,28.915-16.866c4.747-1.043,22.338-7.176,22.338-7.176
		s2.072,2.586-0.776,5.432c-2.85,2.845-13.561,5.432-13.561,5.432s12.524,1.553,17.446,4.398c0,0,2.16,5.001-3.541,5.345
		c0,0,6.391,4.138-1.381,5.711c0,0-7.686-1.811-10.624-1.226l9.848,7.33c0,0,0.518,2.242-3.799,2.068
		c-4.32-0.171-10.539-8.88-19.408-6.002L188.39,328.435z"/>
	<g>
		<path fill="#56362E" d="M139.473,140.48c0,0,12.179,3.174,31.221-1.54c0,0-3.915,15.784-17.056,15.399
			C141.936,153.998,139.473,140.48,139.473,140.48z"/>
		<g>
			<defs>
				<path id="SVGID_41_" d="M139.473,140.48c0,0,12.179,3.174,31.221-1.54c0,0-3.915,15.784-17.056,15.399
					C141.936,153.998,139.473,140.48,139.473,140.48z"/>
			</defs>
			<clipPath id="SVGID_4_">
				<use xlink:href="#SVGID_41_"  overflow="visible"/>
			</clipPath>
			<path clip-path="url(#SVGID_4_)" fill="#FFFFFF" d="M139.858,139.919c0,0,12.678,3.662,29.978-1.477c0,0-2.629,6.643-16.435,6.88
				C141.133,145.534,139.858,139.919,139.858,139.919z"/>
		</g>
	</g>
	<g>
		<circle fill="#FFFFFF" cx="200.057" cy="275.442" r="18.158"/>
		<g>
			<g>
				<g>
					<path fill="#112F55" d="M202.776,260.817L190.69,261.5l-3.236,16.278c-1.044,5.253,8.24,12.658,9.388,12.886
						c1.148,0.228,12.559-3.062,13.603-8.315l3.236-16.278L202.776,260.817z"/>
				</g>
			</g>
			<g>
				<g>
					<path fill="#112F55" d="M202.593,261.738l-11.336,0.621l-3.04,15.292c-0.98,4.929,7.731,11.877,8.809,12.091
						c1.077,0.214,11.784-2.873,12.764-7.802l3.04-15.292L202.593,261.738z"/>
				</g>
			</g>
			<g>
				<g>
					<path fill="#FBB336" d="M199.855,275.508l-10.483,0.497l-0.299,1.505c-0.908,4.565,7.16,10.999,8.158,11.198
						c0.998,0.198,10.913-2.661,11.821-7.226l0.299-1.505L199.855,275.508z"/>
				</g>
			</g>
			<g>
				<g>
					<path fill="#FBB336" d="M202.478,262.318l-10.499,0.575l-1.907,9.592c-0.908,4.565,8.762,2.953,9.77,3.089
						c1.71,0.23,9.301,5.448,10.209,0.883l1.907-9.592L202.478,262.318z"/>
				</g>
			</g>
			<g>
				<g>
					<path fill="#FFFFFF" d="M207.14,271.105l-0.257,0.637l-1.148,0.6l-1.3-2.886l-1.499-3.48l-0.69-1.353l-1.747,2.208
						l-2.035,2.359l-1-1.737c-3.248,2.667-5.902,4.736-6.851,5.406c0.322-0.016,0.676-0.045,0.976,0.017
						c0.224,0.046,0.465,0.007,0.691,0.046c-0.029-0.006,0.104,0.01,0.112,0.011c0.04,0.003,0.081,0.005,0.121,0.008
						c0.101,0.006,0.202,0.013,0.302,0.019c0.202,0.013,0.403,0.026,0.605,0.039c1.412,0.09,2.814,0.225,4.211,0.454
						c1.358,0.223,2.702,0.513,4.047,0.798c0.936,0.198,1.864,0.452,2.769,0.769c0.092-0.036,0.194-0.047,0.29-0.028
						c0.12,0.024,0.216,0.089,0.284,0.177c0.058-0.009,0.117-0.008,0.174,0.004c0.622,0.128,1.208,0.386,1.777,0.664
						c0.067-0.014,0.135-0.015,0.202,0c0.322,0.069,0.628,0.209,0.932,0.333c0.074,0.03,0.149,0.06,0.223,0.088
						c0.003,0.001,0.007,0.002,0.011,0.004c0.041,0.013,0.081,0.027,0.123,0.038c0.064,0.018,0.129,0.029,0.194,0.044c0,0,0,0,0,0
						c0.024-0.003,0.053,0,0.076-0.002c0.159-0.011,0.299,0.056,0.396,0.164c0.082,0.011,0.163,0.023,0.244,0.038
						C208.119,274.788,207.14,271.105,207.14,271.105"/>
				</g>
			</g>
			<g>
				<g>
					<path fill="#112F55" d="M190.766,272.825c1.87-0.986,3.087-2.082,3.126-2.074c0.043,0.008-0.246,0.945-0.246,0.945l0.524-0.431
						L193.467,273c0.089,0.006,0.178,0.012,0.266,0.018c0.091-0.113,0.188-0.241,0.281-0.383c0.365-0.551,1.031-1.114,1.074-1.124
						c0.043-0.009,0.353,0.758,0.353,0.758l0.408-0.56c0,0,0.015,1.19,0.03,1.264c0.015,0.074,0.559-1.045,0.559-1.045l0.16,1.324
						c0.255-1.315,1.034-1.982,1.034-1.982l0.492,0.43l-0.04-0.929l0.364,0.512l-0.149,0.662l-0.912,1.465
						c0.081,0.013,0.163,0.026,0.244,0.039c0.03,0.005,0.06,0.01,0.09,0.015l0.601-0.807l0.453,0.707l1.36-1.069l0.067,0.81
						l-0.273,0.775c0.086,0.018,0.171,0.035,0.257,0.053l0.356-1.117l0.396-0.385l0.032,1.37l1.508-1.874l0.334,1.516l0.119-1.944
						c0,0,0.577,0.34,0.839,0.692s1.009,1.681,1.009,1.681l-0.262-1.503l-1.617-2.275l-0.217,0.933l-0.638,0.516l0.074-0.907
						l-0.571,0.086l0.253-1.546l-0.569,0.264l-0.373-1.223l0.887-2.058l0.341-0.636l0.496,1.353l1.58,2.67l1.198,2.9
						c-0.388,1.042,0.036,2.696,0.036,2.696c0.379-0.565,0.356-1.243,0.356-1.243c0.146,0.241,0.352,0.652,0.352,0.652
						c-0.016-0.127,0.109-0.458,0.109-0.458l0.8,1.021l0.789,0.168l-0.598-0.912l0.476,0.321c-0.366-0.637-0.78-1.473-0.78-1.473
						l-0.029-1.042l0.329-0.318c0.705,2.642,1.72,4.129,2.152,4.676c0.017,0.003,0.034,0.006,0.051,0.009
						c-1.243-1.968-2.188-5.8-2.188-5.8s-0.511,0.688-0.509,0.795c0.001,0.107-0.974,0.528-0.974,0.528s-0.893-2.206-1.306-2.963
						c-0.414-0.757-1.385-3.247-1.385-3.247l-0.836-1.794l-2.561,3.235l-0.396,0.639l-0.855,0.801l-0.972-1.578
						c-2.042,1.897-6.046,4.811-7.171,5.661C190.307,272.82,190.707,272.824,190.766,272.825"/>
				</g>
			</g>
			<g>
				<g>
					<path fill="#FFFFFF" d="M197.344,267.712l0.833,1.338l-0.424,0.436l-0.134-0.451c0,0-0.269,1.366-0.962,2.031l0.067-1.529
						l-0.797,0.326l0.276-1.072L197.344,267.712z"/>
				</g>
			</g>
			<g>
				<g>
					<path fill="#112F55" d="M211.183,285.659c-8.204-3.842-16.627-5.516-25.677-5.105c-0.112-2.586-0.225-5.173-0.337-7.759
						c10.294-0.495,19.972,1.429,29.294,5.824C213.369,280.965,212.276,283.312,211.183,285.659"/>
				</g>
			</g>
			<g>
				<g>
					<path fill="#112F55" d="M186.196,273.577l0.199,6.227c4.301-0.106,8.358,0.233,12.4,1.037c4.042,0.804,7.92,2.042,11.854,3.785
						l2.566-5.677c-4.306-1.923-8.747-3.347-13.202-4.233C195.558,273.83,190.909,273.447,186.196,273.577"/>
				</g>
			</g>
			<g>
				<g>
					<polygon fill="#FFFFFF" points="188.817,279.215 188.963,274.034 191.256,274.095 191.23,275.035 189.901,274.998 
						189.869,276.146 190.962,276.177 190.936,277.117 189.842,277.086 189.808,278.306 191.136,278.343 191.11,279.28 					"/>
				</g>
			</g>
			<g>
				<g>
					<polygon fill="#FFFFFF" points="194.732,274.374 193.445,279.471 192.175,279.36 191.789,274.116 192.76,274.201 
						192.918,278.177 193.764,274.289 					"/>
				</g>
			</g>
			<g>
				<g>
					<polygon fill="#FFFFFF" points="194.62,279.594 195.348,274.462 197.619,274.78 197.487,275.711 196.171,275.525 
						196.01,276.662 197.093,276.816 196.961,277.747 195.878,277.593 195.707,278.801 197.023,278.988 196.891,279.916 					"/>
				</g>
			</g>
			<g>
				<g>
					<path fill="#FFFFFF" d="M197.453,280.009l1.003-5.085l1.297,0.256c0.214,0.042,0.396,0.104,0.547,0.184
						c0.151,0.081,0.269,0.185,0.355,0.312c0.086,0.127,0.14,0.278,0.161,0.454c0.021,0.176,0.009,0.379-0.037,0.611l-0.113,0.575
						c-0.041,0.205-0.121,0.38-0.241,0.524c-0.12,0.144-0.261,0.259-0.424,0.345c0.054,0.057,0.098,0.114,0.133,0.172
						c0.035,0.058,0.059,0.123,0.074,0.197c0.014,0.073,0.021,0.159,0.019,0.257c-0.002,0.098-0.011,0.217-0.027,0.358l-0.09,0.701
						c-0.018,0.15-0.016,0.279,0.007,0.389c0.022,0.11,0.045,0.206,0.068,0.29l-0.98-0.193c-0.004-0.013-0.011-0.04-0.02-0.082
						c-0.009-0.042-0.017-0.093-0.024-0.151c-0.007-0.058-0.012-0.123-0.015-0.196c-0.003-0.072,0-0.145,0.01-0.217l0.084-0.706
						c0.017-0.122,0.02-0.224,0.01-0.306c-0.01-0.082-0.031-0.149-0.061-0.201c-0.03-0.052-0.067-0.091-0.111-0.117
						c-0.044-0.026-0.089-0.042-0.136-0.049l-0.164-0.032l-0.375,1.899L197.453,280.009z M199.832,276.543
						c0.026-0.134,0.019-0.235-0.022-0.305c-0.041-0.069-0.123-0.116-0.248-0.141l-0.338-0.066l-0.265,1.344l0.338,0.067
						c0.125,0.025,0.221,0.005,0.288-0.058c0.067-0.063,0.111-0.148,0.132-0.255L199.832,276.543z"/>
				</g>
			</g>
			<g>
				<g>
					<polygon fill="#FFFFFF" points="200.592,280.651 201.869,275.628 204.093,276.19 203.861,277.101 202.573,276.774 
						202.29,277.887 203.35,278.156 203.118,279.068 202.058,278.798 201.758,279.981 203.046,280.308 202.815,281.216 					"/>
				</g>
			</g>
			<g>
				<g>
					<path fill="#FFFFFF" d="M206.115,280.919c-0.129,0.414-0.327,0.698-0.593,0.85c-0.267,0.153-0.617,0.161-1.05,0.026
						c-0.234-0.073-0.422-0.162-0.565-0.267c-0.142-0.105-0.245-0.227-0.309-0.366c-0.064-0.139-0.092-0.296-0.085-0.471
						c0.007-0.175,0.044-0.369,0.11-0.582l0.123-0.394l0.918,0.286l-0.121,0.387c-0.02,0.065-0.034,0.125-0.04,0.179
						c-0.006,0.054-0.002,0.102,0.013,0.143c0.014,0.041,0.04,0.077,0.077,0.108c0.037,0.03,0.087,0.056,0.15,0.075
						c0.13,0.041,0.229,0.033,0.298-0.023c0.069-0.056,0.12-0.139,0.155-0.25l0.011-0.036c0.026-0.082,0.046-0.157,0.061-0.224
						c0.015-0.067,0.021-0.131,0.019-0.192c-0.002-0.061-0.016-0.121-0.04-0.18c-0.025-0.059-0.063-0.121-0.116-0.188l-0.364-0.46
						c-0.139-0.172-0.244-0.325-0.313-0.46c-0.07-0.135-0.115-0.265-0.134-0.39c-0.019-0.125-0.017-0.252,0.006-0.38
						c0.023-0.128,0.06-0.274,0.111-0.437l0.031-0.101c0.07-0.223,0.156-0.406,0.26-0.547c0.104-0.141,0.223-0.246,0.359-0.315
						c0.136-0.068,0.287-0.101,0.454-0.099c0.167,0.002,0.35,0.034,0.55,0.096c0.41,0.128,0.682,0.322,0.816,0.583
						c0.134,0.261,0.133,0.61-0.004,1.048l-0.134,0.429l-0.921-0.287l0.14-0.449c0.031-0.107,0.035-0.197,0.013-0.271
						c-0.022-0.074-0.089-0.128-0.199-0.162c-0.113-0.035-0.202-0.027-0.268,0.025c-0.066,0.052-0.116,0.135-0.149,0.248
						l-0.028,0.091c-0.03,0.105-0.04,0.216-0.029,0.334c0.011,0.117,0.057,0.224,0.14,0.318l0.328,0.366
						c0.135,0.154,0.24,0.301,0.314,0.441c0.074,0.14,0.124,0.279,0.15,0.418c0.026,0.139,0.03,0.28,0.013,0.423
						c-0.017,0.143-0.049,0.295-0.093,0.455L206.115,280.919z"/>
				</g>
			</g>
			<g>
				<g>
					<polygon fill="#FFFFFF" points="209.078,278.814 207.605,282.797 206.694,282.46 208.167,278.477 207.406,278.196 
						207.731,277.317 210.161,278.215 209.836,279.094 					"/>
				</g>
			</g>
		</g>
	</g>
</g>
</svg>
