<svg width="481" height="291" viewBox="0 0 481 291" fill="none" xmlns="http://www.w3.org/2000/svg">
<g opacity="0.7" clip-path="url(#clip0)">
<path d="M455.905 174.859C455.905 174.859 472.522 186.679 473.575 218.24C474.627 249.8 478.838 294.09 478.838 294.09C478.838 294.09 516.732 351.844 524.101 366.047C524.101 366.047 509.364 397.552 471.47 388.637C471.47 388.637 443.576 325.544 437.786 300.822L455.905 174.859Z" fill="#360F22"/>
<path d="M520.124 292.733L517.355 290.804L409.039 360.443L409.946 363.65L520.124 292.733Z" fill="#873A22"/>
<path d="M398.947 292.056C398.947 292.056 356.108 205.2 334.121 154.654C357.803 145.79 392.39 147.131 414.89 158.357C417.16 179.96 426.232 243.825 398.947 292.056Z" fill="#D4D6D5"/>
<path d="M401.453 175.159L393.752 188.748L412.55 271.897L399.802 288.4L384.024 272.785L385.323 189.366L378.63 178.629L388.156 164.787L401.453 175.159Z" fill="#111D36"/>
<path d="M400.9 144.324C400.9 144.324 399.152 159.92 388.156 164.787C388.156 164.787 364.544 154.654 358.85 142.091L340.84 152.486C340.84 152.486 356.141 175.322 378.104 183.039L388.02 167.932L401.495 180.394C401.495 180.394 413.956 165.487 412.888 155.744L400.9 144.324Z" fill="#F0F2F1"/>
<path d="M420.547 47.7005C420.547 47.7005 419.501 139.185 414.435 146.274C409.369 153.366 401.493 159.923 378.985 159.923C356.475 159.923 341.153 149.072 339.069 135.647C336.985 122.221 337.421 107.389 337.421 107.389C337.421 107.389 322.944 109.271 322.105 92.7278C321.267 76.1846 332.84 72.2704 339.069 80.5107L339.866 43.8593C339.866 43.8593 345.019 23.6843 382.741 21.7293C420.464 19.7753 420.351 41.8354 420.547 47.7005Z" fill="#F4A984"/>
<path d="M420.452 54.1912C420.452 54.1912 426.74 7.81909 418.203 0C418.203 0 414.646 16.1714 398.16 15.8909C381.674 15.6125 339.94 15.0875 339.892 30.7401C339.843 46.3937 339.653 54.3155 339.653 54.3155H350.05C350.05 54.3155 374.639 39.8372 414.122 53.3426C416.311 54.0916 417.997 53.7536 420.452 54.1912Z" fill="#D65730"/>
<path d="M418.242 108.844C418.242 108.844 342.262 119.815 341.472 82.9537V80.6525L338.762 80.5107C338.762 80.5107 344.339 105.92 337.267 109.832C337.267 109.832 324.332 165.378 380.983 165.393C427.651 165.405 418.746 132.383 418.242 108.844Z" fill="#D65730"/>
<path d="M350.049 54.3155C350.049 54.3155 342.643 68.3911 342.085 81.0973L339.069 81.1795L339.652 54.3155H350.049V54.3155Z" fill="#D88D6C"/>
<path d="M399.094 87.4945C399.094 90.2899 401.175 92.5552 403.745 92.5552C406.313 92.5552 408.395 90.2899 408.395 87.4945C408.395 84.7002 406.313 82.4349 403.745 82.4349C401.175 82.4349 399.094 84.7002 399.094 87.4945Z" fill="#56362E"/>
<path d="M363.347 87.4945C363.347 90.2899 365.43 92.5552 367.998 92.5552C370.566 92.5552 372.649 90.2899 372.649 87.4945C372.649 84.7002 370.566 82.4349 367.998 82.4349C365.43 82.4349 363.347 84.7002 363.347 87.4945Z" fill="#56362E"/>
<path d="M391.954 110.383C393.069 110.383 394.253 110.164 395.369 109.717C398.201 108.586 400.066 106.194 400.487 103.159C400.703 101.601 400.475 100.403 399.788 99.499C398.743 98.1193 396.96 97.8769 395.389 97.6611C393.597 97.4156 392.479 97.2173 392.082 96.2126C390.879 93.1644 391.206 83.905 391.434 80.5959L390.633 82.9527C390.545 84.2297 388.115 93.0114 389.744 97.1361C390.699 99.5566 393.109 99.8874 395.046 100.151C396.187 100.308 397.368 100.469 397.783 101.016C398.041 101.357 398.113 101.962 397.994 102.815C397.592 105.712 395.626 107.063 394.498 107.592C392.888 108.348 392.275 108.823 389.795 108.544L388.434 108.194C389.351 108.924 390.5 110.383 391.954 110.383Z" fill="#D88D6C"/>
<path d="M377.515 78.7046C377.515 78.7046 378.32 72.0012 376.83 70.8588C375.341 69.7164 360.934 71.467 357.681 74.2326C357.681 74.2326 354.678 79.3754 356.16 80.9113C357.64 82.4451 366.864 76.5348 377.515 78.7046Z" fill="#D65730"/>
<path d="M393.734 79.5131C393.734 79.5131 393.266 72.8559 394.707 71.6447C396.148 70.4314 409.548 71.4927 412.474 74.099C412.474 74.099 415.064 79.095 413.614 80.6987C412.165 82.3044 403.788 76.84 393.734 79.5131Z" fill="#D65730"/>
<path d="M336.768 114.52C344.995 165.074 398.409 156.188 414.89 152.179C409.905 160.074 400.11 165.399 381.371 165.393C334.835 165.38 335.166 127.906 336.768 114.52Z" fill="#BC4226"/>
<path d="M401.869 47.8751C401.996 47.8751 402.125 47.8443 402.248 47.7837C402.49 47.6594 426.365 35.0529 419.356 1.52766C419.26 1.07563 418.815 0.787976 418.364 0.87941C417.91 0.973925 417.62 1.41774 417.715 1.87079C424.456 34.1067 402.428 45.8091 401.487 46.291C401.074 46.5016 400.913 47.006 401.122 47.418C401.27 47.7077 401.563 47.8751 401.869 47.8751Z" fill="#E26649"/>
<path d="M385.57 46.0937C385.779 46.0937 385.988 46.0167 386.149 45.8615C386.585 45.4465 396.797 35.5614 395.006 26.341C394.141 21.8875 390.638 18.4058 384.592 15.9937C384.159 15.8221 383.673 16.0317 383.502 16.4611C383.331 16.8905 383.541 17.3785 383.971 17.5501C389.452 19.7373 392.611 22.8008 393.361 26.6595C394.977 34.9923 385.091 44.5548 384.991 44.6503C384.657 44.9698 384.644 45.5009 384.965 45.8348C385.129 46.0074 385.349 46.0937 385.57 46.0937Z" fill="#E26649"/>
<path d="M369.118 46.4256C369.563 46.4256 369.935 45.9078 369.954 45.4578C369.968 45.1547 370.213 37.8976 364.474 32.8359C359.455 28.4101 351.565 27.0345 341.024 28.8252C340.567 28.9032 340.26 29.3152 340.339 29.7713C340.416 30.2275 340.849 30.5254 341.305 30.4463C351.322 28.744 358.745 29.9398 363.364 34.0132C368.509 38.551 368.281 45.3222 368.279 45.389C368.258 45.8492 368.617 46.4256 369.08 46.4256C369.092 46.4256 369.105 46.4256 369.118 46.4256Z" fill="#E26649"/>
<path d="M401.569 164.427C401.8 164.427 402.032 164.331 402.196 164.144C418.606 145.599 411.129 112.312 410.801 110.905C410.697 110.453 410.249 110.172 409.797 110.277C409.344 110.382 409.065 110.832 409.169 111.283C409.246 111.62 416.775 145.141 400.941 163.034C400.635 163.381 400.667 163.911 401.014 164.217C401.172 164.357 401.371 164.427 401.569 164.427Z" fill="#E26649"/>
<path d="M343.533 154.654C343.661 154.654 343.79 154.625 343.91 154.563C355.021 148.961 350.67 101.976 350.479 99.9788C350.436 99.5196 350.029 99.1826 349.566 99.2237C349.105 99.2679 348.767 99.6778 348.811 100.138C350.08 113.427 351.536 148.841 343.156 153.067C342.742 153.275 342.576 153.78 342.785 154.192C342.932 154.484 343.227 154.654 343.533 154.654Z" fill="#E26649"/>
<path d="M356.979 164.148C356.993 164.148 357.008 164.148 357.023 164.146C359.297 164.027 361.292 162.981 362.955 161.035C372.51 149.845 368.546 111.376 368.374 109.745C368.324 109.283 367.901 108.959 367.451 109C366.991 109.048 366.656 109.46 366.707 109.92C366.749 110.313 370.769 149.304 361.68 159.948C360.31 161.551 358.758 162.378 356.936 162.473C356.474 162.498 356.119 162.892 356.144 163.354C356.165 163.8 356.536 164.148 356.979 164.148Z" fill="#E26649"/>
<path d="M380.063 168.093C380.157 168.093 380.249 168.077 380.342 168.045C398.231 161.774 391.127 113.039 390.815 110.967C390.746 110.509 390.315 110.19 389.862 110.262C389.403 110.331 389.089 110.758 389.156 111.216C389.23 111.709 396.377 160.648 379.786 166.462C379.349 166.615 379.12 167.093 379.273 167.53C379.393 167.876 379.718 168.093 380.063 168.093Z" fill="#E26649"/>
<path d="M401.451 116.536C401.451 116.536 386.199 117.397 366.597 114.817C366.597 114.817 370.966 132.456 385.637 132.024C398.699 131.641 401.451 116.536 401.451 116.536Z" fill="#56362E"/>
<path d="M400.9 117.387C400.9 117.387 385.908 118.962 367.429 115.735C367.429 115.735 370.485 121.737 385.899 122.003C399.593 122.24 400.9 117.387 400.9 117.387Z" fill="white"/>
<path d="M414.121 53.1064C414.121 53.1064 419.52 61.6579 419.947 77.0896L420.452 54.1912L414.121 53.1064Z" fill="#D88D6C"/>
<path d="M282.859 170.017C282.859 170.017 317.502 158.05 340.198 152.388C353.401 202.69 399.094 285.281 399.094 285.281C419.729 231.175 415.223 178.074 412.954 156.471C423.993 160.069 444.24 168.597 455.905 174.858C455.905 174.858 462.338 257.455 439.744 399.228C439.744 399.228 388.148 421.211 309.531 393.705C309.531 393.705 317.594 286.479 297.674 232.683C297.674 232.684 280.776 182.304 282.859 170.017Z" fill="#360F22"/>
<path d="M431.361 206.879L441.98 221.4C441.98 221.4 422.978 269.991 399.507 303.503C399.507 303.503 345.299 242.345 331.887 222.796L343.062 209.671L324.9 206.599L322.321 157.336C328.54 155.491 334.717 153.755 340.198 152.388C353.401 202.69 399.094 285.281 399.094 285.281C419.729 231.175 415.223 178.074 412.954 156.471C417.756 158.037 424.302 160.535 431.125 163.374L441.98 203.805L431.361 206.879Z" fill="#21010E"/>
<path d="M249.176 384.143C245.049 347.288 248.061 305.71 248.061 305.71C248.061 305.71 255.019 263.377 260.013 220.841C264.866 179.505 282.86 170.016 282.86 170.016C296.224 198.7 304.164 253.334 304.164 253.334L293.271 308.129C295.942 331.43 301.702 359.848 301.289 377.787C293.955 381.423 275.003 387.399 249.176 384.143Z" fill="#360F22"/>
<path opacity="0.8" d="M568 367.027L554.142 345.523L556.551 344.057L536.849 311.706L533.617 313.672L520.125 292.734L517.356 290.805L488.701 309.228C482.943 300.346 478.838 294.09 478.838 294.09C478.838 294.09 474.627 249.8 473.575 218.24C472.522 186.679 455.905 174.859 455.905 174.859C449.315 171.322 439.987 167.062 431.125 163.375C430.243 163.007 429.364 162.647 428.494 162.291C428.128 162.142 427.769 161.999 427.407 161.853C426.867 161.635 426.328 161.417 425.795 161.204C425.413 161.052 425.04 160.906 424.664 160.757C424.155 160.557 423.649 160.358 423.149 160.165C422.784 160.023 422.425 159.885 422.065 159.747C421.567 159.556 421.077 159.369 420.591 159.187C420.248 159.057 419.907 158.929 419.57 158.803C419.082 158.622 418.606 158.447 418.134 158.275C417.822 158.161 417.509 158.047 417.205 157.937C416.704 157.758 416.224 157.588 415.745 157.421C415.495 157.333 415.236 157.241 414.992 157.157C414.285 156.913 413.6 156.682 412.953 156.471C412.988 156.806 413.026 157.171 413.062 157.521C413.017 157.501 412.974 157.482 412.931 157.462C412.954 156.876 412.948 156.3 412.887 155.745L412.471 155.348C413.376 154.346 414.187 153.291 414.889 152.178C414.724 152.218 414.534 152.261 414.363 152.301C420.936 141.988 419.205 127.236 418.469 114.227C419.698 92.6621 420.25 66.2019 420.451 54.1882C420.456 54.1573 426.168 11.9562 419.266 1.32015C419.238 1.2657 419.208 1.21537 419.169 1.16913C418.868 0.725323 418.551 0.318496 418.202 -0.00100708C418.202 -0.00100708 418.09 0.475679 417.85 1.2205C417.766 1.34173 417.723 1.48453 417.711 1.63555C416.298 5.72848 411.407 16.1149 398.158 15.8899C381.673 15.6115 339.938 15.0865 339.89 30.7391C339.862 39.9615 339.784 46.478 339.725 50.2945L339.069 80.5107C332.841 72.2704 321.268 76.1846 322.106 92.7278C322.945 109.271 337.421 107.389 337.421 107.389C337.421 107.389 337.396 108.262 337.387 109.75C337.346 109.775 337.31 109.808 337.267 109.832C337.267 109.832 331.629 134.105 344.171 150.564L340.841 152.486C340.841 152.486 340.855 152.508 340.863 152.517C340.668 152.57 340.47 152.622 340.277 152.676C340.253 152.581 340.224 152.482 340.199 152.388C338.87 152.719 337.498 153.074 336.097 153.446C336.034 153.462 335.975 153.478 335.913 153.494C334.525 153.862 333.107 154.249 331.667 154.649C331.602 154.666 331.539 154.684 331.474 154.702C330.032 155.103 328.568 155.518 327.093 155.943C327.027 155.963 326.962 155.98 326.896 156C325.415 156.427 323.924 156.864 322.429 157.307C322.393 157.317 322.357 157.327 322.322 157.337C302.791 163.134 282.86 170.017 282.86 170.017C282.86 170.017 264.865 179.507 260.013 220.842C255.02 263.378 248.062 305.711 248.062 305.711C248.062 305.711 245.05 347.288 249.177 384.144C249.525 384.189 249.858 384.212 250.203 384.253C250.777 389.202 251.452 394.086 252.277 398.778C252.763 398.839 253.222 398.869 253.702 398.923C255.616 409.763 258.334 419.517 262.172 426.534C278.752 456.845 284.238 453.157 287.88 454.257C291.521 455.357 303.106 451.49 303.106 451.49C303.106 451.49 303.891 446.818 302.454 444.424C301.016 442.031 295.584 441.9 295.584 441.9C295.584 441.9 289.463 437.366 288.814 433.092C288.166 428.818 293.556 419.963 293.556 419.963L299.736 431.433C299.736 431.433 302.708 435.351 307.923 433.994C311.683 433.016 307.477 424.561 307.477 424.561C307.477 424.561 304.768 399.761 296.631 395.138C298.121 394.617 298.941 394.259 298.941 394.259C298.941 394.259 299.47 388.07 299.734 378.514C300.299 378.264 300.82 378.022 301.289 377.788C301.703 359.849 295.941 331.431 293.271 308.13L303.861 254.858C315.717 311.426 309.531 393.706 309.531 393.706C311.977 394.562 314.397 395.369 316.791 396.132L311.232 491.398V491.397L308.974 530.124C289.415 569.056 297.674 658.508 297.674 658.508C298.34 658.799 298.995 659.065 299.647 659.323C299.437 660.865 299.203 662.801 298.995 664.986C298.993 664.986 298.992 664.986 298.99 664.986C298.99 664.986 298.979 665.12 298.963 665.312C298.352 671.918 298.012 680.699 299.391 687.886H298.842V695.776H326.596L326.935 690.391C326.935 690.391 338.375 695.353 354.106 695.353C358.427 695.353 366.685 695.428 373.053 695.493V695.776H399.952L400.286 690.391C400.286 690.391 411.6 695.353 427.1 695.353C434.633 695.353 454.368 695.587 454.368 695.587V687.886H454.866C454.866 687.886 457.658 668.37 422.128 668.417L406.75 656.979C407.552 656.364 407.889 655.932 407.889 655.932C407.849 654.8 407.817 653.636 407.789 652.452C407.78 652.058 407.775 651.651 407.765 651.251C407.75 650.456 407.735 649.657 407.723 648.842C407.716 648.345 407.712 647.838 407.708 647.335C407.701 646.595 407.693 645.854 407.69 645.099C407.688 644.554 407.686 644.004 407.686 643.453C407.685 642.713 407.686 641.967 407.688 641.216C407.69 640.657 407.693 640.097 407.697 639.532C407.702 638.759 407.709 637.979 407.717 637.196C407.722 636.644 407.727 636.095 407.735 635.539C407.746 634.713 407.759 633.878 407.774 633.043C407.782 632.512 407.789 631.985 407.799 631.451C407.82 630.383 407.843 629.306 407.869 628.227C407.875 627.936 407.881 627.647 407.888 627.354C407.921 626.007 407.958 624.652 407.997 623.294C408.015 622.704 408.034 622.112 408.053 621.52C408.077 620.706 408.103 619.893 408.13 619.077C408.152 618.433 408.175 617.789 408.198 617.144C408.224 616.403 408.251 615.662 408.279 614.92C408.305 614.206 408.333 613.492 408.362 612.779C408.387 612.111 408.415 611.444 408.443 610.777C408.474 610.037 408.504 609.299 408.536 608.56C408.564 607.906 408.593 607.252 408.622 606.6C408.655 605.862 408.688 605.124 408.723 604.389C408.752 603.773 408.781 603.161 408.81 602.548C408.847 601.775 408.883 601.001 408.922 600.232C408.947 599.742 408.971 599.257 408.996 598.769C409.099 596.734 409.204 594.717 409.313 592.733C409.317 592.662 409.32 592.589 409.325 592.517C409.372 591.664 409.419 590.825 409.467 589.984C409.493 589.522 409.519 589.057 409.545 588.599C409.592 587.781 409.64 586.975 409.687 586.17C409.712 585.721 409.74 585.27 409.766 584.825C409.813 584.037 409.859 583.26 409.907 582.486C409.935 582.028 409.963 581.571 409.991 581.119C410.038 580.358 410.085 579.605 410.132 578.863C410.158 578.443 410.186 578.03 410.211 577.617C410.261 576.842 410.311 576.069 410.36 575.314C410.378 575.045 410.394 574.783 410.412 574.517C410.668 570.623 410.914 567.033 411.142 563.845C411.153 563.693 411.165 563.533 411.176 563.382C411.225 562.694 411.273 562.037 411.32 561.39C411.334 561.194 411.349 560.995 411.363 560.804C411.407 560.19 411.451 559.6 411.494 559.026C411.51 558.818 411.525 558.609 411.539 558.406C411.58 557.868 411.619 557.347 411.656 556.848C411.674 556.612 411.691 556.383 411.71 556.157C411.739 555.767 411.768 555.385 411.796 555.022C411.83 554.577 411.863 554.153 411.894 553.751C411.905 553.616 411.916 553.469 411.926 553.338C412.154 550.417 412.292 548.765 412.292 548.765C418.426 526.987 427.418 447.448 431.227 412.035C431.228 412.028 431.228 412.021 431.229 412.015C431.666 407.95 432.036 404.458 432.325 401.711C432.97 401.526 433.568 401.348 434.132 401.176L457.825 437.943L498.578 411.712L499.597 413.364C501.373 416.251 504.971 417.108 507.628 415.274L507.903 415.084C510.017 413.626 510.893 410.91 510.273 408.404L510.743 409.165C513.072 412.947 517.356 414.359 520.311 412.318L520.617 412.107C522.972 410.481 523.768 407.153 522.815 403.954C525.205 405.889 528.148 406.358 530.318 404.86L530.624 404.648C533.531 402.642 533.955 397.867 531.617 393.897C533.681 395.247 536.34 395.332 538.462 393.866L538.769 393.656C541.598 391.704 542.415 387.727 540.745 384.572L568 367.027ZM448.595 335.011C448.647 334.565 448.698 334.119 448.749 333.675C448.875 334.006 449.002 334.337 449.129 334.668L448.595 335.011ZM369.701 527.709C357.034 579.134 369.701 658.508 369.701 658.508C370.977 658.814 372.198 659.08 373.396 659.327C373.189 660.868 372.959 662.802 372.754 664.985C372.752 664.985 372.751 664.985 372.749 664.985C372.749 664.985 372.739 665.114 372.725 665.3C372.518 667.549 372.346 670.048 372.259 672.654C367.313 670.176 359.989 668.402 349.101 668.416L335.496 658.445C336.62 657.788 337.212 657.327 337.212 657.327C337.048 656.858 336.903 656.324 336.769 655.746C336.759 655.704 336.749 655.666 336.738 655.623C336.614 655.064 336.505 654.447 336.407 653.793C336.395 653.713 336.382 653.638 336.37 653.557C336.278 652.909 336.2 652.215 336.131 651.485C336.121 651.376 336.109 651.271 336.1 651.161C336.035 650.429 335.983 649.658 335.94 648.852C335.934 648.724 335.925 648.594 335.92 648.464C335.881 647.651 335.852 646.805 335.833 645.925C335.83 645.784 335.828 645.639 335.826 645.496C335.811 644.6 335.803 643.676 335.807 642.719C335.807 642.584 335.81 642.446 335.811 642.309C335.817 641.323 335.831 640.311 335.856 639.267C335.859 639.158 335.862 639.046 335.865 638.936C335.893 637.846 335.929 636.732 335.976 635.586C335.978 635.551 335.98 635.514 335.981 635.479C336.029 634.316 336.087 633.126 336.151 631.912C336.155 631.847 336.158 631.782 336.162 631.716C336.226 630.538 336.3 629.335 336.38 628.116C336.389 627.969 336.399 627.822 336.409 627.673C336.487 626.495 336.573 625.298 336.665 624.09C336.679 623.901 336.692 623.712 336.708 623.522C336.8 622.328 336.898 621.121 337 619.904C337.017 619.698 337.034 619.494 337.052 619.287C337.156 618.071 337.265 616.846 337.379 615.612C337.398 615.401 337.418 615.189 337.437 614.979C337.552 613.745 337.671 612.505 337.795 611.26C337.816 611.048 337.838 610.837 337.858 610.625C337.983 609.374 338.112 608.118 338.244 606.862C338.264 606.671 338.284 606.48 338.305 606.289C338.441 605.001 338.581 603.714 338.723 602.428C338.738 602.293 338.753 602.16 338.768 602.025C338.912 600.724 339.06 599.427 339.21 598.135C339.217 598.068 339.225 598 339.234 597.933C339.385 596.64 339.536 595.353 339.689 594.074C339.712 593.888 339.733 593.7 339.756 593.515C339.904 592.296 340.052 591.088 340.201 589.889C340.228 589.663 340.256 589.436 340.284 589.211C340.428 588.053 340.573 586.908 340.718 585.774C340.752 585.509 340.786 585.243 340.82 584.98C340.961 583.885 341.102 582.805 341.241 581.738C341.278 581.461 341.314 581.183 341.351 580.908C341.492 579.847 341.63 578.799 341.769 577.772C341.803 577.526 341.835 577.283 341.868 577.039C342.009 576 342.148 574.978 342.285 573.981C342.315 573.764 342.345 573.552 342.373 573.338C342.513 572.331 342.651 571.34 342.785 570.382C342.809 570.216 342.831 570.055 342.855 569.891C342.983 568.98 343.109 568.09 343.232 567.228C343.262 567.011 343.293 566.799 343.324 566.585C343.435 565.812 343.544 565.064 343.648 564.337C343.68 564.119 343.712 563.895 343.743 563.682C343.845 562.984 343.942 562.322 344.037 561.672C344.083 561.359 344.13 561.043 344.175 560.741C344.261 560.153 344.345 559.589 344.426 559.046C344.465 558.785 344.504 558.523 344.541 558.274C344.618 557.76 344.692 557.273 344.761 556.809C344.802 556.542 344.842 556.279 344.88 556.028C344.942 555.621 345.001 555.231 345.056 554.869C345.092 554.632 345.127 554.408 345.16 554.191C345.201 553.924 345.24 553.671 345.276 553.437C345.512 551.912 345.647 551.069 345.647 551.069C356.758 527.263 372.289 438.944 372.289 438.944L369.701 527.709Z" fill="url(#paint0_linear)"/>
</g>
<g opacity="0.8" clip-path="url(#clip1)">
<path d="M33.244 189.996C33.244 189.996 19.023 99.649 39.231 54.415C54.918 19.299 76.28 35.7 76.28 35.7C76.28 35.7 95.364 21.159 109.585 38.527C123.807 55.893 147.756 99.773 119.315 153.089C90.875 206.401 33.244 189.996 33.244 189.996Z" fill="#6A371A"/>
<path d="M35.356 170.613C35.356 170.613 14.781 185.451 7.329 276.636C7.329 276.636 -9.054 319.077 -18.418 355.712C-18.418 355.712 -11.101 365.737 4.31 362.877L34.018 278.947C34.018 278.946 46.761 174.687 35.356 170.613Z" fill="#131917"/>
<path d="M122.287 58.63C119.035 51.908 115.428 46.231 112.115 41.774C82.881 57.909 57.656 50.716 44.619 44.545C42.778 47.264 40.968 50.52 39.23 54.414C38.154 56.823 37.18 59.371 36.291 62.015C54.695 63.778 88.478 65.391 122.287 58.63Z" fill="#935C41"/>
<path d="M59.924 254.945L95.309 191.047L108.622 165.197C87.717 159.176 69.447 161.145 56.4 164.621L52.516 190.411C52.517 190.411 52.541 232.444 59.924 254.945Z" fill="#D4D6D5"/>
<path d="M69.531 153.848L69.449 174.864L95.202 174.965L95.31 147.624C84.603 154.614 73.927 154.413 69.531 153.848Z" fill="#F4A984"/>
<path d="M95.309 147.624L95.392 126.562L69.639 126.462L69.53 153.847C73.927 154.413 84.603 154.614 95.309 147.624Z" fill="#D88D6C"/>
<path d="M108.9 165.197L92.506 190.2L60.011 247.941C52.627 225.44 55.494 190.625 55.494 190.625L56.418 164.621C43.379 168.096 35.364 170.613 35.364 170.613L31.986 193.181C18.654 210.221 14.643 220.125 14.518 225.079C14.235 236.224 26.943 246.13 26.943 246.13L28.571 303.333C72.912 320.542 104.114 304.319 104.114 304.319C109.034 270.869 130.689 222.043 130.689 222.043V174.03C123.885 170.053 115.813 167.19 108.9 165.197Z" fill="#25302C"/>
<path d="M69.449 154.908C69.449 154.908 68.994 167.074 77.464 171.945C77.464 171.945 94.369 168.239 95.559 154.677L104.825 164.185C104.825 164.185 94.234 184.261 81.943 190.342L76.932 174.916L63.881 187.793C63.881 187.793 58.588 172.758 59.468 162.879L69.449 154.908Z" fill="#F0F2F1"/>
<path d="M44.829 202.655L38.845 209.163C38.845 209.163 46.698 243.979 59.37 262.376C59.37 262.376 95.188 229.824 104.826 212.844L96.509 204.635L108.623 204.35L120.613 169.467C116.537 167.74 112.532 166.322 108.623 165.196L92.367 190.2L59.94 247.941C52.558 225.44 55.459 190.625 55.459 190.625L56.401 164.621C52.583 165.638 49.188 166.271 46.328 167.383L37.175 200.389L44.829 202.655Z" fill="#1B2320"/>
<path d="M120.449 89.1L119.78 89.358C119.78 89.358 117.32 116.152 106.716 84.372C84.535 69.028 76.703 44.712 76.703 44.712C69.446 63.128 50.792 89.132 40.782 93.681C40.725 99.766 41.804 108.954 42.95 117.153C45.193 133.199 54.143 144.589 70.153 147.565C108.754 154.739 117.79 118.016 117.79 118.016C117.79 118.016 132.156 117.636 132.937 99.023C133.581 83.804 120.449 89.1 120.449 89.1Z" fill="#F4A984"/>
<path d="M78.246 57.891C78.246 57.891 89.493 77.328 106.716 84.372C84.486 68.964 76.703 44.712 76.703 44.712C70.252 61.082 54.801 83.43 44.418 91.395C51.557 88.106 63.978 79.636 78.246 57.891Z" fill="#D88D6C"/>
<path d="M114.248 114.246C114.248 114.246 105.177 141.514 83.916 145.418C70.975 147.797 59.511 142.776 52.517 138.485C56.928 143.045 62.792 146.196 70.154 147.565C108.755 154.739 117.791 118.016 117.791 118.016C117.791 118.016 129.166 117.624 132.214 104.571C123.304 118.243 114.248 114.246 114.248 114.246Z" fill="#D88D6C"/>
<path d="M64.249 125.007C64.249 125.007 74.243 127.612 89.869 123.743C89.869 123.743 86.656 136.696 75.873 136.38C66.271 136.101 64.249 125.007 64.249 125.007Z" fill="#56362E"/>
<path d="M64.566 124.547C64.566 124.547 74.97 127.552 89.167 123.335C89.167 123.335 87.009 128.786 75.68 128.981C65.612 129.155 64.566 124.547 64.566 124.547Z" fill="white"/>
<path d="M61.107 87.284C61.107 87.284 52.311 84.335 43.227 91.393C43.227 91.393 43.064 90.254 44.893 88.23C46.722 86.203 52.385 83.025 58.509 84.14C58.509 84.14 62.328 86.045 61.107 87.284Z" fill="#6A371A"/>
<path d="M81.559 88.396C81.559 88.396 89.943 84.422 99.804 90.35C99.804 90.35 99.83 89.199 97.771 87.407C95.714 85.613 89.713 83.133 83.764 84.966C83.765 84.966 80.202 87.312 81.559 88.396Z" fill="#6A371A"/>
<path d="M75.853 119.695C68.409 123.476 63.937 120.21 63.314 116.593C62.905 114.239 64.068 112.015 66.275 110.925C70.817 108.686 73.504 101.182 73.53 101.106C73.694 102.763 72.558 109.146 66.897 113.125C65.673 113.982 64.938 114.843 65.139 116.007C65.489 118.037 68.709 120.831 75.853 119.695Z" fill="#D88D6C"/>
<path d="M55.302 94.303C55.302 94.303 50.538 94.362 49.874 92.576C49.874 92.576 49.269 95.09 52.16 95.939C51.242 97.063 50.664 98.668 50.664 100.456C50.664 103.858 52.74 106.613 55.302 106.613C57.864 106.613 59.94 103.858 59.94 100.456C59.94 97.059 57.864 94.303 55.302 94.303Z" fill="#56362E"/>
<path d="M91.87 94.303C91.87 94.303 87.105 94.362 86.44 92.576C86.44 92.576 85.836 95.09 88.728 95.939C87.81 97.063 87.232 98.668 87.232 100.456C87.232 103.858 89.308 106.613 91.87 106.613C94.431 106.613 96.508 103.858 96.508 100.456C96.508 97.059 94.431 94.303 91.87 94.303Z" fill="#56362E"/>
<path d="M129.398 174.029C129.398 174.029 154.84 183.916 159.888 283.689C159.888 283.689 161.019 328.695 159.332 369.259C159.332 369.259 147.358 373.051 132.359 368.499L131.747 285.388C131.747 285.388 107.651 184.905 129.398 174.029Z" fill="#25302C"/>
<path opacity="0.8" d="M125.546 516.334L232.507 504.199L229.577 476.271L229.582 476.27L229.32 473.793C230.007 473.535 231.683 472.653 231.399 470.167C231.047 467.064 224.864 412.724 224.864 412.724L212.136 408.231L173.3 412.638C172.929 412.156 172.411 411.885 171.839 411.95L170.022 412.156L168.954 402.776C169.888 402.439 170.524 401.534 170.407 400.504L170.326 399.799C170.19 398.598 169.102 397.732 167.898 397.869L162.963 398.429C163.169 397.175 163.364 395.532 163.64 393.047C163.64 393.047 162.841 383.415 159.259 377.293C159.464 377.227 159.601 377.179 159.601 377.179V365.528L159.477 365.532C160.949 325.989 159.887 283.691 159.887 283.691C155.522 197.433 135.919 178.362 130.687 174.777V174.031C124.558 170.448 117.405 167.776 110.991 165.823C113.957 162.094 116.757 157.884 119.314 153.091C128.997 134.941 132.599 117.888 132.588 102.599C132.761 101.487 132.884 100.303 132.937 99.026C133.056 96.207 132.701 94.096 132.046 92.52C130.676 79.506 126.835 68.045 122.282 58.633C122.284 58.633 122.285 58.633 122.287 58.632C122.097 58.24 121.902 57.864 121.711 57.479C121.262 56.579 120.809 55.7 120.35 54.84C120.158 54.479 119.967 54.11 119.774 53.757C119.519 53.292 119.262 52.845 119.005 52.393C118.805 52.041 118.606 51.684 118.406 51.34C118.149 50.898 117.891 50.471 117.633 50.042C117.43 49.705 117.229 49.368 117.026 49.039C116.768 48.621 116.511 48.214 116.253 47.809C116.052 47.492 115.85 47.178 115.65 46.868C115.392 46.472 115.135 46.082 114.879 45.699C114.676 45.398 114.476 45.104 114.276 44.811C114.023 44.443 113.771 44.076 113.521 43.721C113.32 43.436 113.122 43.163 112.922 42.886C112.673 42.542 112.425 42.195 112.179 41.864C112.158 41.836 112.136 41.804 112.116 41.776C112.115 41.776 112.115 41.777 112.114 41.777C111.248 40.613 110.4 39.522 109.586 38.529C95.365 21.159 76.28 35.7 76.28 35.7C76.28 35.7 59.404 22.773 44.636 44.553C44.631 44.55 44.625 44.548 44.619 44.545C44.465 44.772 44.313 45.026 44.16 45.26C43.948 45.584 43.737 45.908 43.527 46.246C43.236 46.715 42.946 47.207 42.657 47.705C42.463 48.038 42.269 48.364 42.076 48.711C41.749 49.298 41.425 49.92 41.102 50.546C40.95 50.841 40.796 51.121 40.645 51.425C40.169 52.379 39.697 53.37 39.231 54.414C38.714 55.57 38.227 56.763 37.754 57.976C37.722 58.057 37.69 58.137 37.658 58.218C24.361 92.678 28.411 148.842 31.354 175.312C24.988 184.643 12.723 210.642 7.32999 276.636C7.32999 276.636 -9.05301 319.077 -18.417 355.712C-18.417 355.712 -18.072 356.17 -17.416 356.845L-19.359 364.387C-19.359 364.387 -18.687 365.055 -17.434 365.925C-18.693 369.473 -22.264 379.808 -22.724 384.194C-23.289 389.529 -18.558 400.879 -15.632 403.028C-15.632 403.028 -9.88401 406.693 -8.06001 408.173C-8.06001 408.173 -5.59501 409.205 -4.83701 405.451C-4.83701 405.451 -1.47701 405.885 -0.629007 403.08C-0.629007 403.08 2.36099 399.789 2.81099 394.101C2.81099 394.101 1.17099 387.39 -0.736008 384.646C-0.736008 384.646 2.28999 375.623 0.712992 369.594C1.12599 369.523 1.52699 369.472 1.95299 369.38L4.05699 362.913C4.14399 362.898 4.22299 362.894 4.31099 362.877L28.334 295.007L28.571 303.333C28.571 303.333 -6.86901 359.64 27.827 480.041C27.827 480.041 29.275 480.604 32.473 481.331C35.936 497.574 38.886 510.617 40.564 516.371C47.103 538.797 53.44 665.363 53.556 667.697C53.496 667.884 41.285 706.597 34.074 711.678L18.254 715.423C18.254 715.423 14.296 719.271 17.762 725.216H57.957L71.701 691.022L70.766 725.216H74.964L77.673 711.854C76.57 718.947 76.37 724.112 78.067 724.367H108.895C108.895 724.367 113.499 726.038 108.501 669.118H108.497C108.498 669.037 108.5 668.959 108.501 668.878C129.301 592.578 128.367 541.543 125.546 516.334ZM137.653 377.387C137.704 377.401 137.755 377.42 137.806 377.434C137.769 377.489 137.732 377.545 137.687 377.612C137.675 377.536 137.665 377.462 137.653 377.387ZM164.742 403.352L165.798 412.633L164.394 412.792C163.821 412.857 163.377 413.237 163.124 413.79L140.121 416.4C140.157 413.764 140.16 411.09 140.118 408.381C140.518 408.799 140.953 409.076 141.434 409.106C141.434 409.106 143.219 409.237 145.087 407.992C145.087 407.992 148.345 410.995 151.429 407.395C151.429 407.395 155.352 408.982 156.988 405.849C156.988 405.849 159.512 407.561 161.098 404.052C161.147 403.945 161.189 403.85 161.236 403.748L164.742 403.352ZM132.245 352.974C126.774 334.855 117.929 317.774 104.144 304.125C107.2 283.569 116.521 257.291 123.256 240.076C126.646 264.108 131.747 285.388 131.747 285.388L132.245 352.974ZM75.019 667.752C68.003 687.831 49.87 709.875 49.87 709.875H49.867C54.394 704.102 69.088 684.624 75 667.751H75.019C75.381 646.276 78.062 621.719 79.944 607.794C90.713 528.027 73.837 495.056 73.837 495.056C74.384 491.6 74.813 488.076 75.179 484.526C77.661 484.49 80.223 484.435 82.934 484.339C82.938 484.388 82.942 484.437 82.946 484.486C83.015 485.366 83.086 486.238 83.16 487.104C83.196 487.53 83.232 487.957 83.269 488.379C83.376 489.582 83.486 490.773 83.603 491.945C83.625 492.162 83.648 492.372 83.67 492.587C83.772 493.584 83.877 494.567 83.987 495.538C84.03 495.916 84.073 496.291 84.117 496.665C84.223 497.565 84.331 498.451 84.445 499.325C84.479 499.593 84.513 499.867 84.548 500.133C84.694 501.231 84.847 502.304 85.004 503.354C85.047 503.633 85.09 503.903 85.133 504.178C85.259 504.99 85.389 505.787 85.523 506.567C85.575 506.864 85.625 507.162 85.677 507.454C85.856 508.454 86.039 509.436 86.232 510.376C86.406 511.224 86.569 512.135 86.728 513.07C86.764 513.284 86.801 513.492 86.837 513.71C86.974 514.549 87.104 515.427 87.231 516.328C87.289 516.745 87.345 517.17 87.401 517.6C87.47 518.127 87.535 518.673 87.601 519.219C87.722 520.235 87.839 521.275 87.948 522.354C87.961 522.477 87.973 522.6 87.986 522.723C92.547 568.263 87.778 667.748 87.778 667.748L87.83 667.751L87.778 668.179C87.359 669.699 84.38 680.562 81.632 692.343L83.538 682.941C83.535 682.944 82.671 672.971 75.019 667.752Z" fill="url(#paint1_linear)"/>
</g>
<defs>
<linearGradient id="paint0_linear" x1="407.5" y1="695.776" x2="407.5" y2="-1.17646e-05" gradientUnits="userSpaceOnUse">
<stop offset="0.4022" stop-color="#FBB336"/>
<stop offset="0.9155" stop-color="#FBB336" stop-opacity="0.1413"/>
<stop offset="1" stop-color="#FBB336" stop-opacity="0"/>
</linearGradient>
<linearGradient id="paint1_linear" x1="104.868" y1="725.216" x2="104.868" y2="30" gradientUnits="userSpaceOnUse">
<stop offset="0.4022" stop-color="#FBB336"/>
<stop offset="0.9155" stop-color="#FBB336" stop-opacity="0.1413"/>
<stop offset="1" stop-color="#FBB336" stop-opacity="0"/>
</linearGradient>
<clipPath id="clip0">
<rect width="234" height="291" fill="white" transform="translate(247)"/>
</clipPath>
<clipPath id="clip1">
<rect width="233" height="261" fill="white" transform="translate(0 30)"/>
</clipPath>
</defs>
</svg>
