<?xml version="1.0" encoding="utf-8"?>
<!-- Generator: Adobe Illustrator 25.2.3, SVG Export Plug-In . SVG Version: 6.00 Build 0)  -->
<svg version="1.1" id="Capa_1" xmlns="http://www.w3.org/2000/svg" xmlns:xlink="http://www.w3.org/1999/xlink" x="0px" y="0px"
	 viewBox="0 0 100.812 100.812" enable-background="new 0 0 100.812 100.812" xml:space="preserve">
<g>
	<path fill="#575756" d="M0,74.442V26.371C0,11.867,11.866,0,26.371,0h48.071c14.504,0,26.371,11.867,26.371,26.371v48.071
		c0,14.504-11.867,26.371-26.371,26.371H26.371C11.867,100.812,0,88.946,0,74.442z"/>
	<path fill="#FFFFFF" d="M78.256,33.135c-1.745,0.789-3.676,1.269-5.56,1.585c0.894-0.15,2.207-1.769,2.734-2.424
		c0.804-0.998,1.47-2.136,1.845-3.365c0.048-0.096,0.083-0.216-0.012-0.289c-0.121-0.048-0.199-0.023-0.295,0.025
		c-2.103,1.127-4.278,1.944-6.592,2.522c-0.192,0.048-0.334,0-0.455-0.12c-0.192-0.217-0.372-0.421-0.576-0.589
		c-0.973-0.828-2.016-1.477-3.193-1.956c-1.545-0.63-3.233-0.897-4.897-0.789c-1.619,0.105-3.209,0.562-4.646,1.312
		c-1.44,0.752-2.725,1.799-3.748,3.061c-1.058,1.306-1.839,2.849-2.238,4.483c-0.386,1.578-0.354,3.139-0.119,4.733
		c0.036,0.264,0.012,0.3-0.228,0.264c-9.054-1.347-16.558-4.587-22.65-11.529c-0.264-0.301-0.408-0.301-0.625,0.023
		c-2.666,3.996-1.372,10.416,1.958,13.571c0.444,0.421,0.9,0.841,1.392,1.225c-0.179,0.037-2.396-0.203-4.371-1.225
		c-0.264-0.167-0.397-0.071-0.421,0.229c-0.024,0.432,0.012,0.829,0.072,1.298c0.512,4.05,3.317,7.797,7.158,9.259
		c0.456,0.192,0.96,0.361,1.452,0.444c-0.875,0.192-1.777,0.329-4.287,0.133c-0.312-0.06-0.432,0.096-0.312,0.396
		c1.886,5.141,5.958,6.671,9.007,7.542c0.408,0.071,0.817,0.071,1.226,0.167c-0.025,0.037-0.049,0.037-0.073,0.072
		c-1.011,1.542-4.518,2.69-6.151,3.26c-2.97,1.038-6.203,1.505-9.342,1.196c-0.502-0.074-0.608-0.068-0.744,0
		c-0.138,0.085-0.018,0.205,0.144,0.335c0.637,0.421,1.285,0.793,1.946,1.154c1.993,1.057,4.072,1.898,6.245,2.498
		c11.222,3.099,23.864,0.822,32.29-7.55c6.617-6.575,8.937-15.641,8.937-24.72c0-0.355,0.42-0.552,0.669-0.739
		c1.722-1.293,3.11-2.841,4.394-4.57c0.289-0.388,0.291-0.734,0.291-0.876c0-0.024,0-0.048,0-0.048
		C78.482,32.99,78.48,33.033,78.256,33.135z"/>
</g>
</svg>
