<?xml version="1.0" encoding="utf-8"?>
<!-- Generator: Adobe Illustrator 25.2.3, SVG Export Plug-In . SVG Version: 6.00 Build 0)  -->
<svg version="1.1" id="Capa_1" xmlns="http://www.w3.org/2000/svg" xmlns:xlink="http://www.w3.org/1999/xlink" x="0px" y="0px"
	 viewBox="0 0 100.813 100.813" enable-background="new 0 0 100.813 100.813" xml:space="preserve">
<g>
	<path fill="#1A2D52" d="M0,74.443V26.371C0,11.867,11.867,0,26.371,0l48.072,0c14.504,0,26.371,11.866,26.371,26.371v48.071
		c0,14.504-11.867,26.371-26.371,26.371H26.371C11.867,100.813,0,88.946,0,74.443z"/>
	<path fill="#FBB336" d="M77.393,43.077c0-6.685-5.419-12.104-12.104-12.104H34.338c-6.685,0-12.104,5.419-12.104,12.104V57.48
		c0,6.685,5.419,12.104,12.104,12.104h30.951c6.685,0,12.104-5.419,12.104-12.104V43.077z M59.191,51.358l-13.879,6.867
		c-0.544,0.294-2.393-0.1-2.393-0.718V43.411c0-0.627,1.864-1.02,2.408-0.71l13.286,7.228C59.17,50.247,59.755,51.053,59.191,51.358
		z"/>
</g>
</svg>
